<?plantuml 1.2026.2?><svg xmlns="http://www.w3.org/2000/svg" xmlns:xlink="http://www.w3.org/1999/xlink" contentStyleType="text/css" data-diagram-type="STATE" height="987.2917px" preserveAspectRatio="none" style="width:1379px;height:987px;background:#FFFFFF;" version="1.1" viewBox="0 0 1379 987" width="1379.5833px" zoomAndPan="magnify"><title>&#25511;&#21046;&#26435;&#29366;&#24577;&#26426;</title><defs/><g><g class="title" data-source-line="2"><text fill="#1F2A33" font-family="'Helvetica'" font-size="26.25" font-weight="bold" lengthAdjust="spacing" textLength="157.5" x="600.8627" y="34.7963">&#25511;&#21046;&#26435;&#29366;&#24577;&#26426;</text></g><g class="entity" data-qualified-name="Observer" id="ent0002"><rect fill="#EEF2F4" height="72.9167" rx="5.8333" ry="5.8333" style="stroke:#5E6A71;stroke-width:0.7292;" width="95.1349" x="912.45" y="905.625"/><line style="stroke:#5E6A71;stroke-width:0.7292;" x1="912.45" x2="1007.5849" y1="936.25" y2="936.25"/><text fill="#243039" font-family="'Helvetica'" font-size="16.0417" lengthAdjust="spacing" textLength="65.9682" x="927.0333" y="925.2691">Observer</text></g><g class="entity" data-qualified-name="PendingGrant" id="ent0003"><rect fill="#F6E6BE" height="72.9167" rx="5.8333" ry="5.8333" style="stroke:#9A6B18;stroke-width:0.7292;" width="128.1582" x="771.9833" y="71.4583"/><line style="stroke:#9A6B18;stroke-width:0.7292;" x1="771.9833" x2="900.1415" y1="102.0833" y2="102.0833"/><text fill="#243039" font-family="'Helvetica'" font-size="16.0417" lengthAdjust="spacing" textLength="98.9915" x="786.5667" y="91.1024">PendingGrant</text></g><g class="entity" data-qualified-name="Controller" id="ent0004"><rect fill="#DCECDD" height="72.9167" rx="5.8333" ry="5.8333" style="stroke:#3F7047;stroke-width:0.7292;" width="98.7067" x="409.0042" y="258.125"/><line style="stroke:#3F7047;stroke-width:0.7292;" x1="409.0042" x2="507.7108" y1="288.75" y2="288.75"/><text fill="#243039" font-family="'Helvetica'" font-size="16.0417" lengthAdjust="spacing" textLength="69.54" x="423.5875" y="277.7691">Controller</text></g><g class="entity" data-qualified-name="Preempting" id="ent0005"><rect fill="#F6E6BE" height="72.9167" rx="5.8333" ry="5.8333" style="stroke:#9A6B18;stroke-width:0.7292;" width="111.2001" x="627.3458" y="491.4583"/><line style="stroke:#9A6B18;stroke-width:0.7292;" x1="627.3458" x2="738.5459" y1="522.0833" y2="522.0833"/><text fill="#243039" font-family="'Helvetica'" font-size="16.0417" lengthAdjust="spacing" textLength="82.0334" x="641.9292" y="511.1024">Preempting</text></g><g class="entity" data-qualified-name="Released" id="ent0006"><rect fill="#ECE8F6" height="72.9167" rx="5.8333" ry="5.8333" style="stroke:#6E5A9A;stroke-width:0.7292;" width="96.9443" x="134.2542" y="608.125"/><line style="stroke:#6E5A9A;stroke-width:0.7292;" x1="134.2542" x2="231.1984" y1="638.75" y2="638.75"/><text fill="#243039" font-family="'Helvetica'" font-size="16.0417" lengthAdjust="spacing" textLength="67.7776" x="148.8375" y="627.7691">Released</text></g><g class="entity" data-qualified-name="Revoked" id="ent0007"><rect fill="#F6D8D5" height="72.9167" rx="5.8333" ry="5.8333" style="stroke:#9A4D46;stroke-width:0.7292;" width="92.4796" x="470.4438" y="724.7917"/><line style="stroke:#9A4D46;stroke-width:0.7292;" x1="470.4438" x2="562.9233" y1="755.4167" y2="755.4167"/><text fill="#243039" font-family="'Helvetica'" font-size="16.0417" lengthAdjust="spacing" textLength="63.3129" x="485.0271" y="744.4357">Revoked</text></g><g class="entity" data-qualified-name="Rejected" id="ent0008"><rect fill="#F6D8D5" height="72.9167" rx="5.8333" ry="5.8333" style="stroke:#9A4D46;stroke-width:0.7292;" width="92.4796" x="992.5271" y="374.7917"/><line style="stroke:#9A4D46;stroke-width:0.7292;" x1="992.5271" x2="1085.0066" y1="405.4167" y2="405.4167"/><text fill="#243039" font-family="'Helvetica'" font-size="16.0417" lengthAdjust="spacing" textLength="63.3129" x="1007.1104" y="394.4357">Rejected</text></g><g class="start_entity" data-qualified-name=".start." data-source-line="12" id="ent0002"><ellipse cx="1210.8542" cy="761.25" fill="#222222" rx="14.5833" ry="14.5833" style="stroke:#222222;stroke-width:1.4583;"/></g><g class="entity" data-qualified-name="GMN2" data-source-line="30" id="ent0003"><path d="M951.0375,71.4583 L951.0375,102.0833 L900.4479,107.9167 L951.0375,113.75 L951.0375,144.375 A5.8333,5.8333 0 0 0 956.8708,150.2083 L1196.5189,150.2083 A5.8333,5.8333 0 0 0 1202.3522,144.375 L1202.3522,80.2083 L1187.7689,65.625 L956.8708,65.625 A5.8333,5.8333 0 0 0 951.0375,71.4583" fill="#F7F5F1" style="stroke:#B7AEA1;stroke-width:0.7292;"/><path d="M1187.7689,65.625 L1187.7689,77.2917 A2.9167,2.9167 0 0 0 1190.6855,80.2083 L1202.3522,80.2083 L1187.7689,65.625" fill="#F7F5F1" style="stroke:#B7AEA1;stroke-width:0.7292;"/><text fill="#2D3135" font-family="'Helvetica'" font-size="17.5" lengthAdjust="spacing" textLength="157.5" x="991.3823" y="86.392">&#20027;&#36335;&#24452;&#20851;&#24515;&#19977;&#20214;&#20107;&#65306;</text><text fill="#2D3135" font-family="'Helvetica'" font-size="17.5" lengthAdjust="spacing" textLength="115.6897" x="1012.2875" y="103.892">- &#35841;&#30003;&#35831;&#25511;&#21046;&#26435;</text><text fill="#2D3135" font-family="'Helvetica'" font-size="17.5" lengthAdjust="spacing" textLength="161.4136" x="989.4256" y="121.392">- &#26159;&#21542;&#36827;&#20837; Controller</text><text fill="#2D3135" font-family="'Helvetica'" font-size="17.5" lengthAdjust="spacing" textLength="220.6897" x="959.7875" y="138.892">- &#33509;&#22833;&#36133;&#65292;&#26159;&#21542;&#32473;&#20986;&#25298;&#32477;&#21407;&#22240;</text></g><g class="entity" data-qualified-name="GMN5" data-source-line="37" id="ent0006"><path d="M616.5833,733.5417 L616.5833,788.9583 A5.8333,5.8333 0 0 0 622.4167,794.7917 L833.875,794.7917 A5.8333,5.8333 0 0 0 839.7083,788.9583 L839.7083,742.2917 L825.125,727.7083 L727.5917,727.7083 L689.9083,564.8708 L715.925,727.7083 L622.4167,727.7083 A5.8333,5.8333 0 0 0 616.5833,733.5417" fill="#F7F5F1" style="stroke:#B7AEA1;stroke-width:0.7292;"/><path d="M825.125,727.7083 L825.125,739.375 A2.9167,2.9167 0 0 0 828.0417,742.2917 L839.7083,742.2917 L825.125,727.7083" fill="#F7F5F1" style="stroke:#B7AEA1;stroke-width:0.7292;"/><text fill="#2D3135" font-family="'Helvetica'" font-size="17.5" lengthAdjust="spacing" textLength="181.853" x="630.6568" y="748.4753">Preempting &#26159;&#20998;&#25903;&#24577;&#65306;</text><text fill="#2D3135" font-family="'Helvetica'" font-size="17.5" lengthAdjust="spacing" textLength="192.5" x="625.3333" y="765.9753">&#23427;&#34920;&#36798;&#30340;&#26159;&#25511;&#21046;&#26435;&#31454;&#20105;&#65292;</text><text fill="#2D3135" font-family="'Helvetica'" font-size="17.5" lengthAdjust="spacing" textLength="175" x="634.0833" y="783.4753">&#19981;&#26159;&#26032;&#30340;&#31283;&#23450;&#25511;&#21046;&#24577;&#12290;</text></g><!--link *start* to Observer--><g class="link" data-entity-1="ent0002" data-entity-2="ent0002" data-link-type="dependency" data-source-line="12" id="lnk3"><path d="M1207.0771,775.4688 C1200.2812,796.2792 1184.1521,837.6521 1156.8958,861.875 C1114.3854,899.6604 1059.9707,918.4289 1016.7749,929.031" fill="none" id="*start*-to-Observer" style="stroke:#5E6A71;stroke-width:1.6042;"/><polygon fill="#5E6A71" points="1008.2771,931.1167,1022.4142,933.6533,1015.3586,929.3786,1019.6333,922.3229,1008.2771,931.1167" style="stroke:#5E6A71;stroke-width:1.6042;"/></g><!--link Observer to PendingGrant--><g class="link" data-entity-1="ent0002" data-entity-2="ent0003" data-link-type="dependency" data-source-line="14" id="lnk4"><path d="M1008.1458,913.7042 C1054.9292,883.5604 1118.9792,830.0104 1118.9792,762.7083 C1118.9792,293.125 1118.9792,293.125 1118.9792,293.125 C1118.9792,246.8083 1120.4521,225.8958 1086.8958,193.9583 C1032.9229,142.5667 995.1083,175.5687 925.0208,150.2083 C917.0292,147.3208 916.8213,147.4339 908.6983,143.9631" fill="none" id="Observer-to-PendingGrant" style="stroke:#5E6A71;stroke-width:1.6042;"/><polygon fill="#5E6A71" points="900.6521,140.525,910.4294,151.0463,907.3573,143.3901,915.0135,140.3179,900.6521,140.525" style="stroke:#5E6A71;stroke-width:1.6042;"/><text fill="#243039" font-family="'Helvetica'" font-size="17.5" lengthAdjust="spacing" textLength="247.5378" x="1120.4375" y="532.642">AuthorityRequest(action=Claim)</text></g><!--link PendingGrant to Controller--><g class="link" data-entity-1="ent0003" data-entity-2="ent0004" data-link-type="dependency" data-source-line="15" id="lnk5"><path d="M771.6333,112.2188 C702.3042,118.2708 591.8646,136.9375 516.6875,193.9583 C495.5271,210.0146 484.1398,228.1422 474.6898,249.5651" fill="none" id="PendingGrant-to-Controller" style="stroke:#5E6A71;stroke-width:1.6042;"/><polygon fill="#5E6A71" points="471.1583,257.5708,481.7926,247.9166,474.1012,250.8994,471.1184,243.208,471.1583,257.5708" style="stroke:#5E6A71;stroke-width:1.6042;"/><text fill="#243039" font-family="'Helvetica'" font-size="17.5" lengthAdjust="spacing" textLength="254.3481" x="518.1458" y="208.892">AuthorityStatus(state=Controller)</text></g><!--link PendingGrant to Rejected--><g class="link" data-entity-1="ent0003" data-entity-2="ent0008" data-link-type="dependency" data-source-line="16" id="lnk6"><path d="M827.1083,144.8125 C823.5792,165.8563 822.2958,192.6021 831.6875,214.375 C864.1937,289.7271 934.2783,344.7532 984.6929,377.4927" fill="none" id="PendingGrant-to-Rejected" style="stroke:#5E6A71;stroke-width:1.6042;"/><polygon fill="#5E6A71" points="992.0313,382.2583,984.2008,370.2177,985.9159,378.287,977.8466,380.0022,992.0313,382.2583" style="stroke:#5E6A71;stroke-width:1.6042;"/><text fill="#243039" font-family="'Helvetica'" font-size="17.5" lengthAdjust="spacing" textLength="247.5549" x="833.1458" y="208.892">AuthorityStatus(state=Rejected)</text></g><!--link Rejected to Observer--><g class="link" data-entity-1="ent0008" data-entity-2="ent0002" data-link-type="dependency" data-source-line="17" id="lnk7"><path d="M1018.5875,448.0292 C998.0687,486.1208 967.6479,549.2375 955.6458,608.125 C933.975,714.4667 945.3296,835.2645 953.5108,896.5436" fill="none" id="Rejected-to-Observer" style="stroke:#5E6A71;stroke-width:1.6042;"/><polygon fill="#5E6A71" points="954.6687,905.2167,958.7139,891.4352,953.7038,897.9891,947.1498,892.979,954.6687,905.2167" style="stroke:#5E6A71;stroke-width:1.6042;"/><text fill="#243039" font-family="'Helvetica'" font-size="17.5" lengthAdjust="spacing" textLength="122.5" x="957.1042" y="649.3087">&#35266;&#23519;&#26041;&#20445;&#30041;&#20250;&#35805;</text></g><!--link Controller to Controller--><g class="link" data-entity-1="ent0004" data-entity-2="ent0004" data-link-type="dependency" data-source-line="19" id="lnk8"><path d="M507.9521,278.3229 C534.5375,275.5667 558.7458,280.9917 558.7458,294.5833 C558.7458,308.175 543.2409,314.5023 516.6554,311.7461" fill="none" id="Controller-to-Controller" style="stroke:#5E6A71;stroke-width:1.6042;"/><polygon fill="#5E6A71" points="507.9521,310.8437,520.4056,317.9995,515.2049,311.5957,521.6087,306.395,507.9521,310.8437" style="stroke:#5E6A71;stroke-width:1.6042;"/><text fill="#243039" font-family="'Helvetica'" font-size="17.5" lengthAdjust="spacing" textLength="207.1631" x="567.4958" y="299.3087">Renew / lease_ttl_ms &#26356;&#26032;</text></g><!--link Controller to Preempting--><g class="link" data-entity-1="ent0004" data-entity-2="ent0005" data-link-type="dependency" data-source-line="20" id="lnk9"><path d="M446.6292,331.4354 C437.9812,364.6125 431.4625,414.0208 455.4375,447.7083 C494.1125,502.0167 564.1974,518.377 618.112,523.627" fill="none" id="Controller-to-Preempting" style="stroke:#5E6A71;stroke-width:1.6042;"/><polygon fill="#5E6A71" points="626.8208,524.475,614.323,517.3971,619.5635,523.7683,613.1923,529.0088,626.8208,524.475" style="stroke:#5E6A71;stroke-width:1.6042;"/><text fill="#243039" font-family="'Helvetica'" font-size="17.5" lengthAdjust="spacing" textLength="268.9514" x="456.8958" y="415.9753">AuthorityRequest(action=Preempt)</text></g><!--link Preempting to Controller--><g class="link" data-entity-1="ent0005" data-entity-2="ent0004" data-link-type="dependency" data-source-line="21" id="lnk10"><path d="M711.6229,490.9188 C734.4313,458.0771 758.5229,409.3104 732.5208,374.7917 C705.5563,338.9896 588.3155,315.8128 516.8572,304.5107" fill="none" id="Preempting-to-Controller" style="stroke:#5E6A71;stroke-width:1.6042;"/><polygon fill="#5E6A71" points="508.2146,303.1438,520.2671,310.9559,515.4167,304.2829,522.0897,299.4324,508.2146,303.1438" style="stroke:#5E6A71;stroke-width:1.6042;"/><text fill="#243039" font-family="'Helvetica'" font-size="17.5" lengthAdjust="spacing" textLength="192.5" x="745.2375" y="415.9753">&#25250;&#21344;&#25104;&#21151;&#24182;&#20445;&#30041;&#24403;&#21069;&#31199;&#32422;</text></g><!--link Preempting to Revoked--><g class="link" data-entity-1="ent0005" data-entity-2="ent0007" data-link-type="dependency" data-source-line="22" id="lnk11"><path d="M626.7479,538.5042 C586.5271,548.3042 535.1208,568.2104 509.3958,608.125 C487.1271,642.6875 492.32,683.037 501.6387,715.8495" fill="none" id="Preempting-to-Revoked" style="stroke:#5E6A71;stroke-width:1.6042;"/><polygon fill="#5E6A71" points="504.0292,724.2667,506.0549,710.0473,502.0371,717.2524,494.832,713.2346,504.0292,724.2667" style="stroke:#5E6A71;stroke-width:1.6042;"/><text fill="#243039" font-family="'Helvetica'" font-size="17.5" lengthAdjust="spacing" textLength="175" x="510.8542" y="649.3087">&#34987;&#26356;&#39640;&#20248;&#20808;&#32423;&#20250;&#35805;&#25250;&#21344;</text></g><!--link Controller to Released--><g class="link" data-entity-1="ent0004" data-entity-2="ent0006" data-link-type="dependency" data-source-line="24" id="lnk12"><path d="M408.5375,298.4917 C313.0896,304.3542 110.1042,322.7729 67.5208,374.7917 C8.75,446.5854 86.8118,546.5515 139.5597,601.3265" fill="none" id="Controller-to-Released" style="stroke:#5E6A71;stroke-width:1.6042;"/><polygon fill="#5E6A71" points="145.6292,607.6292,140.7268,594.1288,140.5713,602.3769,132.3232,602.2214,145.6292,607.6292" style="stroke:#5E6A71;stroke-width:1.6042;"/><text fill="#243039" font-family="'Helvetica'" font-size="17.5" lengthAdjust="spacing" textLength="267.0203" x="68.9792" y="415.9753">AuthorityRequest(action=Release)</text></g><!--link Controller to Revoked--><g class="link" data-entity-1="ent0004" data-entity-2="ent0007" data-link-type="dependency" data-source-line="25" id="lnk13"><path d="M441.2771,331.6688 C435.8083,344.8958 430.4708,360.2229 427.7292,374.7917 C421.75,406.6417 423.9667,415.5229 427.7292,447.7083 C440.125,553.5687 449.8375,579.7896 483.1458,681.0417 C487.8854,695.4354 490.6586,702.8504 496.5065,716.1942" fill="none" id="Controller-to-Revoked" style="stroke:#5E6A71;stroke-width:1.6042;"/><polygon fill="#5E6A71" points="500.0187,724.2083,500.0932,709.8456,497.0919,717.5299,489.4076,714.5286,500.0187,724.2083" style="stroke:#5E6A71;stroke-width:1.6042;"/><text fill="#243039" font-family="'Helvetica'" font-size="17.5" lengthAdjust="spacing" textLength="111.8787" x="448.5104" y="523.892">Lease Expired</text><text fill="#243039" font-family="'Helvetica'" font-size="17.5" lengthAdjust="spacing" textLength="102.1118" x="453.3938" y="541.392">&#25110; route &#22833;&#25928;</text></g><!--link Released to Observer--><g class="link" data-entity-1="ent0006" data-entity-2="ent0002" data-link-type="dependency" data-source-line="26" id="lnk14"><path d="M208.8625,681.1875 C236.7604,716.1583 284.2146,768.6437 337.3125,797.7083 C532.1604,904.3417 794.4733,931.0513 903.2796,937.8617" fill="none" id="Released-to-Observer" style="stroke:#5E6A71;stroke-width:1.6042;"/><polygon fill="#5E6A71" points="912.0125,938.4083,899.2775,931.7665,904.7351,937.9528,898.5487,943.4104,912.0125,938.4083" style="stroke:#5E6A71;stroke-width:1.6042;"/><text fill="#243039" font-family="'Helvetica'" font-size="17.5" lengthAdjust="spacing" textLength="105" x="338.7708" y="765.9753">&#31199;&#32422;&#20027;&#21160;&#24402;&#36824;</text></g><!--link Revoked to Observer--><g class="link" data-entity-1="ent0007" data-entity-2="ent0002" data-link-type="dependency" data-source-line="27" id="lnk15"><path d="M563.3688,785.05 C572.5125,789.3229 582.0646,793.7125 591.0625,797.7083 C658.4958,827.6771 675.4854,834.9687 744.1875,861.875 C801.3833,884.275 859.6196,905.3031 903.53,920.8343" fill="none" id="Revoked-to-Observer" style="stroke:#5E6A71;stroke-width:1.6042;"/><polygon fill="#5E6A71" points="911.7792,923.7521,901.3506,913.876,904.9048,921.3206,897.4602,924.8749,911.7792,923.7521" style="stroke:#5E6A71;stroke-width:1.6042;"/><text fill="#243039" font-family="'Helvetica'" font-size="17.5" lengthAdjust="spacing" textLength="175" x="745.6458" y="856.392">&#31199;&#32422;&#22833;&#25928;&#21518;&#22238;&#21040;&#35266;&#23519;&#24577;</text></g><?plantuml-src TPJFJzim5CVl_YiyJZ29xJu1qeIcNQPjwdRRfYgq7lMQs9tZmBYr_DXA6GWng4gxKeO6HKAYdK05saB_cCL9Tk9VcDCqQQ1mIcn_lkzzttjEz2GcAOKfcafZIHI7KqeiESseGUAJLAKCpYOmH-019Z7LY2COdJE8YaaoccAKqnXLepo1DFG86veAEEOgWjPQLMGRLdd1pZMiTCRwsGH0vmf7SEZLb8xO3693KD6Xlu1ZOo-HmPcYJapuu6j4ufXCFsSAuLqul245R-LJnxmlcAI4CwgglTZzfOIVnZYUGMzSC9I18QIbk8pfnG-MTqMF81KfEeftKN_XWeXfc8IDHz0CJGPWzrro4Qmdmymd5EC1v2tw57Zty0CS7Pq86WH0q2ft-qOhdi2d1azGXlbS17qsaCw75Lak9UEJgeAr4N23TkMXreJ4RdSCVRZhSBoFtA4F3D-dze4H4A3XQgJEgSwBMiNANvYTihsrRRQBJgqCGCZPWD488cWMFeRTraSvLwEQ3gtIgPMltzQ5Hdb_TtgGhAzF3oIrSdjYTTVAhejSHLmqFBVYyeTONhMh5RjvS5ljJroMk7SatVqxAfZjWbZAsisgLwKNSg3Mu4xTxxY7Z0nA_Pmlt7Fux4iACnH_Jwni7ieFMTuuyVkFjPK5GP9Ru_1gCSzR8dSeBZUSJW7uGUyalN1YVKsKTaIstfjcEWC0eJ8RmzC93kd76nSLoF3EMKrSBOgb4z5PCC-NpLR3RAvSjujW53hrZBrvujJEWf-7tBGADR5-u7HAOca_D1WNNzcN9fpJ_UlsTu-oMzlYMzDQsR1RPR5M4QLT8BD3rr3FrXJbd6fTNy7GmlDpusI_MfirMObhIXmlEByEdQihkxWep_f_jQCTixai4ykILjs3V5qIzk69E2xse7JcRte-oFyV?></g></svg>