<?plantuml 1.2026.2?><svg xmlns="http://www.w3.org/2000/svg" xmlns:xlink="http://www.w3.org/1999/xlink" contentStyleType="text/css" data-diagram-type="STATE" height="688px" preserveAspectRatio="none" style="width:422px;height:688px;background:#FFFFFF;" version="1.1" viewBox="0 0 422 688" width="422px" zoomAndPan="magnify"><title>&#25511;&#21046;&#26435;&#29366;&#24577;&#26426;</title><defs/><g><g class="title" data-source-line="1"><text fill="#000000" font-family="sans-serif" font-size="14" font-weight="bold" lengthAdjust="spacing" textLength="84" x="162.105" y="23.5352">&#25511;&#21046;&#26435;&#29366;&#24577;&#26426;</text></g><g class="start_entity" data-qualified-name=".start." data-source-line="5" id="ent0002"><ellipse cx="308.21" cy="53.4883" fill="#222222" rx="10" ry="10" style="stroke:#222222;stroke-width:1;"/></g><g class="entity" data-qualified-name="Observer" id="ent0003"><rect fill="#F1F1F1" height="50" rx="12.5" ry="12.5" style="stroke:#181818;stroke-width:0.5;" width="81.127" x="267.65" y="124.4883"/><line style="stroke:#181818;stroke-width:0.5;" x1="267.65" x2="348.777" y1="150.9766" y2="150.9766"/><text fill="#000000" font-family="sans-serif" font-size="14" lengthAdjust="spacing" textLength="61.127" x="277.65" y="143.0234">Observer</text></g><g class="entity" data-qualified-name="PendingGrant" id="ent0005"><rect fill="#F1F1F1" height="50" rx="12.5" ry="12.5" style="stroke:#181818;stroke-width:0.5;" width="112.0049" x="108.21" y="251.4883"/><line style="stroke:#181818;stroke-width:0.5;" x1="108.21" x2="220.2149" y1="277.9766" y2="277.9766"/><text fill="#000000" font-family="sans-serif" font-size="14" lengthAdjust="spacing" textLength="92.0049" x="118.21" y="270.0234">PendingGrant</text></g><g class="entity" data-qualified-name="Controller" id="ent0007"><rect fill="#F1F1F1" height="50" rx="12.5" ry="12.5" style="stroke:#181818;stroke-width:0.5;" width="88.1611" x="20.13" y="378.4883"/><line style="stroke:#181818;stroke-width:0.5;" x1="20.13" x2="108.2911" y1="404.9766" y2="404.9766"/><text fill="#000000" font-family="sans-serif" font-size="14" lengthAdjust="spacing" textLength="68.1611" x="30.13" y="397.0234">Controller</text></g><g class="entity" data-qualified-name="Rejected" id="ent0009"><rect fill="#F1F1F1" height="50" rx="12.5" ry="12.5" style="stroke:#181818;stroke-width:0.5;" width="77.7295" x="213.35" y="378.4883"/><line style="stroke:#181818;stroke-width:0.5;" x1="213.35" x2="291.0795" y1="404.9766" y2="404.9766"/><text fill="#000000" font-family="sans-serif" font-size="14" lengthAdjust="spacing" textLength="57.7295" x="223.35" y="397.0234">Rejected</text></g><g class="entity" data-qualified-name="Preempting" id="ent0013"><rect fill="#F1F1F1" height="50" rx="12.5" ry="12.5" style="stroke:#181818;stroke-width:0.5;" width="97.6494" x="134.39" y="505.4883"/><line style="stroke:#181818;stroke-width:0.5;" x1="134.39" x2="232.0394" y1="531.9766" y2="531.9766"/><text fill="#000000" font-family="sans-serif" font-size="14" lengthAdjust="spacing" textLength="77.6494" x="144.39" y="524.0234">Preempting</text></g><g class="entity" data-qualified-name="Revoked" id="ent0015"><rect fill="#F1F1F1" height="50" rx="12.5" ry="12.5" style="stroke:#181818;stroke-width:0.5;" width="77.292" x="144.56" y="632.4883"/><line style="stroke:#181818;stroke-width:0.5;" x1="144.56" x2="221.852" y1="658.9766" y2="658.9766"/><text fill="#000000" font-family="sans-serif" font-size="14" lengthAdjust="spacing" textLength="57.292" x="154.56" y="651.0234">Revoked</text></g><g class="entity" data-qualified-name="Released" id="ent0018"><rect fill="#F1F1F1" height="50" rx="12.5" ry="12.5" style="stroke:#181818;stroke-width:0.5;" width="79.9785" x="277.22" y="505.4883"/><line style="stroke:#181818;stroke-width:0.5;" x1="277.22" x2="357.1985" y1="531.9766" y2="531.9766"/><text fill="#000000" font-family="sans-serif" font-size="14" lengthAdjust="spacing" textLength="59.9785" x="287.22" y="524.0234">Released</text></g><!--link *start* to Observer--><g class="link" data-entity-1="ent0002" data-entity-2="ent0003" data-link-type="dependency" data-source-line="5" id="lnk4"><path d="M308.21,63.8483 C308.21,77.7783 308.21,98.4383 308.21,118.1383" fill="none" id="*start*-to-Observer" style="stroke:#181818;stroke-width:1;"/><polygon fill="#181818" points="308.21,124.1383,312.21,115.1383,308.21,119.1383,304.21,115.1383,308.21,124.1383" style="stroke:#181818;stroke-width:1;"/></g><!--link Observer to PendingGrant--><g class="link" data-entity-1="ent0003" data-entity-2="ent0005" data-link-type="dependency" data-source-line="6" id="lnk6"><path d="M267.62,167.2583 C248.74,176.3883 226.84,188.9983 210.21,204.4883 C195.91,217.7983 186.9346,231.1817 178.8346,246.0217" fill="none" id="Observer-to-PendingGrant" style="stroke:#181818;stroke-width:1;"/><polygon fill="#181818" points="175.96,251.2883,183.7829,245.3048,178.3555,246.8995,176.7609,241.472,175.96,251.2883" style="stroke:#181818;stroke-width:1;"/><text fill="#000000" font-family="sans-serif" font-size="13" lengthAdjust="spacing" textLength="35.8262" x="211.21" y="218.0566">Claim</text></g><!--link PendingGrant to Controller--><g class="link" data-entity-1="ent0005" data-entity-2="ent0007" data-link-type="dependency" data-source-line="7" id="lnk8"><path d="M144.69,301.8883 C127.07,323.9083 105.0282,351.4631 87.4282,373.4631" fill="none" id="PendingGrant-to-Controller" style="stroke:#181818;stroke-width:1;"/><polygon fill="#181818" points="83.68,378.1483,92.4257,373.6192,86.8035,374.2439,86.1788,368.6217,83.68,378.1483" style="stroke:#181818;stroke-width:1;"/><text fill="#000000" font-family="sans-serif" font-size="13" lengthAdjust="spacing" textLength="34.8232" x="121.2" y="345.0566">Grant</text></g><!--link PendingGrant to Rejected--><g class="link" data-entity-1="ent0005" data-entity-2="ent0009" data-link-type="dependency" data-source-line="8" id="lnk10"><path d="M177.68,301.7283 C185.75,315.7183 196.5,333.4683 207.21,348.4883 C214.37,358.5183 218.9973,364.4739 226.6873,373.5339" fill="none" id="PendingGrant-to-Rejected" style="stroke:#181818;stroke-width:1;"/><polygon fill="#181818" points="230.57,378.1083,227.7956,368.6583,227.3344,374.2963,221.6964,373.8352,230.57,378.1083" style="stroke:#181818;stroke-width:1;"/><text fill="#000000" font-family="sans-serif" font-size="13" lengthAdjust="spacing" textLength="38.1812" x="208.21" y="345.0566">Reject</text></g><!--link Rejected to Observer--><g class="link" data-entity-1="ent0009" data-entity-2="ent0003" data-link-type="dependency" data-source-line="9" id="lnk11"><path d="M257.65,378.0283 C268.38,329.7383 290.8582,228.5553 301.5382,180.5053" fill="none" id="Rejected-to-Observer" style="stroke:#181818;stroke-width:1;"/><polygon fill="#181818" points="302.84,174.6483,296.9825,182.566,301.7551,179.5292,304.7919,184.3018,302.84,174.6483" style="stroke:#181818;stroke-width:1;"/></g><!--link Controller to Controller--><g class="link" data-entity-1="ent0007" data-entity-2="ent0007" data-link-type="dependency" data-source-line="10" id="lnk12"><path d="M108.52,391.7083 C127.3,390.8183 143.29,394.7483 143.29,403.4883 C143.29,412.2283 133.2933,416.4423 114.5133,415.5523" fill="none" id="Controller-to-Controller" style="stroke:#181818;stroke-width:1;"/><polygon fill="#181818" points="108.52,415.2683,117.3206,419.6898,113.5144,415.505,117.6993,411.6988,108.52,415.2683" style="stroke:#181818;stroke-width:1;"/><text fill="#000000" font-family="sans-serif" font-size="13" lengthAdjust="spacing" textLength="40.79" x="149.29" y="408.5566">Renew</text></g><!--link Controller to Preempting--><g class="link" data-entity-1="ent0007" data-entity-2="ent0013" data-link-type="dependency" data-source-line="11" id="lnk14"><path d="M65.06,428.6783 C66.7,443.5183 70.88,462.1683 81.21,475.4883 C94.53,492.6683 109.4006,502.5437 128.4306,511.0337" fill="none" id="Controller-to-Preempting" style="stroke:#181818;stroke-width:1;"/><polygon fill="#181818" points="133.91,513.4783,127.3206,506.1585,129.3438,511.4411,124.0612,513.4644,133.91,513.4783" style="stroke:#181818;stroke-width:1;"/><text fill="#000000" font-family="sans-serif" font-size="13" lengthAdjust="spacing" textLength="52.1714" x="82.21" y="472.0566">Preempt</text></g><!--link Preempting to Controller--><g class="link" data-entity-1="ent0013" data-entity-2="ent0007" data-link-type="dependency" data-source-line="13" id="lnk17"><path d="M171.25,505.1683 C163.39,490.6483 152.17,472.3783 139.21,458.4883 C128.92,447.4583 120.995,440.6896 108.855,432.1896" fill="none" id="Preempting-to-Controller" style="stroke:#181818;stroke-width:1;"/><polygon fill="#181818" points="103.94,428.7483,109.0183,437.1869,108.0358,431.616,113.6067,430.6336,103.94,428.7483" style="stroke:#181818;stroke-width:1;"/><text fill="#000000" font-family="sans-serif" font-size="13" lengthAdjust="spacing" textLength="52" x="153.17" y="472.0566">&#25250;&#21344;&#25104;&#21151;</text></g><!--link Preempting to Revoked--><g class="link" data-entity-1="ent0013" data-entity-2="ent0015" data-link-type="dependency" data-source-line="12" id="lnk16"><path d="M183.21,555.8883 C183.21,577.9083 183.21,604.1483 183.21,626.1483" fill="none" id="Preempting-to-Revoked" style="stroke:#181818;stroke-width:1;"/><polygon fill="#181818" points="183.21,632.1483,187.21,623.1483,183.21,627.1483,179.21,623.1483,183.21,632.1483" style="stroke:#181818;stroke-width:1;"/><text fill="#000000" font-family="sans-serif" font-size="13" lengthAdjust="spacing" textLength="39" x="184.21" y="599.0566">&#34987;&#25250;&#21344;</text></g><!--link Controller to Released--><g class="link" data-entity-1="ent0007" data-entity-2="ent0018" data-link-type="dependency" data-source-line="14" id="lnk19"><path d="M108.78,417.2083 C139.3,426.7083 180.24,441.0383 214.21,458.4883 C239.9,471.6883 261.9006,486.7375 281.7206,501.6075" fill="none" id="Controller-to-Released" style="stroke:#181818;stroke-width:1;"/><polygon fill="#181818" points="286.52,505.2083,281.7214,496.6075,282.5205,502.2076,276.9204,503.0067,286.52,505.2083" style="stroke:#181818;stroke-width:1;"/><text fill="#000000" font-family="sans-serif" font-size="13" lengthAdjust="spacing" textLength="47.5122" x="241.98" y="472.0566">Release</text></g><!--link Controller to Revoked--><g class="link" data-entity-1="ent0007" data-entity-2="ent0015" data-link-type="dependency" data-source-line="15" id="lnk20"><path d="M48.31,428.8883 C30.25,459.9483 6,514.4983 28.21,555.4883 C52.62,600.5283 101.2016,626.439 138.5716,641.239" fill="none" id="Controller-to-Revoked" style="stroke:#181818;stroke-width:1;"/><polygon fill="#181818" points="144.15,643.4483,137.2552,636.4154,139.5013,641.6072,134.3095,643.8533,144.15,643.4483" style="stroke:#181818;stroke-width:1;"/><text fill="#000000" font-family="sans-serif" font-size="13" lengthAdjust="spacing" textLength="87.0391" x="29.21" y="535.5566">Lease Expired</text></g><!--link Released to Observer--><g class="link" data-entity-1="ent0018" data-entity-2="ent0003" data-link-type="dependency" data-source-line="16" id="lnk21"><path d="M317.53,505.1283 C318.19,453.0783 319.7,327.0983 320.21,221.4883 C320.25,213.9283 321.03,211.9983 320.21,204.4883 C319.13,194.6583 318.3637,189.8365 316.1737,180.5965" fill="none" id="Released-to-Observer" style="stroke:#181818;stroke-width:1;"/><polygon fill="#181818" points="314.79,174.7583,312.9734,184.4382,315.9431,179.6235,320.7578,182.5932,314.79,174.7583" style="stroke:#181818;stroke-width:1;"/></g><!--link Revoked to Observer--><g class="link" data-entity-1="ent0015" data-entity-2="ent0003" data-link-type="dependency" data-source-line="17" id="lnk22"><path d="M222.3,653.0883 C288.42,644.9583 415.21,618.0783 415.21,531.4883 C415.21,275.4883 415.21,275.4883 415.21,275.4883 C415.21,232.4983 383.0898,200.3672 352.6098,178.2972" fill="none" id="Revoked-to-Observer" style="stroke:#181818;stroke-width:1;"/><polygon fill="#181818" points="347.75,174.7783,352.6938,183.2965,351.7998,177.7107,357.3856,176.8167,347.75,174.7783" style="stroke:#181818;stroke-width:1;"/></g><?plantuml-src TO-zJiCm58LtFyMTaVe26LWYr0M9AYjYSEDBQ-BOaMsQZgrOgaXKVG0Gg0i3UmVU9uR784dhaX-ntNlkT-xHCGcN6TKq5IfEaC6KnibCgqV9GYMKXdpEBHBBhK1msuzoSt2lJz_5mQtMxkMB66__n_XtDtFALCxb3EwfC4Z8xSKTZ4QNS3Crg1UeYHyQTOAILV1OKsaXW51GdfAEM5EXabOh8IfJ08qyP29ymDXMrOBJICvA9xxrQ_0wGebvdvXen3IpTQN0BwGb7iCNAccoV_QVhjYNp-zzf1DqHDncLnPl_Rm81L9pAjACGyAdNTTdk5fcN2CZPsUdiAVRuYy0?></g></svg>