<?plantuml 1.2026.2?><svg xmlns="http://www.w3.org/2000/svg" xmlns:xlink="http://www.w3.org/1999/xlink" contentStyleType="text/css" data-diagram-type="SEQUENCE" height="1248.3333px" preserveAspectRatio="none" style="width:856px;height:1248px;background:#FFFFFF;" version="1.1" viewBox="0 0 856 1248" width="856.0417px" zoomAndPan="magnify"><title>&#21629;&#20196;&#32467;&#26524;&#26631;&#20934;&#32467;&#26524;&#27969;&#26102;&#24207;</title><defs/><g><text fill="#1F2A33" font-family="'Helvetica'" font-size="26.25" font-weight="bold" lengthAdjust="spacing" textLength="288.75" x="278.0532" y="42.088">&#21629;&#20196;&#32467;&#26524;&#26631;&#20934;&#32467;&#26524;&#27969;&#26102;&#24207;</text><rect fill="#FAFBFB" height="212.9167" rx="5.8333" ry="5.8333" style="stroke:#A7AFB5;stroke-width:2.1875;" width="792.1427" x="14.5833" y="901.25"/><path d="M14.5833,1016.4583 L806.7261,1016.4583 L806.7261,1108.3333 A5.8333,5.8333 0 0 1 800.8927,1114.1667 L20.4167,1114.1667 A5.8333,5.8333 0 0 1 14.5833,1108.3333 L14.5833,1016.4583" fill="#FAFBFB" style="stroke:none;stroke-width:1.4583;"/><g class="participant-lifeline" data-entity-uid="part1" data-qualified-name="GS" id="part1-lifeline"><g><title>Ground Station</title><rect fill="#000000" fill-opacity="0.00000" height="1048.5417" width="11.6667" x="91.4705" y="189.5833"/><line style="stroke:#A0AAB2;stroke-width:0.7292;stroke-dasharray:7.2917,7.2917;" x1="96.25" x2="96.25" y1="189.5833" y2="1238.125"/></g></g><g class="participant-lifeline" data-entity-uid="part2" data-qualified-name="RT" id="part2-lifeline"><g><title>Protocol Runtime</title><rect fill="#000000" fill-opacity="0.00000" height="1048.5417" width="11.6667" x="475.0264" y="189.5833"/><line style="stroke:#A0AAB2;stroke-width:0.7292;stroke-dasharray:7.2917,7.2917;" x1="480.7419" x2="480.7419" y1="189.5833" y2="1238.125"/></g></g><g class="participant-lifeline" data-entity-uid="part3" data-qualified-name="EX" id="part3-lifeline"><g><title>Vehicle Executor</title><rect fill="#000000" fill-opacity="0.00000" height="1048.5417" width="11.6667" x="704.9703" y="189.5833"/><line style="stroke:#A0AAB2;stroke-width:0.7292;stroke-dasharray:7.2917,7.2917;" x1="709.6729" x2="709.6729" y1="189.5833" y2="1238.125"/></g></g><g class="participant participant-head" data-entity-uid="part1" data-qualified-name="GS" id="part1-head"><text fill="#243039" font-family="'Helvetica'" font-size="18.9583" lengthAdjust="spacing" textLength="127.5244" x="29.1667" y="166.265">Ground Station</text><text fill="#243039" font-family="'Helvetica'" font-size="18.9583" lengthAdjust="spacing" textLength="82.1836" x="51.8371" y="185.2233">Controller</text><ellipse cx="97.3039" cy="76.5625" fill="#F1F4F6" rx="11.6667" ry="11.6667" style="stroke:#5E6A71;stroke-width:0.7292;"/><path d="M97.3039,88.2292 L97.3039,127.6042 M78.3455,99.8958 L116.2622,99.8958 M97.3039,127.6042 L78.3455,149.4792 M97.3039,127.6042 L116.2622,149.4792" fill="none" style="stroke:#5E6A71;stroke-width:0.7292;"/></g><g class="participant participant-head" data-entity-uid="part2" data-qualified-name="RT" id="part2-head"><rect fill="#EEF2F4" height="58.3333" rx="5.8333" ry="5.8333" style="stroke:#5E6A71;stroke-width:0.7292;" width="230.6524" x="365.5336" y="129.7917"/><text fill="#243039" font-family="'Helvetica'" font-size="18.9583" lengthAdjust="spacing" textLength="145.4089" x="408.1553" y="154.5983">Protocol Runtime</text><text fill="#243039" font-family="'Helvetica'" font-size="18.9583" lengthAdjust="spacing" textLength="210.2357" x="375.7419" y="173.5566">Session + Authority Gate</text></g><g class="participant participant-head" data-entity-uid="part3" data-qualified-name="EX" id="part3-head"><rect fill="#F1F4F6" height="39.375" rx="5.8333" ry="5.8333" style="stroke:#5E6A71;stroke-width:0.7292;" width="162.6782" x="629.4645" y="148.75"/><text fill="#243039" font-family="'Helvetica'" font-size="18.9583" lengthAdjust="spacing" textLength="142.2616" x="639.6729" y="173.5566">Vehicle Executor</text></g><rect fill="#F4F6F7" height="4.375" rx="5.8333" ry="5.8333" style="stroke:#F4F6F7;stroke-width:1.4583;" width="846.3147" x="0" y="232.6042"/><line style="stroke:#B7BDC2;stroke-width:1.4583;" x1="0" x2="846.3147" y1="232.6042" y2="232.6042"/><line style="stroke:#B7BDC2;stroke-width:1.4583;" x1="0" x2="846.3147" y1="236.9792" y2="236.9792"/><rect fill="#F4F6F7" height="30.625" rx="5.8333" ry="5.8333" style="stroke:#B7BDC2;stroke-width:2.9167;" width="166.8068" x="339.7539" y="218.75"/><text fill="#243039" font-family="'Helvetica'" font-size="18.9583" font-weight="bold" lengthAdjust="spacing" textLength="141.1229" x="348.5039" y="239.1816">Root Command</text><g class="message" data-entity-1="part1" data-entity-2="part2" id="msg1"><polygon fill="#5E6A71" points="463.3598,319.375,477.9431,325.2083,463.3598,331.0417,469.1931,325.2083" style="stroke:#5E6A71;stroke-width:1.4583;"/><line style="stroke:#5E6A71;stroke-width:1.6042;" x1="97.3039" x2="472.1098" y1="325.2083" y2="325.2083"/><text fill="#243039" font-family="'Helvetica'" font-size="17.5" lengthAdjust="spacing" textLength="123.5254" x="227.3191" y="283.267">Command.Goto</text><text fill="#243039" font-family="'Helvetica'" font-size="17.5" lengthAdjust="spacing" textLength="153.2361" x="212.4638" y="300.767">message_id = 8101</text><text fill="#243039" font-family="'Helvetica'" font-size="17.5" lengthAdjust="spacing" textLength="163.9343" x="207.1147" y="318.267">correlation_id = 8101</text></g><rect fill="#F4F6F7" height="4.375" rx="5.8333" ry="5.8333" style="stroke:#F4F6F7;stroke-width:1.4583;" width="846.3147" x="0" y="365.3125"/><line style="stroke:#B7BDC2;stroke-width:1.4583;" x1="0" x2="846.3147" y1="365.3125" y2="365.3125"/><line style="stroke:#B7BDC2;stroke-width:1.4583;" x1="0" x2="846.3147" y1="369.6875" y2="369.6875"/><rect fill="#F4F6F7" height="30.625" rx="5.8333" ry="5.8333" style="stroke:#B7BDC2;stroke-width:2.9167;" width="108.9413" x="368.6867" y="351.4583"/><text fill="#243039" font-family="'Helvetica'" font-size="18.9583" font-weight="bold" lengthAdjust="spacing" textLength="83.2574" x="377.4367" y="371.89">Received</text><g class="message" data-entity-1="part2" data-entity-2="part1" id="msg2"><polygon fill="#5E6A71" points="113.3455,434.5833,98.7622,440.4167,113.3455,446.25,107.5122,440.4167" style="stroke:#5E6A71;stroke-width:1.4583;"/><line style="stroke:#5E6A71;stroke-width:1.6042;stroke-dasharray:2.9167,2.9167;" x1="104.5955" x2="479.4014" y1="440.4167" y2="440.4167"/><text fill="#243039" font-family="'Helvetica'" font-size="17.5" lengthAdjust="spacing" textLength="208.1458" x="185.009" y="415.9753">CommandResult.Received</text><text fill="#243039" font-family="'Helvetica'" font-size="17.5" lengthAdjust="spacing" textLength="163.9343" x="207.1147" y="433.4753">correlation_id = 8101</text></g><rect fill="#F4F6F7" height="4.375" rx="5.8333" ry="5.8333" style="stroke:#F4F6F7;stroke-width:1.4583;" width="846.3147" x="0" y="480.5208"/><line style="stroke:#B7BDC2;stroke-width:1.4583;" x1="0" x2="846.3147" y1="480.5208" y2="480.5208"/><line style="stroke:#B7BDC2;stroke-width:1.4583;" x1="0" x2="846.3147" y1="484.8958" y2="484.8958"/><rect fill="#F4F6F7" height="30.625" rx="5.8333" ry="5.8333" style="stroke:#B7BDC2;stroke-width:2.9167;" width="111.0242" x="367.6453" y="466.6667"/><text fill="#243039" font-family="'Helvetica'" font-size="18.9583" font-weight="bold" lengthAdjust="spacing" textLength="85.3403" x="376.3953" y="487.0983">Accepted</text><g class="message" data-entity-1="part2" data-entity-2="part3" id="msg3"><polygon fill="#5E6A71" points="693.3036,549.7917,707.887,555.625,693.3036,561.4583,699.137,555.625" style="stroke:#5E6A71;stroke-width:1.4583;"/><line style="stroke:#5E6A71;stroke-width:1.6042;" x1="480.8598" x2="702.0536" y1="555.625" y2="555.625"/><text fill="#243039" font-family="'Helvetica'" font-size="17.5" lengthAdjust="spacing" textLength="70" x="560.8317" y="531.1837">&#35843;&#24230;&#25191;&#34892;</text><text fill="#243039" font-family="'Helvetica'" font-size="17.5" lengthAdjust="spacing" textLength="194.9438" x="498.3598" y="548.6837">&#30446;&#26631;&#21305;&#37197; + &#26435;&#38480;&#26816;&#26597;&#36890;&#36807;</text></g><g class="message" data-entity-1="part3" data-entity-2="part2" id="msg4"><polygon fill="#5E6A71" points="496.9014,587.7083,482.3181,593.5417,496.9014,599.375,491.0681,593.5417" style="stroke:#5E6A71;stroke-width:1.4583;"/><line style="stroke:#5E6A71;stroke-width:1.6042;stroke-dasharray:2.9167,2.9167;" x1="488.1514" x2="709.3453" y1="593.5417" y2="593.5417"/><text fill="#243039" font-family="'Helvetica'" font-size="17.5" lengthAdjust="spacing" textLength="87.5" x="552.0817" y="586.6003">&#25191;&#34892;&#22120;&#25509;&#21333;</text></g><g class="message" data-entity-1="part2" data-entity-2="part1" id="msg5"><polygon fill="#5E6A71" points="113.3455,643.125,98.7622,648.9583,113.3455,654.7917,107.5122,648.9583" style="stroke:#5E6A71;stroke-width:1.4583;"/><line style="stroke:#5E6A71;stroke-width:1.6042;stroke-dasharray:2.9167,2.9167;" x1="104.5955" x2="479.4014" y1="648.9583" y2="648.9583"/><text fill="#243039" font-family="'Helvetica'" font-size="17.5" lengthAdjust="spacing" textLength="208.1543" x="185.0047" y="624.517">CommandResult.Accepted</text><text fill="#243039" font-family="'Helvetica'" font-size="17.5" lengthAdjust="spacing" textLength="163.9343" x="207.1147" y="642.017">correlation_id = 8101</text></g><rect fill="#F4F6F7" height="4.375" rx="5.8333" ry="5.8333" style="stroke:#F4F6F7;stroke-width:1.4583;" width="846.3147" x="0" y="689.0625"/><line style="stroke:#B7BDC2;stroke-width:1.4583;" x1="0" x2="846.3147" y1="689.0625" y2="689.0625"/><line style="stroke:#B7BDC2;stroke-width:1.4583;" x1="0" x2="846.3147" y1="693.4375" y2="693.4375"/><rect fill="#F4F6F7" height="30.625" rx="5.8333" ry="5.8333" style="stroke:#B7BDC2;stroke-width:2.9167;" width="124.7245" x="360.7951" y="675.2083"/><text fill="#243039" font-family="'Helvetica'" font-size="18.9583" font-weight="bold" lengthAdjust="spacing" textLength="99.0406" x="369.5451" y="695.64">InProgress</text><g class="message" data-entity-1="part3" data-entity-2="part2" id="msg6"><polygon fill="#5E6A71" points="496.9014,758.3333,482.3181,764.1667,496.9014,770,491.0681,764.1667" style="stroke:#5E6A71;stroke-width:1.4583;"/><line style="stroke:#5E6A71;stroke-width:1.6042;stroke-dasharray:2.9167,2.9167;" x1="488.1514" x2="709.3453" y1="764.1667" y2="764.1667"/><text fill="#243039" font-family="'Helvetica'" font-size="17.5" lengthAdjust="spacing" textLength="52.5" x="569.5817" y="739.7253">&#25191;&#34892;&#20013;</text><text fill="#243039" font-family="'Helvetica'" font-size="17.5" lengthAdjust="spacing" textLength="107.4951" x="542.0841" y="757.2253">progress = 60</text></g><g class="message" data-entity-1="part2" data-entity-2="part1" id="msg7"><polygon fill="#5E6A71" points="113.3455,813.75,98.7622,819.5833,113.3455,825.4167,107.5122,819.5833" style="stroke:#5E6A71;stroke-width:1.4583;"/><line style="stroke:#5E6A71;stroke-width:1.6042;stroke-dasharray:2.9167,2.9167;" x1="104.5955" x2="479.4014" y1="819.5833" y2="819.5833"/><text fill="#243039" font-family="'Helvetica'" font-size="17.5" lengthAdjust="spacing" textLength="219.8096" x="179.177" y="795.142">CommandResult.InProgress</text><text fill="#243039" font-family="'Helvetica'" font-size="17.5" lengthAdjust="spacing" textLength="175.5981" x="201.2828" y="812.642">progress_percent = 60</text></g><rect fill="#F4F6F7" height="4.375" rx="5.8333" ry="5.8333" style="stroke:#F4F6F7;stroke-width:1.4583;" width="846.3147" x="0" y="859.6875"/><line style="stroke:#B7BDC2;stroke-width:1.4583;" x1="0" x2="846.3147" y1="859.6875" y2="859.6875"/><line style="stroke:#B7BDC2;stroke-width:1.4583;" x1="0" x2="846.3147" y1="864.0625" y2="864.0625"/><rect fill="#F4F6F7" height="30.625" rx="5.8333" ry="5.8333" style="stroke:#B7BDC2;stroke-width:2.9167;" width="104.7016" x="370.8065" y="845.8333"/><text fill="#243039" font-family="'Helvetica'" font-size="18.9583" font-weight="bold" lengthAdjust="spacing" textLength="79.0177" x="379.5565" y="866.265">Terminal</text><path d="M20.4167,901.25 L102.3326,901.25 L102.3326,908.5417 L87.7492,923.125 L14.5833,923.125 L14.5833,907.0833 A5.8333,5.8333 0 0 1 20.4167,901.25" fill="#FBFCFC" style="stroke:#A7AFB5;stroke-width:2.1875;"/><rect fill="none" height="212.9167" rx="5.8333" ry="5.8333" style="stroke:#A7AFB5;stroke-width:2.1875;" width="792.1427" x="14.5833" y="901.25"/><text fill="#243039" font-family="'Helvetica'" font-size="18.9583" font-weight="bold" lengthAdjust="spacing" textLength="22.1242" x="36.4583" y="917.3066">alt</text><text fill="#243039" font-family="'Helvetica'" font-size="18.9583" font-weight="bold" lengthAdjust="spacing" textLength="88.4599" x="124.2076" y="918.765">[&#25104;&#21151;&#23436;&#25104;]</text><g class="message" data-entity-1="part3" data-entity-2="part2" id="msg8"><polygon fill="#5E6A71" points="496.9014,943.5417,482.3181,949.375,496.9014,955.2083,491.0681,949.375" style="stroke:#5E6A71;stroke-width:1.4583;"/><line style="stroke:#5E6A71;stroke-width:1.6042;stroke-dasharray:2.9167,2.9167;" x1="488.1514" x2="709.3453" y1="949.375" y2="949.375"/><text fill="#243039" font-family="'Helvetica'" font-size="17.5" lengthAdjust="spacing" textLength="70" x="560.8317" y="942.4337">&#25191;&#34892;&#23436;&#25104;</text></g><g class="message" data-entity-1="part2" data-entity-2="part1" id="msg9"><polygon fill="#5E6A71" points="113.3455,998.9583,98.7622,1004.7917,113.3455,1010.625,107.5122,1004.7917" style="stroke:#5E6A71;stroke-width:1.4583;"/><line style="stroke:#5E6A71;stroke-width:1.6042;stroke-dasharray:2.9167,2.9167;" x1="104.5955" x2="479.4014" y1="1004.7917" y2="1004.7917"/><text fill="#243039" font-family="'Helvetica'" font-size="17.5" lengthAdjust="spacing" textLength="222.7576" x="177.703" y="980.3503">CommandResult.Succeeded</text><text fill="#243039" font-family="'Helvetica'" font-size="17.5" lengthAdjust="spacing" textLength="185.3308" x="196.4164" y="997.8503">progress_percent = 100</text></g><line style="stroke:#A7AFB5;stroke-width:1.4583;stroke-dasharray:2.9167,2.9167;" x1="14.5833" x2="806.7261" y1="1017.9167" y2="1017.9167"/><text fill="#243039" font-family="'Helvetica'" font-size="18.9583" font-weight="bold" lengthAdjust="spacing" textLength="107.4182" x="21.875" y="1032.515">[&#22833;&#36133;&#25110;&#22833;&#25928;]</text><g class="message" data-entity-1="part3" data-entity-2="part2" id="msg10"><polygon fill="#5E6A71" points="496.9014,1058.75,482.3181,1064.5833,496.9014,1070.4167,491.0681,1064.5833" style="stroke:#5E6A71;stroke-width:1.4583;"/><line style="stroke:#5E6A71;stroke-width:1.6042;stroke-dasharray:2.9167,2.9167;" x1="488.1514" x2="709.3453" y1="1064.5833" y2="1064.5833"/><text fill="#243039" font-family="'Helvetica'" font-size="17.5" lengthAdjust="spacing" textLength="169.1724" x="511.2455" y="1057.642">&#25191;&#34892;&#22833;&#36133; / &#21462;&#28040; / &#36229;&#26102;</text></g><g class="message" data-entity-1="part2" data-entity-2="part1" id="msg11"><polygon fill="#5E6A71" points="113.3455,1096.6667,98.7622,1102.5,113.3455,1108.3333,107.5122,1102.5" style="stroke:#5E6A71;stroke-width:1.4583;"/><line style="stroke:#5E6A71;stroke-width:1.6042;stroke-dasharray:2.9167,2.9167;" x1="104.5955" x2="479.4014" y1="1102.5" y2="1102.5"/><text fill="#243039" font-family="'Helvetica'" font-size="17.5" lengthAdjust="spacing" textLength="348.5559" x="114.8039" y="1095.5587">CommandResult.Failed | Cancelled | Expired</text></g><path d="M487.0833,1137.5 L487.0833,1210.4167 A5.8333,5.8333 0 0 0 492.9167,1216.25 L832.7083,1216.25 A5.8333,5.8333 0 0 0 838.5417,1210.4167 L838.5417,1146.25 L823.9583,1131.6667 L492.9167,1131.6667 A5.8333,5.8333 0 0 0 487.0833,1137.5" fill="#F7F5F1" style="stroke:#B7AEA1;stroke-width:0.7292;"/><path d="M823.9583,1131.6667 L823.9583,1143.3333 A2.9167,2.9167 0 0 0 826.875,1146.25 L838.5417,1146.25 L823.9583,1131.6667" fill="#F7F5F1" style="stroke:#B7AEA1;stroke-width:0.7292;"/><text fill="#2D3135" font-family="'Helvetica'" font-size="17.5" lengthAdjust="spacing" textLength="87.5" x="619.3032" y="1152.4337">&#35835;&#22270;&#37325;&#28857;&#65306;</text><text fill="#2D3135" font-family="'Helvetica'" font-size="17.5" lengthAdjust="spacing" textLength="295.6116" x="515.2474" y="1169.9337">- &#25152;&#26377;&#32467;&#26524;&#37117;&#20445;&#25345;&#21516;&#19968;&#20010; correlation_id</text><text fill="#2D3135" font-family="'Helvetica'" font-size="17.5" lengthAdjust="spacing" textLength="223.6206" x="551.2429" y="1187.4337">- Terminal &#24517;&#39035;&#33853;&#21040;&#26126;&#30830;&#32456;&#24577;</text><text fill="#2D3135" font-family="'Helvetica'" font-size="17.5" lengthAdjust="spacing" textLength="308.1897" x="508.9583" y="1204.9337">- &#22833;&#36133;&#36335;&#24452;&#26367;&#25442;&#30340;&#26159;&#32456;&#24577;&#65292;&#19981;&#26159;&#21069;&#32622;&#30456;&#20301;</text><?plantuml-src VPFHJXf158RlvoccUjbWeJ6cCS74422zQy0qlI0XwpB2XDaPiiosclG2gnPiG6aQhOhMschRD2dQfBKgeY_3pYvNlaBFWaXCBNTdP__p_V-PivlFKfxJJCrWGi-I59xMz6pQ51PFXGGJ9dwHePAWUvJhp4eHd9opEACycyoPGWfTiAJC48ECKCjWI5B92BRVDbkDVQVnJdtOLX-BTl7rTVrxNhq_jizMKOO2QKO8EIrc4T9q2Jv3qOufZajDKi4JF2IuD0LZn1p2MXv7umXYIghJdCOb7dfoxOzZ5fVK80aU9_ayTEBxUDAI6M5IEOUZcYITzjWK7Ww78myZexSnJqc6wX0wF4jq2t9qnE5dU3WIY8n6nX0A1d4CakAGC0mDyWM3A1h7lWcFEDux7Ob2c0Gt886M9aaAClmeu0yak2vCax3EIFtZBfNeX3ud7IAmV804y0qoHl8MaoCzrI3IfAwJdEoJ9hm1nh5xj62VVL7BNzszSe8xjRgtZF9fUwa2LwHs5jgRLVMve7OFseKjzxA8eCdNcwlRPMz-Koi7TcLjGC2U-Q20ZpbiAst2xNWH__LfdVn8yDoD18_v1nZsOVsUP8wOEe5zTdezoobY6fHhp3FKcCIgLBNVxDhrCXG8upjcxRtwltFSWbb9oflr3kE0tuy8oyFtl__J_NMWIkjGgBNItMuT3Nw0xTLrTLo2mZrUWhzZe7z4emos_1A7DAuJrgt3ipbgaXGYF8KG5v9WawOp4eiP827ti67NBjh5YlFgzEfy2_d0lw2sbxj_P7kXsRhSKULvkmexABHElkFRImJzpKNQbqljlOPRRTgb8xMnukpLdKP95UP1qvt6_NDeNoogsgMgV7As5jN6OLTmTGxm2ZpQonMdMNTg9wrcnSkBlRX_0G00?></g></svg>