<?plantuml 1.2026.2?><svg xmlns="http://www.w3.org/2000/svg" xmlns:xlink="http://www.w3.org/1999/xlink" contentStyleType="text/css" data-diagram-type="DESCRIPTION" height="402px" preserveAspectRatio="none" style="width:1254px;height:402px;background:#FFFFFF;" version="1.1" viewBox="0 0 1254 402" width="1254px" zoomAndPan="magnify"><title>Sunray &#21327;&#35758;&#24635;&#20307;&#19978;&#19979;&#25991;&#22270;</title><defs/><g><g class="title" data-source-line="1"><text fill="#000000" font-family="sans-serif" font-size="14" font-weight="bold" lengthAdjust="spacing" textLength="165.7578" x="537.3248" y="23.5352">Sunray &#21327;&#35758;&#24635;&#20307;&#19978;&#19979;&#25991;&#22270;</text></g><!--cluster Sunray Protocol--><g class="cluster" data-qualified-name="Sunray Protocol" data-source-line="10" id="ent0003"><rect fill="#F8F8F8" height="120.46" rx="2.5" ry="2.5" style="stroke:#181818;stroke-width:1;" width="622" x="348.31" y="160.4683"/><text fill="#000000" font-family="sans-serif" font-size="14" font-weight="bold" lengthAdjust="spacing" textLength="113.21" x="602.705" y="176.0034">Sunray Protocol</text></g><!--entity control--><g class="entity" data-qualified-name="Sunray Protocol.control" data-source-line="11" id="ent0004"><rect fill="#FFF2CC" height="69.4648" rx="2.5" ry="2.5" style="stroke:#181818;stroke-width:0.5;" width="217.2783" x="364.67" y="195.4683"/><text fill="#000000" font-family="sans-serif" font-size="14" lengthAdjust="spacing" textLength="42" x="452.3092" y="219.0034">&#25511;&#21046;&#38754;</text><text fill="#000000" font-family="sans-serif" font-size="14" lengthAdjust="spacing" textLength="142.1191" x="402.2496" y="235.4917">Session / Authority /</text><text fill="#000000" font-family="sans-serif" font-size="14" lengthAdjust="spacing" textLength="197.2783" x="374.67" y="251.98">Command / CommandResult</text></g><!--entity state--><g class="entity" data-qualified-name="Sunray Protocol.state" data-source-line="12" id="ent0005"><rect fill="#D5E8D4" height="69.4648" rx="2.5" ry="2.5" style="stroke:#181818;stroke-width:0.5;" width="127.748" x="826.43" y="195.4683"/><text fill="#000000" font-family="sans-serif" font-size="14" lengthAdjust="spacing" textLength="42" x="869.304" y="219.0034">&#29366;&#24577;&#38754;</text><text fill="#000000" font-family="sans-serif" font-size="14" lengthAdjust="spacing" textLength="107.748" x="836.43" y="235.4917">StateSnapshot /</text><text fill="#000000" font-family="sans-serif" font-size="14" lengthAdjust="spacing" textLength="70.1025" x="855.2528" y="251.98">StateEvent</text></g><!--entity bulk--><g class="entity" data-qualified-name="Sunray Protocol.bulk" data-source-line="13" id="ent0006"><rect fill="#FCE5CD" height="52.9766" rx="2.5" ry="2.5" style="stroke:#181818;stroke-width:0.5;" width="175.0459" x="616.78" y="203.7083"/><text fill="#000000" font-family="sans-serif" font-size="14" lengthAdjust="spacing" textLength="75.4004" x="666.6028" y="227.2434">Bulk &#21457;&#29616;&#38754;</text><text fill="#000000" font-family="sans-serif" font-size="14" lengthAdjust="spacing" textLength="155.0459" x="626.78" y="243.7317">BulkChannelDescriptor</text></g><!--entity gs--><g class="entity" data-qualified-name="gs" data-source-line="8" id="ent0002"><rect fill="#E8F3FF" height="52.9766" rx="2.5" ry="2.5" style="stroke:#181818;stroke-width:0.5;" width="229.3369" x="473.64" y="44.4883"/><text fill="#000000" font-family="sans-serif" font-size="14" lengthAdjust="spacing" textLength="102.1426" x="537.2372" y="68.0234">Ground Station</text><text fill="#000000" font-family="sans-serif" font-size="14" lengthAdjust="spacing" textLength="209.3369" x="483.64" y="84.5117">(agent_type = kGroundStation)</text></g><!--entity uav--><g class="entity" data-qualified-name="uav" data-source-line="16" id="ent0007"><rect fill="#EAF7EA" height="52.9766" rx="2.5" ry="2.5" style="stroke:#181818;stroke-width:0.5;" width="184.2402" x="267.19" y="343.9283"/><text fill="#000000" font-family="sans-serif" font-size="14" lengthAdjust="spacing" textLength="164.2402" x="277.19" y="367.4634">UAV Onboard Computer</text><text fill="#000000" font-family="sans-serif" font-size="14" lengthAdjust="spacing" textLength="136.3018" x="291.1592" y="383.9517">(agent_type = kUav)</text></g><!--entity ugv--><g class="entity" data-qualified-name="ugv" data-source-line="17" id="ent0008"><rect fill="#EAF7EA" height="52.9766" rx="2.5" ry="2.5" style="stroke:#181818;stroke-width:0.5;" width="157.2998" x="1016.66" y="343.9283"/><text fill="#000000" font-family="sans-serif" font-size="14" lengthAdjust="spacing" textLength="135.2764" x="1027.6717" y="367.4634">UGV Compute Node</text><text fill="#000000" font-family="sans-serif" font-size="14" lengthAdjust="spacing" textLength="137.2998" x="1026.66" y="383.9517">(agent_type = kUgv)</text></g><!--entity swarm--><g class="entity" data-qualified-name="swarm" data-source-line="18" id="ent0009"><rect fill="#EAF7EA" height="52.9766" rx="2.5" ry="2.5" style="stroke:#181818;stroke-width:0.5;" width="150.7441" x="661.93" y="343.9283"/><text fill="#000000" font-family="sans-serif" font-size="14" lengthAdjust="spacing" textLength="130.7441" x="671.93" y="367.4634">Swarm Coordinator</text><text fill="#000000" font-family="sans-serif" font-size="14" lengthAdjust="spacing" textLength="125.6035" x="674.5003" y="383.9517">or Group Endpoint</text></g><g class="entity" data-qualified-name="GMN21" data-source-line="35" id="ent0022"><path d="M6,350.1083 L6,390.7294 L232.6133,390.7294 L232.6133,360.1083 L222.6133,350.1083 L6,350.1083" fill="#FEFFDD" style="stroke:#181818;stroke-width:0.5;"/><path d="M222.6133,350.1083 L222.6133,360.1083 L232.6133,360.1083 L222.6133,350.1083" fill="#FEFFDD" style="stroke:#181818;stroke-width:1;"/><text fill="#000000" font-family="sans-serif" font-size="13" lengthAdjust="spacing" textLength="169" x="30.3066" y="367.6766">&#32479;&#19968;&#20449;&#23553;&#24635;&#32447;&#25215;&#36733;&#25511;&#21046;&#35821;&#20041;&#65292;</text><text fill="#000000" font-family="sans-serif" font-size="13" lengthAdjust="spacing" textLength="205.6133" x="12" y="382.9872">&#19981;&#20877;&#20351;&#29992;&#26087; seq + robot_id &#27169;&#22411;&#12290;</text></g><!--link gs to control--><g class="link" data-entity-1="ent0002" data-entity-2="ent0004" data-link-type="dependency" data-source-line="20" id="lnk10"><path d="M569.32,97.9383 C549.86,124.5383 523.0513,161.1848 501.7013,190.3848" fill="none" id="gs-to-control" style="stroke:#181818;stroke-width:1;"/><polygon fill="#181818" points="498.16,195.2283,506.701,190.324,501.1111,191.1921,500.2431,185.6022,498.16,195.2283" style="stroke:#181818;stroke-width:1;"/><text fill="#000000" font-family="sans-serif" font-size="13" lengthAdjust="spacing" textLength="84.8174" x="545.49" y="141.0366">&#35268;&#21010;/&#25511;&#21046;&#25351;&#20196;</text></g><!--link uav to state--><g class="link" data-entity-1="ent0007" data-entity-2="ent0005" data-link-type="dependency" data-source-line="21" id="lnk11"><path d="M386.21,343.4283 C405.44,326.6983 432.85,306.3783 461.31,296.9283 C498.02,284.7483 772.61,301.1383 809.31,288.9283 C824.71,283.8083 834.9034,278.246 847.7334,268.716" fill="none" id="uav-to-state" style="stroke:#181818;stroke-width:1;"/><polygon fill="#181818" points="852.55,265.1383,842.9399,267.2938,848.5362,268.1197,847.7102,273.716,852.55,265.1383" style="stroke:#181818;stroke-width:1;"/><text fill="#000000" font-family="sans-serif" font-size="13" lengthAdjust="spacing" textLength="58.8174" x="462.31" y="310.4966">&#24555;&#29031;/&#20107;&#20214;</text></g><!--link ugv to state--><g class="link" data-entity-1="ent0008" data-entity-2="ent0005" data-link-type="dependency" data-source-line="22" id="lnk12"><path d="M1157.88,343.4683 C1179.53,330.7383 1195.27,314.3983 1181.31,296.9283 C1153.46,262.0883 1037.3089,244.9882 960.3889,237.1282" fill="none" id="ugv-to-state" style="stroke:#181818;stroke-width:1;"/><polygon fill="#181818" points="954.42,236.5183,962.9668,241.4125,959.3941,237.0266,963.78,233.4539,954.42,236.5183" style="stroke:#181818;stroke-width:1;"/><text fill="#000000" font-family="sans-serif" font-size="13" lengthAdjust="spacing" textLength="58.8174" x="1187.59" y="310.4966">&#24555;&#29031;/&#20107;&#20214;</text></g><!--link swarm to state--><g class="link" data-entity-1="ent0009" data-entity-2="ent0005" data-link-type="dependency" data-source-line="23" id="lnk13"><path d="M774.38,343.4783 C786.49,334.5283 799.78,324.1683 811.31,313.9283 C828.39,298.7683 841.9916,284.9483 856.2816,269.4583" fill="none" id="swarm-to-state" style="stroke:#181818;stroke-width:1;"/><polygon fill="#181818" points="860.35,265.0483,851.3074,268.9511,856.9597,268.7233,857.1874,274.3756,860.35,265.0483" style="stroke:#181818;stroke-width:1;"/><text fill="#000000" font-family="sans-serif" font-size="13" lengthAdjust="spacing" textLength="110.8174" x="828.33" y="310.4966">&#32676;&#32452;&#29366;&#24577;/&#25104;&#21592;&#20107;&#20214;</text></g><!--link gs to bulk--><g class="link" data-entity-1="ent0002" data-entity-2="ent0006" data-link-type="dependency" data-source-line="25" id="lnk14"><path d="M613.09,97.7783 C621.43,106.8883 630.57,117.3883 638.31,127.4683 C657.27,152.1883 673.2612,177.1965 686.0012,198.2265" fill="none" id="gs-to-bulk" style="stroke:#181818;stroke-width:1;"/><polygon fill="#181818" points="689.11,203.3583,687.8679,193.5881,686.5193,199.0818,681.0256,197.7332,689.11,203.3583" style="stroke:#181818;stroke-width:1;"/><text fill="#000000" font-family="sans-serif" font-size="13" lengthAdjust="spacing" textLength="58.8174" x="651.08" y="141.0366">&#21457;&#29616;/&#25480;&#26435;</text></g><!--link bulk to uav--><g class="link" data-entity-1="ent0006" data-entity-2="ent0007" data-link-type="dependency" data-source-line="26" id="lnk15"><path d="M667.77,256.9283 C648.39,269.0783 623.6,282.3383 599.31,288.9283 C583.65,293.1783 318.62,285.2983 307.31,296.9283 C293.59,311.0283 301.8021,324.9848 318.0721,339.4948" fill="none" id="bulk-to-uav" style="stroke:#181818;stroke-width:1;"/><polygon fill="#181818" points="322.55,343.4883,318.4955,334.5127,318.8184,340.1603,313.1708,340.4833,322.55,343.4883" style="stroke:#181818;stroke-width:1;"/><text fill="#000000" font-family="sans-serif" font-size="13" lengthAdjust="spacing" textLength="83.9033" x="308.31" y="310.4966">&#35270;&#39057;/&#28857;&#20113; URI</text></g><!--link bulk to ugv--><g class="link" data-entity-1="ent0006" data-entity-2="ent0008" data-link-type="dependency" data-source-line="27" id="lnk16"><path d="M741.34,257.1783 C760.66,269.2383 785.23,282.3283 809.31,288.9283 C835.79,296.1883 1032.97,282.4683 1056.31,296.9283 C1072.95,307.2483 1080.9802,321.6108 1086.6802,338.0108" fill="none" id="bulk-to-ugv" style="stroke:#181818;stroke-width:1;"/><polygon fill="#181818" points="1088.65,343.6783,1089.4736,333.8639,1087.0085,338.9554,1081.917,336.4903,1088.65,343.6783" style="stroke:#181818;stroke-width:1;"/><text fill="#000000" font-family="sans-serif" font-size="13" lengthAdjust="spacing" textLength="83.9033" x="1074.63" y="310.4966">&#22320;&#22270;/&#35270;&#39057; URI</text></g><!--link bulk to swarm--><g class="link" data-entity-1="ent0006" data-entity-2="ent0009" data-link-type="dependency" data-source-line="28" id="lnk17"><path d="M710.44,256.8783 C716.36,281.6983 723.8958,313.2625 729.8158,338.0425" fill="none" id="bulk-to-swarm" style="stroke:#181818;stroke-width:1;"/><polygon fill="#181818" points="731.21,343.8783,733.0092,334.1952,730.0482,339.0151,725.2282,336.0541,731.21,343.8783" style="stroke:#181818;stroke-width:1;"/><text fill="#000000" font-family="sans-serif" font-size="13" lengthAdjust="spacing" textLength="78" x="724.76" y="310.4966">&#32676;&#32452;&#22823;&#27969;&#25551;&#36848;</text></g><!--link control to uav--><g class="link" data-entity-1="ent0004" data-entity-2="ent0007" data-link-type="dependency" data-source-line="30" id="lnk18"><path d="M364.43,246.3283 C305.14,257.0383 240.27,273.6683 222.31,296.9283 C217.69,302.9083 218.08,307.6683 222.31,313.9283 C233.06,329.8883 243.8222,338.7539 261.3722,346.8539" fill="none" id="control-to-uav" style="stroke:#181818;stroke-width:1;"/><polygon fill="#181818" points="266.82,349.3683,260.3246,341.9649,262.2802,347.273,256.9721,349.2286,266.82,349.3683" style="stroke:#181818;stroke-width:1;"/><text fill="#000000" font-family="sans-serif" font-size="13" lengthAdjust="spacing" textLength="43.5894" x="223.31" y="310.4966">&#21333; UAV</text></g><!--link control to ugv--><g class="link" data-entity-1="ent0004" data-entity-2="ent0008" data-link-type="dependency" data-source-line="31" id="lnk19"><path d="M534.66,265.3483 C554.67,274.8183 577.38,283.8883 599.31,288.9283 C674.69,306.2883 872.16,278.6083 947.31,296.9283 C985.8,306.3183 1020.7888,323.7425 1049.5388,340.5325" fill="none" id="control-to-ugv" style="stroke:#181818;stroke-width:1;"/><polygon fill="#181818" points="1054.72,343.5583,1048.9654,335.5655,1050.4024,341.0368,1044.931,342.4737,1054.72,343.5583" style="stroke:#181818;stroke-width:1;"/><text fill="#000000" font-family="sans-serif" font-size="13" lengthAdjust="spacing" textLength="44.0146" x="995.22" y="310.4966">&#21333; UGV</text></g><!--link control to swarm--><g class="link" data-entity-1="ent0004" data-entity-2="ent0009" data-link-type="dependency" data-source-line="32" id="lnk20"><path d="M498.2,265.0883 C512.13,281.9083 530.81,301.2983 551.31,313.9283 C584.73,334.5283 620.4138,346.4757 655.7438,354.9057" fill="none" id="control-to-swarm" style="stroke:#181818;stroke-width:1;"/><polygon fill="#181818" points="661.58,356.2983,653.7541,350.3187,656.7165,355.1378,651.8974,358.1002,661.58,356.2983" style="stroke:#181818;stroke-width:1;"/><text fill="#000000" font-family="sans-serif" font-size="13" lengthAdjust="spacing" textLength="160.5068" x="552.31" y="310.4966">Group Target / Broadcast</text></g><!--link control to GMN21--><g class="link" data-entity-1="ent0004" data-entity-2="ent0022" data-link-type="association" data-source-line="35" id="lnk23"><path d="M364.23,247.8783 C315.74,257.9583 258.98,273.5183 211.31,296.9283 C183.75,310.4683 156.69,333.2583 139.13,349.6683" fill="none" id="control-GMN21" style="stroke:#181818;stroke-width:1;stroke-dasharray:7,7;"/></g><?plantuml-src TPHTIzjG7CRlpwVuKsysXWIsoKJOeDP6ThEDLRqIv3Gvfg7fETd9gKx6G9tpNRlk7JOt5A72cFDcKksq7sPvgLVx2Zj96ctd912IF4z-vydpJ-8KJMfZZaiMquf4XppMYWPdPQfdcCKuJ1TCGP0mXKKWLwOSpu2tKMdjx_kp3VVaZLjVTUjh_libxzCfSXBM5PGBtIbWdKsRr819R3cTYaucSTaI8-IfI5kcGKk42j3aZl0Ebotvs20vCIDZSQ89J0sh4wEnaiselErV2pe_XDHmb11o0WkJqN5wJIAfc10pDe6xK8pbjdez1TW1mu6URBzwIrKHQcU0LBkMHvm9fZ4h1JrgVxZ1CmJGiPo_MVEM3y-sTiPfZZYEX882wR8eC6wA6L36QOQLIbWcKg1zz9WuieneQOrHmPabuQfwCvFfHWUhX_xiN8oMUKcEOjifC152emlPAVba4SS9Jw5dg2_RFtIxcp9OjehWLQh1va642iyp1KmfiOQ8et7J5en7a7pex54psRxC47hULUfeUWmUqZp3N0-VmYxBoLsgTXHFnOMMyPHiDAtUoQQx8CDZoStmWEdaCi180CP_0Rbfp4iImRXkKYnZZrFv6eOJjI5BTPkPIHsHCI4WEU3UtdldPGz0gxRWBRzMujdvwqjkOnU5eKDNNEK0UCrlmSkQuXwlkOr352QwMetNwzI3qzsWiH1FKF6NNtdLZsrlaYPgUw0z6HbbsTzwWQABeHgc2NCkdkrKbM3-o3skmkZZ-nq68pHudm_aDwh4lcv3d2b9uktM_9zpVgNIQXuWb3HniPAtyGxaaBiLurmPxbOITbpz2EO6aMyb37A6TGqx0Y7AP0rv9WGh0PjCgaT1uwjRdtMRszx1dFpN1CTDVwNPEZc99z7wyTqzMldpQnsvzGrlSSCzQGPlz_mFDN384xW1d4dYXAc3lxVjVLdxFJkFYFommhN-0W00?></g></svg>