<?plantuml 1.2026.2?><svg xmlns="http://www.w3.org/2000/svg" xmlns:xlink="http://www.w3.org/1999/xlink" contentStyleType="text/css" data-diagram-type="DESCRIPTION" height="1095.2083px" preserveAspectRatio="none" style="width:1860px;height:1095px;background:#FFFFFF;" version="1.1" viewBox="0 0 1860 1095" width="1860.8333px" zoomAndPan="magnify"><title>&#21327;&#35758;&#20998;&#38754;&#19982;&#21442;&#19982;&#26041;</title><defs/><g><g class="title" data-source-line="2"><text fill="#1F2A33" font-family="'Helvetica'" font-size="26.25" font-weight="bold" lengthAdjust="spacing" textLength="210" x="815.4771" y="34.7963">&#21327;&#35758;&#20998;&#38754;&#19982;&#21442;&#19982;&#26041;</text></g><!--cluster Yunlink Protocol--><g class="cluster" data-qualified-name="Yunlink Protocol" data-source-line="9" id="ent0005"><rect fill="#EEF2F4" height="581.875" rx="7.2917" ry="7.2917" style="stroke:#5E6A71;stroke-width:1.4583;" width="1080.625" x="194.6437" y="277.0833"/><text fill="#243039" font-family="'Helvetica'" font-size="18.9583" font-style="italic" lengthAdjust="spacing" textLength="82.2021" x="693.8552" y="294.5983">&#171;Neutral&#187;</text><text fill="#243039" font-family="'Helvetica'" font-size="18.9583" font-weight="bold" lengthAdjust="spacing" textLength="150.6206" x="659.6459" y="313.5566">Yunlink Protocol</text></g><!--entity transport--><g class="entity" data-qualified-name="Yunlink Protocol.transport" data-source-line="10" id="ent0006"><rect fill="#EEF2F4" height="86.0417" rx="5.8333" ry="5.8333" width="122.9123" x="815.675" y="740.1042"/><text fill="#243039" font-family="'Helvetica'" font-size="18.9583" font-style="italic" lengthAdjust="spacing" textLength="82.2021" x="836.0301" y="769.2858">&#171;Neutral&#187;</text><text fill="#243039" font-family="'Helvetica'" font-size="18.9583" lengthAdjust="spacing" textLength="81.1283" x="836.567" y="788.2441">Transport</text><text fill="#243039" font-family="'Helvetica'" font-size="18.9583" lengthAdjust="spacing" textLength="93.7456" x="830.2583" y="807.2025">TCP / UDP</text></g><!--entity wire--><g class="entity" data-qualified-name="Yunlink Protocol.wire" data-source-line="11" id="ent0007"><rect fill="#EEF2F4" height="67.0833" rx="5.8333" ry="5.8333" width="265.2109" x="693.4958" y="555.625"/><text fill="#243039" font-family="'Helvetica'" font-size="18.9583" font-style="italic" lengthAdjust="spacing" textLength="82.2021" x="785.0002" y="584.8066">&#171;Neutral&#187;</text><text fill="#243039" font-family="'Helvetica'" font-size="18.9583" lengthAdjust="spacing" textLength="236.0442" x="708.0792" y="603.765">SecureEnvelope Wire Layer</text></g><!--entity control--><g class="entity" data-qualified-name="Yunlink Protocol.control" data-source-line="12" id="ent0008"><rect fill="#F6E6BE" height="105" rx="5.8333" ry="5.8333" width="273.607" x="490.9625" y="730.625"/><text fill="#243039" font-family="'Helvetica'" font-size="18.9583" font-style="italic" lengthAdjust="spacing" textLength="82.2021" x="586.6649" y="759.8066">&#171;Control&#187;</text><text fill="#243039" font-family="'Helvetica'" font-size="18.9583" lengthAdjust="spacing" textLength="114.8701" x="570.3309" y="778.765">Control Plane</text><text fill="#243039" font-family="'Helvetica'" font-size="18.9583" lengthAdjust="spacing" textLength="168.5977" x="543.4671" y="797.7233">Session / Authority /</text><text fill="#243039" font-family="'Helvetica'" font-size="18.9583" lengthAdjust="spacing" textLength="244.4403" x="505.5458" y="816.6816">Command / CommandResult</text></g><!--entity state--><g class="entity" data-qualified-name="Yunlink Protocol.state" data-source-line="13" id="ent0009"><rect fill="#DCECDD" height="86.0417" rx="5.8333" ry="5.8333" width="262.0913" x="989.6396" y="740.1042"/><text fill="#243039" font-family="'Helvetica'" font-size="18.9583" font-style="italic" lengthAdjust="spacing" textLength="113.8426" x="1063.7639" y="769.2858">&#171;StatePlane&#187;</text><text fill="#243039" font-family="'Helvetica'" font-size="18.9583" lengthAdjust="spacing" textLength="98.0224" x="1071.674" y="788.2441">State Plane</text><text fill="#243039" font-family="'Helvetica'" font-size="18.9583" lengthAdjust="spacing" textLength="232.9246" x="1004.2229" y="807.2025">StateSnapshot / StateEvent</text></g><!--entity bulk--><g class="entity" data-qualified-name="Yunlink Protocol.bulk" data-source-line="14" id="ent0010"><rect fill="#DCEBFA" height="86.0417" rx="5.8333" ry="5.8333" width="223.0545" x="217.2771" y="740.1042"/><text fill="#243039" font-family="'Helvetica'" font-size="18.9583" font-style="italic" lengthAdjust="spacing" textLength="57.9673" x="299.8207" y="769.2858">&#171;Bulk&#187;</text><text fill="#243039" font-family="'Helvetica'" font-size="18.9583" lengthAdjust="spacing" textLength="179.1229" x="239.2429" y="788.2441">Bulk Discovery Plane</text><text fill="#243039" font-family="'Helvetica'" font-size="18.9583" lengthAdjust="spacing" textLength="193.8878" x="231.8604" y="807.2025">BulkChannelDescriptor</text></g><!--entity sdk--><g class="entity" data-qualified-name="Yunlink Protocol.sdk" data-source-line="15" id="ent0011"><rect fill="#EEF2F4" height="105" rx="5.8333" ry="5.8333" width="311.5514" x="670.3229" y="342.7083"/><text fill="#243039" font-family="'Helvetica'" font-size="18.9583" font-style="italic" lengthAdjust="spacing" textLength="82.2021" x="784.9975" y="371.89">&#171;Neutral&#187;</text><text fill="#243039" font-family="'Helvetica'" font-size="18.9583" lengthAdjust="spacing" textLength="91.6721" x="780.2626" y="390.8483">SDK Layer</text><text fill="#243039" font-family="'Helvetica'" font-size="18.9583" lengthAdjust="spacing" textLength="212.8462" x="719.6755" y="409.8066">Runtime / SessionClient /</text><text fill="#243039" font-family="'Helvetica'" font-size="18.9583" lengthAdjust="spacing" textLength="282.3847" x="684.9063" y="428.765">CommandPublisher / Subscribers</text></g><!--entity gs--><g class="entity" data-qualified-name="gs" data-source-line="5" id="ent0002"><ellipse cx="826.1038" cy="77.2917" fill="#F1F4F6" rx="11.6667" ry="11.6667"/><path d="M826.1038,88.9583 L826.1038,128.3333 M807.1455,100.625 L845.0622,100.625 M826.1038,128.3333 L807.1455,150.2083 M826.1038,128.3333 L845.0622,150.2083" fill="none"/><text fill="#243039" font-family="'Helvetica'" font-size="18.9583" lengthAdjust="spacing" textLength="127.5244" x="762.3416" y="166.265">Ground Station</text><text fill="#243039" font-family="'Helvetica'" font-size="18.9583" lengthAdjust="spacing" textLength="247.1619" x="702.5229" y="185.2233">agent_type = kGroundStation</text></g><!--entity onboard--><g class="entity" data-qualified-name="onboard" data-source-line="6" id="ent0003"><ellipse cx="779.4273" cy="975.625" fill="#F1F4F6" rx="11.6667" ry="11.6667"/><path d="M779.4273,987.2917 L779.4273,1026.6667 M760.469,998.9583 L798.3856,998.9583 M779.4273,1026.6667 L760.469,1048.5417 M779.4273,1026.6667 L798.3856,1048.5417" fill="none"/><text fill="#243039" font-family="'Helvetica'" font-size="18.9583" lengthAdjust="spacing" textLength="162.2844" x="698.2851" y="1064.5983">Onboard Computer</text><text fill="#243039" font-family="'Helvetica'" font-size="18.9583" lengthAdjust="spacing" textLength="246.5879" x="656.1333" y="1083.5566">UAV / UGV protocol endpoint</text></g><!--entity swarm--><g class="entity" data-qualified-name="swarm" data-source-line="7" id="ent0004"><ellipse cx="287.9776" cy="975.625" fill="#F1F4F6" rx="11.6667" ry="11.6667"/><path d="M287.9776,987.2917 L287.9776,1026.6667 M269.0193,998.9583 L306.9359,998.9583 M287.9776,1026.6667 L269.0193,1048.5417 M287.9776,1026.6667 L306.9359,1048.5417" fill="none"/><text fill="#243039" font-family="'Helvetica'" font-size="18.9583" lengthAdjust="spacing" textLength="139.0957" x="218.4298" y="1064.5983">Swarm Endpoint</text><text fill="#243039" font-family="'Helvetica'" font-size="18.9583" lengthAdjust="spacing" textLength="221.2886" x="177.3333" y="1083.5566">Group coordinator or relay</text></g><g class="entity" data-qualified-name="GMN24" data-source-line="36" id="ent0025"><path d="M1303.1083,755.4167 L1303.1083,810.8333 A5.8333,5.8333 0 0 0 1308.9417,816.6667 L1845.3292,816.6667 A5.8333,5.8333 0 0 0 1851.1625,810.8333 L1851.1625,764.1667 L1836.5792,749.5833 L1308.9417,749.5833 A5.8333,5.8333 0 0 0 1303.1083,755.4167" fill="#F7F5F1" style="stroke:#B7AEA1;stroke-width:0.7292;"/><path d="M1836.5792,749.5833 L1836.5792,761.25 A2.9167,2.9167 0 0 0 1839.4959,764.1667 L1851.1625,764.1667 L1836.5792,749.5833" fill="#F7F5F1" style="stroke:#B7AEA1;stroke-width:1.4583;"/><text fill="#2D3135" font-family="'Helvetica'" font-size="17.5" lengthAdjust="spacing" textLength="245" x="1448.0729" y="770.3503">&#32479;&#19968;&#20449;&#23553;&#24635;&#32447;&#21482;&#36127;&#36131;&#31283;&#23450;&#25215;&#36733;&#65306;</text><text fill="#2D3135" font-family="'Helvetica'" font-size="17.5" lengthAdjust="spacing" textLength="213.9221" x="1463.6119" y="787.8503">transport &#19981;&#23450;&#20041;&#19994;&#21153;&#35821;&#20041;&#65292;</text><text fill="#2D3135" font-family="'Helvetica'" font-size="17.5" lengthAdjust="spacing" textLength="517.4292" x="1311.8583" y="805.3503">message_family + message_type + schema_version &#25165;&#23450;&#20041;&#35821;&#20041;&#12290;</text></g><!--link gs to sdk--><g class="link" data-entity-1="ent0002" data-entity-2="ent0011" data-link-type="dependency" data-source-line="18" id="lnk12"><path d="M826.1021,189.7875 C826.1021,235.8854 826.1021,289.8146 826.1021,333.4771" fill="none" id="gs-to-sdk" style="stroke:#5E6A71;stroke-width:1.6042;"/><polygon fill="#5E6A71" points="826.1021,342.2271,831.9354,329.1021,826.1021,334.9354,820.2687,329.1021,826.1021,342.2271" style="stroke:#5E6A71;stroke-width:1.6042;"/><text fill="#243039" font-family="'Helvetica'" font-size="17.5" lengthAdjust="spacing" textLength="212.0508" x="827.5604" y="248.267">typed API / protocol access</text></g><!--link sdk to wire--><g class="link" data-entity-1="ent0011" data-entity-2="ent0007" data-link-type="dependency" data-source-line="19" id="lnk13"><path d="M826.1021,448.3646 C826.1021,482.4021 826.1021,517.1687 826.1021,546.4375" fill="none" id="sdk-to-wire" style="stroke:#5E6A71;stroke-width:1.6042;"/><polygon fill="#5E6A71" points="826.1021,555.1875,831.9354,542.0625,826.1021,547.8958,820.2687,542.0625,826.1021,555.1875" style="stroke:#5E6A71;stroke-width:1.6042;"/><text fill="#243039" font-family="'Helvetica'" font-size="17.5" lengthAdjust="spacing" textLength="242.7014" x="827.5604" y="506.392">semantic message -&gt; envelope</text></g><!--link wire to transport--><g class="link" data-entity-1="ent0007" data-entity-2="ent0006" data-link-type="dependency" data-source-line="20" id="lnk14"><path d="M819.7146,623.2479 C817.2208,642.1479 816.1271,666.2104 821.7271,686.875 C826.7,705.2792 831.622,716.3462 841.4075,732.0379" fill="none" id="wire-to-transport" style="stroke:#5E6A71;stroke-width:1.6042;"/><polygon fill="#5E6A71" points="846.0375,739.4625,844.0422,725.2389,842.1791,733.2753,834.1427,731.4122,846.0375,739.4625" style="stroke:#5E6A71;stroke-width:1.6042;"/><text fill="#243039" font-family="'Helvetica'" font-size="17.5" lengthAdjust="spacing" textLength="170.1892" x="823.1854" y="681.392">route over TCP / UDP</text></g><!--link wire to control--><g class="link" data-entity-1="ent0007" data-entity-2="ent0008" data-link-type="dependency" data-source-line="22" id="lnk15"><path d="M747.9354,623.0583 C726.5563,634.5354 704.6229,649.0167 687.5604,666.4583 C669.9,684.4979 659.8505,700.8335 650.0797,722.4751" fill="none" id="wire-to-control" style="stroke:#5E6A71;stroke-width:1.6042;"/><polygon fill="#5E6A71" points="646.4792,730.45,657.1965,720.888,649.4796,723.8043,646.5634,716.0873,646.4792,730.45" style="stroke:#5E6A71;stroke-width:1.6042;"/><text fill="#243039" font-family="'Helvetica'" font-size="17.5" lengthAdjust="spacing" textLength="116.7065" x="689.0188" y="681.392">control families</text></g><!--link wire to state--><g class="link" data-entity-1="ent0007" data-entity-2="ent0009" data-link-type="dependency" data-source-line="23" id="lnk16"><path d="M917.0437,623.3208 C944.6208,635.0604 974.2979,649.6292 999.6437,666.4583 C1030.575,687.0062 1054.8044,709.4688 1077.3211,733.1375" fill="none" id="wire-to-state" style="stroke:#5E6A71;stroke-width:1.6042;"/><polygon fill="#5E6A71" points="1083.3521,739.4771,1078.532,725.9471,1078.3263,734.1941,1070.0793,733.9884,1083.3521,739.4771" style="stroke:#5E6A71;stroke-width:1.6042;"/><text fill="#243039" font-family="'Helvetica'" font-size="17.5" lengthAdjust="spacing" textLength="192.6025" x="1026.7688" y="681.392">snapshot / event families</text></g><!--link wire to bulk--><g class="link" data-entity-1="ent0007" data-entity-2="ent0010" data-link-type="dependency" data-source-line="24" id="lnk17"><path d="M693.0438,603.4875 C623.6125,613.9438 538.7958,632.7562 468.8104,666.4583 C431.375,684.4833 401.6623,708.5208 375.5144,733.4146" fill="none" id="wire-to-bulk" style="stroke:#5E6A71;stroke-width:1.6042;"/><polygon fill="#5E6A71" points="369.1771,739.4479,382.7053,734.6228,374.4582,734.4201,374.6608,726.173,369.1771,739.4479" style="stroke:#5E6A71;stroke-width:1.6042;"/><text fill="#243039" font-family="'Helvetica'" font-size="17.5" lengthAdjust="spacing" textLength="188.7061" x="470.2688" y="681.392">discovery / authorization</text></g><!--link control to onboard--><g class="link" data-entity-1="ent0008" data-entity-2="ent0003" data-link-type="dependency" data-source-line="26" id="lnk18"><path d="M684.9938,836.1063 C698.4979,850.1646 712.0021,866.0313 722.5604,882.2917 C738.7625,907.2729 748.7157,929.3696 758.1219,955.6051" fill="none" id="control-to-onboard" style="stroke:#5E6A71;stroke-width:1.6042;"/><polygon fill="#5E6A71" points="761.075,963.8417,762.1364,949.518,758.6141,956.9778,751.1543,953.4555,761.075,963.8417" style="stroke:#5E6A71;stroke-width:1.6042;"/><text fill="#243039" font-family="'Helvetica'" font-size="17.5" lengthAdjust="spacing" textLength="163.4131" x="744.1438" y="905.9753">single-vehicle control</text></g><!--link control to swarm--><g class="link" data-entity-1="ent0008" data-entity-2="ent0004" data-link-type="dependency" data-source-line="27" id="lnk19"><path d="M546.5979,836.3396 C521.6313,849.8583 493.4417,862.8083 465.8938,870.625 C446.3667,876.1667 297.4854,867.4896 283.6021,882.2917 C263.6521,903.5396 261.4609,926.8097 266.5797,954.9847" fill="none" id="control-to-swarm" style="stroke:#5E6A71;stroke-width:1.6042;"/><polygon fill="#5E6A71" points="268.1438,963.5938,271.537,949.6374,266.8404,956.4195,260.0583,951.7229,268.1438,963.5938" style="stroke:#5E6A71;stroke-width:1.6042;"/><text fill="#243039" font-family="'Helvetica'" font-size="17.5" lengthAdjust="spacing" textLength="185.8093" x="285.0604" y="905.9753">group target / broadcast</text></g><!--link onboard to state--><g class="link" data-entity-1="ent0003" data-entity-2="ent0009" data-link-type="dependency" data-source-line="29" id="lnk20"><path d="M902.9854,1009.0938 C1008.2625,993.1542 1147.7958,964.3083 1181.9354,920.2083 C1203.7521,892.0187 1189.7164,861.6378 1167.0976,833.3315" fill="none" id="onboard-to-state" style="stroke:#5E6A71;stroke-width:1.6042;"/><polygon fill="#5E6A71" points="1161.6354,826.4958,1165.2716,840.3909,1166.1873,832.1922,1174.3859,833.1079,1161.6354,826.4958" style="stroke:#5E6A71;stroke-width:1.6042;"/><text fill="#243039" font-family="'Helvetica'" font-size="17.5" lengthAdjust="spacing" textLength="145.9216" x="1192.9021" y="897.2253">periodic snapshots</text><text fill="#243039" font-family="'Helvetica'" font-size="17.5" lengthAdjust="spacing" textLength="143.0078" x="1194.359" y="914.7253">and sparse events</text></g><!--link swarm to state--><g class="link" data-entity-1="ent0004" data-entity-2="ent0009" data-link-type="dependency" data-source-line="30" id="lnk21"><path d="M398.9708,1004.15 C465.9958,992.0458 553.1604,976.6458 630.6854,963.9583 C759.4125,942.8854 799.4146,967.7354 920.8937,920.2083 C950.8479,908.4833 1009.6756,867.2537 1057.611,831.9474" fill="none" id="swarm-to-state" style="stroke:#5E6A71;stroke-width:1.6042;"/><polygon fill="#5E6A71" points="1064.6562,826.7583,1050.629,829.8451,1058.7852,831.0826,1057.5478,839.2388,1064.6562,826.7583" style="stroke:#5E6A71;stroke-width:1.6042;"/><text fill="#243039" font-family="'Helvetica'" font-size="17.5" lengthAdjust="spacing" textLength="92.4133" x="1023.1909" y="897.2253">group result</text><text fill="#243039" font-family="'Helvetica'" font-size="17.5" lengthAdjust="spacing" textLength="174.1284" x="982.3333" y="914.7253">and member feedback</text></g><!--link bulk to onboard--><g class="link" data-entity-1="ent0010" data-entity-2="ent0003" data-link-type="dependency" data-source-line="32" id="lnk22"><path d="M396.0542,826.7 C421.925,843.4417 451.5,863.2167 477.5604,882.2917 C499.1146,898.0708 501.2292,906.5875 524.2271,920.2083 C565.1917,944.4896 604.7151,962.4643 647.6922,979.2643" fill="none" id="bulk-to-onboard" style="stroke:#5E6A71;stroke-width:1.6042;"/><polygon fill="#5E6A71" points="655.8417,982.45,645.7412,972.2385,649.0504,979.7953,641.4937,983.1045,655.8417,982.45" style="stroke:#5E6A71;stroke-width:1.6042;"/><text fill="#243039" font-family="'Helvetica'" font-size="17.5" lengthAdjust="spacing" textLength="183.8525" x="525.6854" y="905.9753">URI / channel metadata</text></g><!--link bulk to swarm--><g class="link" data-entity-1="ent0010" data-entity-2="ent0004" data-link-type="dependency" data-source-line="33" id="lnk23"><path d="M216.5771,793.5667 C156.7563,804.7375 87.9083,829.1938 50.2688,882.2917 C8.75,940.8437 88.0007,977.1332 168.3549,999.154" fill="none" id="bulk-to-swarm" style="stroke:#5E6A71;stroke-width:1.6042;"/><polygon fill="#5E6A71" points="176.7938,1001.4667,165.6772,992.3718,169.7614,999.5395,162.5937,1003.6236,176.7938,1001.4667" style="stroke:#5E6A71;stroke-width:1.6042;"/><text fill="#243039" font-family="'Helvetica'" font-size="17.5" lengthAdjust="spacing" textLength="172.1716" x="51.7271" y="905.9753">group bulk descriptors</text></g><!--link wire to GMN24--><g class="link" data-entity-1="ent0007" data-entity-2="ent0025" data-link-type="association" data-source-line="36" id="lnk26"><path d="M959.0583,610.6188 C1039.0333,623.8313 1142.5458,643.0229 1232.9771,666.4583 C1322.0229,689.5437 1421.4375,723.7708 1490.4458,748.9125" fill="none" id="wire-GMN24" style="stroke:#5E6A71;stroke-width:1.6042;stroke-dasharray:10.2083,10.2083;"/></g><?plantuml-src TLHDQrDD5DxFhpXcAxNx40irBIAAXiRw8WJ2PEvfCcJkp6LcRajU4Vgw42jgTouA8kf61AkWY_f5Vun96rV-1S_ClJTfNXL2k3FpdEUSUPupnmsbphZbgJ9YY0dqk1ZshSbrqZJAMDWPI8_idDH2vGb2TvHh9VMmcrdZZJ2gwmUOuWMPfufvwHN2vF7-zF1myk3-ZsSlnqTF9lltwF_awIVcJGRUGCzuRr98f4NXfT6CSU4fK-roJ0jjpyDsH_C-Qj_rempX8WoBq_Am1jn1trMHDtJFS9j0qwHPxj5szERgBLY6pSkte2eKK2UPaTh7M5D4L0Jj7MvJM2yH7HsIPI2CiOdKF43ePr7nKOns0SvOHbfHaL2xNOW2hJ9N3HgDwvXxozNA2jnXG5HfPZJT1setBTSkCvRIt6osGfLhhSZgguEpqOknRHIvnNMzZSgGBF-GXd2DZz16Wfsm_6jiqsXlIOUMuXexketEaPAKVpNt0sEb7y5oHvE4AISNbg7ysa2Ngq8qKJ8q6YNNR-MHEpXB41PjpJCtC9xuudfz6qi7NCGs6d4xXloVxLAkXh0cdJ3RQ4SLRTXj3hZMgDRG2IipiYSozWA-qGY0tmfRkrherD4RkVOonL1GeK1JoO2PtxsLzvHq0xG1a_T2ZXvQLrIT31SKlijOty7IqaeygKFerWHMMrSeTjPvN0XAnG8Y8ADDTN18oRmKaD9XQ2Cwmj9P5Z41F6-AEb1JacH13PXr3fj3AtlgiwyjdagwdPjZ2jKf-TmN39Ry0HhbhDCxhGnO1bvqoh-yUBTLce0k7rIWbhglS6aR1rBGE2X12-3uVWZQZy_CSzl7K4dF6fu8xZnZ5TtPcZEqqYGaM5Myenb1hUfeVZaixa4gH-wpSKKM6_kuY4Wn9KTX2p49yuwnUDV5Qsnk10z5qMaKuNd2FPyZ5-yGjvDPFph6jA7avQmpMz5qTlhb-VXeTtpyOlB-lvFTBwUVZoVxRwOVdqy_lZfz_M5oU72oTppzzktdrmCsztryz9XEnf_snaS7auSlfk_UqlVFhuzOsJVTQDq8pbUDL8pCy-04ZMRU9U_YGp_PAtaAXk-xznYDH0Xr_W80?></g></svg>