<?plantuml 1.2026.2?><svg xmlns="http://www.w3.org/2000/svg" xmlns:xlink="http://www.w3.org/1999/xlink" contentStyleType="text/css" data-diagram-type="DESCRIPTION" height="926.0417px" preserveAspectRatio="none" style="width:1958px;height:926px;background:#FFFFFF;" version="1.1" viewBox="0 0 1958 926" width="1958.5417px" zoomAndPan="magnify"><title>Sunray Bridge Roadmap</title><defs/><g><g class="title" data-source-line="2"><text fill="#1F2A33" font-family="'Helvetica'" font-size="26.25" font-weight="bold" lengthAdjust="spacing" textLength="306.3098" x="816.3001" y="34.7963">Sunray Bridge Roadmap</text></g><!--cluster V1--><g class="cluster" data-qualified-name="V1" data-source-line="4" id="ent0002"><rect fill="#F6E6BE" height="432.3958" rx="7.2917" ry="7.2917" style="stroke:#9A6B18;stroke-width:1.4583;" width="468.125" x="10.2083" y="67.0833"/><text fill="#243039" font-family="'Helvetica'" font-size="18.9583" font-style="italic" lengthAdjust="spacing" textLength="82.2021" x="203.1698" y="84.5983">&#171;Control&#187;</text><text fill="#243039" font-family="'Helvetica'" font-size="18.9583" font-weight="bold" lengthAdjust="spacing" textLength="203.3022" x="142.6197" y="103.5566">v1 Raw Control Bridge</text></g><!--cluster V2--><g class="cluster" data-qualified-name="V2" data-source-line="11" id="ent0007"><rect fill="#DCECDD" height="476.1458" rx="7.2917" ry="7.2917" style="stroke:#3F7047;stroke-width:1.4583;" width="475.4167" x="536.6667" y="310.625"/><text fill="#243039" font-family="'Helvetica'" font-size="18.9583" font-style="italic" lengthAdjust="spacing" textLength="113.8426" x="717.4537" y="328.14">&#171;StatePlane&#187;</text><text fill="#243039" font-family="'Helvetica'" font-size="18.9583" font-weight="bold" lengthAdjust="spacing" textLength="171.7081" x="688.521" y="347.0983">v2 Planning Bridge</text></g><!--cluster V3--><g class="cluster" data-qualified-name="V3" data-source-line="17" id="ent0011"><rect fill="#EEF2F4" height="179.375" rx="7.2917" ry="7.2917" style="stroke:#5E6A71;stroke-width:1.4583;" width="787.5" x="1070.4167" y="607.3958"/><text fill="#243039" font-family="'Helvetica'" font-size="18.9583" font-style="italic" lengthAdjust="spacing" textLength="82.2021" x="1423.0656" y="624.9108">&#171;Neutral&#187;</text><text fill="#243039" font-family="'Helvetica'" font-size="18.9583" font-weight="bold" lengthAdjust="spacing" textLength="156.9432" x="1385.6951" y="643.8691">Future Portability</text></g><!--entity V1A--><g class="entity" data-qualified-name="V1.V1A" data-source-line="5" id="ent0003"><rect fill="#EEF2F4" height="48.125" rx="5.8333" ry="5.8333" width="120.8387" x="67.9146" y="153.8542"/><text fill="#243039" font-family="'Helvetica'" font-size="18.9583" lengthAdjust="spacing" textLength="91.6721" x="82.4979" y="183.0358">ROS1 only</text></g><!--entity V1B--><g class="entity" data-qualified-name="V1.V1B" data-source-line="6" id="ent0004"><rect fill="#EEF2F4" height="67.0833" rx="5.8333" ry="5.8333" width="148.2487" x="239.4146" y="144.375"/><text fill="#243039" font-family="'Helvetica'" font-size="18.9583" lengthAdjust="spacing" textLength="104.3171" x="261.3804" y="173.5566">single UAV /</text><text fill="#243039" font-family="'Helvetica'" font-size="18.9583" lengthAdjust="spacing" textLength="119.082" x="253.9979" y="192.515">single session</text></g><!--entity V1C--><g class="entity" data-qualified-name="V1.V1C" data-source-line="7" id="ent0005"><rect fill="#EEF2F4" height="86.0417" rx="5.8333" ry="5.8333" width="165.1149" x="45.7771" y="378.4375"/><text fill="#243039" font-family="'Helvetica'" font-size="18.9583" lengthAdjust="spacing" textLength="131.7363" x="62.4664" y="407.6191">Takeoff / Land /</text><text fill="#243039" font-family="'Helvetica'" font-size="18.9583" lengthAdjust="spacing" textLength="124.34" x="66.1646" y="426.5775">Return / Goto /</text><text fill="#243039" font-family="'Helvetica'" font-size="18.9583" lengthAdjust="spacing" textLength="135.9483" x="60.3604" y="445.5358">VelocitySetpoint</text></g><!--entity V1D--><g class="entity" data-qualified-name="V1.V1D" data-source-line="8" id="ent0006"><rect fill="#EEF2F4" height="67.0833" rx="5.8333" ry="5.8333" width="170.3544" x="261.9021" y="387.9167"/><text fill="#243039" font-family="'Helvetica'" font-size="18.9583" lengthAdjust="spacing" textLength="114.8794" x="289.6396" y="417.0983">bridge-owned</text><text fill="#243039" font-family="'Helvetica'" font-size="18.9583" lengthAdjust="spacing" textLength="141.1877" x="276.4854" y="436.0566">CommandResult</text></g><!--entity V2A--><g class="entity" data-qualified-name="V2.V2A" data-source-line="12" id="ent0008"><rect fill="#EEF2F4" height="67.0833" rx="5.8333" ry="5.8333" width="157.7464" x="571.55" y="387.9167"/><text fill="#243039" font-family="'Helvetica'" font-size="18.9583" lengthAdjust="spacing" textLength="128.5797" x="586.1333" y="417.0983">planning_cmd /</text><text fill="#243039" font-family="'Helvetica'" font-size="18.9583" lengthAdjust="spacing" textLength="123.331" x="588.7577" y="436.0566">planning_state</text></g><!--entity V2B--><g class="entity" data-qualified-name="V2.V2B" data-source-line="13" id="ent0009"><rect fill="#EEF2F4" height="67.0833" rx="5.8333" ry="5.8333" width="168.2438" x="780.675" y="387.9167"/><text fill="#243039" font-family="'Helvetica'" font-size="18.9583" lengthAdjust="spacing" textLength="139.0771" x="795.2583" y="417.0983">TrajectoryChunk</text><text fill="#243039" font-family="'Helvetica'" font-size="18.9583" lengthAdjust="spacing" textLength="90.6353" x="819.4793" y="436.0566">true bridge</text></g><!--entity V2C--><g class="entity" data-qualified-name="V2.V2C" data-source-line="14" id="ent0010"><rect fill="#EEF2F4" height="67.0833" rx="5.8333" ry="5.8333" width="139.8248" x="580.5042" y="684.6875"/><text fill="#243039" font-family="'Helvetica'" font-size="18.9583" lengthAdjust="spacing" textLength="110.6582" x="595.0875" y="713.8691">VehicleEvent</text><text fill="#243039" font-family="'Helvetica'" font-size="18.9583" lengthAdjust="spacing" textLength="87.4509" x="606.6911" y="732.8275">formalized</text></g><!--entity V3A--><g class="entity" data-qualified-name="V3.V3A" data-source-line="18" id="ent0012"><rect fill="#EEF2F4" height="48.125" rx="5.8333" ry="5.8333" width="196.7183" x="1104.7604" y="694.1667"/><text fill="#243039" font-family="'Helvetica'" font-size="18.9583" lengthAdjust="spacing" textLength="167.5517" x="1119.3437" y="723.3483">ROS2 adapter layer</text></g><!--entity V3B--><g class="entity" data-qualified-name="V3.V3B" data-source-line="19" id="ent0013"><rect fill="#EEF2F4" height="67.0833" rx="5.8333" ry="5.8333" width="175.6587" x="1352.9979" y="684.6875"/><text fill="#243039" font-family="'Helvetica'" font-size="18.9583" lengthAdjust="spacing" textLength="146.492" x="1367.5813" y="713.8691">shared mapping /</text><text fill="#243039" font-family="'Helvetica'" font-size="18.9583" lengthAdjust="spacing" textLength="100.0867" x="1390.7839" y="732.8275">tracker core</text></g><!--entity V3C--><g class="entity" data-qualified-name="V3.V3C" data-source-line="20" id="ent0014"><rect fill="#EEF2F4" height="67.0833" rx="5.8333" ry="5.8333" width="215.6859" x="1579.4479" y="684.6875"/><text fill="#243039" font-family="'Helvetica'" font-size="18.9583" lengthAdjust="spacing" textLength="186.5193" x="1594.0312" y="713.8691">same Yunlink protocol</text><text fill="#243039" font-family="'Helvetica'" font-size="18.9583" lengthAdjust="spacing" textLength="108.5383" x="1633.0217" y="732.8275">owner model</text></g><g class="entity" data-qualified-name="GMN17" data-source-line="27" id="ent0018"><path d="M1440.5562,872.8125 L1440.5562,910.7292 A5.8333,5.8333 0 0 0 1446.3896,916.5625 L1928.1836,916.5625 A5.8333,5.8333 0 0 0 1934.0169,910.7292 L1934.0169,881.5625 L1919.4336,866.9792 L1693.125,866.9792 L1687.2917,752.1792 L1681.4583,866.9792 L1446.3896,866.9792 A5.8333,5.8333 0 0 0 1440.5562,872.8125" fill="#F7F5F1" style="stroke:#B7AEA1;stroke-width:0.7292;"/><path d="M1919.4336,866.9792 L1919.4336,878.6458 A2.9167,2.9167 0 0 0 1922.3503,881.5625 L1934.0169,881.5625 L1919.4336,866.9792" fill="#F7F5F1" style="stroke:#B7AEA1;stroke-width:0.7292;"/><text fill="#2D3135" font-family="'Helvetica'" font-size="17.5" lengthAdjust="spacing" textLength="462.8357" x="1449.3062" y="887.7462">&#19968;&#26399;&#20808;&#25226; owner&#12289;&#36793;&#30028;&#12289;&#22238;&#21253;&#35821;&#20041;&#21644; raw control &#38381;&#29615;&#20570;&#23545;&#12290;</text><text fill="#2D3135" font-family="'Helvetica'" font-size="17.5" lengthAdjust="spacing" textLength="351.0339" x="1505.2071" y="905.2462">&#20108;&#26399;&#20877;&#25193; planning&#65292;&#32780;&#19981;&#26159;&#19968;&#24320;&#22987;&#28151;&#22312;&#19968;&#36215;&#12290;</text></g><!--link V1 to V2--><g class="link" data-entity-1="ent0002" data-entity-2="ent0007" data-link-type="dependency" data-source-line="23" id="lnk15"><path d="M478.8357,180.2087 C481.2503,180.3833 483.999,180.5861 487.0586,180.818 C499.2974,181.7452 516.5131,183.137 537.2393,185.0479 C578.6917,188.8697 634.1863,194.7677 691.9919,203.1786 C807.6031,220.0005 932.4583,246.874 972.7083,287.2917 C977.9401,292.5453 982.3039,298.5154 985.9342,304.946 C986.8418,306.5536 987.7035,308.1901 988.5215,309.8513 C988.6237,310.059 984.9131,302.3911 985.0139,302.5996" fill="none" id="V1-to-V2" style="stroke:#5E6A71;stroke-width:1.6042;"/><polygon fill="#5E6A71" points="988.8262,310.4754,988.3584,296.1201,985.6493,303.9122,977.8572,301.2031,988.8262,310.4754" style="stroke:#5E6A71;stroke-width:1.6042;"/><text fill="#243039" font-family="'Helvetica'" font-size="17.5" lengthAdjust="spacing" textLength="194.5508" x="956.0104" y="270.142">expand semantic surface</text></g><!--link V2 to V3--><g class="link" data-entity-1="ent0007" data-entity-2="ent0011" data-link-type="dependency" data-source-line="24" id="lnk16"><path d="M1012.5978,424.9257 C1013.014,424.9943 1013.4403,425.0647 1013.8766,425.1368 C1014.7491,425.2808 1015.6617,425.4316 1016.6136,425.589 C1018.5173,425.9036 1020.5782,426.2446 1022.7906,426.6111 C1027.2153,427.3439 1032.2459,428.1787 1037.8364,429.1086 C1060.1987,432.8281 1091.5209,438.0702 1128.8701,444.4063 C1203.5684,457.0786 1302.3746,474.127 1401.8247,492.1237 C1600.725,528.1172 1802.201,567.9042 1818.5417,584.0625 C1823.8135,589.276 1828.2075,595.2158 1831.8597,601.6241 C1832.7727,603.2262 1833.6394,604.8575 1834.4619,606.5141 C1834.5647,606.7212 1830.8295,599.065 1830.9309,599.2729" fill="none" id="V2-to-V3" style="stroke:#5E6A71;stroke-width:1.6042;"/><polygon fill="#5E6A71" points="1834.7682,607.1365,1834.2547,592.7828,1831.5705,600.5835,1823.7698,597.8992,1834.7682,607.1365" style="stroke:#5E6A71;stroke-width:1.6042;"/><text fill="#243039" font-family="'Helvetica'" font-size="17.5" lengthAdjust="spacing" textLength="136.189" x="1800.2772" y="549.4128">keep module split</text><text fill="#243039" font-family="'Helvetica'" font-size="17.5" lengthAdjust="spacing" textLength="158.5767" x="1789.0833" y="566.9128">ros_adapter isolated</text></g><?plantuml-src RLFFQnDH4BxlNp7cNakJcvH26tzSH4jI0q8WlEnEckU-VREyVTiQHKY5Ygsf1q4KBNfK3oKdQIl5VwRPD9xy5votsOW9tdRcpJSptpVV9g7KiJ0YKkI7641R-E6seLG7LL9aOBShBNhNfFPL6Y2qUgbMKeUjs90bdrJBTZ72wpADb6UbLGZrL1lHWmqZWss46eaW4h7d6VIjqDjSKDfPWPhOXIffQqWLbILONIqoQsiW4cYim5CFmASe9etQGgbslxu2f5MlD7rVdtzEPDx-mNe3bfkwY19C4acwG6pC8xP4YDJfm3BS5Jfmg1hQr6XEt65wBj505aRQNXrjJ5BReb5rlb4xfx14kng3fgvI576_6YQfcW5kUi_cDIZ3fX9QyvR_252tmgBBOw51UL63k02r_2XV-6-SEEXqM7b1c2qZ7l5aChrgDzLXaqLE4Th5r1on84m3kz9NU6k7ewRka8c4aaymAAgh2sHkfwmQmYOPAzfIiLoEp3rChH6pQrR-SyqoY4345WqeqKCpxLvPF6jN63OccoXsOYsxzTca3FB95FjN5lPFH8JmS6fLc5crgTrz34GKe2fmEHDssjBIcXFx1k3Zs5aXGRwWbJuagUa87pr-p6igN1CYngvBwlmLCzscDfIqPbnaGefl4NYU9iiwaxKKUQEp_lZuSxR_Sdnu2FaYb_szoS_pgxS3_iW-Vie6-vFXoUZy87ip0CF_Xr_y7x_UdLoz7cPx7xBX-MN_kJVwCN2TNXoD3xx1xFw_BmQJ_c1qTZH-F-HHsKK_-_9gV7gQ7N_bSFBzr26HcRcT_W00?></g></svg>