<?plantuml 1.2026.2?><svg xmlns="http://www.w3.org/2000/svg" xmlns:xlink="http://www.w3.org/1999/xlink" contentStyleType="text/css" data-diagram-type="DESCRIPTION" height="647.5px" preserveAspectRatio="none" style="width:1878px;height:647px;background:#FFFFFF;" version="1.1" viewBox="0 0 1878 647" width="1878.3333px" zoomAndPan="magnify"><title>sunray_yunlink_bridge - Component View</title><defs/><g><g class="title" data-source-line="2"><text fill="#1F2A33" font-family="'Helvetica'" font-size="26.25" font-weight="bold" lengthAdjust="spacing" textLength="523.6285" x="667.1441" y="34.7963">sunray_yunlink_bridge - Component View</text></g><!--cluster sunray_yunlink_bridge--><g class="cluster" data-qualified-name="sunray_yunlink_bridge" data-source-line="4" id="ent0002"><rect fill="#EEF2F4" height="348.5417" rx="7.2917" ry="7.2917" style="stroke:#5E6A71;stroke-width:1.4583;" width="681.0417" x="409.7917" y="67.0833"/><text fill="#243039" font-family="'Helvetica'" font-size="18.9583" font-style="italic" lengthAdjust="spacing" textLength="82.2021" x="709.2114" y="84.5983">&#171;Neutral&#187;</text><text fill="#243039" font-family="'Helvetica'" font-size="18.9583" font-weight="bold" lengthAdjust="spacing" textLength="207.5512" x="646.5369" y="103.5566">sunray_yunlink_bridge</text></g><!--cluster Sunray ROS Contract--><g class="cluster" data-qualified-name="Sunray ROS Contract" data-source-line="11" id="ent0007"><rect fill="#EEF2F4" height="156.0417" rx="7.2917" ry="7.2917" style="stroke:#5E6A71;stroke-width:1.4583;" width="1019.375" x="10.2083" y="473.2292"/><text fill="#243039" font-family="'Helvetica'" font-size="18.9583" font-style="italic" lengthAdjust="spacing" textLength="82.2021" x="478.7948" y="490.7441">&#171;Neutral&#187;</text><text fill="#243039" font-family="'Helvetica'" font-size="18.9583" font-weight="bold" lengthAdjust="spacing" textLength="193.8323" x="422.9797" y="509.7025">Sunray ROS Contract</text></g><!--cluster yunlink::Runtime--><g class="cluster" data-qualified-name="yunlink..Runtime" data-source-line="19" id="ent0013"><rect fill="#F6E6BE" height="175" rx="7.2917" ry="7.2917" style="stroke:#9A6B18;stroke-width:1.4583;" width="805" x="1064.5833" y="463.75"/><text fill="#243039" font-family="'Helvetica'" font-size="18.9583" font-style="italic" lengthAdjust="spacing" textLength="82.2021" x="1425.9823" y="481.265">&#171;Control&#187;</text><text fill="#243039" font-family="'Helvetica'" font-size="18.9583" font-weight="bold" lengthAdjust="spacing" textLength="154.8233" x="1389.6717" y="500.2233">yunlink::Runtime</text></g><!--entity Node--><g class="entity" data-qualified-name="sunray_yunlink_bridge.Node" data-source-line="5" id="ent0003"><rect fill="#F6E6BE" height="67.0833" rx="5.8333" ry="5.8333" width="134.5854" x="626.8792" y="132.7083"/><text fill="#243039" font-family="'Helvetica'" font-size="18.9583" font-style="italic" lengthAdjust="spacing" textLength="82.2021" x="653.0708" y="161.89">&#171;Control&#187;</text><text fill="#243039" font-family="'Helvetica'" font-size="18.9583" lengthAdjust="spacing" textLength="105.4187" x="641.4625" y="180.8483">bridge_node</text></g><!--entity RosAdapter--><g class="entity" data-qualified-name="sunray_yunlink_bridge.RosAdapter" data-source-line="6" id="ent0004"><rect fill="#DCECDD" height="67.0833" rx="5.8333" ry="5.8333" width="145.9259" x="664.9563" y="325.2083"/><text fill="#243039" font-family="'Helvetica'" font-size="18.9583" font-style="italic" lengthAdjust="spacing" textLength="113.8426" x="680.9979" y="354.39">&#171;StatePlane&#187;</text><text fill="#243039" font-family="'Helvetica'" font-size="18.9583" lengthAdjust="spacing" textLength="101.179" x="687.3297" y="373.3483">ros_adapter</text></g><!--entity YunAdapter--><g class="entity" data-qualified-name="sunray_yunlink_bridge.YunAdapter" data-source-line="7" id="ent0005"><rect fill="#F6E6BE" height="67.0833" rx="5.8333" ry="5.8333" width="163.0229" x="904.3271" y="325.2083"/><text fill="#243039" font-family="'Helvetica'" font-size="18.9583" font-style="italic" lengthAdjust="spacing" textLength="82.2021" x="944.7374" y="354.39">&#171;Control&#187;</text><text fill="#243039" font-family="'Helvetica'" font-size="18.9583" lengthAdjust="spacing" textLength="133.8562" x="918.9104" y="373.3483">yunlink_adapter</text></g><!--entity Tracker--><g class="entity" data-qualified-name="sunray_yunlink_bridge.Tracker" data-source-line="8" id="ent0006"><rect fill="#F6E6BE" height="67.0833" rx="5.8333" ry="5.8333" width="180.8889" x="433.0958" y="325.2083"/><text fill="#243039" font-family="'Helvetica'" font-size="18.9583" font-style="italic" lengthAdjust="spacing" textLength="82.2021" x="482.4392" y="354.39">&#171;Control&#187;</text><text fill="#243039" font-family="'Helvetica'" font-size="18.9583" lengthAdjust="spacing" textLength="151.7222" x="447.6792" y="373.3483">command_tracker</text></g><!--entity Px4--><g class="entity" data-qualified-name="Sunray ROS Contract.Px4" data-source-line="12" id="ent0008"><rect fill="#DCECDD" height="67.0833" rx="5.8333" ry="5.8333" width="145.9259" x="33.4979" y="538.8542"/><text fill="#243039" font-family="'Helvetica'" font-size="18.9583" font-style="italic" lengthAdjust="spacing" textLength="113.8426" x="49.5396" y="568.0358">&#171;StatePlane&#187;</text><text fill="#243039" font-family="'Helvetica'" font-size="18.9583" lengthAdjust="spacing" textLength="82.2114" x="65.3552" y="586.9941">px4_state</text></g><!--entity Odom--><g class="entity" data-qualified-name="Sunray ROS Contract.Odom" data-source-line="13" id="ent0009"><rect fill="#DCECDD" height="67.0833" rx="5.8333" ry="5.8333" width="145.9259" x="230.3729" y="538.8542"/><text fill="#243039" font-family="'Helvetica'" font-size="18.9583" font-style="italic" lengthAdjust="spacing" textLength="113.8426" x="246.4146" y="568.0358">&#171;StatePlane&#187;</text><text fill="#243039" font-family="'Helvetica'" font-size="18.9583" lengthAdjust="spacing" textLength="108.5476" x="249.0621" y="586.9941">odom_status</text></g><!--entity Fsm--><g class="entity" data-qualified-name="Sunray ROS Contract.Fsm" data-source-line="14" id="ent0010"><rect fill="#DCECDD" height="67.0833" rx="5.8333" ry="5.8333" width="145.9259" x="427.2479" y="538.8542"/><text fill="#243039" font-family="'Helvetica'" font-size="18.9583" font-style="italic" lengthAdjust="spacing" textLength="113.8426" x="443.2896" y="568.0358">&#171;StatePlane&#187;</text><text fill="#243039" font-family="'Helvetica'" font-size="18.9583" lengthAdjust="spacing" textLength="76.9071" x="461.7573" y="586.9941">fsm/state</text></g><!--entity Ctrl--><g class="entity" data-qualified-name="Sunray ROS Contract.Ctrl" data-source-line="15" id="ent0011"><rect fill="#DCECDD" height="67.0833" rx="5.8333" ry="5.8333" width="158.7832" x="623.525" y="538.8542"/><text fill="#243039" font-family="'Helvetica'" font-size="18.9583" font-style="italic" lengthAdjust="spacing" textLength="113.8426" x="645.9953" y="568.0358">&#171;StatePlane&#187;</text><text fill="#243039" font-family="'Helvetica'" font-size="18.9583" lengthAdjust="spacing" textLength="129.6165" x="638.1083" y="586.9941">controller_state</text></g><!--entity Cmd--><g class="entity" data-qualified-name="Sunray ROS Contract.Cmd" data-source-line="16" id="ent0012"><rect fill="#F6E6BE" height="67.0833" rx="5.8333" ry="5.8333" width="173.5388" x="833.4375" y="538.8542"/><text fill="#243039" font-family="'Helvetica'" font-size="18.9583" font-style="italic" lengthAdjust="spacing" textLength="82.2021" x="879.1058" y="568.0358">&#171;Control&#187;</text><text fill="#243039" font-family="'Helvetica'" font-size="18.9583" lengthAdjust="spacing" textLength="144.3722" x="848.0208" y="586.9941">uav_control_cmd</text></g><!--entity RuntimeMode--><g class="entity" data-qualified-name="yunlink..Runtime.RuntimeMode" data-source-line="20" id="ent0014"><rect fill="#F6E6BE" height="67.0833" rx="5.8333" ry="5.8333" width="237.8102" x="1088.6021" y="538.8542"/><text fill="#243039" font-family="'Helvetica'" font-size="18.9583" font-style="italic" lengthAdjust="spacing" textLength="82.2021" x="1166.4061" y="568.0358">&#171;Control&#187;</text><text fill="#243039" font-family="'Helvetica'" font-size="18.9583" lengthAdjust="spacing" textLength="208.6435" x="1103.1854" y="586.9941">external command mode</text></g><!--entity RuntimeSub--><g class="entity" data-qualified-name="yunlink..Runtime.RuntimeSub" data-source-line="21" id="ent0015"><rect fill="#F6E6BE" height="86.0417" rx="5.8333" ry="5.8333" width="236.7919" x="1377.8479" y="529.375"/><text fill="#243039" font-family="'Helvetica'" font-size="18.9583" font-style="italic" lengthAdjust="spacing" textLength="82.2021" x="1455.1428" y="558.5566">&#171;Control&#187;</text><text fill="#243039" font-family="'Helvetica'" font-size="18.9583" lengthAdjust="spacing" textLength="207.6252" x="1392.4312" y="577.515">typed inbound command</text><text fill="#243039" font-family="'Helvetica'" font-size="18.9583" lengthAdjust="spacing" textLength="87.4509" x="1452.5184" y="596.4733">subscriber</text></g><!--entity RuntimeReply--><g class="entity" data-qualified-name="yunlink..Runtime.RuntimeReply" data-source-line="22" id="ent0016"><rect fill="#F6E6BE" height="86.0417" rx="5.8333" ry="5.8333" width="179.8521" x="1665.9125" y="529.375"/><text fill="#243039" font-family="'Helvetica'" font-size="18.9583" font-style="italic" lengthAdjust="spacing" textLength="82.2021" x="1714.7375" y="558.5566">&#171;Control&#187;</text><text fill="#243039" font-family="'Helvetica'" font-size="18.9583" lengthAdjust="spacing" textLength="146.455" x="1682.6111" y="577.515">explicit command</text><text fill="#243039" font-family="'Helvetica'" font-size="18.9583" lengthAdjust="spacing" textLength="150.6854" x="1680.4958" y="596.4733">result reply helper</text></g><g class="entity" data-qualified-name="GMN28" data-source-line="40" id="ent0029"><path d="M1118.2792,331.0417 L1118.2792,386.4583 A5.8333,5.8333 0 0 0 1124.1125,392.2917 L1378.3809,392.2917 A5.8333,5.8333 0 0 0 1384.2142,386.4583 L1384.2142,339.7917 L1369.6309,325.2083 L1124.1125,325.2083 A5.8333,5.8333 0 0 0 1118.2792,331.0417" fill="#F7F5F1" style="stroke:#B7AEA1;stroke-width:0.7292;"/><path d="M1369.6309,325.2083 L1369.6309,336.875 A2.9167,2.9167 0 0 0 1372.5476,339.7917 L1384.2142,339.7917 L1369.6309,325.2083" fill="#F7F5F1" style="stroke:#B7AEA1;stroke-width:1.4583;"/><text fill="#2D3135" font-family="'Helvetica'" font-size="17.5" lengthAdjust="spacing" textLength="235.3101" x="1127.0292" y="345.9753">&#21482;&#36319;&#36394;&#19968;&#26399; raw control &#21629;&#20196;&#65306;</text><text fill="#2D3135" font-family="'Helvetica'" font-size="17.5" lengthAdjust="spacing" textLength="188.7146" x="1150.3269" y="363.4753">Takeoff / Land / Return /</text><text fill="#2D3135" font-family="'Helvetica'" font-size="17.5" lengthAdjust="spacing" textLength="178.0164" x="1155.676" y="380.9753">Goto / VelocitySetpoint</text></g><!--link Node to RosAdapter--><g class="link" data-entity-1="ent0003" data-entity-2="ent0004" data-link-type="dependency" data-source-line="25" id="lnk17"><path d="M687.5313,200.2438 C684.1042,223.3583 682.0771,254.8875 689.7917,281.4583 C694.225,296.7271 697.8313,304.6567 706.5084,317.3442" fill="none" id="Node-to-RosAdapter" style="stroke:#5E6A71;stroke-width:1.6042;"/><polygon fill="#5E6A71" points="711.4479,324.5667,708.8536,310.44,707.3317,318.548,699.2237,317.026,711.4479,324.5667" style="stroke:#5E6A71;stroke-width:1.6042;"/><text fill="#243039" font-family="'Helvetica'" font-size="17.5" lengthAdjust="spacing" textLength="135.2063" x="708.7543" y="258.4753">pull latest states /</text><text fill="#243039" font-family="'Helvetica'" font-size="17.5" lengthAdjust="spacing" textLength="170.2148" x="691.25" y="275.9753">publish raw command</text></g><!--link Node to YunAdapter--><g class="link" data-entity-1="ent0003" data-entity-2="ent0005" data-link-type="dependency" data-source-line="26" id="lnk18"><path d="M762.125,190.9396 C795.3896,203.8896 835.1729,221.7979 867.7083,243.5417 C902.0229,266.4813 929.4726,293.4627 951.931,318.1523" fill="none" id="Node-to-YunAdapter" style="stroke:#5E6A71;stroke-width:1.6042;"/><polygon fill="#5E6A71" points="957.8187,324.625,953.3022,310.9907,952.9123,319.231,944.6719,318.8411,957.8187,324.625" style="stroke:#5E6A71;stroke-width:1.6042;"/><text fill="#243039" font-family="'Helvetica'" font-size="17.5" lengthAdjust="spacing" textLength="140.0854" x="914.8563" y="258.4753">validate / publish /</text><text fill="#243039" font-family="'Helvetica'" font-size="17.5" lengthAdjust="spacing" textLength="85.5859" x="942.106" y="275.9753">reply result</text></g><!--link Node to Tracker--><g class="link" data-entity-1="ent0003" data-entity-2="ent0006" data-link-type="dependency" data-source-line="27" id="lnk19"><path d="M626.4417,178.7479 C588.4083,188.7812 544.0313,207.7688 520.625,243.5417 C505.05,267.3417 505.9999,291.8223 511.4832,316.1619" fill="none" id="Node-to-Tracker" style="stroke:#5E6A71;stroke-width:1.6042;"/><polygon fill="#5E6A71" points="513.4063,324.6979,516.2124,310.6118,511.8037,317.5845,504.831,313.1758,513.4063,324.6979" style="stroke:#5E6A71;stroke-width:1.6042;"/><text fill="#243039" font-family="'Helvetica'" font-size="17.5" lengthAdjust="spacing" textLength="133.2495" x="530.3676" y="258.4753">infer InProgress /</text><text fill="#243039" font-family="'Helvetica'" font-size="17.5" lengthAdjust="spacing" textLength="149.8181" x="522.0833" y="275.9753">Succeeded / Failed</text></g><!--link RosAdapter to Px4--><g class="link" data-entity-1="ent0004" data-entity-2="ent0008" data-link-type="dependency" data-source-line="29" id="lnk20"><path d="M700.6708,392.9917 C683.4625,406.1312 662.0396,419.8979 640.2083,427.2917 C548.2896,458.4417 290.5875,407.925 204.1667,452.0833 C167.5333,470.7938 144.0178,502.4433 127.5824,530.7204" fill="none" id="RosAdapter-to-Px4" style="stroke:#5E6A71;stroke-width:1.6042;"/><polygon fill="#5E6A71" points="123.1854,538.2854,134.8242,529.8693,126.8496,531.9813,124.7376,524.0066,123.1854,538.2854" style="stroke:#5E6A71;stroke-width:1.6042;"/></g><!--link RosAdapter to Odom--><g class="link" data-entity-1="ent0004" data-entity-2="ent0009" data-link-type="dependency" data-source-line="30" id="lnk21"><path d="M700.0146,392.8021 C682.8646,405.7521 661.6458,419.4021 640.2083,427.2917 C539.9188,464.1875 495.1771,401.5083 401.0417,452.0833 C364.8021,471.5521 341.2514,503.0719 324.6993,531.1011" fill="none" id="RosAdapter-to-Odom" style="stroke:#5E6A71;stroke-width:1.6042;"/><polygon fill="#5E6A71" points="320.25,538.6354,331.9468,530.3001,323.9577,532.3568,321.901,524.3677,320.25,538.6354" style="stroke:#5E6A71;stroke-width:1.6042;"/></g><!--link RosAdapter to Fsm--><g class="link" data-entity-1="ent0004" data-entity-2="ent0010" data-link-type="dependency" data-source-line="31" id="lnk22"><path d="M691.6583,392.9771 C675.5438,404.1188 657.2271,416.4854 640.2083,427.2917 C621.8187,438.9729 614.4833,437.9375 597.9167,452.0833 C568.05,477.575 545.3573,505.8651 527.1135,531.3859" fill="none" id="RosAdapter-to-Fsm" style="stroke:#5E6A71;stroke-width:1.6042;"/><polygon fill="#5E6A71" points="522.025,538.5042,534.4033,531.2192,526.2654,532.5723,524.9123,524.4344,522.025,538.5042" style="stroke:#5E6A71;stroke-width:1.6042;"/></g><!--link RosAdapter to Ctrl--><g class="link" data-entity-1="ent0004" data-entity-2="ent0011" data-link-type="dependency" data-source-line="32" id="lnk23"><path d="M732.5208,392.6708 C725.9292,432.3812 716.2656,490.5704 709.6885,530.1496" fill="none" id="RosAdapter-to-Ctrl" style="stroke:#5E6A71;stroke-width:1.6042;"/><polygon fill="#5E6A71" points="708.2542,538.7813,716.1601,526.79,709.4495,531.5882,704.6513,524.8776,708.2542,538.7813" style="stroke:#5E6A71;stroke-width:1.6042;"/></g><!--link RosAdapter to Cmd--><g class="link" data-entity-1="ent0004" data-entity-2="ent0012" data-link-type="dependency" data-source-line="33" id="lnk24"><path d="M766.0042,392.6708 C800.3625,432.3812 852.4314,492.5848 886.673,532.164" fill="none" id="RosAdapter-to-Cmd" style="stroke:#5E6A71;stroke-width:1.6042;"/><polygon fill="#5E6A71" points="892.3979,538.7813,888.2221,525.0388,887.6272,533.2669,879.3991,532.6719,892.3979,538.7813" style="stroke:#5E6A71;stroke-width:1.6042;"/></g><!--link YunAdapter to RuntimeMode--><g class="link" data-entity-1="ent0005" data-entity-2="ent0014" data-link-type="dependency" data-source-line="35" id="lnk25"><path d="M1019.9875,392.6708 C1061.6375,432.2792 1125.2948,492.7953 1166.9739,532.4036" fill="none" id="YunAdapter-to-RuntimeMode" style="stroke:#5E6A71;stroke-width:1.6042;"/><polygon fill="#5E6A71" points="1173.3167,538.4313,1167.821,525.1613,1168.031,533.4082,1159.7841,533.6183,1173.3167,538.4313" style="stroke:#5E6A71;stroke-width:1.6042;"/></g><!--link YunAdapter to RuntimeSub--><g class="link" data-entity-1="ent0005" data-entity-2="ent0015" data-link-type="dependency" data-source-line="36" id="lnk26"><path d="M1027.5125,392.8604 C1046.2813,405.8104 1069.3375,419.4604 1092.2917,427.2917 C1201.9875,464.7125 1244.775,407.8083 1351.875,452.0833 C1392.9854,469.0729 1425.2545,495.7274 1452.117,522.5899" fill="none" id="YunAdapter-to-RuntimeSub" style="stroke:#5E6A71;stroke-width:1.6042;"/><polygon fill="#5E6A71" points="1458.3042,528.7771,1453.1482,515.3715,1453.1482,523.6211,1444.8986,523.6211,1458.3042,528.7771" style="stroke:#5E6A71;stroke-width:1.6042;"/></g><!--link YunAdapter to RuntimeReply--><g class="link" data-entity-1="ent0005" data-entity-2="ent0016" data-link-type="dependency" data-source-line="37" id="lnk27"><path d="M1026.3313,392.7146 C1045.2313,405.9708 1068.7396,419.9125 1092.2917,427.2917 C1150.4937,445.5354 1585.0187,427.0438 1640.625,452.0833 C1676.7917,468.3583 1702.1689,494.6578 1722.7314,521.8557" fill="none" id="YunAdapter-to-RuntimeReply" style="stroke:#5E6A71;stroke-width:1.6042;"/><polygon fill="#5E6A71" points="1728.0083,528.8354,1724.7461,514.8479,1723.6109,523.019,1715.4398,521.8837,1728.0083,528.8354" style="stroke:#5E6A71;stroke-width:1.6042;"/></g><!--link Tracker to GMN28--><g class="link" data-entity-1="ent0006" data-entity-2="ent0029" data-link-type="association" data-source-line="40" id="lnk30"><path d="M559.65,324.9167 C586.3083,302.3854 624.6771,274.75 664.2708,262.5 C834.5604,209.8396 892.1354,220.3396 1065.3125,262.5 C1114.575,274.5021 1165.3687,301.9917 1201.3896,324.5521" fill="none" id="Tracker-GMN28" style="stroke:#5E6A71;stroke-width:1.6042;stroke-dasharray:10.2083,10.2083;"/></g><?plantuml-src VLJDQXin4BxhAQQ-ktl9oOH0CQGKsiJO8L08BDhLs1RMIa8_YKqfz0rAhwMGIqzvWGRIlarISkihT5RhZJTkxTDAe--R6NtphVn2QiiThvGf5oYWuELYvapKOcYKSN0rbm7P2wbB5GL2lefQIRt8hJF1b4RbOOuLlfInKYp8e11yr8wlde25asA6q8UXgQpHg0ESIxnYp58bJYUz_n9wS7XuWZ4uhewEu0C3A9_ulGQIQoC8npsSq8BmGwE3CuH_ZdR6vrnm6z0bzDZuLysME9F00uuKrxXDQ_lfKjz7lQ7kA4VBYckHK-kaQCCxQzRFI1yx4aoI130-dK02y3Bi5S0k3t9VTvwoZvO7UszYXAaIFFg4FwNzNiBKLzac_R7VZowRAobqdPw6mQczhCWlypKpBolHa2gnKwBrE0Q3STH1LiaWJyXjVN198z9SmNeOKBLMMRFVxNLCM5dw5QGkwl-WpN6XVInywMJH-gX9DOd5xaouj4gMCcoIEFHH1N1erGhcgEppRECKtn8X-RlVF-fQTm0sAWMAzFK1al0UiWjjOw6aduFZLstH3R_Ztm5SSYK5qI23bfJL_TKDD5rkYAs11wJAbBvlzCYP6Q5IpKaiIqH1ccLmpAL2mLYdrJe1UNGxLDjmEqPUsmxLJledLb65pcMIDfl9xZYYIUquIQepfWsfuUHi7i1CspkpXyytZp-k7szlxcy__VvslLOsZGSUllowl_l-v-TNTiONQAPJKk1jRRWCnXYYqv2nr_HIqluSwOcLOJN1O8tKWI71wef_0G00?></g></svg>