<?plantuml 1.2026.2?><svg xmlns="http://www.w3.org/2000/svg" xmlns:xlink="http://www.w3.org/1999/xlink" contentStyleType="text/css" data-diagram-type="STATE" height="1128.75px" preserveAspectRatio="none" style="width:2442px;height:1128px;background:#FFFFFF;" version="1.1" viewBox="0 0 2442 1128" width="2442.7083px" zoomAndPan="magnify"><title>Command Result Derivation State Machine</title><defs/><g><g class="title" data-source-line="2"><text fill="#1F2A33" font-family="'Helvetica'" font-size="26.25" font-weight="bold" lengthAdjust="spacing" textLength="535.318" x="943.8749" y="34.7963">Command Result Derivation State Machine</text></g><g class="entity" data-qualified-name="Validate" id="ent0002"><rect fill="#F6E6BE" height="72.9167" rx="5.8333" ry="5.8333" style="stroke:#9A6B18;stroke-width:0.7292;" width="87.1376" x="1703.2021" y="202.7083"/><line style="stroke:#9A6B18;stroke-width:0.7292;" x1="1703.2021" x2="1790.3396" y1="233.3333" y2="233.3333"/><text fill="#243039" font-family="'Helvetica'" font-size="16.0417" lengthAdjust="spacing" textLength="57.9709" x="1717.7854" y="222.3524">Validate</text></g><g class="entity" data-qualified-name="Received" id="ent0003"><rect fill="#DCECDD" height="72.9167" rx="5.8333" ry="5.8333" style="stroke:#3F7047;stroke-width:0.7292;" width="96.0435" x="1191.2542" y="383.5417"/><line style="stroke:#3F7047;stroke-width:0.7292;" x1="1191.2542" x2="1287.2977" y1="414.1667" y2="414.1667"/><text fill="#243039" font-family="'Helvetica'" font-size="16.0417" lengthAdjust="spacing" textLength="66.8768" x="1205.8375" y="403.1857">Received</text></g><g class="entity" data-qualified-name="Accepted" id="ent0004"><rect fill="#DCECDD" height="72.9167" rx="5.8333" ry="5.8333" style="stroke:#3F7047;stroke-width:0.7292;" width="96.0513" x="868.9479" y="564.375"/><line style="stroke:#3F7047;stroke-width:0.7292;" x1="868.9479" x2="964.9992" y1="595" y2="595"/><text fill="#243039" font-family="'Helvetica'" font-size="16.0417" lengthAdjust="spacing" textLength="66.8847" x="883.5313" y="584.0191">Accepted</text></g><g class="entity" data-qualified-name="InProgress" id="ent0005"><rect fill="#F6E6BE" height="72.9167" rx="5.8333" ry="5.8333" style="stroke:#9A6B18;stroke-width:0.7292;" width="106.7353" x="361.9437" y="745.2083"/><line style="stroke:#9A6B18;stroke-width:0.7292;" x1="361.9437" x2="468.6791" y1="775.8333" y2="775.8333"/><text fill="#243039" font-family="'Helvetica'" font-size="16.0417" lengthAdjust="spacing" textLength="77.5687" x="376.5271" y="764.8524">InProgress</text></g><g class="entity" data-qualified-name="Succeeded" id="ent0006"><rect fill="#ECE8F6" height="72.9167" rx="5.8333" ry="5.8333" style="stroke:#6E5A9A;stroke-width:0.7292;" width="109.4377" x="462.6708" y="926.0417"/><line style="stroke:#6E5A9A;stroke-width:0.7292;" x1="462.6708" x2="572.1085" y1="956.6667" y2="956.6667"/><text fill="#243039" font-family="'Helvetica'" font-size="16.0417" lengthAdjust="spacing" textLength="80.271" x="477.2542" y="945.6857">Succeeded</text></g><g class="entity" data-qualified-name="Failed" id="ent0007"><rect fill="#F6D8D5" height="72.9167" rx="5.8333" ry="5.8333" style="stroke:#9A4D46;stroke-width:0.7292;" width="72.9167" x="1084.6938" y="926.0417"/><line style="stroke:#9A4D46;stroke-width:0.7292;" x1="1084.6938" x2="1157.6104" y1="956.6667" y2="956.6667"/><text fill="#243039" font-family="'Helvetica'" font-size="16.0417" lengthAdjust="spacing" textLength="43.6916" x="1099.3063" y="945.6857">Failed</text></g><g class="start_entity" data-qualified-name=".start." data-source-line="4" id="ent0002"><ellipse cx="1746.7771" cy="80.2083" fill="#222222" rx="14.5833" ry="14.5833" style="stroke:#222222;stroke-width:1.4583;"/></g><g class="end_entity" data-qualified-name=".end." data-source-line="33" id="ent0020"><ellipse cx="587.4021" cy="1103.9583" fill="none" rx="16.0417" ry="16.0417" style="stroke:#222222;stroke-width:1.4583;"/><ellipse cx="587.4021" cy="1103.9583" fill="#222222" rx="8.75" ry="8.75" style="stroke:#222222;stroke-width:1.4583;"/></g><!--link *start* to Validate--><g class="link" data-entity-1="ent0002" data-entity-2="ent0002" data-link-type="dependency" data-source-line="4" id="lnk3"><path d="M1746.7771,95.5208 C1746.7771,119.2333 1746.7771,159.5854 1746.7771,193.4042" fill="none" id="*start*-to-Validate" style="stroke:#5E6A71;stroke-width:1.6042;"/><polygon fill="#5E6A71" points="1746.7771,202.1542,1752.6104,189.0292,1746.7771,194.8625,1740.9438,189.0292,1746.7771,202.1542" style="stroke:#5E6A71;stroke-width:1.6042;"/><text fill="#243039" font-family="'Helvetica'" font-size="17.5" lengthAdjust="spacing" textLength="143.9819" x="1748.2354" y="153.4753">inbound command</text></g><!--link Validate to Failed--><g class="link" data-entity-1="ent0002" data-entity-2="ent0007" data-link-type="dependency" data-source-line="9" id="lnk4"><path d="M1703.0562,259.5542 C1674.6625,273.3208 1638.0729,293.9563 1611.1521,319.375 C1516.2292,408.9604 1503.8917,445.8417 1449.2771,564.375 C1422.75,621.95 1440.0604,645.7063 1409.9021,701.4583 C1359.3854,794.8354 1335.2354,814.1292 1253.8604,882.2917 C1224.2854,907.0688 1193.768,924.8781 1165.9138,939.2281" fill="none" id="Validate-to-Failed" style="stroke:#5E6A71;stroke-width:1.6042;"/><polygon fill="#5E6A71" points="1158.1354,943.2354,1172.4746,942.4101,1164.6174,939.896,1167.1315,932.0388,1158.1354,943.2354" style="stroke:#5E6A71;stroke-width:1.6042;"/><text fill="#243039" font-family="'Helvetica'" font-size="17.5" lengthAdjust="spacing" textLength="134.2407" x="1450.7354" y="605.5587">no active session</text></g><!--link Validate to Failed--><g class="link" data-entity-1="ent0002" data-entity-2="ent0007" data-link-type="dependency" data-source-line="10" id="lnk5"><path d="M1713.1479,276.3542 C1684.8854,310.2167 1649.0688,363.9271 1649.0688,418.5417 C1649.0688,418.5417 1649.0688,418.5417 1649.0688,783.125 C1649.0688,886.8562 1287.1155,940.573 1166.9488,955.623" fill="none" id="Validate-to-Failed-1" style="stroke:#5E6A71;stroke-width:1.6042;"/><polygon fill="#5E6A71" points="1158.2667,956.7104,1172.0148,960.8675,1165.5018,955.8043,1170.565,949.2912,1158.2667,956.7104" style="stroke:#5E6A71;stroke-width:1.6042;"/><text fill="#243039" font-family="'Helvetica'" font-size="17.5" lengthAdjust="spacing" textLength="91.4478" x="1650.5271" y="605.5587">no authority</text></g><!--link Validate to Failed--><g class="link" data-entity-1="ent0002" data-entity-2="ent0007" data-link-type="dependency" data-source-line="11" id="lnk6"><path d="M1780.3917,276.3542 C1808.6542,310.2167 1844.4854,363.9271 1844.4854,418.5417 C1844.4854,418.5417 1844.4854,418.5417 1844.4854,783.125 C1844.4854,926.0271 1314.157,954.4766 1166.7487,959.6828" fill="none" id="Validate-to-Failed-2" style="stroke:#5E6A71;stroke-width:1.6042;"/><polygon fill="#5E6A71" points="1158.0042,959.9917,1171.3269,965.3581,1165.2913,959.7343,1170.9151,953.6987,1158.0042,959.9917" style="stroke:#5E6A71;stroke-width:1.6042;"/><text fill="#243039" font-family="'Helvetica'" font-size="17.5" lengthAdjust="spacing" textLength="75.8704" x="1845.9438" y="605.5587">ttl expired</text></g><!--link Validate to Failed--><g class="link" data-entity-1="ent0002" data-entity-2="ent0007" data-link-type="dependency" data-source-line="12" id="lnk7"><path d="M1790.9062,247.8875 C1869.4521,263.6083 2025.3188,308.6562 2025.3188,418.5417 C2025.3188,418.5417 2025.3188,418.5417 2025.3188,783.125 C2025.3188,962.9083 1337.1596,964.2702 1167.0304,961.8931" fill="none" id="Validate-to-Failed-3" style="stroke:#5E6A71;stroke-width:1.6042;"/><polygon fill="#5E6A71" points="1158.2813,961.7708,1171.3235,967.787,1165.5722,961.8727,1171.4865,956.1214,1158.2813,961.7708" style="stroke:#5E6A71;stroke-width:1.6042;"/><text fill="#243039" font-family="'Helvetica'" font-size="17.5" lengthAdjust="spacing" textLength="122.0728" x="2026.7771" y="605.5587">target != kEntity</text></g><!--link Validate to Failed--><g class="link" data-entity-1="ent0002" data-entity-2="ent0007" data-link-type="dependency" data-source-line="13" id="lnk8"><path d="M1790.6729,246.4729 C1913.4354,264.0458 2251.3604,321.2417 2251.3604,418.5417 C2251.3604,418.5417 2251.3604,418.5417 2251.3604,783.125 C2251.3604,909.6646 2107.875,854.2625 1984.4854,882.2917 C1670.7688,953.5604 1287.7958,960.6902 1167.0458,961.1131" fill="none" id="Validate-to-Failed-4" style="stroke:#5E6A71;stroke-width:1.6042;"/><polygon fill="#5E6A71" points="1158.2958,961.1437,1171.4412,966.9311,1165.5875,961.1182,1171.4003,955.2645,1158.2958,961.1437" style="stroke:#5E6A71;stroke-width:1.6042;"/><text fill="#243039" font-family="'Helvetica'" font-size="17.5" lengthAdjust="spacing" textLength="178.999" x="2252.8188" y="605.5587">unsupported command</text></g><!--link Validate to Received--><g class="link" data-entity-1="ent0002" data-entity-2="ent0003" data-link-type="dependency" data-source-line="14" id="lnk9"><path d="M1702.7208,240.4208 C1589.9042,240.9313 1295.2042,249.0833 1234.9021,319.375 C1220.2021,336.5104 1219.6683,353.5617 1224.6266,374.445" fill="none" id="Validate-to-Received" style="stroke:#5E6A71;stroke-width:1.6042;"/><polygon fill="#5E6A71" points="1226.6479,382.9583,1229.2915,368.8408,1224.9635,375.8639,1217.9404,371.5359,1226.6479,382.9583" style="stroke:#5E6A71;stroke-width:1.6042;"/><text fill="#243039" font-family="'Helvetica'" font-size="17.5" lengthAdjust="spacing" textLength="135.2319" x="1236.3604" y="334.3087">validation passed</text></g><!--link Received to Accepted--><g class="link" data-entity-1="ent0003" data-entity-2="ent0004" data-link-type="dependency" data-source-line="22" id="lnk10"><path d="M1191.0208,448.0875 C1130.2667,481.6292 1034.1373,534.6981 973.2227,568.3273" fill="none" id="Received-to-Accepted" style="stroke:#5E6A71;stroke-width:1.6042;"/><polygon fill="#5E6A71" points="965.5625,572.5563,979.8721,571.3196,971.946,569.0321,974.2335,561.106,965.5625,572.5563" style="stroke:#5E6A71;stroke-width:1.6042;"/><text fill="#243039" font-family="'Helvetica'" font-size="17.5" lengthAdjust="spacing" textLength="121.5857" x="1089.2437" y="515.142">ROS publish ok</text></g><!--link Received to Failed--><g class="link" data-entity-1="ent0003" data-entity-2="ent0007" data-link-type="dependency" data-source-line="23" id="lnk11"><path d="M1241.4208,457.1438 C1246.7292,548.3042 1259.0667,784.9333 1246.5688,818.125 C1228.9958,864.7771 1195.1413,900.4093 1164.8955,926.4697" fill="none" id="Received-to-Failed" style="stroke:#5E6A71;stroke-width:1.6042;"/><polygon fill="#5E6A71" points="1158.2667,932.1813,1172.0176,928.0332,1163.7907,927.4217,1164.4022,919.1948,1158.2667,932.1813" style="stroke:#5E6A71;stroke-width:1.6042;"/><text fill="#243039" font-family="'Helvetica'" font-size="17.5" lengthAdjust="spacing" textLength="144.939" x="1253.0583" y="695.9753">ROS publish failed</text></g><!--link Accepted to InProgress--><g class="link" data-entity-1="ent0004" data-entity-2="ent0005" data-link-type="dependency" data-source-line="24" id="lnk12"><path d="M868.4375,602.2042 C753.4479,603.1375 469.6417,612.5 410.9437,681.0417 C396.2583,698.1917 395.7232,715.2432 400.6815,736.112" fill="none" id="Accepted-to-InProgress" style="stroke:#5E6A71;stroke-width:1.6042;"/><polygon fill="#5E6A71" points="402.7042,744.625,405.3455,730.507,401.0186,737.5308,393.9948,733.2039,402.7042,744.625" style="stroke:#5E6A71;stroke-width:1.6042;"/><text fill="#243039" font-family="'Helvetica'" font-size="17.5" lengthAdjust="spacing" textLength="213.0164" x="412.4021" y="695.9753">FSM enters execution state</text></g><!--link Accepted to Failed--><g class="link" data-entity-1="ent0004" data-entity-2="ent0007" data-link-type="dependency" data-source-line="25" id="lnk13"><path d="M868.3792,622.5333 C789.1625,658.4812 646.5229,737.2896 704.0688,818.125 C706.9563,822.1937 974.1667,911.8758 1075.7688,945.8696" fill="none" id="Accepted-to-Failed" style="stroke:#5E6A71;stroke-width:1.6042;"/><polygon fill="#5E6A71" points="1084.0667,948.6458,1073.4707,938.9495,1077.1518,946.3323,1069.769,950.0133,1084.0667,948.6458" style="stroke:#5E6A71;stroke-width:1.6042;"/><text fill="#243039" font-family="'Helvetica'" font-size="17.5" lengthAdjust="spacing" textLength="147.8699" x="705.5271" y="786.392">session invalidated</text></g><!--link Accepted to Failed--><g class="link" data-entity-1="ent0004" data-entity-2="ent0007" data-link-type="dependency" data-source-line="26" id="lnk14"><path d="M916.4167,637.9771 C917.2333,682.8938 923.7958,761.0604 956.3604,818.125 C987.1312,872.0688 1038.71,910.881 1077.1225,935.1622" fill="none" id="Accepted-to-Failed-1" style="stroke:#5E6A71;stroke-width:1.6042;"/><polygon fill="#5E6A71" points="1084.5188,939.8375,1076.5413,927.8937,1078.3552,935.9414,1070.3076,937.7554,1084.5188,939.8375" style="stroke:#5E6A71;stroke-width:1.6042;"/><text fill="#243039" font-family="'Helvetica'" font-size="17.5" lengthAdjust="spacing" textLength="99.2151" x="957.8187" y="786.392">authority lost</text></g><!--link Accepted to Failed--><g class="link" data-entity-1="ent0004" data-entity-2="ent0007" data-link-type="dependency" data-source-line="27" id="lnk15"><path d="M965.4896,637.7729 C997.9958,663.9938 1039.2667,702.45 1064.2771,745.2083 C1098.0083,802.9146 1111.0227,872.1658 1116.6227,916.8637" fill="none" id="Accepted-to-Failed-2" style="stroke:#5E6A71;stroke-width:1.6042;"/><polygon fill="#5E6A71" points="1117.7104,925.5458,1121.8669,911.7975,1116.804,918.3107,1110.2907,913.2478,1117.7104,925.5458" style="stroke:#5E6A71;stroke-width:1.6042;"/><text fill="#243039" font-family="'Helvetica'" font-size="17.5" lengthAdjust="spacing" textLength="137.1631" x="1096.2438" y="786.392">execution timeout</text></g><!--link InProgress to Succeeded--><g class="link" data-entity-1="ent0005" data-entity-2="ent0006" data-link-type="dependency" data-source-line="28" id="lnk16"><path d="M361.6083,788.4042 C250.4396,800.4208 8.75,832.6354 50.7354,882.2917 C102.9146,944.0229 341.7925,957.1565 453.6175,960.0294" fill="none" id="InProgress-to-Succeeded" style="stroke:#5E6A71;stroke-width:1.6042;"/><polygon fill="#5E6A71" points="462.3646,960.2542,449.3937,954.0857,455.0753,960.0669,449.0941,965.7485,462.3646,960.2542" style="stroke:#5E6A71;stroke-width:1.6042;"/><text fill="#243039" font-family="'Helvetica'" font-size="17.5" lengthAdjust="spacing" textLength="199.3958" x="52.1937" y="876.8087">FSM convergence rule hit</text></g><!--link InProgress to Failed--><g class="link" data-entity-1="ent0005" data-entity-2="ent0007" data-link-type="dependency" data-source-line="29" id="lnk17"><path d="M361.3167,806.7063 C324.1,826.1604 285.4542,854.9042 310.3187,882.2917 C336.7146,911.3854 919.6704,948.7837 1075.2308,958.2774" fill="none" id="InProgress-to-Failed" style="stroke:#5E6A71;stroke-width:1.6042;"/><polygon fill="#5E6A71" points="1083.9646,958.8104,1071.2193,952.1884,1076.6865,958.3662,1070.5086,963.8334,1083.9646,958.8104" style="stroke:#5E6A71;stroke-width:1.6042;"/><text fill="#243039" font-family="'Helvetica'" font-size="17.5" lengthAdjust="spacing" textLength="147.8699" x="311.7771" y="876.8087">session invalidated</text></g><!--link InProgress to Failed--><g class="link" data-entity-1="ent0005" data-entity-2="ent0007" data-link-type="dependency" data-source-line="30" id="lnk18"><path d="M442.1083,818.4167 C461.0083,840.5833 488.3229,867.6646 518.8604,882.2917 C620.0104,930.7667 960.2666,952.5982 1075.2999,958.7378" fill="none" id="InProgress-to-Failed-1" style="stroke:#5E6A71;stroke-width:1.6042;"/><polygon fill="#5E6A71" points="1084.0375,959.2042,1071.242,952.6796,1076.7562,958.8155,1070.6203,964.3297,1084.0375,959.2042" style="stroke:#5E6A71;stroke-width:1.6042;"/><text fill="#243039" font-family="'Helvetica'" font-size="17.5" lengthAdjust="spacing" textLength="99.2151" x="520.3188" y="876.8087">authority lost</text></g><!--link InProgress to Failed--><g class="link" data-entity-1="ent0005" data-entity-2="ent0007" data-link-type="dependency" data-source-line="31" id="lnk19"><path d="M469.2771,802.9729 C512.05,818.7813 573.3146,841.5312 626.7771,861.875 C650.1687,870.7854 655.1708,875.525 679.2771,882.2917 C826.7,923.6646 999.4565,946.888 1075.8294,955.9296" fill="none" id="InProgress-to-Failed-2" style="stroke:#5E6A71;stroke-width:1.6042;"/><polygon fill="#5E6A71" points="1084.5188,956.9583,1072.1706,949.6224,1077.2777,956.1011,1070.799,961.2081,1084.5188,956.9583" style="stroke:#5E6A71;stroke-width:1.6042;"/><text fill="#243039" font-family="'Helvetica'" font-size="17.5" lengthAdjust="spacing" textLength="137.1631" x="680.7354" y="876.8087">execution timeout</text></g><!--link Succeeded to *end*--><g class="link" data-entity-1="ent0006" data-entity-2="ent0020" data-link-type="dependency" data-source-line="33" id="lnk21"><path d="M535.4271,999.6292 C550.1708,1028.825 566.2787,1060.681 576.6329,1081.1852" fill="none" id="Succeeded-to-*end*" style="stroke:#5E6A71;stroke-width:1.6042;"/><polygon fill="#5E6A71" points="580.5771,1088.9958,579.8679,1074.6504,577.2903,1082.487,569.4537,1079.9094,580.5771,1088.9958" style="stroke:#5E6A71;stroke-width:1.6042;"/></g><!--link Failed to *end*--><g class="link" data-entity-1="ent0007" data-entity-2="ent0020" data-link-type="dependency" data-source-line="34" id="lnk22"><path d="M1084.0375,973.5833 C977.6521,1001.2042 683.0941,1077.6527 611.2712,1096.3048" fill="none" id="Failed-to-*end*" style="stroke:#5E6A71;stroke-width:1.6042;"/><polygon fill="#5E6A71" points="602.8021,1098.5042,616.9719,1100.8511,609.8596,1096.6713,614.0394,1089.559,602.8021,1098.5042" style="stroke:#5E6A71;stroke-width:1.6042;"/></g><?plantuml-src VPFFQkGm3CRlVWhrkj1zW24RADqjz51scIczb39u77KYuiZ1bgSjfUzUEnCyVvRCqTPFqgTFTkY81-rrRvtfi86DDjtMkyZDhRFEmrjBWkgAsDZO8Am_8blYRZru9yuukvOMU_n9iRTAI2p2hUjxpGqiCKGhy1izxRIGOrY95eG7RLfYLEhvnmjSNzVmf2qrER80uark3MPVGwamfXIYgXwzva1Ir_2flfGgaLpeJfDD8oo07MWZj4C8649gVO6BqZfFyZ63Y5Z0zu4yDdE4zbiKkFe5tH-M-KgHGnm6vmKFyvsGIpIOD6Tsjx_FfWqw12nE5AQgRiO9Hq_hUWhV68E3p8Rl-PztMvyyENPo2gvYIiPcJ7v4tnDhMuBJ55MrfD2bMrM4PEMbxGAMVrSmn8sbq8BhJh5YnJ7qEbwgKYA3HpeNSBTw06H17z8YqCJHbL7LQLAfFkqyFQR9nlFoXIpB1-k2p427fa8zkYZgI5uc3yRjnHh7EqnlWWs2Z-b7f2zqddDHx1nx9dSE-r-mEaZCPFfuQgAdupS0?></g></svg>