<?plantuml 1.2026.2?><svg xmlns="http://www.w3.org/2000/svg" xmlns:xlink="http://www.w3.org/1999/xlink" contentStyleType="text/css" data-diagram-type="SEQUENCE" height="880.8333px" preserveAspectRatio="none" style="width:1827px;height:880px;background:#FFFFFF;" version="1.1" viewBox="0 0 1827 880" width="1827.2917px" zoomAndPan="magnify"><title>State Uplink Sequence</title><defs/><g><text fill="#1F2A33" font-family="'Helvetica'" font-size="26.25" font-weight="bold" lengthAdjust="spacing" textLength="282.995" x="774.4313" y="42.088">State Uplink Sequence</text><rect fill="#FAFBFB" height="527.9167" rx="5.8333" ry="5.8333" style="stroke:#A7AFB5;stroke-width:2.1875;" width="1027.398" x="791.3345" y="281.4583"/><rect fill="#FAFBFB" height="430.2083" rx="5.8333" ry="5.8333" style="stroke:#A7AFB5;stroke-width:2.1875;" width="900.074" x="904.0752" y="368.9583"/><rect fill="#FAFBFB" height="59.7917" rx="5.8333" ry="5.8333" style="stroke:#A7AFB5;stroke-width:2.1875;" width="593.8493" x="918.6585" y="514.7917"/><rect fill="#FAFBFB" height="59.7917" rx="5.8333" ry="5.8333" style="stroke:#A7AFB5;stroke-width:2.1875;" width="593.8493" x="918.6585" y="595"/><path d="M904.0752,702.9167 L1804.1492,702.9167 L1804.1492,793.3333 A5.8333,5.8333 0 0 1 1798.3158,799.1667 L909.9085,799.1667 A5.8333,5.8333 0 0 1 904.0752,793.3333 L904.0752,702.9167" fill="#FAFBFB" style="stroke:none;stroke-width:1.4583;"/><g class="participant-lifeline" data-entity-uid="part1" data-qualified-name="PX4" id="part1-lifeline"><g><title>Sunray px4_state</title><rect fill="#000000" fill-opacity="0.00000" height="729.1667" width="11.6667" x="85.4403" y="105"/><line style="stroke:#A0AAB2;stroke-width:0.7292;stroke-dasharray:7.2917,7.2917;" x1="90.4167" x2="90.4167" y1="105" y2="834.1667"/></g></g><g class="participant-lifeline" data-entity-uid="part2" data-qualified-name="ODOM" id="part2-lifeline"><g><title>Sunray odom_status</title><rect fill="#000000" fill-opacity="0.00000" height="729.1667" width="11.6667" x="281.1557" y="105"/><line style="stroke:#A0AAB2;stroke-width:0.7292;stroke-dasharray:7.2917,7.2917;" x1="286.089" x2="286.089" y1="105" y2="834.1667"/></g></g><g class="participant-lifeline" data-entity-uid="part3" data-qualified-name="FSM" id="part3-lifeline"><g><title>Sunray fsm.state</title><rect fill="#000000" fill-opacity="0.00000" height="729.1667" width="11.6667" x="474.219" y="105"/><line style="stroke:#A0AAB2;stroke-width:0.7292;stroke-dasharray:7.2917,7.2917;" x1="478.9308" x2="478.9308" y1="105" y2="834.1667"/></g></g><g class="participant-lifeline" data-entity-uid="part4" data-qualified-name="CTRL" id="part4-lifeline"><g><title>Sunray controller_state</title><rect fill="#000000" fill-opacity="0.00000" height="729.1667" width="11.6667" x="677.8167" y="105"/><line style="stroke:#A0AAB2;stroke-width:0.7292;stroke-dasharray:7.2917,7.2917;" x1="682.4238" x2="682.4238" y1="105" y2="834.1667"/></g></g><g class="participant-lifeline" data-entity-uid="part5" data-qualified-name="TICK" id="part5-lifeline"><g><title>bridge tick</title><rect fill="#000000" fill-opacity="0.00000" height="729.1667" width="11.6667" x="853.4953" y="105"/><line style="stroke:#A0AAB2;stroke-width:0.7292;stroke-dasharray:7.2917,7.2917;" x1="858.4179" x2="858.4179" y1="105" y2="834.1667"/></g></g><g class="participant-lifeline" data-entity-uid="part6" data-qualified-name="BRIDGE" id="part6-lifeline"><g><title>sunray_yunlink_bridge</title><rect fill="#000000" fill-opacity="0.00000" height="729.1667" width="11.6667" x="1032.4687" y="105"/><line style="stroke:#A0AAB2;stroke-width:0.7292;stroke-dasharray:7.2917,7.2917;" x1="1038.2418" x2="1038.2418" y1="105" y2="834.1667"/></g></g><g class="participant-lifeline" data-entity-uid="part7" data-qualified-name="RT" id="part7-lifeline"><g><title>yunlink..Runtime</title><rect fill="#000000" fill-opacity="0.00000" height="729.1667" width="11.6667" x="1411.8119" y="105"/><line style="stroke:#A0AAB2;stroke-width:0.7292;stroke-dasharray:7.2917,7.2917;" x1="1417.5744" x2="1417.5744" y1="105" y2="834.1667"/></g></g><g class="participant-lifeline" data-entity-uid="part8" data-qualified-name="GROUND" id="part8-lifeline"><g><title>Rust Ground Client</title><rect fill="#000000" fill-opacity="0.00000" height="729.1667" width="11.6667" x="1692.9142" y="105"/><line style="stroke:#A0AAB2;stroke-width:0.7292;stroke-dasharray:7.2917,7.2917;" x1="1698.3459" x2="1698.3459" y1="105" y2="834.1667"/></g></g><g class="participant participant-head" data-entity-uid="part1" data-qualified-name="PX4" id="part1-head"><rect fill="#EEF2F4" height="39.375" rx="5.8333" ry="5.8333" style="stroke:#5E6A71;stroke-width:0.7292;" width="167.964" x="7.2917" y="64.1667"/><text fill="#243039" font-family="'Helvetica'" font-size="18.9583" lengthAdjust="spacing" textLength="147.5473" x="17.5" y="88.9733">Sunray px4_state</text></g><g class="participant participant-tail" data-entity-uid="part1" data-qualified-name="PX4" id="part1-tail"><rect fill="#EEF2F4" height="39.375" rx="5.8333" ry="5.8333" style="stroke:#5E6A71;stroke-width:0.7292;" width="167.964" x="7.2917" y="832.7083"/><text fill="#243039" font-family="'Helvetica'" font-size="18.9583" lengthAdjust="spacing" textLength="147.5473" x="17.5" y="857.515">Sunray px4_state</text></g><g class="participant participant-head" data-entity-uid="part2" data-qualified-name="ODOM" id="part2-head"><rect fill="#EEF2F4" height="39.375" rx="5.8333" ry="5.8333" style="stroke:#5E6A71;stroke-width:0.7292;" width="194.3001" x="189.839" y="64.1667"/><text fill="#243039" font-family="'Helvetica'" font-size="18.9583" lengthAdjust="spacing" textLength="173.8835" x="200.0473" y="88.9733">Sunray odom_status</text></g><g class="participant participant-tail" data-entity-uid="part2" data-qualified-name="ODOM" id="part2-tail"><rect fill="#EEF2F4" height="39.375" rx="5.8333" ry="5.8333" style="stroke:#5E6A71;stroke-width:0.7292;" width="194.3001" x="189.839" y="832.7083"/><text fill="#243039" font-family="'Helvetica'" font-size="18.9583" lengthAdjust="spacing" textLength="173.8835" x="200.0473" y="857.515">Sunray odom_status</text></g><g class="participant participant-head" data-entity-uid="part3" data-qualified-name="FSM" id="part3-head"><rect fill="#EEF2F4" height="39.375" rx="5.8333" ry="5.8333" style="stroke:#5E6A71;stroke-width:0.7292;" width="162.6597" x="398.7224" y="64.1667"/><text fill="#243039" font-family="'Helvetica'" font-size="18.9583" lengthAdjust="spacing" textLength="142.243" x="408.9308" y="88.9733">Sunray fsm/state</text></g><g class="participant participant-tail" data-entity-uid="part3" data-qualified-name="FSM" id="part3-tail"><rect fill="#EEF2F4" height="39.375" rx="5.8333" ry="5.8333" style="stroke:#5E6A71;stroke-width:0.7292;" width="162.6597" x="398.7224" y="832.7083"/><text fill="#243039" font-family="'Helvetica'" font-size="18.9583" lengthAdjust="spacing" textLength="142.243" x="408.9308" y="857.515">Sunray fsm/state</text></g><g class="participant participant-head" data-entity-uid="part4" data-qualified-name="CTRL" id="part4-head"><rect fill="#EEF2F4" height="39.375" rx="5.8333" ry="5.8333" style="stroke:#5E6A71;stroke-width:0.7292;" width="215.3691" x="575.9655" y="64.1667"/><text fill="#243039" font-family="'Helvetica'" font-size="18.9583" lengthAdjust="spacing" textLength="194.9524" x="586.1738" y="88.9733">Sunray controller_state</text></g><g class="participant participant-tail" data-entity-uid="part4" data-qualified-name="CTRL" id="part4-tail"><rect fill="#EEF2F4" height="39.375" rx="5.8333" ry="5.8333" style="stroke:#5E6A71;stroke-width:0.7292;" width="215.3691" x="575.9655" y="832.7083"/><text fill="#243039" font-family="'Helvetica'" font-size="18.9583" lengthAdjust="spacing" textLength="194.9524" x="586.1738" y="857.515">Sunray controller_state</text></g><g class="participant participant-head" data-entity-uid="part5" data-qualified-name="TICK" id="part5-head"><rect fill="#EEF2F4" height="39.375" rx="5.8333" ry="5.8333" style="stroke:#5E6A71;stroke-width:0.7292;" width="106.8215" x="805.9179" y="64.1667"/><text fill="#243039" font-family="'Helvetica'" font-size="18.9583" lengthAdjust="spacing" textLength="86.4048" x="816.1262" y="88.9733">bridge tick</text></g><g class="participant participant-tail" data-entity-uid="part5" data-qualified-name="TICK" id="part5-tail"><rect fill="#EEF2F4" height="39.375" rx="5.8333" ry="5.8333" style="stroke:#5E6A71;stroke-width:0.7292;" width="106.8215" x="805.9179" y="832.7083"/><text fill="#243039" font-family="'Helvetica'" font-size="18.9583" lengthAdjust="spacing" textLength="86.4048" x="816.1262" y="857.515">bridge tick</text></g><g class="participant participant-head" data-entity-uid="part6" data-qualified-name="BRIDGE" id="part6-head"><rect fill="#EEF2F4" height="39.375" rx="5.8333" ry="5.8333" style="stroke:#5E6A71;stroke-width:0.7292;" width="210.1203" x="933.2418" y="64.1667"/><text fill="#243039" font-family="'Helvetica'" font-size="18.9583" lengthAdjust="spacing" textLength="189.7037" x="943.4502" y="88.9733">sunray_yunlink_bridge</text></g><g class="participant participant-tail" data-entity-uid="part6" data-qualified-name="BRIDGE" id="part6-tail"><rect fill="#EEF2F4" height="39.375" rx="5.8333" ry="5.8333" style="stroke:#5E6A71;stroke-width:0.7292;" width="210.1203" x="933.2418" y="832.7083"/><text fill="#243039" font-family="'Helvetica'" font-size="18.9583" lengthAdjust="spacing" textLength="189.7037" x="943.4502" y="857.515">sunray_yunlink_bridge</text></g><g class="participant participant-head" data-entity-uid="part7" data-qualified-name="RT" id="part7-head"><rect fill="#EEF2F4" height="39.375" rx="5.8333" ry="5.8333" style="stroke:#5E6A71;stroke-width:0.7292;" width="160.5584" x="1337.3661" y="64.1667"/><text fill="#243039" font-family="'Helvetica'" font-size="18.9583" lengthAdjust="spacing" textLength="140.1417" x="1347.5744" y="88.9733">yunlink::Runtime</text></g><g class="participant participant-tail" data-entity-uid="part7" data-qualified-name="RT" id="part7-tail"><rect fill="#EEF2F4" height="39.375" rx="5.8333" ry="5.8333" style="stroke:#5E6A71;stroke-width:0.7292;" width="160.5584" x="1337.3661" y="832.7083"/><text fill="#243039" font-family="'Helvetica'" font-size="18.9583" lengthAdjust="spacing" textLength="140.1417" x="1347.5744" y="857.515">yunlink::Runtime</text></g><g class="participant participant-head" data-entity-uid="part8" data-qualified-name="GROUND" id="part8-head"><rect fill="#EEF2F4" height="39.375" rx="5.8333" ry="5.8333" style="stroke:#5E6A71;stroke-width:0.7292;" width="181.6366" x="1607.9293" y="64.1667"/><text fill="#243039" font-family="'Helvetica'" font-size="18.9583" lengthAdjust="spacing" textLength="161.2199" x="1618.1376" y="88.9733">Rust Ground Client</text></g><g class="participant participant-tail" data-entity-uid="part8" data-qualified-name="GROUND" id="part8-tail"><rect fill="#EEF2F4" height="39.375" rx="5.8333" ry="5.8333" style="stroke:#5E6A71;stroke-width:0.7292;" width="181.6366" x="1607.9293" y="832.7083"/><text fill="#243039" font-family="'Helvetica'" font-size="18.9583" lengthAdjust="spacing" textLength="161.2199" x="1618.1376" y="857.515">Rust Ground Client</text></g><g class="message" data-entity-1="part1" data-entity-2="part6" id="msg1"><polygon fill="#5E6A71" points="1020.802,140,1035.3853,145.8333,1020.802,151.6667,1026.6353,145.8333" style="stroke:#5E6A71;stroke-width:1.4583;"/><line style="stroke:#5E6A71;stroke-width:1.6042;" x1="91.2737" x2="1029.552" y1="145.8333" y2="145.8333"/><text fill="#243039" font-family="'Helvetica'" font-size="17.5" lengthAdjust="spacing" textLength="169.2664" x="480.1546" y="138.892">cache latest Px4State</text></g><g class="message" data-entity-1="part2" data-entity-2="part6" id="msg2"><polygon fill="#5E6A71" points="1020.802,177.9167,1035.3853,183.75,1020.802,189.5833,1026.6353,183.75" style="stroke:#5E6A71;stroke-width:1.4583;"/><line style="stroke:#5E6A71;stroke-width:1.6042;" x1="286.989" x2="1029.552" y1="183.75" y2="183.75"/><text fill="#243039" font-family="'Helvetica'" font-size="17.5" lengthAdjust="spacing" textLength="195.5164" x="564.8873" y="176.8087">cache latest OdomStatus</text></g><g class="message" data-entity-1="part3" data-entity-2="part6" id="msg3"><polygon fill="#5E6A71" points="1020.802,215.8333,1035.3853,221.6667,1020.802,227.5,1026.6353,221.6667" style="stroke:#5E6A71;stroke-width:1.4583;"/><line style="stroke:#5E6A71;stroke-width:1.6042;" x1="480.0523" x2="1029.552" y1="221.6667" y2="221.6667"/><text fill="#243039" font-family="'Helvetica'" font-size="17.5" lengthAdjust="spacing" textLength="268.4473" x="624.9535" y="214.7253">cache latest UAVControlFSMState</text></g><g class="message" data-entity-1="part4" data-entity-2="part6" id="msg4"><polygon fill="#5E6A71" points="1020.802,253.75,1035.3853,259.5833,1020.802,265.4167,1026.6353,259.5833" style="stroke:#5E6A71;stroke-width:1.4583;"/><line style="stroke:#5E6A71;stroke-width:1.6042;" x1="683.65" x2="1029.552" y1="259.5833" y2="259.5833"/><text fill="#243039" font-family="'Helvetica'" font-size="17.5" lengthAdjust="spacing" textLength="250.9558" x="735.4981" y="252.642">cache latest UAVControllerState</text></g><path d="M797.1679,281.4583 L896.9683,281.4583 L896.9683,288.75 L882.3849,303.3333 L791.3345,303.3333 L791.3345,287.2917 A5.8333,5.8333 0 0 1 797.1679,281.4583" fill="#FBFCFC" style="stroke:#A7AFB5;stroke-width:2.1875;"/><rect fill="none" height="527.9167" rx="5.8333" ry="5.8333" style="stroke:#A7AFB5;stroke-width:2.1875;" width="1027.398" x="791.3345" y="281.4583"/><text fill="#243039" font-family="'Helvetica'" font-size="18.9583" font-weight="bold" lengthAdjust="spacing" textLength="40.0087" x="813.2095" y="297.515">loop</text><text fill="#243039" font-family="'Helvetica'" font-size="18.9583" font-weight="bold" lengthAdjust="spacing" textLength="163.2842" x="918.8433" y="298.9733">[50 Hz bridge tick]</text><g class="message" data-entity-1="part5" data-entity-2="part6" id="msg5"><polygon fill="#5E6A71" points="1020.802,341.25,1035.3853,347.0833,1020.802,352.9167,1026.6353,347.0833" style="stroke:#5E6A71;stroke-width:1.4583;"/><line style="stroke:#5E6A71;stroke-width:1.6042;" x1="859.3286" x2="1029.552" y1="347.0833" y2="347.0833"/><text fill="#243039" font-family="'Helvetica'" font-size="17.5" lengthAdjust="spacing" textLength="133.2751" x="882.1777" y="322.642">evaluate throttles</text><text fill="#243039" font-family="'Helvetica'" font-size="17.5" lengthAdjust="spacing" textLength="143.9734" x="876.8286" y="340.142">and active session</text></g><path d="M909.9085,368.9583 L991.8244,368.9583 L991.8244,376.25 L977.2411,390.8333 L904.0752,390.8333 L904.0752,374.7917 A5.8333,5.8333 0 0 1 909.9085,368.9583" fill="#FBFCFC" style="stroke:#A7AFB5;stroke-width:2.1875;"/><rect fill="none" height="430.2083" rx="5.8333" ry="5.8333" style="stroke:#A7AFB5;stroke-width:2.1875;" width="900.074" x="904.0752" y="368.9583"/><text fill="#243039" font-family="'Helvetica'" font-size="18.9583" font-weight="bold" lengthAdjust="spacing" textLength="22.1242" x="925.9502" y="385.015">alt</text><text fill="#243039" font-family="'Helvetica'" font-size="18.9583" font-weight="bold" lengthAdjust="spacing" textLength="201.2749" x="1013.6994" y="386.4733">[active session exists]</text><g class="message" data-entity-1="part6" data-entity-2="part7" id="msg6"><polygon fill="#5E6A71" points="1400.1453,411.25,1414.7286,417.0833,1400.1453,422.9167,1405.9786,417.0833" style="stroke:#5E6A71;stroke-width:1.4583;"/><line style="stroke:#5E6A71;stroke-width:1.6042;" x1="1038.302" x2="1408.8953" y1="417.0833" y2="417.0833"/><text fill="#243039" font-family="'Helvetica'" font-size="17.5" lengthAdjust="spacing" textLength="267.5159" x="1094.2157" y="410.142">publish Px4StateSnapshot (20 Hz)</text></g><g class="message" data-entity-1="part6" data-entity-2="part7" id="msg7"><polygon fill="#5E6A71" points="1400.1453,449.1667,1414.7286,455,1400.1453,460.8333,1405.9786,455" style="stroke:#5E6A71;stroke-width:1.4583;"/><line style="stroke:#5E6A71;stroke-width:1.6042;" x1="1038.302" x2="1408.8953" y1="455" y2="455"/><text fill="#243039" font-family="'Helvetica'" font-size="17.5" lengthAdjust="spacing" textLength="258.7402" x="1098.6035" y="448.0587">publish VehicleCoreState (20 Hz)</text></g><g class="message" data-entity-1="part6" data-entity-2="part7" id="msg8"><polygon fill="#5E6A71" points="1400.1453,487.0833,1414.7286,492.9167,1400.1453,498.75,1405.9786,492.9167" style="stroke:#5E6A71;stroke-width:1.4583;"/><line style="stroke:#5E6A71;stroke-width:1.6042;" x1="1038.302" x2="1408.8953" y1="492.9167" y2="492.9167"/><text fill="#243039" font-family="'Helvetica'" font-size="17.5" lengthAdjust="spacing" textLength="344.3433" x="1055.802" y="485.9753">publish UavControllerStateSnapshot (20 Hz)</text></g><path d="M924.4918,514.7917 L1006.4077,514.7917 L1006.4077,522.0833 L991.8244,536.6667 L918.6585,536.6667 L918.6585,520.625 A5.8333,5.8333 0 0 1 924.4918,514.7917" fill="#FBFCFC" style="stroke:#A7AFB5;stroke-width:2.1875;"/><rect fill="none" height="59.7917" rx="5.8333" ry="5.8333" style="stroke:#A7AFB5;stroke-width:2.1875;" width="593.8493" x="918.6585" y="514.7917"/><text fill="#243039" font-family="'Helvetica'" font-size="18.9583" font-weight="bold" lengthAdjust="spacing" textLength="22.1242" x="940.5335" y="530.8483">alt</text><text fill="#243039" font-family="'Helvetica'" font-size="18.9583" font-weight="bold" lengthAdjust="spacing" textLength="327.6144" x="1028.2827" y="532.3066">[fsm changed or 2 Hz heartbeat due]</text><g class="message" data-entity-1="part6" data-entity-2="part7" id="msg9"><polygon fill="#5E6A71" points="1400.1453,557.0833,1414.7286,562.9167,1400.1453,568.75,1405.9786,562.9167" style="stroke:#5E6A71;stroke-width:1.4583;"/><line style="stroke:#5E6A71;stroke-width:1.6042;" x1="1038.302" x2="1408.8953" y1="562.9167" y2="562.9167"/><text fill="#243039" font-family="'Helvetica'" font-size="17.5" lengthAdjust="spacing" textLength="296.6797" x="1079.6338" y="555.9753">publish UavControlFsmStateSnapshot</text></g><path d="M924.4918,595 L1006.4077,595 L1006.4077,602.2917 L991.8244,616.875 L918.6585,616.875 L918.6585,600.8333 A5.8333,5.8333 0 0 1 924.4918,595" fill="#FBFCFC" style="stroke:#A7AFB5;stroke-width:2.1875;"/><rect fill="none" height="59.7917" rx="5.8333" ry="5.8333" style="stroke:#A7AFB5;stroke-width:2.1875;" width="593.8493" x="918.6585" y="595"/><text fill="#243039" font-family="'Helvetica'" font-size="18.9583" font-weight="bold" lengthAdjust="spacing" textLength="22.1242" x="940.5335" y="611.0566">alt</text><text fill="#243039" font-family="'Helvetica'" font-size="18.9583" font-weight="bold" lengthAdjust="spacing" textLength="345.499" x="1028.2827" y="612.515">[odom changed or 1 Hz heartbeat due]</text><g class="message" data-entity-1="part6" data-entity-2="part7" id="msg10"><polygon fill="#5E6A71" points="1400.1453,637.2917,1414.7286,643.125,1400.1453,648.9583,1405.9786,643.125" style="stroke:#5E6A71;stroke-width:1.4583;"/><line style="stroke:#5E6A71;stroke-width:1.6042;" x1="1038.302" x2="1408.8953" y1="643.125" y2="643.125"/><text fill="#243039" font-family="'Helvetica'" font-size="17.5" lengthAdjust="spacing" textLength="231.5332" x="1112.207" y="636.1837">publish OdomStatusSnapshot</text></g><g class="message" data-entity-1="part7" data-entity-2="part8" id="msg11"><polygon fill="#5E6A71" points="1681.2476,685.4167,1695.8309,691.25,1681.2476,697.0833,1687.0809,691.25" style="stroke:#5E6A71;stroke-width:1.4583;"/><line style="stroke:#5E6A71;stroke-width:1.6042;" x1="1417.6453" x2="1689.9976" y1="691.25" y2="691.25"/><text fill="#243039" font-family="'Helvetica'" font-size="17.5" lengthAdjust="spacing" textLength="246.1023" x="1435.1453" y="684.3087">route only to current active peer</text></g><line style="stroke:#A7AFB5;stroke-width:1.4583;stroke-dasharray:2.9167,2.9167;" x1="904.0752" x2="1804.1492" y1="704.375" y2="704.375"/><text fill="#243039" font-family="'Helvetica'" font-size="18.9583" font-weight="bold" lengthAdjust="spacing" textLength="170.6805" x="911.3668" y="718.9733">[no active session]</text><g class="message" data-entity-1="part6" data-entity-2="part6" id="msg12"><line style="stroke:#5E6A71;stroke-width:1.6042;" x1="1038.302" x2="1099.552" y1="768.5417" y2="768.5417"/><line style="stroke:#5E6A71;stroke-width:1.6042;" x1="1099.552" x2="1099.552" y1="768.5417" y2="787.5"/><line style="stroke:#5E6A71;stroke-width:1.6042;" x1="1039.7603" x2="1099.552" y1="787.5" y2="787.5"/><polygon fill="#5E6A71" points="1054.3437,781.6667,1039.7603,787.5,1054.3437,793.3333,1048.5103,787.5" style="stroke:#5E6A71;stroke-width:1.4583;"/><text fill="#243039" font-family="'Helvetica'" font-size="17.5" lengthAdjust="spacing" textLength="155.6799" x="1048.5103" y="744.1003">drop outbound state</text><text fill="#243039" font-family="'Helvetica'" font-size="17.5" lengthAdjust="spacing" textLength="112.8357" x="1069.9325" y="761.6003">(no broadcast)</text></g><?plantuml-src bPDBRzim48Jl_1NRdD93Nu5xyQ50ApTkq8S3oGvw261GrDOYH94g7wxTNzybbTYMwnJkGHVfcrbgEEiQgJjkUQkCQB22aejcPKtGLMQKiV2hbXxPCwc52XN2SXkqahfPTjPu8unQ-XfRV2b3gvYNNY4Kddk4HHSnAF1dG2sGCHhYfP0TrnukYg0jtqAt6IrTn2-0ExZzFZf9cSgq2GikSRF9xEj9y8ThN-tjhelJb33QMwCKseFPsJp_CgHBAwiL0hre4Z6_oJuF2PVyTedqWiH-o6ycquz3-W4RZ_EWlMnxC9yFeJmu3zCKFsHAelO9c-QpnRS9OvGGl7ZtO0zZ45pK28f-WcItcr6AdiLydiPcb6QHmcIKqDFSulrTrYT5M6ySGpf7GD7s0gQCwU3jQ_Zq6mxoP93I75ZXcgiGY-DhQXRroDrhJYbmuUKQmQ5pqcX6KgxyqLl0ZNJUqJTuD2JhV4wsNIYLTFKkd4BppjN6m-LLFDNpVsdki9P2OMOizfq-GxFWwwCG_fgOvF4dgAuWQgvNj7QqQLSnfHgf3YLo3rN0H9unwjgrWr59XxhQZuehT3ZhpN_EsfVcz0o2ITBNb6HKO8hBQBK5Rq04Qwd9ZvVM8LeIeN88sXnVyF0GktfKbef4hcLQZRItz_gIvAKrl1BS-NWjyJpq_040?></g></svg>