<svg xmlns="http://www.w3.org/2000/svg" xmlns:xlink="http://www.w3.org/1999/xlink" contentStyleType="text/css" data-diagram-type="DESCRIPTION" height="698.5417px" preserveAspectRatio="none" style="width:2299px;height:698px;background:#FFFFFF;" version="1.1" viewBox="0 0 2299 698" width="2299.7917px" zoomAndPan="magnify"><?plantuml 1.2026.3?><defs/><g><g class="title" data-source-line="2"><text fill="#1F2A33" font-family="'Helvetica'" font-size="26.25" font-weight="700" lengthAdjust="spacing" textLength="581.9989" x="854.4239" y="34.7963">Sunray ROS1 Bridge - Current System Context</text></g><!--cluster YunLink Network--><g class="cluster" data-qualified-name="YunLink Network" data-source-line="6" id="ent0003"><rect fill="#F6E6BE" height="175" rx="7.2917" ry="7.2917" style="stroke:#9A6B18;stroke-width:1.4583;" width="347.0833" x="10.2083" y="325.9375"/><text fill="#243039" font-family="'Helvetica'" font-size="18.9583" font-style="italic" lengthAdjust="spacing" textLength="82.2021" x="142.6489" y="343.4525">&#171;Control&#187;</text><text fill="#243039" font-family="'Helvetica'" font-size="18.9583" font-weight="700" lengthAdjust="spacing" textLength="154.8418" x="106.3291" y="362.4108">YunLink Network</text></g><!--cluster Air Side--><g class="cluster" data-qualified-name="Air Side" data-source-line="10" id="ent0005"><rect fill="#EEF2F4" height="420.7292" rx="7.2917" ry="7.2917" style="stroke:#5E6A71;stroke-width:1.4583;" width="1461.25" x="392.2917" y="258.125"/><text fill="#243039" font-family="'Helvetica'" font-size="18.9583" font-style="italic" lengthAdjust="spacing" textLength="82.2021" x="1081.8156" y="275.64">&#171;Neutral&#187;</text><text fill="#243039" font-family="'Helvetica'" font-size="18.9583" font-weight="700" lengthAdjust="spacing" textLength="71.6399" x="1087.0967" y="294.5983">Air Side</text></g><!--cluster Sunray ROS Graph--><g class="cluster" data-qualified-name="Air Side.Sunray ROS Graph" data-source-line="13" id="ent0007"><rect fill="#EEF2F4" height="156.0417" rx="7.2917" ry="7.2917" style="stroke:#5E6A71;stroke-width:1.4583;" width="1391.25" x="427.2917" y="335.4167"/><text fill="#243039" font-family="'Helvetica'" font-size="18.9583" font-style="italic" lengthAdjust="spacing" textLength="82.2021" x="1081.8156" y="352.9316">&#171;Neutral&#187;</text><text fill="#243039" font-family="'Helvetica'" font-size="18.9583" font-weight="700" lengthAdjust="spacing" textLength="171.7173" x="1037.058" y="371.89">Sunray ROS Graph</text></g><!--entity Network--><g class="entity" data-qualified-name="YunLink Network.Network" data-source-line="7" id="ent0004"><rect fill="#F6E6BE" height="86.0417" rx="5.8333" ry="5.8333" width="301.0355" x="33.2354" y="391.5625"/><text fill="#243039" font-family="'Helvetica'" font-size="18.9583" font-style="italic" lengthAdjust="spacing" textLength="82.2021" x="142.6521" y="420.7441">&#171;Control&#187;</text><text fill="#243039" font-family="'Helvetica'" font-size="18.9583" lengthAdjust="spacing" textLength="70.5939" x="148.4562" y="439.7025">Runtime</text><text fill="#243039" font-family="'Helvetica'" font-size="18.9583" lengthAdjust="spacing" textLength="271.8688" x="47.8187" y="458.6608">Session / Authority / Auto Result</text></g><!--entity Bridge--><g class="entity" data-qualified-name="Air Side.Bridge" data-source-line="11" id="ent0006"><rect fill="#F6E6BE" height="67.0833" rx="5.8333" ry="5.8333" width="188.3037" x="928.1417" y="588.4375"/><text fill="#243039" font-family="'Helvetica'" font-size="18.9583" font-style="italic" lengthAdjust="spacing" textLength="82.2021" x="981.1925" y="617.6191">&#171;Control&#187;</text><text fill="#243039" font-family="'Helvetica'" font-size="18.9583" lengthAdjust="spacing" textLength="159.1371" x="942.725" y="636.5775">yunlink_ros_bridge</text></g><!--entity Odom--><g class="entity" data-qualified-name="Air Side.Sunray ROS Graph.Odom" data-source-line="14" id="ent0008"><rect fill="#DCECDD" height="67.0833" rx="5.8333" ry="5.8333" width="240.9946" x="1075.3313" y="401.0417"/><text fill="#243039" font-family="'Helvetica'" font-size="18.9583" font-style="italic" lengthAdjust="spacing" textLength="113.8426" x="1138.9072" y="430.2233">&#171;StatePlane&#187;</text><text fill="#243039" font-family="'Helvetica'" font-size="18.9583" lengthAdjust="spacing" textLength="211.8279" x="1089.9146" y="449.1816">local_odom / odom_state</text></g><!--entity Px4State--><g class="entity" data-qualified-name="Air Side.Sunray ROS Graph.Px4State" data-source-line="15" id="ent0009"><rect fill="#DCECDD" height="67.0833" rx="5.8333" ry="5.8333" width="145.9259" x="1367.8729" y="401.0417"/><text fill="#243039" font-family="'Helvetica'" font-size="18.9583" font-style="italic" lengthAdjust="spacing" textLength="113.8426" x="1383.9146" y="430.2233">&#171;StatePlane&#187;</text><text fill="#243039" font-family="'Helvetica'" font-size="18.9583" lengthAdjust="spacing" textLength="82.2114" x="1399.7302" y="449.1816">px4_state</text></g><!--entity Control--><g class="entity" data-qualified-name="Air Side.Sunray ROS Graph.Control" data-source-line="16" id="ent0010"><rect fill="#F6E6BE" height="67.0833" rx="5.8333" ry="5.8333" width="256.7778" x="450.5667" y="401.0417"/><text fill="#243039" font-family="'Helvetica'" font-size="18.9583" font-style="italic" lengthAdjust="spacing" textLength="82.2021" x="537.8545" y="430.2233">&#171;Control&#187;</text><text fill="#243039" font-family="'Helvetica'" font-size="18.9583" lengthAdjust="spacing" textLength="227.6111" x="465.15" y="449.1816">control_cmd / control_state</text></g><!--entity Execution--><g class="entity" data-qualified-name="Air Side.Sunray ROS Graph.Execution" data-source-line="17" id="ent0011"><rect fill="#DCECDD" height="67.0833" rx="5.8333" ry="5.8333" width="265.2294" x="758.4208" y="401.0417"/><text fill="#243039" font-family="'Helvetica'" font-size="18.9583" font-style="italic" lengthAdjust="spacing" textLength="113.8426" x="834.1142" y="430.2233">&#171;StatePlane&#187;</text><text fill="#243039" font-family="'Helvetica'" font-size="18.9583" lengthAdjust="spacing" textLength="236.0627" x="773.0042" y="449.1816">command_execution_status</text></g><!--entity Services--><g class="entity" data-qualified-name="Air Side.Sunray ROS Graph.Services" data-source-line="18" id="ent0012"><rect fill="#EEF2F4" height="67.0833" rx="5.8333" ry="5.8333" width="231.4506" x="1564.2813" y="401.0417"/><text fill="#243039" font-family="'Helvetica'" font-size="18.9583" font-style="italic" lengthAdjust="spacing" textLength="82.2021" x="1638.9055" y="430.2233">&#171;Neutral&#187;</text><text fill="#243039" font-family="'Helvetica'" font-size="18.9583" lengthAdjust="spacing" textLength="202.2839" x="1578.8646" y="449.1816">sunray_system services</text></g><!--entity Ground--><g class="entity" data-qualified-name="Ground" data-source-line="4" id="ent0002"><ellipse cx="183.7446" cy="77.2917" fill="#F1F4F6" rx="11.6667" ry="11.6667"/><path d="M183.7446,88.9583 L183.7446,128.3333 M164.7863,100.625 L202.7029,100.625 M183.7446,128.3333 L164.7863,150.2083 M183.7446,128.3333 L202.7029,150.2083" fill="none"/><text fill="#243039" font-family="'Helvetica'" font-size="18.9583" lengthAdjust="spacing" textLength="195.9892" x="85.75" y="166.265">Ground Client / Monitor</text></g><g class="entity" data-qualified-name="GMN20" data-source-line="31" id="ent0021"><path d="M1877.0646,603.0208 L1877.0646,640.9375 A5.8333,5.8333 0 0 0 1882.8979,646.7708 L2273.3467,646.7708 A5.8333,5.8333 0 0 0 2279.1801,640.9375 L2279.1801,611.7708 L2264.5967,597.1875 L2032.2604,597.1875 L1750.7146,468.8104 L2020.5937,597.1875 L1882.8979,597.1875 A5.8333,5.8333 0 0 0 1877.0646,603.0208" fill="#F7F5F1" style="stroke:#B7AEA1;stroke-width:0.7292;"/><path d="M2264.5967,597.1875 L2264.5967,608.8542 A2.9167,2.9167 0 0 0 2267.5134,611.7708 L2279.1801,611.7708 L2264.5967,597.1875" fill="#F7F5F1" style="stroke:#B7AEA1;stroke-width:0.7292;"/><text fill="#2D3135" font-family="'Helvetica'" font-size="17.5" lengthAdjust="spacing" textLength="371.4905" x="1885.8146" y="617.9545">Runtime auto-result &#34920;&#31034;&#21327;&#35758;&#21629;&#20196;&#24050;&#36890;&#36807; gate&#65292;</text><text fill="#2D3135" font-family="'Helvetica'" font-size="17.5" lengthAdjust="spacing" textLength="317.9736" x="1912.573" y="635.4545">&#19981;&#34920;&#31034; Sunray &#25110; PX4 &#24050;&#23436;&#25104;&#39134;&#34892;&#21160;&#20316;&#12290;</text></g><!--link Ground to Network--><g class="link" data-entity-1="ent0002" data-entity-2="ent0004" data-link-type="dependency" data-source-line="22" id="lnk13"><path d="M183.75,179.4042 C183.75,240.8292 183.75,325.2958 183.75,382.3604" fill="none" id="Ground-Network" style="stroke:#5E6A71;stroke-width:1.6042;"/><polygon fill="#5E6A71" points="183.75,170.6542,177.9167,183.7792,183.75,177.9458,189.5833,183.7792,183.75,170.6542" style="stroke:#5E6A71;stroke-width:1.6042;"/><polygon fill="#5E6A71" points="183.75,391.1104,189.5833,377.9854,183.75,383.8187,177.9167,377.9854,183.75,391.1104" style="stroke:#5E6A71;stroke-width:1.6042;"/><text fill="#243039" font-family="'Helvetica'" font-size="17.5" lengthAdjust="spacing" textLength="154.6375" x="185.2083" y="229.3087">YunLink TCP / UDP</text></g><!--link Network to Bridge--><g class="link" data-entity-1="ent0004" data-entity-2="ent0006" data-link-type="dependency" data-source-line="23" id="lnk14"><path d="M268.9873,482.0806 C315.0998,505.3118 367.6896,528.6896 424.375,544.6875 C597.8292,593.6583 799.8199,610.6056 919.1408,616.7597" fill="none" id="Network-Bridge" style="stroke:#5E6A71;stroke-width:1.6042;"/><polygon fill="#5E6A71" points="261.1729,478.1437,270.2699,489.2585,267.6849,481.4244,275.519,478.8394,261.1729,478.1437" style="stroke:#5E6A71;stroke-width:1.6042;"/><polygon fill="#5E6A71" points="927.8792,617.2104,915.0721,610.7088,920.5972,616.8348,914.4711,622.36,927.8792,617.2104" style="stroke:#5E6A71;stroke-width:1.6042;"/><text fill="#243039" font-family="'Helvetica'" font-size="17.5" lengthAdjust="spacing" textLength="317.1106" x="425.8333" y="539.2045">command / snapshot / service envelopes</text></g><!--link Odom to Bridge--><g class="link" data-entity-1="ent0008" data-entity-2="ent0006" data-link-type="dependency" data-source-line="24" id="lnk15"><path d="M1165.2083,468.5917 C1133.4896,502.3229 1090.2233,548.3193 1058.6067,581.9193" fill="none" id="Odom-to-Bridge" style="stroke:#5E6A71;stroke-width:1.6042;"/><polygon fill="#5E6A71" points="1052.6104,588.2917,1065.8531,582.7306,1057.6073,582.9813,1057.3565,574.7356,1052.6104,588.2917" style="stroke:#5E6A71;stroke-width:1.6042;"/><text fill="#243039" font-family="'Helvetica'" font-size="17.5" lengthAdjust="spacing" textLength="74.8962" x="1110.5208" y="539.2045">subscribe</text></g><!--link Px4State to Bridge--><g class="link" data-entity-1="ent0009" data-entity-2="ent0006" data-link-type="dependency" data-source-line="25" id="lnk16"><path d="M1404.7104,468.6208 C1386.7437,483.5688 1364.0958,500.5875 1341.6667,512.6042 C1269.9458,551.0167 1190.3855,577.2021 1124.9355,595.2417" fill="none" id="Px4State-to-Bridge" style="stroke:#5E6A71;stroke-width:1.6042;"/><polygon fill="#5E6A71" points="1116.5,597.5667,1130.7032,599.7028,1123.5295,595.6292,1127.6032,588.4555,1116.5,597.5667" style="stroke:#5E6A71;stroke-width:1.6042;"/><text fill="#243039" font-family="'Helvetica'" font-size="17.5" lengthAdjust="spacing" textLength="74.8962" x="1318.8" y="539.2045">subscribe</text></g><!--link Control to Bridge--><g class="link" data-entity-1="ent0010" data-entity-2="ent0006" data-link-type="dependency" data-source-line="26" id="lnk17"><path d="M646.9589,472.8143 C690.3297,495.6518 742.875,521.9375 797.7083,544.6875 C839.7083,562.1146 878.9703,575.9243 919.4974,589.0639" fill="none" id="Control-Bridge" style="stroke:#5E6A71;stroke-width:1.6042;"/><polygon fill="#5E6A71" points="639.2167,468.7375,648.1122,480.0142,645.6685,472.1348,653.5479,469.6912,639.2167,468.7375" style="stroke:#5E6A71;stroke-width:1.6042;"/><polygon fill="#5E6A71" points="927.8208,591.7625,917.1347,582.1656,920.8846,589.5137,913.5366,593.2636,927.8208,591.7625" style="stroke:#5E6A71;stroke-width:1.6042;"/><text fill="#243039" font-family="'Helvetica'" font-size="17.5" lengthAdjust="spacing" textLength="144.939" x="799.1667" y="539.2045">subscribe / publish</text></g><!--link Execution to Bridge--><g class="link" data-entity-1="ent0011" data-entity-2="ent0006" data-link-type="dependency" data-source-line="27" id="lnk18"><path d="M914.2,468.5917 C938.1896,502.3229 970.3759,547.5631 994.2925,581.1631" fill="none" id="Execution-to-Bridge" style="stroke:#5E6A71;stroke-width:1.6042;"/><polygon fill="#5E6A71" points="999.3667,588.2917,996.5078,574.2161,995.1382,582.3512,987.0031,580.9816,999.3667,588.2917" style="stroke:#5E6A71;stroke-width:1.6042;"/><text fill="#243039" font-family="'Helvetica'" font-size="17.5" lengthAdjust="spacing" textLength="74.8962" x="965.9854" y="539.2045">subscribe</text></g><!--link Bridge to Services--><g class="link" data-entity-1="ent0006" data-entity-2="ent0012" data-link-type="dependency" data-source-line="28" id="lnk19"><path d="M1125.6876,609.0111 C1231.5189,595.2736 1397.9875,567.2917 1540,512.6042 C1570.5083,500.85 1595.0871,488.0964 1620.8559,472.9881" fill="none" id="Bridge-Services" style="stroke:#5E6A71;stroke-width:1.6042;"/><polygon fill="#5E6A71" points="1117.0104,610.1375,1130.7771,614.2328,1124.2414,609.1989,1129.2753,602.6632,1117.0104,610.1375" style="stroke:#5E6A71;stroke-width:1.6042;"/><polygon fill="#5E6A71" points="1628.4042,468.5625,1614.1313,470.1687,1622.1139,472.2505,1620.0321,480.2331,1628.4042,468.5625" style="stroke:#5E6A71;stroke-width:1.6042;"/><text fill="#243039" font-family="'Helvetica'" font-size="17.5" lengthAdjust="spacing" textLength="101.1462" x="1501.2083" y="539.2045">service client</text></g><?plantuml-src XLDBQnH14BxthoZtlegmfsLPYAjuqMJPKL0GXfwUOgVPdkwX7yak4WXU399Wl7WG4O8vvBG7BueQ_37knit9ls3FOryc8QUPhiVtLNrLPGPSPbJJL2Wsm1WYoWPzhPoCEqee3Ji9jqXkSSc4Yn72aPE2oq6OQMKLKoAq2QPucxjK4CkjG0YSr7G4lQtWBjpJFEuZrA7Zj4Pf8HWPYobqbBGuj8HGPZr9xM7121t1yw0xy5X9xXqre0PA7o4QcQMoxnbgpvryv8k0JRGxIWzgq6hbY5g9TXjU4W2cqap97AlMSzBo55_808tXIdhq3MSJfRaTbVyAUcYSi0LR1RcAI7RNo3UuXe37cBDkehEQNi4wbqah4qQ520LwfSSgkC_BlERKcsjBwNpND4ikKwoH-95H4QfOfRwH_1CQIst9j9LRMwqWDtG5bUYf_alFXesLXEwmKGJVaCJAmaEMnfvq_bh2L8sjjNW98asfZ4CS8dFMZwH8TwR8Vp0ttb27AQGAJRbF1lKsPrX21DLZLJoVlflFiLgqLhtUNeow2VDzUjBf-gQUtk-InHhaWTNKcb1LxcECf9b9LBwh5JUWt4QXCZIaq7ujqRZ8CCqZ90kPh_4lzBlQx_ao5mbk4h9KwXge-RBbxeKcpKMzh3WsGgJorKJAMfMIwbY0-gkew-8gO7Py-kVa-_JmxMmydhuxc_mucNxzSh7tOVRhDVHz9tz_7f39jyCoR7xzv_lleVki0JvqEZuutp-w-FnfTdmmVNCwEVluU-yLGIzZplmF?></g></svg>