<svg xmlns="http://www.w3.org/2000/svg" xmlns:xlink="http://www.w3.org/1999/xlink" contentStyleType="text/css" data-diagram-type="DESCRIPTION" height="670.8333px" preserveAspectRatio="none" style="width:3276px;height:670px;background:#FFFFFF;" version="1.1" viewBox="0 0 3276 670" width="3276.875px" zoomAndPan="magnify"><?plantuml 1.2026.3?><defs/><g><g class="title" data-source-line="2"><text fill="#1F2A33" font-family="'Helvetica'" font-size="26.25" font-weight="700" lengthAdjust="spacing" textLength="580.4865" x="1343.0901" y="34.7963">yunlink_ros_bridge - Current Component View</text></g><!--cluster yunlink_ros_bridge--><g class="cluster" data-qualified-name="yunlink_ros_bridge" data-source-line="4" id="ent0002"><rect fill="#EEF2F4" height="535.2083" rx="7.2917" ry="7.2917" style="stroke:#5E6A71;stroke-width:1.4583;" width="765.625" x="1131.6667" y="115.4417"/><text fill="#243039" font-family="'Helvetica'" font-size="18.9583" font-style="italic" lengthAdjust="spacing" textLength="82.2021" x="1473.3781" y="132.9566">&#171;Neutral&#187;</text><text fill="#243039" font-family="'Helvetica'" font-size="18.9583" font-weight="700" lengthAdjust="spacing" textLength="174.8832" x="1427.0376" y="151.915">yunlink_ros_bridge</text></g><!--cluster Sunray ROS Contract--><g class="cluster" data-qualified-name="Sunray ROS Contract" data-source-line="13" id="ent0009"><rect fill="#EEF2F4" height="156.0417" rx="7.2917" ry="7.2917" style="stroke:#5E6A71;stroke-width:1.4583;" width="1324.1667" x="1932.2917" y="115.4417"/><text fill="#243039" font-family="'Helvetica'" font-size="18.9583" font-style="italic" lengthAdjust="spacing" textLength="82.2021" x="2553.2739" y="132.9566">&#171;Neutral&#187;</text><text fill="#243039" font-family="'Helvetica'" font-size="18.9583" font-weight="700" lengthAdjust="spacing" textLength="193.8323" x="2497.4589" y="151.915">Sunray ROS Contract</text></g><!--cluster yunlink::Runtime--><g class="cluster" data-qualified-name="yunlink..Runtime" data-source-line="21" id="ent0015"><rect fill="#F6E6BE" height="156.0417" rx="7.2917" ry="7.2917" style="stroke:#9A6B18;stroke-width:1.4583;" width="1086.4583" x="10.2083" y="494.6083"/><text fill="#243039" font-family="'Helvetica'" font-size="18.9583" font-style="italic" lengthAdjust="spacing" textLength="82.2021" x="512.3364" y="512.1233">&#171;Control&#187;</text><text fill="#243039" font-family="'Helvetica'" font-size="18.9583" font-weight="700" lengthAdjust="spacing" textLength="154.8233" x="476.0258" y="531.0816">yunlink::Runtime</text></g><!--entity RuntimeSession--><g class="entity" data-qualified-name="yunlink_ros_bridge.RuntimeSession" data-source-line="5" id="ent0003"><rect fill="#F6E6BE" height="67.0833" rx="5.8333" ry="5.8333" width="183.0087" x="1155.3646" y="358.9833"/><text fill="#243039" font-family="'Helvetica'" font-size="18.9583" font-style="italic" lengthAdjust="spacing" textLength="82.2021" x="1205.7679" y="388.165">&#171;Control&#187;</text><text fill="#243039" font-family="'Helvetica'" font-size="18.9583" lengthAdjust="spacing" textLength="153.8421" x="1169.9479" y="407.1233">Runtime / Session</text></g><!--entity Discovery--><g class="entity" data-qualified-name="yunlink_ros_bridge.Discovery" data-source-line="6" id="ent0004"><rect fill="#EEF2F4" height="67.0833" rx="5.8333" ry="5.8333" width="192.4972" x="1155" y="560.2333"/><text fill="#243039" font-family="'Helvetica'" font-size="18.9583" font-style="italic" lengthAdjust="spacing" textLength="82.2021" x="1210.1475" y="589.415">&#171;Neutral&#187;</text><text fill="#243039" font-family="'Helvetica'" font-size="18.9583" lengthAdjust="spacing" textLength="163.3305" x="1169.5833" y="608.3733">Endpoint Discovery</text></g><!--entity Commands--><g class="entity" data-qualified-name="yunlink_ros_bridge.Commands" data-source-line="7" id="ent0005"><rect fill="#F6E6BE" height="67.0833" rx="5.8333" ry="5.8333" width="194.6077" x="1388.7417" y="358.9833"/><text fill="#243039" font-family="'Helvetica'" font-size="18.9583" font-style="italic" lengthAdjust="spacing" textLength="82.2021" x="1444.9445" y="388.165">&#171;Control&#187;</text><text fill="#243039" font-family="'Helvetica'" font-size="18.9583" lengthAdjust="spacing" textLength="165.4411" x="1403.325" y="407.1233">Command Mapping</text></g><!--entity Topics--><g class="entity" data-qualified-name="yunlink_ros_bridge.Topics" data-source-line="8" id="ent0006"><rect fill="#DCECDD" height="67.0833" rx="5.8333" ry="5.8333" width="238.8932" x="1634.9229" y="358.9833"/><text fill="#243039" font-family="'Helvetica'" font-size="18.9583" font-style="italic" lengthAdjust="spacing" textLength="113.8426" x="1697.4482" y="388.165">&#171;StatePlane&#187;</text><text fill="#243039" font-family="'Helvetica'" font-size="18.9583" lengthAdjust="spacing" textLength="209.7266" x="1649.5063" y="407.1233">Topic Snapshot Mapping</text></g><!--entity SystemServices--><g class="entity" data-qualified-name="yunlink_ros_bridge.SystemServices" data-source-line="9" id="ent0007"><rect fill="#EEF2F4" height="67.0833" rx="5.8333" ry="5.8333" width="227.2109" x="1155.1458" y="181.0667"/><text fill="#243039" font-family="'Helvetica'" font-size="18.9583" font-style="italic" lengthAdjust="spacing" textLength="82.2021" x="1227.6502" y="210.2483">&#171;Neutral&#187;</text><text fill="#243039" font-family="'Helvetica'" font-size="18.9583" lengthAdjust="spacing" textLength="198.0442" x="1169.7292" y="229.2066">System Service Worker</text></g><!--entity Diagnostics--><g class="entity" data-qualified-name="yunlink_ros_bridge.Diagnostics" data-source-line="10" id="ent0008"><rect fill="#DCECDD" height="67.0833" rx="5.8333" ry="5.8333" width="173.5018" x="1432.8271" y="181.0667"/><text fill="#243039" font-family="'Helvetica'" font-size="18.9583" font-style="italic" lengthAdjust="spacing" textLength="113.8426" x="1462.6567" y="210.2483">&#171;StatePlane&#187;</text><text fill="#243039" font-family="'Helvetica'" font-size="18.9583" lengthAdjust="spacing" textLength="144.3351" x="1447.4104" y="229.2066">Diagnostics / TUI</text></g><!--entity Odom--><g class="entity" data-qualified-name="Sunray ROS Contract.Odom" data-source-line="14" id="ent0010"><rect fill="#DCECDD" height="67.0833" rx="5.8333" ry="5.8333" width="240.9946" x="2794.7062" y="181.0667"/><text fill="#243039" font-family="'Helvetica'" font-size="18.9583" font-style="italic" lengthAdjust="spacing" textLength="113.8426" x="2858.2822" y="210.2483">&#171;StatePlane&#187;</text><text fill="#243039" font-family="'Helvetica'" font-size="18.9583" lengthAdjust="spacing" textLength="211.8279" x="2809.2896" y="229.2066">local_odom / odom_state</text></g><!--entity Px4--><g class="entity" data-qualified-name="Sunray ROS Contract.Px4" data-source-line="15" id="ent0011"><rect fill="#DCECDD" height="67.0833" rx="5.8333" ry="5.8333" width="145.9259" x="3087.2479" y="181.0667"/><text fill="#243039" font-family="'Helvetica'" font-size="18.9583" font-style="italic" lengthAdjust="spacing" textLength="113.8426" x="3103.2896" y="210.2483">&#171;StatePlane&#187;</text><text fill="#243039" font-family="'Helvetica'" font-size="18.9583" lengthAdjust="spacing" textLength="82.2114" x="3119.1052" y="229.2066">px4_state</text></g><!--entity Control--><g class="entity" data-qualified-name="Sunray ROS Contract.Control" data-source-line="16" id="ent0012"><rect fill="#F6E6BE" height="67.0833" rx="5.8333" ry="5.8333" width="256.7778" x="2169.9417" y="181.0667"/><text fill="#243039" font-family="'Helvetica'" font-size="18.9583" font-style="italic" lengthAdjust="spacing" textLength="82.2021" x="2257.2295" y="210.2483">&#171;Control&#187;</text><text fill="#243039" font-family="'Helvetica'" font-size="18.9583" lengthAdjust="spacing" textLength="227.6111" x="2184.525" y="229.2066">control_cmd / control_state</text></g><!--entity Execution--><g class="entity" data-qualified-name="Sunray ROS Contract.Execution" data-source-line="17" id="ent0013"><rect fill="#DCECDD" height="67.0833" rx="5.8333" ry="5.8333" width="265.2294" x="2477.7958" y="181.0667"/><text fill="#243039" font-family="'Helvetica'" font-size="18.9583" font-style="italic" lengthAdjust="spacing" textLength="113.8426" x="2553.4892" y="210.2483">&#171;StatePlane&#187;</text><text fill="#243039" font-family="'Helvetica'" font-size="18.9583" lengthAdjust="spacing" textLength="236.0627" x="2492.3792" y="229.2066">command_execution_status</text></g><!--entity Features--><g class="entity" data-qualified-name="Sunray ROS Contract.Features" data-source-line="18" id="ent0014"><rect fill="#EEF2F4" height="67.0833" rx="5.8333" ry="5.8333" width="162.9858" x="1955.8" y="181.0667"/><text fill="#243039" font-family="'Helvetica'" font-size="18.9583" font-style="italic" lengthAdjust="spacing" textLength="82.2021" x="1996.1918" y="210.2483">&#171;Neutral&#187;</text><text fill="#243039" font-family="'Helvetica'" font-size="18.9583" lengthAdjust="spacing" textLength="133.8192" x="1970.3833" y="229.2066">feature services</text></g><!--entity AutoResult--><g class="entity" data-qualified-name="yunlink..Runtime.AutoResult" data-source-line="22" id="ent0016"><rect fill="#F6E6BE" height="67.0833" rx="5.8333" ry="5.8333" width="193.571" x="313.0021" y="560.2333"/><text fill="#243039" font-family="'Helvetica'" font-size="18.9583" font-style="italic" lengthAdjust="spacing" textLength="82.2021" x="368.6865" y="589.415">&#171;Control&#187;</text><text fill="#243039" font-family="'Helvetica'" font-size="18.9583" lengthAdjust="spacing" textLength="164.4043" x="327.5854" y="608.3733">default kAutoResult</text></g><!--entity RuntimeSub--><g class="entity" data-qualified-name="yunlink..Runtime.RuntimeSub" data-source-line="23" id="ent0017"><rect fill="#F6E6BE" height="67.0833" rx="5.8333" ry="5.8333" width="266.2477" x="558.1333" y="560.2333"/><text fill="#243039" font-family="'Helvetica'" font-size="18.9583" font-style="italic" lengthAdjust="spacing" textLength="82.2021" x="650.1561" y="589.415">&#171;Control&#187;</text><text fill="#243039" font-family="'Helvetica'" font-size="18.9583" lengthAdjust="spacing" textLength="237.081" x="572.7167" y="608.3733">typed command subscribers</text></g><!--entity SnapshotPub--><g class="entity" data-qualified-name="yunlink..Runtime.SnapshotPub" data-source-line="24" id="ent0018"><rect fill="#DCECDD" height="67.0833" rx="5.8333" ry="5.8333" width="197.7922" x="875.2771" y="560.2333"/><text fill="#243039" font-family="'Helvetica'" font-size="18.9583" font-style="italic" lengthAdjust="spacing" textLength="113.8426" x="917.2519" y="589.415">&#171;StatePlane&#187;</text><text fill="#243039" font-family="'Helvetica'" font-size="18.9583" lengthAdjust="spacing" textLength="168.6255" x="889.8604" y="608.3733">snapshot publishers</text></g><!--entity ServicePubSub--><g class="entity" data-qualified-name="yunlink..Runtime.ServicePubSub" data-source-line="25" id="ent0019"><rect fill="#EEF2F4" height="67.0833" rx="5.8333" ry="5.8333" width="228.3032" x="33.1333" y="560.2333"/><text fill="#243039" font-family="'Helvetica'" font-size="18.9583" font-style="italic" lengthAdjust="spacing" textLength="82.2021" x="106.1839" y="589.415">&#171;Neutral&#187;</text><text fill="#243039" font-family="'Helvetica'" font-size="18.9583" lengthAdjust="spacing" textLength="199.1366" x="47.7167" y="608.3733">system-service pub/sub</text></g><g class="entity" data-qualified-name="GMN34" data-source-line="44" id="ent0035"><path d="M1921.3396,574.8167 L1921.3396,612.7333 A5.8333,5.8333 0 0 0 1927.1729,618.5667 L2138.674,618.5667 A5.8333,5.8333 0 0 0 2144.5073,612.7333 L2144.5073,583.5667 L2129.924,568.9833 L1927.1729,568.9833 A5.8333,5.8333 0 0 0 1921.3396,574.8167" fill="#F7F5F1" style="stroke:#B7AEA1;stroke-width:0.7292;"/><path d="M2129.924,568.9833 L2129.924,580.65 A2.9167,2.9167 0 0 0 2132.8406,583.5667 L2144.5073,583.5667 L2129.924,568.9833" fill="#F7F5F1" style="stroke:#B7AEA1;stroke-width:1.4583;"/><text fill="#2D3135" font-family="'Helvetica'" font-size="17.5" lengthAdjust="spacing" textLength="192.5427" x="1930.0896" y="589.7503">&#27809;&#26377; command tracker&#65292;</text><text fill="#2D3135" font-family="'Helvetica'" font-size="17.5" lengthAdjust="spacing" textLength="192.5" x="1930.1109" y="607.2503">&#27809;&#26377;&#26174;&#24335;&#25191;&#34892;&#32467;&#26524;&#22238;&#21253;&#12290;</text></g><!--link RuntimeSession to AutoResult--><g class="link" data-entity-1="ent0003" data-entity-2="ent0016" data-link-type="dependency" data-source-line="28" id="lnk20"><path d="M1155.0583,398.6208 C987.9771,408.1583 641.4187,433.3729 532.2917,482.9417 C493.8792,500.3979 464.7546,527.6803 442.1067,553.1283" fill="none" id="RuntimeSession-to-AutoResult" style="stroke:#5E6A71;stroke-width:1.6042;"/><polygon fill="#5E6A71" points="436.2896,559.6646,449.3728,553.7382,441.1372,554.2177,440.6577,545.982,436.2896,559.6646" style="stroke:#5E6A71;stroke-width:1.6042;"/></g><!--link RuntimeSession to Discovery--><g class="link" data-entity-1="ent0003" data-entity-2="ent0004" data-link-type="dependency" data-source-line="29" id="lnk21"><path d="M1247.6042,426.7375 C1248.4062,463.4875 1249.5279,514.0062 1250.33,550.7708" fill="none" id="RuntimeSession-to-Discovery" style="stroke:#5E6A71;stroke-width:1.6042;"/><polygon fill="#5E6A71" points="1250.5208,559.5188,1256.0665,546.2696,1250.3618,552.2288,1244.4026,546.5241,1250.5208,559.5188" style="stroke:#5E6A71;stroke-width:1.6042;"/></g><!--link RuntimeSub to Commands--><g class="link" data-entity-1="ent0017" data-entity-2="ent0005" data-link-type="dependency" data-source-line="30" id="lnk22"><path d="M727.4458,559.5771 C757.8813,534.1 803.7458,500.2375 850.2083,482.9417 C1065.3125,402.8354 1137.8354,467.8917 1363.5417,426.0667 C1371.5333,424.5792 1371.253,424.7884 1379.5072,422.9217" fill="none" id="RuntimeSub-to-Commands" style="stroke:#5E6A71;stroke-width:1.6042;"/><polygon fill="#5E6A71" points="1388.0417,420.9917,1373.9532,418.1971,1380.9296,422.6,1376.5267,429.5764,1388.0417,420.9917" style="stroke:#5E6A71;stroke-width:1.6042;"/></g><!--link Commands to Control--><g class="link" data-entity-1="ent0005" data-entity-2="ent0012" data-link-type="dependency" data-source-line="31" id="lnk23"><path d="M1583.4292,365.6188 C1592.3979,363.3438 1601.3667,361.1125 1610,358.9833 C1732.1354,328.9708 1761.025,311.9813 1885.625,294.8167 C1999.3896,279.1396 2031.8667,309.0354 2143.75,283.15 C2175.6729,275.7708 2201.3561,265.7616 2229.0207,252.6074" fill="none" id="Commands-to-Control" style="stroke:#5E6A71;stroke-width:1.6042;"/><polygon fill="#5E6A71" points="2236.9229,248.85,2222.5647,249.218,2230.3378,251.9812,2227.5746,259.7542,2236.9229,248.85" style="stroke:#5E6A71;stroke-width:1.6042;"/><text fill="#243039" font-family="'Helvetica'" font-size="17.5" lengthAdjust="spacing" textLength="192.5684" x="1887.0833" y="309.7503">publish UAVControlCMD</text></g><!--link Odom to Topics--><g class="link" data-entity-1="ent0010" data-entity-2="ent0006" data-link-type="dependency" data-source-line="32" id="lnk24"><path d="M2855.2271,248.6896 C2829.1229,261.4792 2797.7396,274.9979 2767.9167,283.15 C2453.3979,369.0896 2075.3382,387.0606 1883.2319,390.4877" fill="none" id="Odom-to-Topics" style="stroke:#5E6A71;stroke-width:1.6042;"/><polygon fill="#5E6A71" points="1874.4833,390.6438,1887.7103,396.242,1881.7738,390.5137,1887.5022,384.5772,1874.4833,390.6438" style="stroke:#5E6A71;stroke-width:1.6042;"/></g><!--link Px4 to Topics--><g class="link" data-entity-1="ent0011" data-entity-2="ent0006" data-link-type="dependency" data-source-line="33" id="lnk25"><path d="M3121.7083,248.7771 C3104.2958,261.7417 3082.7708,275.3917 3061.0417,283.15 C2914.5521,335.5042 2867.4917,301.9625 2712.5,315.2333 C2410.9604,341.0458 2064.4793,367.686 1883.0188,381.4089" fill="none" id="Px4-to-Topics" style="stroke:#5E6A71;stroke-width:1.6042;"/><polygon fill="#5E6A71" points="1874.2937,382.0687,1887.8213,386.8957,1881.5647,381.5189,1886.9415,375.2623,1874.2937,382.0687" style="stroke:#5E6A71;stroke-width:1.6042;"/></g><!--link Control to Topics--><g class="link" data-entity-1="ent0012" data-entity-2="ent0006" data-link-type="dependency" data-source-line="34" id="lnk26"><path d="M2239.5917,248.8646 C2199.2687,270.2438 2143.9833,297.3833 2092.7083,315.2333 C2021.9354,339.8646 1948.5689,356.8169 1883.046,369.4461" fill="none" id="Control-to-Topics" style="stroke:#5E6A71;stroke-width:1.6042;"/><polygon fill="#5E6A71" points="1874.4542,371.1021,1888.446,374.3459,1881.6141,369.7221,1886.2379,362.8901,1874.4542,371.1021" style="stroke:#5E6A71;stroke-width:1.6042;"/></g><!--link Execution to Topics--><g class="link" data-entity-1="ent0013" data-entity-2="ent0006" data-link-type="dependency" data-source-line="35" id="lnk27"><path d="M2543.9313,248.7479 C2516.3396,261.1438 2483.6437,274.3854 2452.9167,283.15 C2254.3792,339.8063 2023.7937,367.7985 1883.0645,380.8797" fill="none" id="Execution-to-Topics" style="stroke:#5E6A71;stroke-width:1.6042;"/><polygon fill="#5E6A71" points="1874.3521,381.6896,1887.9606,386.2831,1881.6125,381.0147,1886.8808,374.6665,1874.3521,381.6896" style="stroke:#5E6A71;stroke-width:1.6042;"/></g><!--link Topics to SnapshotPub--><g class="link" data-entity-1="ent0006" data-entity-2="ent0018" data-link-type="dependency" data-source-line="36" id="lnk28"><path d="M1634.3833,421.3563 C1625.6625,423.0479 1616.9708,424.6375 1608.5417,426.0667 C1398.0896,461.6792 1331.2104,407.1813 1131.6667,482.9417 C1085.5979,500.4271 1046.8454,528.6197 1016.7017,554.0385" fill="none" id="Topics-to-SnapshotPub" style="stroke:#5E6A71;stroke-width:1.6042;"/><polygon fill="#5E6A71" points="1010.0125,559.6792,1023.8067,555.6776,1015.5868,554.9786,1016.2858,546.7587,1010.0125,559.6792" style="stroke:#5E6A71;stroke-width:1.6042;"/></g><!--link ServicePubSub to SystemServices--><g class="link" data-entity-1="ent0019" data-entity-2="ent0007" data-link-type="dependency" data-source-line="37" id="lnk29"><path d="M180.8771,559.7521 C207.6958,535.3979 247.3042,502.9646 287.2917,482.9417 C580.9563,335.8542 957.3412,262.9817 1145.9621,233.3775" fill="none" id="ServicePubSub-to-SystemServices" style="stroke:#5E6A71;stroke-width:1.6042;"/><polygon fill="#5E6A71" points="1154.6063,232.0208,1140.7355,228.2931,1147.4028,233.1514,1142.5445,239.8187,1154.6063,232.0208" style="stroke:#5E6A71;stroke-width:1.6042;"/></g><!--link SystemServices to Features--><g class="link" data-entity-1="ent0007" data-entity-2="ent0014" data-link-type="dependency" data-source-line="38" id="lnk30"><path d="M1303.2801,174.4304 C1333.2197,141.9679 1377.5562,101.4563 1432.8125,81.9 C1478.7937,65.625 1825.7604,65.7271 1871.7708,81.9 C1927.3625,101.4417 1972.1638,141.9822 2002.4096,174.4593" fill="none" id="SystemServices-Features" style="stroke:#5E6A71;stroke-width:1.6042;"/><polygon fill="#5E6A71" points="1297.3479,180.8625,1310.5343,175.1692,1302.2914,175.5024,1301.9582,167.2596,1297.3479,180.8625" style="stroke:#5E6A71;stroke-width:1.6042;"/><polygon fill="#5E6A71" points="2008.3729,180.8625,2003.6968,167.2821,2003.4035,175.5265,1995.1591,175.2332,2008.3729,180.8625" style="stroke:#5E6A71;stroke-width:1.6042;"/></g><!--link Diagnostics to RuntimeSession--><g class="link" data-entity-1="ent0008" data-entity-2="ent0003" data-link-type="dependency" data-source-line="39" id="lnk31"><path d="M1468.9208,248.5729 C1420.0958,279.9125 1353.9736,322.3332 1305.0902,353.7166" fill="none" id="Diagnostics-to-RuntimeSession" style="stroke:#5E6A71;stroke-width:1.6042;stroke-dasharray:10.2083,10.2083;"/><polygon fill="#5E6A71" points="1297.7271,358.4438,1311.9233,356.2617,1303.8631,354.5044,1305.6204,346.4442,1297.7271,358.4438" style="stroke:#5E6A71;stroke-width:1.6042;"/></g><!--link Diagnostics to Topics--><g class="link" data-entity-1="ent0008" data-entity-2="ent0006" data-link-type="dependency" data-source-line="40" id="lnk32"><path d="M1563.2021,248.5729 C1605.2313,279.9125 1661.4938,321.8299 1703.5813,353.2132" fill="none" id="Diagnostics-to-Topics" style="stroke:#5E6A71;stroke-width:1.6042;stroke-dasharray:10.2083,10.2083;"/><polygon fill="#5E6A71" points="1710.5958,358.4438,1703.561,345.9216,1704.7504,354.085,1696.587,355.2743,1710.5958,358.4438" style="stroke:#5E6A71;stroke-width:1.6042;"/></g><!--link Diagnostics to Commands--><g class="link" data-entity-1="ent0008" data-entity-2="ent0005" data-link-type="dependency" data-source-line="41" id="lnk33"><path d="M1513.3563,248.5729 C1507.3333,280 1499.894,318.7729 1493.8856,350.1416" fill="none" id="Diagnostics-to-Commands" style="stroke:#5E6A71;stroke-width:1.6042;stroke-dasharray:10.2083,10.2083;"/><polygon fill="#5E6A71" points="1492.2396,358.7354,1500.4378,346.9421,1493.6113,351.5739,1488.9795,344.7474,1492.2396,358.7354" style="stroke:#5E6A71;stroke-width:1.6042;"/></g><!--link AutoResult to GMN34--><g class="link" data-entity-1="ent0016" data-entity-2="ent0035" data-link-type="association" data-source-line="44" id="lnk36"><path d="M433.5187,559.7521 C459.5208,525.7438 504.6708,475.5771 557.8125,454.5042 C625.6687,427.5979 1803.3604,429.0417 1871.7708,454.5042 C1933.1083,477.3417 1986.6583,535.1792 2013.8708,568.6917" fill="none" id="AutoResult-GMN34" style="stroke:#5E6A71;stroke-width:1.6042;stroke-dasharray:10.2083,10.2083;"/></g><?plantuml-src VLGzQnin6DxrAzvwTx9a2i4Gd1Gwf0bsaew7h7jZ2zz9XpwIc18eXGw1G8SkXOP0fknT6_fdIjnk_GkLT3hxxbnxEkbvzRoVptjwoaL15SqpoQQOmeYowLX9AzA-pAI2gmatI5vnmJAR8YGpAp8kfacXf95CPecPO8vRtEOPCTna2DKB9NKoKZmT8tIXRvL2OQ0lyq8AVphdU4L8uS9HzwApokh0tjvRj4RHhDU3zmI0BSYTWHM6vmZRC4IjkHGTe1eY6Y77xqjXb7Jy9ljGf8NaxdJ0DPENg6Q1lhZL8pUPBl-SYXIEQ55mCGwqYEdryKvbmHaC1ItqH9e6EPWyTMYemPEC2copXpDjC7U5galE4Dv9DKKLoAKb6lJwh0yu7GkfZO-q3QTdRsAvIxGL_wOscQ4LYivWS3o4K1vbPkDed91ebiXKvYwM_oJQkmuXZpswgTRYUgVs_EHwP-DhLhOxONdgObMt9J-EO_rWM3cw1A-HMUCq4yXM1_PX1MxCuG8TGI7eE8L0VLs2pP7ShCfzTpTAjbFFiTtH52-epGnCzwsH0zJk7A8ih-ihDBF2RNMi4xGTQQRu29LkB8mThVUWAzaMTfHnFQcubPnF0dbzWtGGQJVsntlPTccKBahCUIWpQFIgjSpTRgzMyF-iY_KbjRAyeLfGijZK4Yt5iLiL1cVxvn7i7nsGe5N_i5nHuiLOkrRq6hGKJ0sC2-wHMiT8i_HWRImpQU-sVrB9YjHNTskhr_hnhPXZAcruqHSYf45GV3mn82_gRPv_VvpVtoxquxVV_Np-Fjz5o_phpvVdp_FRfp-FTxz_V9a_tBzyUtYv-_JhmqU2Zk0T_mC0?></g></svg>