<?plantuml 1.2026.2?><svg xmlns="http://www.w3.org/2000/svg" xmlns:xlink="http://www.w3.org/1999/xlink" contentStyleType="text/css" data-diagram-type="DESCRIPTION" height="920.2083px" preserveAspectRatio="none" style="width:1872px;height:920px;background:#FFFFFF;" version="1.1" viewBox="0 0 1872 920" width="1872.5px" zoomAndPan="magnify"><title>Sunray ROS1 Bridge - System Context</title><defs/><g><g class="title" data-source-line="2"><text fill="#1F2A33" font-family="'Helvetica'" font-size="26.25" font-weight="bold" lengthAdjust="spacing" textLength="479.9084" x="686.477" y="34.7963">Sunray ROS1 Bridge - System Context</text></g><!--cluster Ground Side--><g class="cluster" data-qualified-name="Ground Side" data-source-line="6" id="ent0003"><rect fill="#EEF2F4" height="175" rx="7.2917" ry="7.2917" style="stroke:#5E6A71;stroke-width:1.4583;" width="189.5833" x="75.8333" y="316.4583"/><text fill="#243039" font-family="'Helvetica'" font-size="18.9583" font-style="italic" lengthAdjust="spacing" textLength="82.2021" x="129.5239" y="333.9733">&#171;Neutral&#187;</text><text fill="#243039" font-family="'Helvetica'" font-size="18.9583" font-weight="bold" lengthAdjust="spacing" textLength="113.75" x="113.75" y="352.9316">Ground Side</text></g><!--cluster Yunlink Network--><g class="cluster" data-qualified-name="Yunlink Network" data-source-line="10" id="ent0005"><rect fill="#F6E6BE" height="175" rx="7.2917" ry="7.2917" style="stroke:#9A6B18;stroke-width:1.4583;" width="320.8333" x="10.2083" y="558.5417"/><text fill="#243039" font-family="'Helvetica'" font-size="18.9583" font-style="italic" lengthAdjust="spacing" textLength="82.2021" x="129.5239" y="576.0566">&#171;Control&#187;</text><text fill="#243039" font-family="'Helvetica'" font-size="18.9583" font-weight="bold" lengthAdjust="spacing" textLength="148.5285" x="96.3607" y="595.015">Yunlink Network</text></g><!--cluster Air Side--><g class="cluster" data-qualified-name="Air Side" data-source-line="14" id="ent0007"><rect fill="#EEF2F4" height="672.2917" rx="7.2917" ry="7.2917" style="stroke:#5E6A71;stroke-width:1.4583;" width="1089.375" x="366.0417" y="239.1667"/><text fill="#243039" font-family="'Helvetica'" font-size="18.9583" font-style="italic" lengthAdjust="spacing" textLength="82.2021" x="869.6281" y="256.6816">&#171;Neutral&#187;</text><text fill="#243039" font-family="'Helvetica'" font-size="18.9583" font-weight="bold" lengthAdjust="spacing" textLength="71.6399" x="874.9092" y="275.64">Air Side</text></g><!--cluster Sunray ROS Graph--><g class="cluster" data-qualified-name="Air Side.Sunray ROS Graph" data-source-line="17" id="ent0009"><rect fill="#EEF2F4" height="156.0417" rx="7.2917" ry="7.2917" style="stroke:#5E6A71;stroke-width:1.4583;" width="1019.375" x="401.0417" y="568.0208"/><text fill="#243039" font-family="'Helvetica'" font-size="18.9583" font-style="italic" lengthAdjust="spacing" textLength="82.2021" x="869.6281" y="585.5358">&#171;Neutral&#187;</text><text fill="#243039" font-family="'Helvetica'" font-size="18.9583" font-weight="bold" lengthAdjust="spacing" textLength="171.7173" x="824.8705" y="604.4941">Sunray ROS Graph</text></g><!--cluster PX4 / MAVROS--><g class="cluster" data-qualified-name="Air Side.PX4 . MAVROS" data-source-line="25" id="ent0015"><rect fill="#DCECDD" height="175" rx="7.2917" ry="7.2917" style="stroke:#3F7047;stroke-width:1.4583;" width="210" x="1010.625" y="316.4583"/><text fill="#243039" font-family="'Helvetica'" font-size="18.9583" font-style="italic" lengthAdjust="spacing" textLength="113.8426" x="1058.7037" y="333.9733">&#171;StatePlane&#187;</text><text fill="#243039" font-family="'Helvetica'" font-size="18.9583" font-weight="bold" lengthAdjust="spacing" textLength="134.8467" x="1048.2016" y="352.9316">PX4 / MAVROS</text></g><!--entity RustSdk--><g class="entity" data-qualified-name="Ground Side.RustSdk" data-source-line="7" id="ent0004"><rect fill="#F6E6BE" height="86.0417" rx="5.8333" ry="5.8333" width="144.0182" x="98.6125" y="382.0833"/><text fill="#243039" font-family="'Helvetica'" font-size="18.9583" font-style="italic" lengthAdjust="spacing" textLength="82.2021" x="129.5206" y="411.265">&#171;Control&#187;</text><text fill="#243039" font-family="'Helvetica'" font-size="18.9583" lengthAdjust="spacing" textLength="93.7641" x="123.7396" y="430.2233">Rust SDK /</text><text fill="#243039" font-family="'Helvetica'" font-size="18.9583" lengthAdjust="spacing" textLength="114.8516" x="113.1958" y="449.1816">Mission Logic</text></g><!--entity Network--><g class="entity" data-qualified-name="Yunlink Network.Network" data-source-line="11" id="ent0006"><rect fill="#F6E6BE" height="86.0417" rx="5.8333" ry="5.8333" width="273.607" x="33.8187" y="624.1667"/><text fill="#243039" font-family="'Helvetica'" font-size="18.9583" font-style="italic" lengthAdjust="spacing" textLength="82.2021" x="129.5212" y="653.3483">&#171;Control&#187;</text><text fill="#243039" font-family="'Helvetica'" font-size="18.9583" lengthAdjust="spacing" textLength="168.5977" x="86.3234" y="672.3066">Session / Authority /</text><text fill="#243039" font-family="'Helvetica'" font-size="18.9583" lengthAdjust="spacing" textLength="244.4403" x="48.4021" y="691.265">Command / CommandResult</text></g><!--entity Bridge--><g class="entity" data-qualified-name="Air Side.Bridge" data-source-line="15" id="ent0008"><rect fill="#F6E6BE" height="67.0833" rx="5.8333" ry="5.8333" width="218.8703" x="710.15" y="821.0417"/><text fill="#243039" font-family="'Helvetica'" font-size="18.9583" font-style="italic" lengthAdjust="spacing" textLength="82.2021" x="778.4841" y="850.2233">&#171;Control&#187;</text><text fill="#243039" font-family="'Helvetica'" font-size="18.9583" lengthAdjust="spacing" textLength="189.7037" x="724.7333" y="869.1816">sunray_yunlink_bridge</text></g><!--entity Px4Topic--><g class="entity" data-qualified-name="Air Side.Sunray ROS Graph.Px4Topic" data-source-line="18" id="ent0010"><rect fill="#DCECDD" height="67.0833" rx="5.8333" ry="5.8333" width="145.9259" x="648.9146" y="633.6458"/><text fill="#243039" font-family="'Helvetica'" font-size="18.9583" font-style="italic" lengthAdjust="spacing" textLength="113.8426" x="664.9563" y="662.8275">&#171;StatePlane&#187;</text><text fill="#243039" font-family="'Helvetica'" font-size="18.9583" lengthAdjust="spacing" textLength="82.2114" x="680.7718" y="681.7858">px4_state</text></g><!--entity OdomTopic--><g class="entity" data-qualified-name="Air Side.Sunray ROS Graph.OdomTopic" data-source-line="19" id="ent0011"><rect fill="#DCECDD" height="67.0833" rx="5.8333" ry="5.8333" width="145.9259" x="845.7896" y="633.6458"/><text fill="#243039" font-family="'Helvetica'" font-size="18.9583" font-style="italic" lengthAdjust="spacing" textLength="113.8426" x="861.8313" y="662.8275">&#171;StatePlane&#187;</text><text fill="#243039" font-family="'Helvetica'" font-size="18.9583" lengthAdjust="spacing" textLength="108.5476" x="864.4788" y="681.7858">odom_status</text></g><!--entity FsmTopic--><g class="entity" data-qualified-name="Air Side.Sunray ROS Graph.FsmTopic" data-source-line="20" id="ent0012"><rect fill="#DCECDD" height="67.0833" rx="5.8333" ry="5.8333" width="145.9259" x="1042.6646" y="633.6458"/><text fill="#243039" font-family="'Helvetica'" font-size="18.9583" font-style="italic" lengthAdjust="spacing" textLength="113.8426" x="1058.7063" y="662.8275">&#171;StatePlane&#187;</text><text fill="#243039" font-family="'Helvetica'" font-size="18.9583" lengthAdjust="spacing" textLength="76.9071" x="1077.174" y="681.7858">fsm/state</text></g><!--entity CtrlTopic--><g class="entity" data-qualified-name="Air Side.Sunray ROS Graph.CtrlTopic" data-source-line="21" id="ent0013"><rect fill="#DCECDD" height="67.0833" rx="5.8333" ry="5.8333" width="158.7832" x="1238.9417" y="633.6458"/><text fill="#243039" font-family="'Helvetica'" font-size="18.9583" font-style="italic" lengthAdjust="spacing" textLength="113.8426" x="1261.412" y="662.8275">&#171;StatePlane&#187;</text><text fill="#243039" font-family="'Helvetica'" font-size="18.9583" lengthAdjust="spacing" textLength="129.6165" x="1253.525" y="681.7858">controller_state</text></g><!--entity CmdTopic--><g class="entity" data-qualified-name="Air Side.Sunray ROS Graph.CmdTopic" data-source-line="22" id="ent0014"><rect fill="#F6E6BE" height="67.0833" rx="5.8333" ry="5.8333" width="173.5388" x="423.6458" y="633.6458"/><text fill="#243039" font-family="'Helvetica'" font-size="18.9583" font-style="italic" lengthAdjust="spacing" textLength="82.2021" x="469.3142" y="662.8275">&#171;Control&#187;</text><text fill="#243039" font-family="'Helvetica'" font-size="18.9583" lengthAdjust="spacing" textLength="144.3722" x="438.2292" y="681.7858">uav_control_cmd</text></g><!--entity Px4--><g class="entity" data-qualified-name="Air Side.PX4 . MAVROS.Px4" data-source-line="26" id="ent0016"><rect fill="#DCECDD" height="86.0417" rx="5.8333" ry="5.8333" width="162.9766" x="1034.1333" y="382.0833"/><text fill="#243039" font-family="'Helvetica'" font-size="18.9583" font-style="italic" lengthAdjust="spacing" textLength="113.8426" x="1058.7003" y="411.265">&#171;StatePlane&#187;</text><text fill="#243039" font-family="'Helvetica'" font-size="18.9583" lengthAdjust="spacing" textLength="133.8099" x="1048.7167" y="430.2233">Flight Controller</text><text fill="#243039" font-family="'Helvetica'" font-size="18.9583" lengthAdjust="spacing" textLength="119.082" x="1056.0806" y="449.1816">State Sources</text></g><!--entity Ground--><g class="entity" data-qualified-name="Ground" data-source-line="4" id="ent0002"><ellipse cx="170.6183" cy="77.2917" fill="#F1F4F6" rx="11.6667" ry="11.6667"/><path d="M170.6183,88.9583 L170.6183,128.3333 M151.6599,100.625 L189.5766,100.625 M170.6183,128.3333 L151.6599,150.2083 M170.6183,128.3333 L189.5766,150.2083" fill="none"/><text fill="#243039" font-family="'Helvetica'" font-size="18.9583" lengthAdjust="spacing" textLength="161.2199" x="90.0083" y="166.265">Rust Ground Client</text></g><g class="entity" data-qualified-name="GMN29" data-source-line="46" id="ent0030"><path d="M1479.4208,639.4792 L1479.4208,694.8958 A5.8333,5.8333 0 0 0 1485.2542,700.7292 L1857.2374,700.7292 A5.8333,5.8333 0 0 0 1863.0707,694.8958 L1863.0707,648.2292 L1848.4874,633.6458 L1485.2542,633.6458 A5.8333,5.8333 0 0 0 1479.4208,639.4792" fill="#F7F5F1" style="stroke:#B7AEA1;stroke-width:0.7292;"/><path d="M1848.4874,633.6458 L1848.4874,645.3125 A2.9167,2.9167 0 0 0 1851.4041,648.2292 L1863.0707,648.2292 L1848.4874,633.6458" fill="#F7F5F1" style="stroke:#B7AEA1;stroke-width:1.4583;"/><text fill="#2D3135" font-family="'Helvetica'" font-size="17.5" lengthAdjust="spacing" textLength="182.7844" x="1573.2911" y="654.4128">ROS &#21482;&#23384;&#22312;&#20110;&#26426;&#36733;&#31471;&#12290;</text><text fill="#2D3135" font-family="'Helvetica'" font-size="17.5" lengthAdjust="spacing" textLength="353.0249" x="1488.1708" y="671.9128">bridge &#26082;&#19981;&#20405;&#20837; Sunray controller/FSM API&#65292;</text><text fill="#2D3135" font-family="'Helvetica'" font-size="17.5" lengthAdjust="spacing" textLength="205.1465" x="1562.11" y="689.4128">&#20063;&#19981;&#25226; ROS &#24102;&#21040;&#22320;&#38754;&#31471;&#12290;</text></g><!--link Ground to RustSdk--><g class="link" data-entity-1="ent0002" data-entity-2="ent0004" data-link-type="dependency" data-source-line="30" id="lnk17"><path d="M170.625,171.1646 C170.625,230.4604 170.625,317.9313 170.625,372.8667" fill="none" id="Ground-to-RustSdk" style="stroke:#5E6A71;stroke-width:1.6042;"/><polygon fill="#5E6A71" points="170.625,381.6167,176.4583,368.4917,170.625,374.325,164.7917,368.4917,170.625,381.6167" style="stroke:#5E6A71;stroke-width:1.6042;"/></g><!--link RustSdk to Network--><g class="link" data-entity-1="ent0004" data-entity-2="ent0006" data-link-type="dependency" data-source-line="31" id="lnk18"><path d="M170.625,477.5167 C170.625,521.1062 170.625,571.2146 170.625,614.7896" fill="none" id="RustSdk-Network" style="stroke:#5E6A71;stroke-width:1.6042;"/><polygon fill="#5E6A71" points="170.625,468.7667,164.7917,481.8917,170.625,476.0583,176.4583,481.8917,170.625,468.7667" style="stroke:#5E6A71;stroke-width:1.6042;"/><polygon fill="#5E6A71" points="170.625,623.5396,176.4583,610.4146,170.625,616.2479,164.7917,610.4146,170.625,623.5396" style="stroke:#5E6A71;stroke-width:1.6042;"/><text fill="#243039" font-family="'Helvetica'" font-size="17.5" lengthAdjust="spacing" textLength="161.4648" x="172.0833" y="529.7253">Yunlink wire protocol</text></g><!--link Network to Bridge--><g class="link" data-entity-1="ent0006" data-entity-2="ent0008" data-link-type="dependency" data-source-line="32" id="lnk19"><path d="M208.7185,717.0265 C229.3539,740.6077 252.4375,761.8042 284.375,777.2917 C357.3063,812.6708 566.7941,834.1447 701.0191,844.8052" fill="none" id="Network-Bridge" style="stroke:#5E6A71;stroke-width:1.6042;"/><polygon fill="#5E6A71" points="202.9562,710.4417,207.2097,724.1603,207.7581,715.929,215.9894,716.4774,202.9562,710.4417" style="stroke:#5E6A71;stroke-width:1.6042;"/><polygon fill="#5E6A71" points="709.7417,845.4979,697.1197,838.6438,702.4729,844.9206,696.196,850.2738,709.7417,845.4979" style="stroke:#5E6A71;stroke-width:1.6042;"/><text fill="#243039" font-family="'Helvetica'" font-size="17.5" lengthAdjust="spacing" textLength="271.3867" x="285.8333" y="771.8087">command / state / result envelopes</text></g><!--link Px4 to Px4Topic--><g class="link" data-entity-1="ent0016" data-entity-2="ent0010" data-link-type="dependency" data-source-line="34" id="lnk20"><path d="M1033.4625,447.9125 C970.7396,466.9292 884.3771,499.2021 819.5833,546.875 C787.5292,570.4708 764.5692,599.5932 746.8942,625.9015" fill="none" id="Px4-to-Px4Topic" style="stroke:#5E6A71;stroke-width:1.6042;"/><polygon fill="#5E6A71" points="742.0146,633.1646,754.176,625.5231,746.0809,627.112,744.492,619.0169,742.0146,633.1646" style="stroke:#5E6A71;stroke-width:1.6042;"/></g><!--link Px4 to OdomTopic--><g class="link" data-entity-1="ent0016" data-entity-2="ent0011" data-link-type="dependency" data-source-line="35" id="lnk21"><path d="M1081.1938,468.3146 C1062.1042,491.4583 1037.9688,520.7562 1016.4583,546.875 C992.5271,575.9542 970.8693,602.2976 951.2548,626.1705" fill="none" id="Px4-to-OdomTopic" style="stroke:#5E6A71;stroke-width:1.6042;"/><polygon fill="#5E6A71" points="945.7,632.9313,958.5393,626.4934,950.329,627.2973,949.525,619.087,945.7,632.9313" style="stroke:#5E6A71;stroke-width:1.6042;"/></g><!--link Px4 to CtrlTopic--><g class="link" data-entity-1="ent0016" data-entity-2="ent0013" data-link-type="dependency" data-source-line="36" id="lnk22"><path d="M1151.3979,468.7667 C1191.1812,515.7104 1248.9166,583.8342 1285.0686,626.4758" fill="none" id="Px4-to-CtrlTopic" style="stroke:#5E6A71;stroke-width:1.6042;"/><polygon fill="#5E6A71" points="1290.7271,633.15,1286.6889,619.3664,1286.0117,627.5882,1277.79,626.911,1290.7271,633.15" style="stroke:#5E6A71;stroke-width:1.6042;"/></g><!--link Px4 to FsmTopic--><g class="link" data-entity-1="ent0016" data-entity-2="ent0012" data-link-type="dependency" data-source-line="37" id="lnk23"><path d="M1115.625,468.7667 C1115.625,515.7104 1115.625,581.7583 1115.625,624.4" fill="none" id="Px4-to-FsmTopic" style="stroke:#5E6A71;stroke-width:1.6042;"/><polygon fill="#5E6A71" points="1115.625,633.15,1121.4583,620.025,1115.625,625.8583,1109.7917,620.025,1115.625,633.15" style="stroke:#5E6A71;stroke-width:1.6042;"/></g><!--link Bridge to CmdTopic--><g class="link" data-entity-1="ent0008" data-entity-2="ent0014" data-link-type="dependency" data-source-line="39" id="lnk24"><path d="M709.6396,830.9146 C670.0896,819.35 626.7188,802.2292 592.0833,777.2917 C564.5062,757.4437 546.5878,733.0739 532.267,708.953" fill="none" id="Bridge-to-CmdTopic" style="stroke:#5E6A71;stroke-width:1.6042;"/><polygon fill="#5E6A71" points="527.8,701.4292,529.4846,715.6929,531.5225,707.699,539.5164,709.7369,527.8,701.4292" style="stroke:#5E6A71;stroke-width:1.6042;"/><text fill="#243039" font-family="'Helvetica'" font-size="17.5" lengthAdjust="spacing" textLength="145.9045" x="593.5417" y="771.8087">publish raw control</text></g><!--link Px4Topic to Bridge--><g class="link" data-entity-1="ent0010" data-entity-2="ent0008" data-link-type="dependency" data-source-line="40" id="lnk25"><path d="M731.3833,701.0792 C738.5146,723.2458 749.3354,752.9083 762.7083,777.2917 C770.9333,792.2979 776.4897,800.7253 786.5668,813.6461" fill="none" id="Px4Topic-to-Bridge" style="stroke:#5E6A71;stroke-width:1.6042;"/><polygon fill="#5E6A71" points="791.9479,820.5458,788.476,806.6089,787.4636,814.7961,779.2764,813.7837,791.9479,820.5458" style="stroke:#5E6A71;stroke-width:1.6042;"/><text fill="#243039" font-family="'Helvetica'" font-size="17.5" lengthAdjust="spacing" textLength="74.8962" x="764.1667" y="771.8087">subscribe</text></g><!--link OdomTopic to Bridge--><g class="link" data-entity-1="ent0011" data-entity-2="ent0008" data-link-type="dependency" data-source-line="41" id="lnk26"><path d="M901.25,701.1958 C883.1229,734.9271 859.1213,779.5895 841.0525,813.1895" fill="none" id="OdomTopic-to-Bridge" style="stroke:#5E6A71;stroke-width:1.6042;"/><polygon fill="#5E6A71" points="836.9083,820.8958,848.2622,812.0991,840.3618,814.4739,837.987,806.5735,836.9083,820.8958" style="stroke:#5E6A71;stroke-width:1.6042;"/><text fill="#243039" font-family="'Helvetica'" font-size="17.5" lengthAdjust="spacing" textLength="74.8962" x="870.625" y="771.8087">subscribe</text></g><!--link FsmTopic to Bridge--><g class="link" data-entity-1="ent0012" data-entity-2="ent0008" data-link-type="dependency" data-source-line="42" id="lnk27"><path d="M1077.2708,701.1083 C1059.6833,715.3417 1038.2604,731.8354 1017.9167,745.2083 C975.4937,773.0917 933.0244,796.3821 893.7223,816.5509" fill="none" id="FsmTopic-to-Bridge" style="stroke:#5E6A71;stroke-width:1.6042;"/><polygon fill="#5E6A71" points="885.9375,820.5458,900.278,819.7433,892.4248,817.2167,894.9514,809.3636,885.9375,820.5458" style="stroke:#5E6A71;stroke-width:1.6042;"/><text fill="#243039" font-family="'Helvetica'" font-size="17.5" lengthAdjust="spacing" textLength="74.8962" x="998.7396" y="771.8087">subscribe</text></g><!--link CtrlTopic to Bridge--><g class="link" data-entity-1="ent0013" data-entity-2="ent0008" data-link-type="dependency" data-source-line="43" id="lnk28"><path d="M1281.2042,701.3708 C1262.3771,716.5229 1238.5333,733.6875 1214.7917,745.2083 C1123.4417,789.5271 1019.653,816.2279 938.1322,832.7363" fill="none" id="CtrlTopic-to-Bridge" style="stroke:#5E6A71;stroke-width:1.6042;"/><polygon fill="#5E6A71" points="929.5562,834.4729,943.5779,837.5852,936.7029,833.0257,941.2624,826.1506,929.5562,834.4729" style="stroke:#5E6A71;stroke-width:1.6042;"/><text fill="#243039" font-family="'Helvetica'" font-size="17.5" lengthAdjust="spacing" textLength="74.8962" x="1186.0917" y="771.8087">subscribe</text></g><!--link Px4 to GMN29--><g class="link" data-entity-1="ent0016" data-entity-2="ent0030" data-link-type="association" data-source-line="46" id="lnk31"><path d="M1197.7292,457.275 C1259.4312,480.7542 1345.7792,514.5 1420.4167,546.875 C1483.8542,574.3938 1554.9917,608.4021 1605.2604,632.9896" fill="none" id="Px4-GMN29" style="stroke:#5E6A71;stroke-width:1.6042;stroke-dasharray:10.2083,10.2083;"/></g><?plantuml-src ZLHTQnD157sVNt7Tzng4FeLIY96AQDhG5L4eXCdic0oPdLdceqcGW0Y253yUzQ4Y51HHnBu8jLZ_ZDcgJ_u5P_OhJKEqJzdSlUUSE-UUMJrW8i4AnroI0OsWYycWfwGLKLDogM3OPuQYIqmGRYCAdR4Ld8b19r7II29vn_HfJ2yp6tDacE4KGYiK7iFsLdW5hYeMzIYiG3ZMXiRGbCBGaK484-F8Wssh3LpFvA396HKc0AoB2aAA4eD5pv46HLF88Xh0sjecjKPXlhuE3n00aN4YXKCNZE6rcr3R4IscDPC2RiaU8ncnVnj60qVW9r7I4Q39dCwz_7omISrGga5mjlMyLaXp_XeqhEbBnSpOopPb76CtQmsAfssgBSzFLj3-Ou06K_y_fSuyhfRHpMpE10h7p_8xQEAsYbqvc2t7cOoJ_gBAd4uoMkreWqtEtHwjtfO98muJ-cAROq6Tm3cGZ6ISeQpEO5lk_qLmztLScubjw0k1I7vCJjMPGPj6yOk0BTxj50GT4aSvDevAwCn2WCcSZUsxgswzhSOTPsHmJcJHnGtEUdq3pMhK7P4189HM4QfBSnUddVXm5D5VMLalyukg7FjYcQawbE4TCaMXlA6eofnlBl9Hz_CLASrySxygYobGiKkvJAX6oC_aGUNYgqArqgfIMLvLoWKYL7u5V5lfRXqIs-LCzq7X8HHBG5N2vaRLjgk9ObsAPb5Qqb2bPidxMJAMD20XdHbTQOoCaRycwOiFwQTNwVxxwV7pq_tZNoSdFpz-_l7m4Sel7Po-F9WUFPj-_v8-Vbj--sQXh6s4BMYqR_pvzXHDlxvndQTxUzdrIu_UfKyEq_t3twyF2aRgrk7b_m80?></g></svg>