<?plantuml 1.2026.2?><svg xmlns="http://www.w3.org/2000/svg" xmlns:xlink="http://www.w3.org/1999/xlink" contentStyleType="text/css" data-diagram-type="SEQUENCE" height="1207.5px" preserveAspectRatio="none" style="width:627px;height:1207px;background:#FFFFFF;" version="1.1" viewBox="0 0 627 1207" width="627.0833px" zoomAndPan="magnify"><title>&#22330;&#26223;&#65306;&#22320;&#38754;&#31449;&#25511;&#21046;&#21333;&#26550; UAV &#30340;&#21327;&#35758;&#21327;&#20316;&#26102;&#24207;</title><defs/><g><text fill="#1F2A33" font-family="'Helvetica'" font-size="26.25" font-weight="bold" lengthAdjust="spacing" textLength="516.2585" x="50.2368" y="42.088">&#22330;&#26223;&#65306;&#22320;&#38754;&#31449;&#25511;&#21046;&#21333;&#26550; UAV &#30340;&#21327;&#35758;&#21327;&#20316;&#26102;&#24207;</text><g class="participant-lifeline" data-entity-uid="part1" data-qualified-name="GS" id="part1-lifeline"><g><title>Ground Station</title><rect fill="#000000" fill-opacity="0.00000" height="1026.6667" width="11.6667" x="69.5955" y="170.625"/><line style="stroke:#A0AAB2;stroke-width:0.7292;stroke-dasharray:7.2917,7.2917;" x1="74.375" x2="74.375" y1="170.625" y2="1197.2917"/></g></g><g class="participant-lifeline" data-entity-uid="part2" data-qualified-name="UAV" id="part2-lifeline"><g><title>UAV Runtime</title><rect fill="#000000" fill-opacity="0.00000" height="1026.6667" width="11.6667" x="375.0338" y="170.625"/><line style="stroke:#A0AAB2;stroke-width:0.7292;stroke-dasharray:7.2917,7.2917;" x1="380.3209" x2="380.3209" y1="170.625" y2="1197.2917"/></g></g><g class="participant-lifeline" data-entity-uid="part3" data-qualified-name="FC" id="part3-lifeline"><g><title>Flight Executor</title><rect fill="#000000" fill-opacity="0.00000" height="1026.6667" width="11.6667" x="531.6366" y="170.625"/><line style="stroke:#A0AAB2;stroke-width:0.7292;stroke-dasharray:7.2917,7.2917;" x1="536.9576" x2="536.9576" y1="170.625" y2="1197.2917"/></g></g><g class="participant participant-head" data-entity-uid="part1" data-qualified-name="GS" id="part1-head"><text fill="#243039" font-family="'Helvetica'" font-size="18.9583" lengthAdjust="spacing" textLength="127.5244" x="7.2917" y="166.265">Ground Station</text><ellipse cx="75.4289" cy="76.5625" fill="#F1F4F6" rx="11.6667" ry="11.6667" style="stroke:#5E6A71;stroke-width:0.7292;"/><path d="M75.4289,88.2292 L75.4289,127.6042 M56.4705,99.8958 L94.3872,99.8958 M75.4289,127.6042 L56.4705,149.4792 M75.4289,127.6042 L94.3872,149.4792" fill="none" style="stroke:#5E6A71;stroke-width:0.7292;"/></g><g class="participant participant-head" data-entity-uid="part2" data-qualified-name="UAV" id="part2-head"><rect fill="#EEF2F4" height="39.375" rx="5.8333" ry="5.8333" style="stroke:#5E6A71;stroke-width:0.7292;" width="135.259" x="313.2376" y="129.7917"/><text fill="#243039" font-family="'Helvetica'" font-size="18.9583" lengthAdjust="spacing" textLength="114.8423" x="323.4459" y="154.5983">UAV Runtime</text></g><g class="participant participant-head" data-entity-uid="part3" data-qualified-name="FC" id="part3-head"><rect fill="#F1F4F6" height="39.375" rx="5.8333" ry="5.8333" style="stroke:#5E6A71;stroke-width:0.7292;" width="146.858" x="464.0409" y="129.7917"/><text fill="#243039" font-family="'Helvetica'" font-size="18.9583" lengthAdjust="spacing" textLength="126.4413" x="474.2492" y="154.5983">Flight Executor</text></g><rect fill="#F4F6F7" height="4.375" rx="5.8333" ry="5.8333" style="stroke:#F4F6F7;stroke-width:1.4583;" width="618.1906" x="0" y="213.6458"/><line style="stroke:#B7BDC2;stroke-width:1.4583;" x1="0" x2="618.1906" y1="213.6458" y2="213.6458"/><line style="stroke:#B7BDC2;stroke-width:1.4583;" x1="0" x2="618.1906" y1="218.0208" y2="218.0208"/><rect fill="#F4F6F7" height="30.625" rx="5.8333" ry="5.8333" style="stroke:#B7BDC2;stroke-width:2.9167;" width="98.3884" x="259.9011" y="199.7917"/><text fill="#243039" font-family="'Helvetica'" font-size="18.9583" font-weight="bold" lengthAdjust="spacing" textLength="72.7045" x="268.6511" y="220.2233">Session</text><g class="message" data-entity-1="part1" data-entity-2="part2" id="msg1"><polygon fill="#5E6A71" points="363.3671,265.4167,377.9504,271.25,363.3671,277.0833,369.2004,271.25" style="stroke:#5E6A71;stroke-width:1.4583;"/><line style="stroke:#5E6A71;stroke-width:1.6042;" x1="75.4289" x2="372.1171" y1="271.25" y2="271.25"/><text fill="#243039" font-family="'Helvetica'" font-size="17.5" lengthAdjust="spacing" textLength="102.1375" x="177.0793" y="264.3087">SessionHello</text></g><g class="message" data-entity-1="part1" data-entity-2="part2" id="msg2"><polygon fill="#5E6A71" points="363.3671,303.3333,377.9504,309.1667,363.3671,315,369.2004,309.1667" style="stroke:#5E6A71;stroke-width:1.4583;"/><line style="stroke:#5E6A71;stroke-width:1.6042;" x1="75.4289" x2="372.1171" y1="309.1667" y2="309.1667"/><text fill="#243039" font-family="'Helvetica'" font-size="17.5" lengthAdjust="spacing" textLength="159.5508" x="148.3726" y="302.2253">SessionAuthenticate</text></g><g class="message" data-entity-1="part1" data-entity-2="part2" id="msg3"><polygon fill="#5E6A71" points="363.3671,341.25,377.9504,347.0833,363.3671,352.9167,369.2004,347.0833" style="stroke:#5E6A71;stroke-width:1.4583;"/><line style="stroke:#5E6A71;stroke-width:1.6042;" x1="75.4289" x2="372.1171" y1="347.0833" y2="347.0833"/><text fill="#243039" font-family="'Helvetica'" font-size="17.5" lengthAdjust="spacing" textLength="152.7234" x="151.7863" y="340.142">SessionCapabilities</text></g><g class="message" data-entity-1="part1" data-entity-2="part2" id="msg4"><polygon fill="#5E6A71" points="363.3671,379.1667,377.9504,385,363.3671,390.8333,369.2004,385" style="stroke:#5E6A71;stroke-width:1.4583;"/><line style="stroke:#5E6A71;stroke-width:1.6042;" x1="75.4289" x2="372.1171" y1="385" y2="385"/><text fill="#243039" font-family="'Helvetica'" font-size="17.5" lengthAdjust="spacing" textLength="112.8442" x="171.7259" y="378.0587">SessionReady</text></g><g class="message" data-entity-1="part2" data-entity-2="part1" id="msg5"><polygon fill="#5E6A71" points="91.4705,417.0833,76.8872,422.9167,91.4705,428.75,85.6372,422.9167" style="stroke:#5E6A71;stroke-width:1.4583;"/><line style="stroke:#5E6A71;stroke-width:1.6042;stroke-dasharray:2.9167,2.9167;" x1="82.7205" x2="379.4088" y1="422.9167" y2="422.9167"/><text fill="#243039" font-family="'Helvetica'" font-size="17.5" lengthAdjust="spacing" textLength="207.1375" x="124.5793" y="415.9753">Session &#26412;&#22320;&#25512;&#36827;&#21040; Active</text></g><rect fill="#F4F6F7" height="4.375" rx="5.8333" ry="5.8333" style="stroke:#F4F6F7;stroke-width:1.4583;" width="618.1906" x="0" y="463.0208"/><line style="stroke:#B7BDC2;stroke-width:1.4583;" x1="0" x2="618.1906" y1="463.0208" y2="463.0208"/><line style="stroke:#B7BDC2;stroke-width:1.4583;" x1="0" x2="618.1906" y1="467.3958" y2="467.3958"/><rect fill="#F4F6F7" height="30.625" rx="5.8333" ry="5.8333" style="stroke:#B7BDC2;stroke-width:2.9167;" width="109.9318" x="254.1294" y="449.1667"/><text fill="#243039" font-family="'Helvetica'" font-size="18.9583" font-weight="bold" lengthAdjust="spacing" textLength="84.2479" x="262.8794" y="469.5983">Authority</text><g class="message" data-entity-1="part1" data-entity-2="part2" id="msg6"><polygon fill="#5E6A71" points="363.3671,532.2917,377.9504,538.125,363.3671,543.9583,369.2004,538.125" style="stroke:#5E6A71;stroke-width:1.4583;"/><line style="stroke:#5E6A71;stroke-width:1.6042;" x1="75.4289" x2="372.1171" y1="538.125" y2="538.125"/><text fill="#243039" font-family="'Helvetica'" font-size="17.5" lengthAdjust="spacing" textLength="247.5378" x="104.3791" y="513.6837">AuthorityRequest(action=Claim)</text><text fill="#243039" font-family="'Helvetica'" font-size="17.5" lengthAdjust="spacing" textLength="175.564" x="140.366" y="531.1837">target = Entity(UAV#1)</text></g><g class="message" data-entity-1="part2" data-entity-2="part1" id="msg7"><polygon fill="#5E6A71" points="91.4705,587.7083,76.8872,593.5417,91.4705,599.375,85.6372,593.5417" style="stroke:#5E6A71;stroke-width:1.4583;"/><line style="stroke:#5E6A71;stroke-width:1.6042;stroke-dasharray:2.9167,2.9167;" x1="82.7205" x2="379.4088" y1="593.5417" y2="593.5417"/><text fill="#243039" font-family="'Helvetica'" font-size="17.5" lengthAdjust="spacing" textLength="254.3481" x="100.9739" y="569.1003">AuthorityStatus(state=Controller)</text><text fill="#243039" font-family="'Helvetica'" font-size="17.5" lengthAdjust="spacing" textLength="140" x="158.148" y="586.6003">&#25110;&#26412;&#22320;&#31199;&#32422;&#24050;&#29983;&#25928;</text></g><rect fill="#F4F6F7" height="4.375" rx="5.8333" ry="5.8333" style="stroke:#F4F6F7;stroke-width:1.4583;" width="618.1906" x="0" y="633.6458"/><line style="stroke:#B7BDC2;stroke-width:1.4583;" x1="0" x2="618.1906" y1="633.6458" y2="633.6458"/><line style="stroke:#B7BDC2;stroke-width:1.4583;" x1="0" x2="618.1906" y1="638.0208" y2="638.0208"/><rect fill="#F4F6F7" height="30.625" rx="5.8333" ry="5.8333" style="stroke:#B7BDC2;stroke-width:2.9167;" width="118.3742" x="249.9082" y="619.7917"/><text fill="#243039" font-family="'Helvetica'" font-size="18.9583" font-weight="bold" lengthAdjust="spacing" textLength="92.6903" x="258.6582" y="640.2233">Command</text><g class="message" data-entity-1="part1" data-entity-2="part2" id="msg8"><polygon fill="#5E6A71" points="363.3671,720.4167,377.9504,726.25,363.3671,732.0833,369.2004,726.25" style="stroke:#5E6A71;stroke-width:1.4583;"/><line style="stroke:#5E6A71;stroke-width:1.6042;" x1="75.4289" x2="372.1171" y1="726.25" y2="726.25"/><text fill="#243039" font-family="'Helvetica'" font-size="17.5" lengthAdjust="spacing" textLength="123.5254" x="166.3853" y="684.3087">Command.Goto</text><text fill="#243039" font-family="'Helvetica'" font-size="17.5" lengthAdjust="spacing" textLength="117.2278" x="169.5341" y="701.8087">session_id != 0</text><text fill="#243039" font-family="'Helvetica'" font-size="17.5" lengthAdjust="spacing" textLength="182.3657" x="136.9651" y="719.3087">ttl_ms = motion window</text></g><g class="message" data-entity-1="part2" data-entity-2="part1" id="msg9"><polygon fill="#5E6A71" points="91.4705,758.3333,76.8872,764.1667,91.4705,770,85.6372,764.1667" style="stroke:#5E6A71;stroke-width:1.4583;"/><line style="stroke:#5E6A71;stroke-width:1.6042;stroke-dasharray:2.9167,2.9167;" x1="82.7205" x2="379.4088" y1="764.1667" y2="764.1667"/><text fill="#243039" font-family="'Helvetica'" font-size="17.5" lengthAdjust="spacing" textLength="208.1458" x="124.0751" y="757.2253">CommandResult.Received</text></g><g class="message" data-entity-1="part2" data-entity-2="part1" id="msg10"><polygon fill="#5E6A71" points="91.4705,796.25,76.8872,802.0833,91.4705,807.9167,85.6372,802.0833" style="stroke:#5E6A71;stroke-width:1.4583;"/><line style="stroke:#5E6A71;stroke-width:1.6042;stroke-dasharray:2.9167,2.9167;" x1="82.7205" x2="379.4088" y1="802.0833" y2="802.0833"/><text fill="#243039" font-family="'Helvetica'" font-size="17.5" lengthAdjust="spacing" textLength="208.1543" x="124.0708" y="795.142">CommandResult.Accepted</text></g><g class="message" data-entity-1="part2" data-entity-2="part3" id="msg11"><polygon fill="#5E6A71" points="519.9699,834.1667,534.5532,840,519.9699,845.8333,525.8032,840" style="stroke:#5E6A71;stroke-width:1.4583;"/><line style="stroke:#5E6A71;stroke-width:1.6042;" x1="380.8671" x2="528.7199" y1="840" y2="840"/><text fill="#243039" font-family="'Helvetica'" font-size="17.5" lengthAdjust="spacing" textLength="77.8015" x="420.2677" y="833.0587">&#35843;&#24230; Goto</text></g><g class="message" data-entity-1="part3" data-entity-2="part2" id="msg12"><polygon fill="#5E6A71" points="396.9088,872.0833,382.3254,877.9167,396.9088,883.75,391.0754,877.9167" style="stroke:#5E6A71;stroke-width:1.4583;"/><line style="stroke:#5E6A71;stroke-width:1.6042;stroke-dasharray:2.9167,2.9167;" x1="388.1588" x2="536.0116" y1="877.9167" y2="877.9167"/><text fill="#243039" font-family="'Helvetica'" font-size="17.5" lengthAdjust="spacing" textLength="121.6028" x="398.3671" y="870.9753">progress / done</text></g><g class="message" data-entity-1="part2" data-entity-2="part1" id="msg13"><polygon fill="#5E6A71" points="91.4705,910,76.8872,915.8333,91.4705,921.6667,85.6372,915.8333" style="stroke:#5E6A71;stroke-width:1.4583;"/><line style="stroke:#5E6A71;stroke-width:1.6042;stroke-dasharray:2.9167,2.9167;" x1="82.7205" x2="379.4088" y1="915.8333" y2="915.8333"/><text fill="#243039" font-family="'Helvetica'" font-size="17.5" lengthAdjust="spacing" textLength="219.8096" x="118.2432" y="908.892">CommandResult.InProgress</text></g><g class="message" data-entity-1="part2" data-entity-2="part1" id="msg14"><polygon fill="#5E6A71" points="91.4705,947.9167,76.8872,953.75,91.4705,959.5833,85.6372,953.75" style="stroke:#5E6A71;stroke-width:1.4583;"/><line style="stroke:#5E6A71;stroke-width:1.6042;stroke-dasharray:2.9167,2.9167;" x1="82.7205" x2="379.4088" y1="953.75" y2="953.75"/><text fill="#243039" font-family="'Helvetica'" font-size="17.5" lengthAdjust="spacing" textLength="222.7576" x="116.7692" y="946.8087">CommandResult.Succeeded</text></g><rect fill="#F4F6F7" height="4.375" rx="5.8333" ry="5.8333" style="stroke:#F4F6F7;stroke-width:1.4583;" width="618.1906" x="0" y="993.8542"/><line style="stroke:#B7BDC2;stroke-width:1.4583;" x1="0" x2="618.1906" y1="993.8542" y2="993.8542"/><line style="stroke:#B7BDC2;stroke-width:1.4583;" x1="0" x2="618.1906" y1="998.2292" y2="998.2292"/><rect fill="#F4F6F7" height="30.625" rx="5.8333" ry="5.8333" style="stroke:#B7BDC2;stroke-width:2.9167;" width="83.6142" x="267.2882" y="980"/><text fill="#243039" font-family="'Helvetica'" font-size="18.9583" font-weight="bold" lengthAdjust="spacing" textLength="57.9303" x="276.0382" y="1000.4316">Uplink</text><g class="message" data-entity-1="part2" data-entity-2="part1" id="msg15"><polygon fill="#5E6A71" points="91.4705,1045.625,76.8872,1051.4583,91.4705,1057.2917,85.6372,1051.4583" style="stroke:#5E6A71;stroke-width:1.4583;"/><line style="stroke:#5E6A71;stroke-width:1.6042;stroke-dasharray:2.9167,2.9167;" x1="82.7205" x2="379.4088" y1="1051.4583" y2="1051.4583"/><text fill="#243039" font-family="'Helvetica'" font-size="17.5" lengthAdjust="spacing" textLength="214.9988" x="120.6486" y="1044.517">StateSnapshot.VehicleCore</text></g><g class="message" data-entity-1="part2" data-entity-2="part1" id="msg16"><polygon fill="#5E6A71" points="91.4705,1083.5417,76.8872,1089.375,91.4705,1095.2083,85.6372,1089.375" style="stroke:#5E6A71;stroke-width:1.4583;"/><line style="stroke:#5E6A71;stroke-width:1.6042;stroke-dasharray:2.9167,2.9167;" x1="82.7205" x2="379.4088" y1="1089.375" y2="1089.375"/><text fill="#243039" font-family="'Helvetica'" font-size="17.5" lengthAdjust="spacing" textLength="270.4382" x="92.9289" y="1082.4337">StateEvent.VehicleEvent (optional)</text></g><path d="M81.6667,1114.1667 L81.6667,1169.5833 A5.8333,5.8333 0 0 0 87.5,1175.4167 L456.4583,1175.4167 A5.8333,5.8333 0 0 0 462.2917,1169.5833 L462.2917,1122.9167 L447.7083,1108.3333 L87.5,1108.3333 A5.8333,5.8333 0 0 0 81.6667,1114.1667" fill="#F7F5F1" style="stroke:#B7AEA1;stroke-width:0.7292;"/><path d="M447.7083,1108.3333 L447.7083,1120 A2.9167,2.9167 0 0 0 450.625,1122.9167 L462.2917,1122.9167 L447.7083,1108.3333" fill="#F7F5F1" style="stroke:#B7AEA1;stroke-width:0.7292;"/><text fill="#2D3135" font-family="'Helvetica'" font-size="17.5" lengthAdjust="spacing" textLength="122.5" x="211.2846" y="1129.1003">&#36825;&#26159;&#26368;&#23567;&#38381;&#29615;&#65306;</text><text fill="#2D3135" font-family="'Helvetica'" font-size="17.5" lengthAdjust="spacing" textLength="337.9858" x="103.5417" y="1146.6003">Session -&gt; Authority -&gt; Command -&gt; Uplink</text><text fill="#2D3135" font-family="'Helvetica'" font-size="17.5" lengthAdjust="spacing" textLength="280" x="132.5346" y="1164.1003">&#32570;&#20219;&#20309;&#19968;&#27573;&#65292;&#37117;&#19981;&#26159;&#23436;&#25972;&#25511;&#21046;&#36335;&#24452;&#12290;</text><?plantuml-src VPDFJzim6CRl_XG6BkL0DoQq0rAGggZfTfjQmGcfCebfhJfsbZX0RsXmw84_5pe6wuQq0qpQLgff0rHWV9WrQJdn5VOwq4v55PT4zllaUNzv_3geCE4HdxXSsXNgu2LYLqg-38LZIYvzl5fcYg8n9cmUEXGNgw7WJ5IAdY-Lj2KlgZ9rQPg5BaUAAKvnr6Z71wTtLuTHetNxwKltsq6ySnBLpgBjUlpv3Czd5d3tS3FQtkqrc_3iN3VY_REelOlA31eiIwcMv1f2n5RGVZoNiE228ef9COv9W7C51CIAsSmZGk5nxPWFXM8kJUfwFP7DMY-icM6XnLcfh71sZTeXc2TYoyGJrhGrOxr4o31mWGO1zC66WN85F3MNcCtsjrzHpkMeGYQ468309X3MYBf9FBB4E5EC1gFgUKgSAj9RKr02mQ22uyPt23BU-Tgx-HZLMZXZAxP24rZTLVfCLH_Z3Wfv-ZQaWKf1cE1bc9mmTt9HAEANgC86pWApggRWgudfoU7-0myTVHYa0dXHmvH2-P9pweDDN7j_JzSzEUgsZwFpdzszexXUI-1CwRe4JkuHsiDsEWVZioY2-vyiCWUF6VWva2bUT0CWSwKcngjCE79rcEp18a-3aAjqdjeK0d6UqcHictgghvdJXpwBUwsDg7sCDGY2ZQa18ensoGSm_0mxKj2dZ5-BDm_YfrI54FfJ1_hhOEOzVO5qBiFdhVCj2E85PQdI2xJCR4vDwTCHikmA35jVaonmIdewCC8d4H9IKUmdiowNzNNftHp47qxZndhKshtT_z7TqTSJzISChFzF4Ypw9wS3ILXHzwhTkRpiNDSx5-jny_VTrTRjndNdOXjCe-PMNFzrVyDxvwVHdys_w-yGXSyrnJy0?></g></svg>