<?plantuml 1.2026.2?><svg xmlns="http://www.w3.org/2000/svg" xmlns:xlink="http://www.w3.org/1999/xlink" contentStyleType="text/css" data-diagram-type="SEQUENCE" height="1220.625px" preserveAspectRatio="none" style="width:875px;height:1220px;background:#FFFFFF;" version="1.1" viewBox="0 0 875 1220" width="875px" zoomAndPan="magnify"><title>&#22330;&#26223;&#65306;&#22320;&#38754;&#31449;&#25511;&#21046;&#21333;&#21488; UGV &#30340;&#21327;&#35758;&#21327;&#20316;&#26102;&#24207;</title><defs/><g><text fill="#1F2A33" font-family="'Helvetica'" font-size="26.25" font-weight="bold" lengthAdjust="spacing" textLength="517.7197" x="173.0518" y="42.088">&#22330;&#26223;&#65306;&#22320;&#38754;&#31449;&#25511;&#21046;&#21333;&#21488; UGV &#30340;&#21327;&#35758;&#21327;&#20316;&#26102;&#24207;</text><rect fill="#FAFBFB" height="153.125" rx="5.8333" ry="5.8333" style="stroke:#A7AFB5;stroke-width:2.1875;" width="564.3056" x="14.5833" y="578.9583"/><rect fill="#FAFBFB" height="97.7083" rx="5.8333" ry="5.8333" style="stroke:#A7AFB5;stroke-width:2.1875;" width="564.3056" x="14.5833" y="812.2917"/><g class="participant-lifeline" data-entity-uid="part1" data-qualified-name="GS" id="part1-lifeline"><g><title>Ground Station</title><rect fill="#000000" fill-opacity="0.00000" height="1039.7917" width="11.6667" x="91.4705" y="170.625"/><line style="stroke:#A0AAB2;stroke-width:0.7292;stroke-dasharray:7.2917,7.2917;" x1="96.25" x2="96.25" y1="170.625" y2="1210.4167"/></g></g><g class="participant-lifeline" data-entity-uid="part2" data-qualified-name="UGV" id="part2-lifeline"><g><title>UGV Runtime</title><rect fill="#000000" fill-opacity="0.00000" height="1039.7917" width="11.6667" x="489.7921" y="170.625"/><line style="stroke:#A0AAB2;stroke-width:0.7292;stroke-dasharray:7.2917,7.2917;" x1="495.4869" x2="495.4869" y1="170.625" y2="1210.4167"/></g></g><g class="participant-lifeline" data-entity-uid="part3" data-qualified-name="DRV" id="part3-lifeline"><g><title>Drive Executor</title><rect fill="#000000" fill-opacity="0.00000" height="1039.7917" width="11.6667" x="647.2921" y="170.625"/><line style="stroke:#A0AAB2;stroke-width:0.7292;stroke-dasharray:7.2917,7.2917;" x1="652.2147" x2="652.2147" y1="170.625" y2="1210.4167"/></g></g><g class="participant participant-head" data-entity-uid="part1" data-qualified-name="GS" id="part1-head"><text fill="#243039" font-family="'Helvetica'" font-size="18.9583" lengthAdjust="spacing" textLength="127.5244" x="29.1667" y="166.265">Ground Station</text><ellipse cx="97.3039" cy="76.5625" fill="#F1F4F6" rx="11.6667" ry="11.6667" style="stroke:#5E6A71;stroke-width:0.7292;"/><path d="M97.3039,88.2292 L97.3039,127.6042 M78.3455,99.8958 L116.2622,99.8958 M97.3039,127.6042 L78.3455,149.4792 M97.3039,127.6042 L116.2622,149.4792" fill="none" style="stroke:#5E6A71;stroke-width:0.7292;"/></g><g class="participant participant-head" data-entity-uid="part2" data-qualified-name="UGV" id="part2-head"><rect fill="#EEF2F4" height="39.375" rx="5.8333" ry="5.8333" style="stroke:#5E6A71;stroke-width:0.7292;" width="137.3603" x="426.9452" y="129.7917"/><text fill="#243039" font-family="'Helvetica'" font-size="18.9583" lengthAdjust="spacing" textLength="116.9437" x="437.1536" y="154.5983">UGV Runtime</text></g><g class="participant participant-head" data-entity-uid="part3" data-qualified-name="DRV" id="part3-head"><rect fill="#F1F4F6" height="39.375" rx="5.8333" ry="5.8333" style="stroke:#5E6A71;stroke-width:0.7292;" width="144.7382" x="580.7563" y="129.7917"/><text fill="#243039" font-family="'Helvetica'" font-size="18.9583" lengthAdjust="spacing" textLength="124.3215" x="590.9647" y="154.5983">Drive Executor</text></g><rect fill="#F4F6F7" height="4.375" rx="5.8333" ry="5.8333" style="stroke:#F4F6F7;stroke-width:1.4583;" width="865.2816" x="0" y="213.6458"/><line style="stroke:#B7BDC2;stroke-width:1.4583;" x1="0" x2="865.2816" y1="213.6458" y2="213.6458"/><line style="stroke:#B7BDC2;stroke-width:1.4583;" x1="0" x2="865.2816" y1="218.0208" y2="218.0208"/><rect fill="#F4F6F7" height="30.625" rx="5.8333" ry="5.8333" style="stroke:#B7BDC2;stroke-width:2.9167;" width="98.3884" x="383.4466" y="199.7917"/><text fill="#243039" font-family="'Helvetica'" font-size="18.9583" font-weight="bold" lengthAdjust="spacing" textLength="72.7045" x="392.1966" y="220.2233">Session</text><g class="message" data-entity-1="part1" data-entity-2="part2" id="msg1"><polygon fill="#5E6A71" points="478.1254,282.9167,492.7087,288.75,478.1254,294.5833,483.9587,288.75" style="stroke:#5E6A71;stroke-width:1.4583;"/><line style="stroke:#5E6A71;stroke-width:1.6042;" x1="97.3039" x2="486.8754" y1="288.75" y2="288.75"/><text fill="#243039" font-family="'Helvetica'" font-size="17.5" lengthAdjust="spacing" textLength="223.7402" x="184.5945" y="264.3087">SessionHello / Authenticate /</text><text fill="#243039" font-family="'Helvetica'" font-size="17.5" lengthAdjust="spacing" textLength="155.6372" x="218.646" y="281.8087">Capabilities / Ready</text></g><g class="message" data-entity-1="part2" data-entity-2="part1" id="msg2"><polygon fill="#5E6A71" points="113.3455,320.8333,98.7622,326.6667,113.3455,332.5,107.5122,326.6667" style="stroke:#5E6A71;stroke-width:1.4583;"/><line style="stroke:#5E6A71;stroke-width:1.6042;stroke-dasharray:2.9167,2.9167;" x1="104.5955" x2="494.1671" y1="326.6667" y2="326.6667"/><text fill="#243039" font-family="'Helvetica'" font-size="17.5" lengthAdjust="spacing" textLength="207.1375" x="192.8959" y="319.7253">Session &#26412;&#22320;&#25512;&#36827;&#21040; Active</text></g><rect fill="#F4F6F7" height="4.375" rx="5.8333" ry="5.8333" style="stroke:#F4F6F7;stroke-width:1.4583;" width="865.2816" x="0" y="366.7708"/><line style="stroke:#B7BDC2;stroke-width:1.4583;" x1="0" x2="865.2816" y1="366.7708" y2="366.7708"/><line style="stroke:#B7BDC2;stroke-width:1.4583;" x1="0" x2="865.2816" y1="371.1458" y2="371.1458"/><rect fill="#F4F6F7" height="30.625" rx="5.8333" ry="5.8333" style="stroke:#B7BDC2;stroke-width:2.9167;" width="109.9318" x="377.6749" y="352.9167"/><text fill="#243039" font-family="'Helvetica'" font-size="18.9583" font-weight="bold" lengthAdjust="spacing" textLength="84.2479" x="386.4249" y="373.3483">Authority</text><g class="message" data-entity-1="part1" data-entity-2="part2" id="msg3"><polygon fill="#5E6A71" points="478.1254,436.0417,492.7087,441.875,478.1254,447.7083,483.9587,441.875" style="stroke:#5E6A71;stroke-width:1.4583;"/><line style="stroke:#5E6A71;stroke-width:1.6042;" x1="97.3039" x2="486.8754" y1="441.875" y2="441.875"/><text fill="#243039" font-family="'Helvetica'" font-size="17.5" lengthAdjust="spacing" textLength="247.5378" x="172.6957" y="417.4337">AuthorityRequest(action=Claim)</text><text fill="#243039" font-family="'Helvetica'" font-size="17.5" lengthAdjust="spacing" textLength="187.2363" x="202.8465" y="434.9337">target = Entity(UGV#21)</text></g><g class="message" data-entity-1="part2" data-entity-2="part1" id="msg4"><polygon fill="#5E6A71" points="113.3455,491.4583,98.7622,497.2917,113.3455,503.125,107.5122,497.2917" style="stroke:#5E6A71;stroke-width:1.4583;"/><line style="stroke:#5E6A71;stroke-width:1.6042;stroke-dasharray:2.9167,2.9167;" x1="104.5955" x2="494.1671" y1="497.2917" y2="497.2917"/><text fill="#243039" font-family="'Helvetica'" font-size="17.5" lengthAdjust="spacing" textLength="254.3481" x="169.2906" y="472.8503">AuthorityStatus(state=Controller)</text><text fill="#243039" font-family="'Helvetica'" font-size="17.5" lengthAdjust="spacing" textLength="140" x="226.4646" y="490.3503">&#25110;&#26412;&#22320;&#31199;&#32422;&#24050;&#29983;&#25928;</text></g><rect fill="#F4F6F7" height="4.375" rx="5.8333" ry="5.8333" style="stroke:#F4F6F7;stroke-width:1.4583;" width="865.2816" x="0" y="537.3958"/><line style="stroke:#B7BDC2;stroke-width:1.4583;" x1="0" x2="865.2816" y1="537.3958" y2="537.3958"/><line style="stroke:#B7BDC2;stroke-width:1.4583;" x1="0" x2="865.2816" y1="541.7708" y2="541.7708"/><rect fill="#F4F6F7" height="30.625" rx="5.8333" ry="5.8333" style="stroke:#B7BDC2;stroke-width:2.9167;" width="203.6404" x="330.8206" y="523.5417"/><text fill="#243039" font-family="'Helvetica'" font-size="18.9583" font-weight="bold" lengthAdjust="spacing" textLength="177.9565" x="339.5706" y="543.9733">Continuous Control</text><path d="M20.4167,578.9583 L120.2171,578.9583 L120.2171,586.25 L105.6337,600.8333 L14.5833,600.8333 L14.5833,584.7917 A5.8333,5.8333 0 0 1 20.4167,578.9583" fill="#FBFCFC" style="stroke:#A7AFB5;stroke-width:2.1875;"/><rect fill="none" height="153.125" rx="5.8333" ry="5.8333" style="stroke:#A7AFB5;stroke-width:2.1875;" width="564.3056" x="14.5833" y="578.9583"/><text fill="#243039" font-family="'Helvetica'" font-size="18.9583" font-weight="bold" lengthAdjust="spacing" textLength="40.0087" x="36.4583" y="595.015">loop</text><text fill="#243039" font-family="'Helvetica'" font-size="18.9583" font-weight="bold" lengthAdjust="spacing" textLength="245.3568" x="142.0921" y="596.4733">[short-TTL control window]</text><g class="message" data-entity-1="part1" data-entity-2="part2" id="msg5"><polygon fill="#5E6A71" points="478.1254,638.75,492.7087,644.5833,478.1254,650.4167,483.9587,644.5833" style="stroke:#5E6A71;stroke-width:1.4583;"/><line style="stroke:#5E6A71;stroke-width:1.6042;" x1="97.3039" x2="486.8754" y1="644.5833" y2="644.5833"/><text fill="#243039" font-family="'Helvetica'" font-size="17.5" lengthAdjust="spacing" textLength="211.0767" x="190.9263" y="620.142">Command.VelocitySetpoint</text><text fill="#243039" font-family="'Helvetica'" font-size="17.5" lengthAdjust="spacing" textLength="202.7966" x="195.0663" y="637.642">body_frame + short ttl_ms</text></g><g class="message" data-entity-1="part2" data-entity-2="part1" id="msg6"><polygon fill="#5E6A71" points="113.3455,676.6667,98.7622,682.5,113.3455,688.3333,107.5122,682.5" style="stroke:#5E6A71;stroke-width:1.4583;"/><line style="stroke:#5E6A71;stroke-width:1.6042;stroke-dasharray:2.9167,2.9167;" x1="104.5955" x2="494.1671" y1="682.5" y2="682.5"/><text fill="#243039" font-family="'Helvetica'" font-size="17.5" lengthAdjust="spacing" textLength="208.1458" x="192.3918" y="675.5587">CommandResult.Received</text></g><g class="message" data-entity-1="part2" data-entity-2="part1" id="msg7"><polygon fill="#5E6A71" points="113.3455,714.5833,98.7622,720.4167,113.3455,726.25,107.5122,720.4167" style="stroke:#5E6A71;stroke-width:1.4583;"/><line style="stroke:#5E6A71;stroke-width:1.6042;stroke-dasharray:2.9167,2.9167;" x1="104.5955" x2="494.1671" y1="720.4167" y2="720.4167"/><text fill="#243039" font-family="'Helvetica'" font-size="17.5" lengthAdjust="spacing" textLength="208.1543" x="192.3875" y="713.4753">CommandResult.Accepted</text></g><rect fill="#F4F6F7" height="4.375" rx="5.8333" ry="5.8333" style="stroke:#F4F6F7;stroke-width:1.4583;" width="865.2816" x="0" y="770.7292"/><line style="stroke:#B7BDC2;stroke-width:1.4583;" x1="0" x2="865.2816" y1="770.7292" y2="770.7292"/><line style="stroke:#B7BDC2;stroke-width:1.4583;" x1="0" x2="865.2816" y1="775.1042" y2="775.1042"/><rect fill="#F4F6F7" height="30.625" rx="5.8333" ry="5.8333" style="stroke:#B7BDC2;stroke-width:2.9167;" width="213.2214" x="326.0301" y="756.875"/><text fill="#243039" font-family="'Helvetica'" font-size="18.9583" font-weight="bold" lengthAdjust="spacing" textLength="187.5375" x="334.7801" y="777.3066">Trajectory Extension</text><path d="M20.4167,812.2917 L109.6826,812.2917 L109.6826,819.5833 L95.0993,834.1667 L14.5833,834.1667 L14.5833,818.125 A5.8333,5.8333 0 0 1 20.4167,812.2917" fill="#FBFCFC" style="stroke:#A7AFB5;stroke-width:2.1875;"/><rect fill="none" height="97.7083" rx="5.8333" ry="5.8333" style="stroke:#A7AFB5;stroke-width:2.1875;" width="564.3056" x="14.5833" y="812.2917"/><text fill="#243039" font-family="'Helvetica'" font-size="18.9583" font-weight="bold" lengthAdjust="spacing" textLength="29.4743" x="36.4583" y="828.3483">opt</text><text fill="#243039" font-family="'Helvetica'" font-size="18.9583" font-weight="bold" lengthAdjust="spacing" textLength="145.3349" x="131.5576" y="829.8066">[&#38656;&#35201;&#36712;&#36857;&#20998;&#22359;&#26102;]</text><g class="message" data-entity-1="part1" data-entity-2="part2" id="msg8"><polygon fill="#5E6A71" points="478.1254,854.5833,492.7087,860.4167,478.1254,866.25,483.9587,860.4167" style="stroke:#5E6A71;stroke-width:1.4583;"/><line style="stroke:#5E6A71;stroke-width:1.6042;" x1="97.3039" x2="486.8754" y1="860.4167" y2="860.4167"/><text fill="#243039" font-family="'Helvetica'" font-size="17.5" lengthAdjust="spacing" textLength="213.9648" x="189.4822" y="853.4753">Command.TrajectoryChunk</text></g><g class="message" data-entity-1="part2" data-entity-2="part1" id="msg9"><polygon fill="#5E6A71" points="113.3455,892.5,98.7622,898.3333,113.3455,904.1667,107.5122,898.3333" style="stroke:#5E6A71;stroke-width:1.4583;"/><line style="stroke:#5E6A71;stroke-width:1.6042;stroke-dasharray:2.9167,2.9167;" x1="104.5955" x2="494.1671" y1="898.3333" y2="898.3333"/><text fill="#243039" font-family="'Helvetica'" font-size="17.5" lengthAdjust="spacing" textLength="208.1543" x="192.3875" y="891.392">CommandResult.Accepted</text></g><rect fill="#F4F6F7" height="4.375" rx="5.8333" ry="5.8333" style="stroke:#F4F6F7;stroke-width:1.4583;" width="865.2816" x="0" y="948.6458"/><line style="stroke:#B7BDC2;stroke-width:1.4583;" x1="0" x2="865.2816" y1="948.6458" y2="948.6458"/><line style="stroke:#B7BDC2;stroke-width:1.4583;" x1="0" x2="865.2816" y1="953.0208" y2="953.0208"/><rect fill="#F4F6F7" height="30.625" rx="5.8333" ry="5.8333" style="stroke:#B7BDC2;stroke-width:2.9167;" width="83.6142" x="390.8337" y="934.7917"/><text fill="#243039" font-family="'Helvetica'" font-size="18.9583" font-weight="bold" lengthAdjust="spacing" textLength="57.9303" x="399.5837" y="955.2233">Uplink</text><g class="message" data-entity-1="part2" data-entity-2="part3" id="msg10"><polygon fill="#5E6A71" points="635.6254,1000.4167,650.2087,1006.25,635.6254,1012.0833,641.4587,1006.25" style="stroke:#5E6A71;stroke-width:1.4583;"/><line style="stroke:#5E6A71;stroke-width:1.6042;" x1="495.6254" x2="644.3754" y1="1006.25" y2="1006.25"/><text fill="#243039" font-family="'Helvetica'" font-size="17.5" lengthAdjust="spacing" textLength="122.5" x="513.1254" y="999.3087">&#25191;&#34892;&#36895;&#24230;&#25110;&#36712;&#36857;</text></g><g class="message" data-entity-1="part3" data-entity-2="part2" id="msg11"><polygon fill="#5E6A71" points="511.6671,1038.3333,497.0837,1044.1667,511.6671,1050,505.8337,1044.1667" style="stroke:#5E6A71;stroke-width:1.4583;"/><line style="stroke:#5E6A71;stroke-width:1.6042;stroke-dasharray:2.9167,2.9167;" x1="502.9171" x2="651.6671" y1="1044.1667" y2="1044.1667"/><text fill="#243039" font-family="'Helvetica'" font-size="17.5" lengthAdjust="spacing" textLength="119.5862" x="514.5823" y="1037.2253">&#29366;&#24577;&#21464;&#21270; / &#25925;&#38556;</text></g><g class="message" data-entity-1="part2" data-entity-2="part1" id="msg12"><polygon fill="#5E6A71" points="113.3455,1076.25,98.7622,1082.0833,113.3455,1087.9167,107.5122,1082.0833" style="stroke:#5E6A71;stroke-width:1.4583;"/><line style="stroke:#5E6A71;stroke-width:1.6042;stroke-dasharray:2.9167,2.9167;" x1="104.5955" x2="494.1671" y1="1082.0833" y2="1082.0833"/><text fill="#243039" font-family="'Helvetica'" font-size="17.5" lengthAdjust="spacing" textLength="214.9988" x="188.9653" y="1075.142">StateSnapshot.VehicleCore</text></g><g class="message" data-entity-1="part2" data-entity-2="part1" id="msg13"><polygon fill="#5E6A71" points="113.3455,1114.1667,98.7622,1120,113.3455,1125.8333,107.5122,1120" style="stroke:#5E6A71;stroke-width:1.4583;"/><line style="stroke:#5E6A71;stroke-width:1.6042;stroke-dasharray:2.9167,2.9167;" x1="104.5955" x2="494.1671" y1="1120" y2="1120"/><text fill="#243039" font-family="'Helvetica'" font-size="17.5" lengthAdjust="spacing" textLength="363.3215" x="114.8039" y="1113.0587">StateEvent.VehicleEvent(kind=Fault) (optional)</text></g><path d="M501.6667,1144.7917 L501.6667,1182.7083 A5.8333,5.8333 0 0 0 507.5,1188.5417 L851.6667,1188.5417 A5.8333,5.8333 0 0 0 857.5,1182.7083 L857.5,1153.5417 L842.9167,1138.9583 L507.5,1138.9583 A5.8333,5.8333 0 0 0 501.6667,1144.7917" fill="#F7F5F1" style="stroke:#B7AEA1;stroke-width:0.7292;"/><path d="M842.9167,1138.9583 L842.9167,1150.625 A2.9167,2.9167 0 0 0 845.8333,1153.5417 L857.5,1153.5417 L842.9167,1138.9583" fill="#F7F5F1" style="stroke:#B7AEA1;stroke-width:0.7292;"/><text fill="#2D3135" font-family="'Helvetica'" font-size="17.5" lengthAdjust="spacing" textLength="270.2844" x="544.6861" y="1159.7253">UGV &#22330;&#26223;&#30340;&#29305;&#27530;&#28857;&#19981;&#26159;&#22270;&#31181;&#19981;&#21516;&#65292;</text><text fill="#2D3135" font-family="'Helvetica'" font-size="17.5" lengthAdjust="spacing" textLength="312.5732" x="523.5417" y="1177.2253">&#32780;&#26159;&#8220;&#36830;&#32493;&#25511;&#21046; + &#30701; TTL&#8221;&#24517;&#39035;&#34987;&#30475;&#20986;&#26469;&#12290;</text><?plantuml-src bLJFJnD15BxlN_64InjJ3CHuC2a9gIqUFBNWYQGPTWSwTZgpxiwAlLKZMhK53_AxjS54Qg8WyO1IGFuNT7RRa_-2RxU0OjJ4o-xElZVV-zxtlXcto8HD75BYqYnI2wQ9MPnrf2UibEJIWRa2KzIun8J9FOj2lkm9paGnRpjIILFol2hG4XrYNeaRYYbEGJSw_jg7xuVhkh7RQxuEtgtv2srTtTFr9Rsu2vFZjo5OVwJhYzsT7Nn-EshuAtkwisWK61QOaL9Do_k6GKo5vGV68owGKqGnAGQ0k32UCv2nOYQpYL0m429cFQ5OYKRnS3sOJcT6CbSl9jvms3qAwVlKz10xohsHnTpCSEPgvffX99EGewwBTI2PDCPpa1YDmAwV_Rv9EPTm1SOyx1eBcaHHk38bKiGcqumpnQYBuImbLja8ToOG0N7E0S1ll4TP_8MttUCDNTs5CLCXfwXq22eTfig_5pyFPEbTZxegXj8WLZB52Il5fuGYpYnLa8GqKbBb6EuQ71cENoHm3X8gwRan5ryqcP92EP9pwY2ENrtkqmlQhQ2pfJzz35ws_ALgn2xCPCAJdWkdcqAQN4eRN0HMYOc9Ms2UHkQOiEIS0V1h6obPAX5X3TscQBMG25MsP49DYMbfbVCpw44Ab_jee1JFbrn4kD34AKIMkXvNGrbgKXJF-dVMc6bIMs4M5LRKoOH3xj3GN6MqWgBYRDxILj1hLBfR3xf7E9vzNNsicolepR_qyHCdLV14yJzPJDhXCGhhHhj68oTU1_zfkxjPwrLQkhE5y-WpCS9Oufn0y6pFhppGYwkwjenkyvVcU-kDt-mMJZSdY8rgAbIym4nEKzAXVqXBtqChd-L4YnZU2LOoGv1u76Ae2of4UDmmX4I_Esose43EX6mYkFw1npCTFDttTvu53_U_VQxxgn_qnfUWNSTl_QBs_R1cT2ir_7jIQNIFNmK7s_rR0ISUjBO1tNDIQUhZ-TxcGVVrkw3nN3_f-CqtNoiFGyaWhFm3?></g></svg>