<?plantuml 1.2026.2?><svg xmlns="http://www.w3.org/2000/svg" xmlns:xlink="http://www.w3.org/1999/xlink" contentStyleType="text/css" data-diagram-type="SEQUENCE" height="1341.6667px" preserveAspectRatio="none" style="width:870px;height:1341px;background:#FFFFFF;" version="1.1" viewBox="0 0 870 1341" width="870.625px" zoomAndPan="magnify"><title>&#22330;&#26223;&#65306;&#22320;&#38754;&#31449;&#25511;&#21046; UAV &#38598;&#32676;&#30340;&#21327;&#35758;&#21327;&#20316;&#26102;&#24207;</title><defs/><g><text fill="#1F2A33" font-family="'Helvetica'" font-size="26.25" font-weight="bold" lengthAdjust="spacing" textLength="516.2585" x="171.833" y="42.088">&#22330;&#26223;&#65306;&#22320;&#38754;&#31449;&#25511;&#21046; UAV &#38598;&#32676;&#30340;&#21327;&#35758;&#21327;&#20316;&#26102;&#24207;</text><g class="participant-lifeline" data-entity-uid="part1" data-qualified-name="GS" id="part1-lifeline"><g><title>Ground Station</title><rect fill="#000000" fill-opacity="0.00000" height="1160.8333" width="11.6667" x="69.5955" y="170.625"/><line style="stroke:#A0AAB2;stroke-width:0.7292;stroke-dasharray:7.2917,7.2917;" x1="74.375" x2="74.375" y1="170.625" y2="1331.4583"/></g></g><g class="participant-lifeline" data-entity-uid="part2" data-qualified-name="SW" id="part2-lifeline"><g><title>Swarm Endpoint</title><rect fill="#000000" fill-opacity="0.00000" height="1160.8333" width="11.6667" x="380.8529" y="170.625"/><line style="stroke:#A0AAB2;stroke-width:0.7292;stroke-dasharray:7.2917,7.2917;" x1="385.68" x2="385.68" y1="170.625" y2="1331.4583"/></g></g><g class="participant-lifeline" data-entity-uid="part3" data-qualified-name="GX" id="part3-lifeline"><g><title>Group Executor</title><rect fill="#000000" fill-opacity="0.00000" height="1160.8333" width="11.6667" x="551.7873" y="170.625"/><line style="stroke:#A0AAB2;stroke-width:0.7292;stroke-dasharray:7.2917,7.2917;" x1="556.859" x2="556.859" y1="170.625" y2="1331.4583"/></g></g><g class="participant-lifeline" data-entity-uid="part4" data-qualified-name="A" id="part4-lifeline"><g><title>UAV-A</title><rect fill="#000000" fill-opacity="0.00000" height="1160.8333" width="11.6667" x="716.1403" y="170.625"/><line style="stroke:#A0AAB2;stroke-width:0.7292;stroke-dasharray:7.2917,7.2917;" x1="720.7122" x2="720.7122" y1="170.625" y2="1331.4583"/></g></g><g class="participant-lifeline" data-entity-uid="part5" data-qualified-name="B" id="part5-lifeline"><g><title>UAV-B</title><rect fill="#000000" fill-opacity="0.00000" height="1160.8333" width="11.6667" x="809.0798" y="170.625"/><line style="stroke:#A0AAB2;stroke-width:0.7292;stroke-dasharray:7.2917,7.2917;" x1="813.6517" x2="813.6517" y1="170.625" y2="1331.4583"/></g></g><g class="participant participant-head" data-entity-uid="part1" data-qualified-name="GS" id="part1-head"><text fill="#243039" font-family="'Helvetica'" font-size="18.9583" lengthAdjust="spacing" textLength="127.5244" x="7.2917" y="166.265">Ground Station</text><ellipse cx="75.4289" cy="76.5625" fill="#F1F4F6" rx="11.6667" ry="11.6667" style="stroke:#5E6A71;stroke-width:0.7292;"/><path d="M75.4289,88.2292 L75.4289,127.6042 M56.4705,99.8958 L94.3872,99.8958 M75.4289,127.6042 L56.4705,149.4792 M75.4289,127.6042 L94.3872,149.4792" fill="none" style="stroke:#5E6A71;stroke-width:0.7292;"/></g><g class="participant participant-head" data-entity-uid="part2" data-qualified-name="SW" id="part2-head"><rect fill="#EEF2F4" height="39.375" rx="5.8333" ry="5.8333" style="stroke:#5E6A71;stroke-width:0.7292;" width="159.5123" x="306.93" y="129.7917"/><text fill="#243039" font-family="'Helvetica'" font-size="18.9583" lengthAdjust="spacing" textLength="139.0957" x="317.1384" y="154.5983">Swarm Endpoint</text></g><g class="participant participant-head" data-entity-uid="part3" data-qualified-name="GX" id="part3-head"><rect fill="#F1F4F6" height="39.375" rx="5.8333" ry="5.8333" style="stroke:#5E6A71;stroke-width:0.7292;" width="153.1898" x="481.0257" y="129.7917"/><text fill="#243039" font-family="'Helvetica'" font-size="18.9583" lengthAdjust="spacing" textLength="132.7731" x="491.234" y="154.5983">Group Executor</text></g><g class="participant participant-head" data-entity-uid="part4" data-qualified-name="A" id="part4-head"><rect fill="#F1F4F6" height="39.375" rx="5.8333" ry="5.8333" style="stroke:#5E6A71;stroke-width:0.7292;" width="78.3562" x="682.7955" y="129.7917"/><text fill="#243039" font-family="'Helvetica'" font-size="18.9583" lengthAdjust="spacing" textLength="57.9396" x="693.0038" y="154.5983">UAV-A</text></g><g class="participant participant-head" data-entity-uid="part5" data-qualified-name="B" id="part5-head"><rect fill="#F1F4F6" height="39.375" rx="5.8333" ry="5.8333" style="stroke:#5E6A71;stroke-width:0.7292;" width="78.3562" x="775.7351" y="129.7917"/><text fill="#243039" font-family="'Helvetica'" font-size="18.9583" lengthAdjust="spacing" textLength="57.9396" x="785.9434" y="154.5983">UAV-B</text></g><rect fill="#F4F6F7" height="4.375" rx="5.8333" ry="5.8333" style="stroke:#F4F6F7;stroke-width:1.4583;" width="861.383" x="0" y="213.6458"/><line style="stroke:#B7BDC2;stroke-width:1.4583;" x1="0" x2="861.383" y1="213.6458" y2="213.6458"/><line style="stroke:#B7BDC2;stroke-width:1.4583;" x1="0" x2="861.383" y1="218.0208" y2="218.0208"/><rect fill="#F4F6F7" height="30.625" rx="5.8333" ry="5.8333" style="stroke:#B7BDC2;stroke-width:2.9167;" width="98.3884" x="381.4973" y="199.7917"/><text fill="#243039" font-family="'Helvetica'" font-size="18.9583" font-weight="bold" lengthAdjust="spacing" textLength="72.7045" x="390.2473" y="220.2233">Session</text><g class="message" data-entity-1="part1" data-entity-2="part2" id="msg1"><polygon fill="#5E6A71" points="369.1862,282.9167,383.7695,288.75,369.1862,294.5833,375.0195,288.75" style="stroke:#5E6A71;stroke-width:1.4583;"/><line style="stroke:#5E6A71;stroke-width:1.6042;" x1="75.4289" x2="377.9362" y1="288.75" y2="288.75"/><text fill="#243039" font-family="'Helvetica'" font-size="17.5" lengthAdjust="spacing" textLength="223.7402" x="119.1874" y="264.3087">SessionHello / Authenticate /</text><text fill="#243039" font-family="'Helvetica'" font-size="17.5" lengthAdjust="spacing" textLength="155.6372" x="153.2389" y="281.8087">Capabilities / Ready</text></g><g class="message" data-entity-1="part2" data-entity-2="part1" id="msg2"><polygon fill="#5E6A71" points="91.4705,320.8333,76.8872,326.6667,91.4705,332.5,85.6372,326.6667" style="stroke:#5E6A71;stroke-width:1.4583;"/><line style="stroke:#5E6A71;stroke-width:1.6042;stroke-dasharray:2.9167,2.9167;" x1="82.7205" x2="385.2279" y1="326.6667" y2="326.6667"/><text fill="#243039" font-family="'Helvetica'" font-size="17.5" lengthAdjust="spacing" textLength="207.1375" x="127.4888" y="319.7253">Session &#26412;&#22320;&#25512;&#36827;&#21040; Active</text></g><rect fill="#F4F6F7" height="4.375" rx="5.8333" ry="5.8333" style="stroke:#F4F6F7;stroke-width:1.4583;" width="861.383" x="0" y="366.7708"/><line style="stroke:#B7BDC2;stroke-width:1.4583;" x1="0" x2="861.383" y1="366.7708" y2="366.7708"/><line style="stroke:#B7BDC2;stroke-width:1.4583;" x1="0" x2="861.383" y1="371.1458" y2="371.1458"/><rect fill="#F4F6F7" height="30.625" rx="5.8333" ry="5.8333" style="stroke:#B7BDC2;stroke-width:2.9167;" width="172.0648" x="344.6591" y="352.9167"/><text fill="#243039" font-family="'Helvetica'" font-size="18.9583" font-weight="bold" lengthAdjust="spacing" textLength="146.3809" x="353.4091" y="373.3483">Group Authority</text><g class="message" data-entity-1="part1" data-entity-2="part2" id="msg3"><polygon fill="#5E6A71" points="369.1862,436.0417,383.7695,441.875,369.1862,447.7083,375.0195,441.875" style="stroke:#5E6A71;stroke-width:1.4583;"/><line style="stroke:#5E6A71;stroke-width:1.6042;" x1="75.4289" x2="377.9362" y1="441.875" y2="441.875"/><text fill="#243039" font-family="'Helvetica'" font-size="17.5" lengthAdjust="spacing" textLength="247.5378" x="107.2886" y="417.4337">AuthorityRequest(action=Claim)</text><text fill="#243039" font-family="'Helvetica'" font-size="17.5" lengthAdjust="spacing" textLength="268.49" x="96.8125" y="434.9337">target = Group(UAV, group_id=42)</text></g><g class="message" data-entity-1="part2" data-entity-2="part1" id="msg4"><polygon fill="#5E6A71" points="91.4705,491.4583,76.8872,497.2917,91.4705,503.125,85.6372,497.2917" style="stroke:#5E6A71;stroke-width:1.4583;"/><line style="stroke:#5E6A71;stroke-width:1.6042;stroke-dasharray:2.9167,2.9167;" x1="82.7205" x2="385.2279" y1="497.2917" y2="497.2917"/><text fill="#243039" font-family="'Helvetica'" font-size="17.5" lengthAdjust="spacing" textLength="254.3481" x="103.8835" y="472.8503">AuthorityStatus(state=Controller)</text><text fill="#243039" font-family="'Helvetica'" font-size="17.5" lengthAdjust="spacing" textLength="132.8052" x="164.6549" y="490.3503">for group_id = 42</text></g><rect fill="#F4F6F7" height="4.375" rx="5.8333" ry="5.8333" style="stroke:#F4F6F7;stroke-width:1.4583;" width="861.383" x="0" y="537.3958"/><line style="stroke:#B7BDC2;stroke-width:1.4583;" x1="0" x2="861.383" y1="537.3958" y2="537.3958"/><line style="stroke:#B7BDC2;stroke-width:1.4583;" x1="0" x2="861.383" y1="541.7708" y2="541.7708"/><rect fill="#F4F6F7" height="30.625" rx="5.8333" ry="5.8333" style="stroke:#B7BDC2;stroke-width:2.9167;" width="180.5072" x="340.4379" y="523.5417"/><text fill="#243039" font-family="'Helvetica'" font-size="18.9583" font-weight="bold" lengthAdjust="spacing" textLength="154.8233" x="349.1879" y="543.9733">Group Command</text><g class="message" data-entity-1="part1" data-entity-2="part2" id="msg5"><polygon fill="#5E6A71" points="369.1862,624.1667,383.7695,630,369.1862,635.8333,375.0195,630" style="stroke:#5E6A71;stroke-width:1.4583;"/><line style="stroke:#5E6A71;stroke-width:1.6042;" x1="75.4289" x2="377.9362" y1="630" y2="630"/><text fill="#243039" font-family="'Helvetica'" font-size="17.5" lengthAdjust="spacing" textLength="202.2839" x="129.9156" y="588.0587">Command.FormationTask</text><text fill="#243039" font-family="'Helvetica'" font-size="17.5" lengthAdjust="spacing" textLength="168.7878" x="146.6636" y="605.5587">(target.group_id = 42)</text><text fill="#243039" font-family="'Helvetica'" font-size="17.5" lengthAdjust="spacing" textLength="173.6841" x="144.2155" y="623.0587">payload.group_id = 42</text></g><g class="message" data-entity-1="part2" data-entity-2="part1" id="msg6"><polygon fill="#5E6A71" points="91.4705,662.0833,76.8872,667.9167,91.4705,673.75,85.6372,667.9167" style="stroke:#5E6A71;stroke-width:1.4583;"/><line style="stroke:#5E6A71;stroke-width:1.6042;stroke-dasharray:2.9167,2.9167;" x1="82.7205" x2="385.2279" y1="667.9167" y2="667.9167"/><text fill="#243039" font-family="'Helvetica'" font-size="17.5" lengthAdjust="spacing" textLength="208.1458" x="126.9847" y="660.9753">CommandResult.Received</text></g><g class="message" data-entity-1="part2" data-entity-2="part1" id="msg7"><polygon fill="#5E6A71" points="91.4705,700,76.8872,705.8333,91.4705,711.6667,85.6372,705.8333" style="stroke:#5E6A71;stroke-width:1.4583;"/><line style="stroke:#5E6A71;stroke-width:1.6042;stroke-dasharray:2.9167,2.9167;" x1="82.7205" x2="385.2279" y1="705.8333" y2="705.8333"/><text fill="#243039" font-family="'Helvetica'" font-size="17.5" lengthAdjust="spacing" textLength="208.1543" x="126.9804" y="698.892">CommandResult.Accepted</text></g><g class="message" data-entity-1="part2" data-entity-2="part3" id="msg8"><polygon fill="#5E6A71" points="540.1206,737.9167,554.7039,743.75,540.1206,749.5833,545.9539,743.75" style="stroke:#5E6A71;stroke-width:1.4583;"/><line style="stroke:#5E6A71;stroke-width:1.6042;" x1="386.6862" x2="548.8706" y1="743.75" y2="743.75"/><text fill="#243039" font-family="'Helvetica'" font-size="17.5" lengthAdjust="spacing" textLength="105" x="419.6534" y="736.8087">&#25552;&#20132;&#32676;&#32452;&#20219;&#21153;</text></g><rect fill="#F4F6F7" height="4.375" rx="5.8333" ry="5.8333" style="stroke:#F4F6F7;stroke-width:1.4583;" width="861.383" x="0" y="783.8542"/><line style="stroke:#B7BDC2;stroke-width:1.4583;" x1="0" x2="861.383" y1="783.8542" y2="783.8542"/><line style="stroke:#B7BDC2;stroke-width:1.4583;" x1="0" x2="861.383" y1="788.2292" y2="788.2292"/><rect fill="#F4F6F7" height="30.625" rx="5.8333" ry="5.8333" style="stroke:#B7BDC2;stroke-width:2.9167;" width="206.8434" x="327.2698" y="770"/><text fill="#243039" font-family="'Helvetica'" font-size="18.9583" font-weight="bold" lengthAdjust="spacing" textLength="181.1595" x="336.0198" y="790.4316">Fan-out to Members</text><g class="message" data-entity-1="part3" data-entity-2="part4" id="msg9"><polygon fill="#5E6A71" points="704.4736,835.625,719.057,841.4583,704.4736,847.2917,710.307,841.4583" style="stroke:#5E6A71;stroke-width:1.4583;"/><line style="stroke:#5E6A71;stroke-width:1.6042;" x1="557.6206" x2="713.2236" y1="841.4583" y2="841.4583"/><text fill="#243039" font-family="'Helvetica'" font-size="17.5" lengthAdjust="spacing" textLength="129.353" x="575.1206" y="834.517">member subtask</text></g><g class="message" data-entity-1="part3" data-entity-2="part5" id="msg10"><polygon fill="#5E6A71" points="797.4132,873.5417,811.9965,879.375,797.4132,885.2083,803.2465,879.375" style="stroke:#5E6A71;stroke-width:1.4583;"/><line style="stroke:#5E6A71;stroke-width:1.6042;" x1="557.6206" x2="806.1632" y1="879.375" y2="879.375"/><text fill="#243039" font-family="'Helvetica'" font-size="17.5" lengthAdjust="spacing" textLength="129.353" x="621.5904" y="872.4337">member subtask</text></g><rect fill="#F4F6F7" height="4.375" rx="5.8333" ry="5.8333" style="stroke:#F4F6F7;stroke-width:1.4583;" width="861.383" x="0" y="919.4792"/><line style="stroke:#B7BDC2;stroke-width:1.4583;" x1="0" x2="861.383" y1="919.4792" y2="919.4792"/><line style="stroke:#B7BDC2;stroke-width:1.4583;" x1="0" x2="861.383" y1="923.8542" y2="923.8542"/><rect fill="#F4F6F7" height="30.625" rx="5.8333" ry="5.8333" style="stroke:#B7BDC2;stroke-width:2.9167;" width="191.1065" x="335.1382" y="905.625"/><text fill="#243039" font-family="'Helvetica'" font-size="18.9583" font-weight="bold" lengthAdjust="spacing" textLength="165.4226" x="343.8882" y="926.0566">Member Feedback</text><g class="message" data-entity-1="part4" data-entity-2="part2" id="msg11"><polygon fill="#5E6A71" points="402.7279,971.25,388.1445,977.0833,402.7279,982.9167,396.8945,977.0833" style="stroke:#5E6A71;stroke-width:1.4583;"/><line style="stroke:#5E6A71;stroke-width:1.6042;stroke-dasharray:2.9167,2.9167;" x1="393.9779" x2="720.5153" y1="977.0833" y2="977.0833"/><text fill="#243039" font-family="'Helvetica'" font-size="17.5" lengthAdjust="spacing" textLength="215.0073" x="446.8262" y="970.142">StateSnapshot / StateEvent</text></g><g class="message" data-entity-1="part5" data-entity-2="part2" id="msg12"><polygon fill="#5E6A71" points="402.7279,1009.1667,388.1445,1015,402.7279,1020.8333,396.8945,1015" style="stroke:#5E6A71;stroke-width:1.4583;"/><line style="stroke:#5E6A71;stroke-width:1.6042;stroke-dasharray:2.9167,2.9167;" x1="393.9779" x2="813.4548" y1="1015" y2="1015"/><text fill="#243039" font-family="'Helvetica'" font-size="17.5" lengthAdjust="spacing" textLength="215.0073" x="493.296" y="1008.0587">StateSnapshot / StateEvent</text></g><g class="message" data-entity-1="part2" data-entity-2="part1" id="msg13"><polygon fill="#5E6A71" points="91.4705,1047.0833,76.8872,1052.9167,91.4705,1058.75,85.6372,1052.9167" style="stroke:#5E6A71;stroke-width:1.4583;"/><line style="stroke:#5E6A71;stroke-width:1.6042;stroke-dasharray:2.9167,2.9167;" x1="82.7205" x2="385.2279" y1="1052.9167" y2="1052.9167"/><text fill="#243039" font-family="'Helvetica'" font-size="17.5" lengthAdjust="spacing" textLength="248.9905" x="106.5623" y="1045.9753">member-level state / event relay</text></g><rect fill="#F4F6F7" height="4.375" rx="5.8333" ry="5.8333" style="stroke:#F4F6F7;stroke-width:1.4583;" width="861.383" x="0" y="1093.0208"/><line style="stroke:#B7BDC2;stroke-width:1.4583;" x1="0" x2="861.383" y1="1093.0208" y2="1093.0208"/><line style="stroke:#B7BDC2;stroke-width:1.4583;" x1="0" x2="861.383" y1="1097.3958" y2="1097.3958"/><rect fill="#F4F6F7" height="30.625" rx="5.8333" ry="5.8333" style="stroke:#B7BDC2;stroke-width:2.9167;" width="145.7564" x="357.8133" y="1079.1667"/><text fill="#243039" font-family="'Helvetica'" font-size="18.9583" font-weight="bold" lengthAdjust="spacing" textLength="120.0725" x="366.5633" y="1099.5983">Group Result</text><g class="message" data-entity-1="part2" data-entity-2="part1" id="msg14"><polygon fill="#5E6A71" points="91.4705,1144.7917,76.8872,1150.625,91.4705,1156.4583,85.6372,1150.625" style="stroke:#5E6A71;stroke-width:1.4583;"/><line style="stroke:#5E6A71;stroke-width:1.6042;stroke-dasharray:2.9167,2.9167;" x1="82.7205" x2="385.2279" y1="1150.625" y2="1150.625"/><text fill="#243039" font-family="'Helvetica'" font-size="17.5" lengthAdjust="spacing" textLength="273.3093" x="94.4029" y="1143.6837">Group CommandResult.InProgress</text></g><g class="message" data-entity-1="part2" data-entity-2="part1" id="msg15"><polygon fill="#5E6A71" points="91.4705,1200.2083,76.8872,1206.0417,91.4705,1211.875,85.6372,1206.0417" style="stroke:#5E6A71;stroke-width:1.4583;"/><line style="stroke:#5E6A71;stroke-width:1.6042;stroke-dasharray:2.9167,2.9167;" x1="82.7205" x2="385.2279" y1="1206.0417" y2="1206.0417"/><text fill="#243039" font-family="'Helvetica'" font-size="17.5" lengthAdjust="spacing" textLength="276.2573" x="92.9289" y="1181.6003">Group CommandResult.Succeeded</text><text fill="#243039" font-family="'Helvetica'" font-size="17.5" lengthAdjust="spacing" textLength="248.0164" x="107.0494" y="1199.1003">or Failed / PartialSuccess policy</text></g><path d="M393.75,1230.8333 L393.75,1303.75 A5.8333,5.8333 0 0 0 399.5833,1309.5833 L711.6667,1309.5833 A5.8333,5.8333 0 0 0 717.5,1303.75 L717.5,1239.5833 L702.9167,1225 L399.5833,1225 A5.8333,5.8333 0 0 0 393.75,1230.8333" fill="#F7F5F1" style="stroke:#B7AEA1;stroke-width:0.7292;"/><path d="M702.9167,1225 L702.9167,1236.6667 A2.9167,2.9167 0 0 0 705.8333,1239.5833 L717.5,1239.5833 L702.9167,1225" fill="#F7F5F1" style="stroke:#B7AEA1;stroke-width:0.7292;"/><text fill="#2D3135" font-family="'Helvetica'" font-size="17.5" lengthAdjust="spacing" textLength="245" x="433.125" y="1245.767">&#36825;&#24352;&#22270;&#24517;&#39035;&#21516;&#26102;&#34920;&#36798;&#20004;&#23618;&#35821;&#20041;&#65306;</text><text fill="#2D3135" font-family="'Helvetica'" font-size="17.5" lengthAdjust="spacing" textLength="133.1897" x="489.0302" y="1263.267">- &#32676;&#32452;&#32423;&#21629;&#20196;&#32467;&#26524;</text><text fill="#2D3135" font-family="'Helvetica'" font-size="17.5" lengthAdjust="spacing" textLength="185.6897" x="462.7802" y="1280.767">- &#25104;&#21592;&#32423;&#29366;&#24577;&#19982;&#20107;&#20214;&#22238;&#27969;</text><text fill="#2D3135" font-family="'Helvetica'" font-size="17.5" lengthAdjust="spacing" textLength="280" x="415.625" y="1298.267">&#19981;&#33021;&#25226;&#23427;&#30011;&#25104;&#26222;&#36890;&#22810;&#21442;&#19982;&#26041;&#27969;&#27700;&#32447;&#12290;</text><?plantuml-src ZLHDJoD74BtFhwZ01QGO58HoMCb8nlAG72AjS3uu8A7sJ85RxkcUpFImwniVkn4XMM2LrIQ05oqh990s0I8b2Em5Vaocn-QKlv2QiK4uKJQvZCVLhrwzgdhJOOrBdmNC4ygfeGiLvjGM0XL9jwY42k1HbMkqFk3I4P6BC5UFfE2oDkS7IYj7YJbTHGz7UEG9ItCj44oZcMoV_FbknpHERrwzQR_TJZOEpTePV57u4cvslsbV7RHtdfXdcvtZOth6butanpFJtBIgd0hCAwKhwh5bCKTJ-O6fJ0kKDTDSoG5W8KoLBLAikSDz9ZKCb1-nm8EIT7t5fSuWvQzWi5Ion-pnVcZAvaFfCJeHiNVPPc3G_iWUjp_kXvBQN2535FuTC9a19ky0LZuFPGn3aWhvl3LLXjn4AkR1RVGJ54B1A1GYcfiaCgOHHcTbaVcimWNN74CwdaRcrYrAp54-iTpbGzBucUQQR1nrhdVDsYaK7CqNCIlSRIvbLW7NzRy9k8jFuzSHXdg81ao4-Q9Wt1kUbPe52wYXHpD4tNq8gH7yEUxcnyU6-zJSaQLxYSAXa7umNrHI1qe838XldhPtcq-iusFtD1QLvp7QQh_2NdJ4Le6NRVjp5jPcvL1NsKWV6HNmMLqevlR7-rJs2ASnZ8GUcKO7QLJkUo05nq5Vzo0JgJKUGBAv5JSFKjEsdiIjbbdVpngncSofI8DMy1bw5Gp2h9kPDAz0QLuMX32gQEgYTp3vpuEKgqi0DgARVdufKI6Js7LEEjkoP7vOLPgyaVqlBP9xhCd_XRhVRxTwJk0Y2iYsHbXCOH2WOFLxI-hE91Lpdw1lWRsnVIeV1ceX88V-9xGSqOZHHNTMaZzinWNTEQFmCFsmcCXEmn1y9RX3MgGYVG5Vg6fGyzIdrRdUDkzUczqhS_tqPhzbjhwdkwEpVzIvkehF3yolAvsJN-ABR-doiNBGtLcxUMYUNyOjUlyXsMjGF5dRCiz_edXx_InPMexFD-BcTt7hpEpk9RylM_7viyxgPRA-RevNsozQX4wsZs-MTip1ZjbS8NJoye9moUblxURr7qih5fAJKwL_0G00?></g></svg>