<?plantuml 1.2026.2?><svg xmlns="http://www.w3.org/2000/svg" xmlns:xlink="http://www.w3.org/1999/xlink" contentStyleType="text/css" data-diagram-type="STATE" height="1488.9583px" preserveAspectRatio="none" style="width:1357px;height:1488px;background:#FFFFFF;" version="1.1" viewBox="0 0 1357 1488" width="1357.7083px" zoomAndPan="magnify"><title>&#20250;&#35805;&#29366;&#24577;&#26426;</title><defs/><g><g class="title" data-source-line="2"><text fill="#1F2A33" font-family="'Helvetica'" font-size="26.25" font-weight="bold" lengthAdjust="spacing" textLength="131.25" x="603.7354" y="34.7963">&#20250;&#35805;&#29366;&#24577;&#26426;</text></g><g class="entity" data-qualified-name="Discovered" id="ent0002"><rect fill="#EEF2F4" height="72.9167" rx="5.8333" ry="5.8333" style="stroke:#5E6A71;stroke-width:0.7292;" width="109.4063" x="923.0813" y="183.75"/><line style="stroke:#5E6A71;stroke-width:0.7292;" x1="923.0813" x2="1032.4876" y1="214.375" y2="214.375"/><text fill="#243039" font-family="'Helvetica'" font-size="16.0417" lengthAdjust="spacing" textLength="80.2397" x="937.6646" y="203.3941">Discovered</text></g><g class="entity" data-qualified-name="Handshaking" id="ent0003"><rect fill="#F6E6BE" height="72.9167" rx="5.8333" ry="5.8333" style="stroke:#9A6B18;stroke-width:0.7292;" width="122.8083" x="916.3875" y="364.5833"/><line style="stroke:#9A6B18;stroke-width:0.7292;" x1="916.3875" x2="1039.1958" y1="395.2083" y2="395.2083"/><text fill="#243039" font-family="'Helvetica'" font-size="16.0417" lengthAdjust="spacing" textLength="93.6417" x="930.9708" y="384.2274">Handshaking</text></g><g class="entity" data-qualified-name="Authenticated" id="ent0004"><rect fill="#F6E6BE" height="72.9167" rx="5.8333" ry="5.8333" style="stroke:#9A6B18;stroke-width:0.7292;" width="127.2731" x="782.9063" y="545.4167"/><line style="stroke:#9A6B18;stroke-width:0.7292;" x1="782.9063" x2="910.1793" y1="576.0417" y2="576.0417"/><text fill="#243039" font-family="'Helvetica'" font-size="16.0417" lengthAdjust="spacing" textLength="98.1064" x="797.4896" y="565.0607">Authenticated</text></g><g class="entity" data-qualified-name="Negotiated" id="ent0005"><rect fill="#F6E6BE" height="72.9167" rx="5.8333" ry="5.8333" style="stroke:#9A6B18;stroke-width:0.7292;" width="106.7588" x="793.1583" y="726.25"/><line style="stroke:#9A6B18;stroke-width:0.7292;" x1="793.1583" x2="899.9172" y1="756.875" y2="756.875"/><text fill="#243039" font-family="'Helvetica'" font-size="16.0417" lengthAdjust="spacing" textLength="77.5922" x="807.7417" y="745.8941">Negotiated</text></g><g class="entity" data-qualified-name="Active" id="ent0006"><rect fill="#DCECDD" height="72.9167" rx="5.8333" ry="5.8333" style="stroke:#3F7047;stroke-width:0.7292;" width="72.9167" x="379.8667" y="907.0833"/><line style="stroke:#3F7047;stroke-width:0.7292;" x1="379.8667" x2="452.7833" y1="937.7083" y2="937.7083"/><text fill="#243039" font-family="'Helvetica'" font-size="16.0417" lengthAdjust="spacing" textLength="43.6838" x="394.4831" y="926.7274">Active</text></g><g class="entity" data-qualified-name="Draining" id="ent0007"><rect fill="#ECE8F6" height="72.9167" rx="5.8333" ry="5.8333" style="stroke:#6E5A9A;stroke-width:0.7292;" width="88.9078" x="10.2083" y="1105.4167"/><line style="stroke:#6E5A9A;stroke-width:0.7292;" x1="10.2083" x2="99.1161" y1="1136.0417" y2="1136.0417"/><text fill="#243039" font-family="'Helvetica'" font-size="16.0417" lengthAdjust="spacing" textLength="59.7411" x="24.7917" y="1125.0607">Draining</text></g><g class="entity" data-qualified-name="Closed" id="ent0008"><rect fill="#F6D8D5" height="72.9167" rx="5.8333" ry="5.8333" style="stroke:#9A4D46;stroke-width:0.7292;" width="79.1011" x="543.025" y="1286.25"/><line style="stroke:#9A4D46;stroke-width:0.7292;" x1="543.025" x2="622.1261" y1="1316.875" y2="1316.875"/><text fill="#243039" font-family="'Helvetica'" font-size="16.0417" lengthAdjust="spacing" textLength="49.9344" x="557.6083" y="1305.8941">Closed</text></g><g class="start_entity" data-qualified-name=".start." data-source-line="12" id="ent0002"><ellipse cx="977.7833" cy="80.2083" fill="#222222" rx="14.5833" ry="14.5833" style="stroke:#222222;stroke-width:1.4583;"/></g><g class="end_entity" data-qualified-name=".end." data-source-line="22" id="ent0013"><ellipse cx="582.575" cy="1464.1667" fill="none" rx="16.0417" ry="16.0417" style="stroke:#222222;stroke-width:1.4583;"/><ellipse cx="582.575" cy="1464.1667" fill="#222222" rx="8.75" ry="8.75" style="stroke:#222222;stroke-width:1.4583;"/></g><g class="entity" data-qualified-name="GMN2" data-source-line="25" id="ent0003"><path d="M1090.8042,373.3333 L1090.8042,395.2083 L1039.7333,401.0417 L1090.8042,406.875 L1090.8042,428.75 A5.8333,5.8333 0 0 0 1096.6375,434.5833 L1343.0958,434.5833 A5.8333,5.8333 0 0 0 1348.9292,428.75 L1348.9292,382.0833 L1334.3458,367.5 L1096.6375,367.5 A5.8333,5.8333 0 0 0 1090.8042,373.3333" fill="#F7F5F1" style="stroke:#B7AEA1;stroke-width:0.7292;"/><path d="M1334.3458,367.5 L1334.3458,379.1667 A2.9167,2.9167 0 0 0 1337.2625,382.0833 L1348.9292,382.0833 L1334.3458,367.5" fill="#F7F5F1" style="stroke:#B7AEA1;stroke-width:0.7292;"/><text fill="#2D3135" font-family="'Helvetica'" font-size="17.5" lengthAdjust="spacing" textLength="192.5" x="1117.0542" y="388.267">&#21069;&#32622;&#25569;&#25163;&#38454;&#27573;&#20851;&#24515;&#30340;&#26159;&#65306;</text><text fill="#2D3135" font-family="'Helvetica'" font-size="17.5" lengthAdjust="spacing" textLength="175" x="1125.8042" y="405.767">&#36523;&#20221;&#24314;&#31435;&#12289;&#35748;&#35777;&#23436;&#25104;&#12289;</text><text fill="#2D3135" font-family="'Helvetica'" font-size="17.5" lengthAdjust="spacing" textLength="227.5" x="1099.5542" y="423.267">&#26159;&#21542;&#20855;&#22791;&#36827;&#20837;&#25511;&#21046;&#38754;&#30340;&#36164;&#26684;&#12290;</text></g><g class="entity" data-qualified-name="GMN5" data-source-line="31" id="ent0006"><path d="M512.3271,1131.6667 L512.3271,1152.0833 A5.8333,5.8333 0 0 0 518.1604,1157.9167 L839.4979,1157.9167 A5.8333,5.8333 0 0 0 845.3312,1152.0833 L845.3312,1140.4167 L830.7479,1125.8333 L664.475,1125.8333 L453.3812,972.5771 L652.8083,1125.8333 L518.1604,1125.8333 A5.8333,5.8333 0 0 0 512.3271,1131.6667" fill="#F7F5F1" style="stroke:#B7AEA1;stroke-width:0.7292;"/><path d="M830.7479,1125.8333 L830.7479,1137.5 A2.9167,2.9167 0 0 0 833.6646,1140.4167 L845.3312,1140.4167 L830.7479,1125.8333" fill="#F7F5F1" style="stroke:#B7AEA1;stroke-width:0.7292;"/><text fill="#2D3135" font-family="'Helvetica'" font-size="17.5" lengthAdjust="spacing" textLength="302.3792" x="521.0771" y="1146.6003">&#21482;&#26377; Active &#20250;&#35805;&#25165;&#24212;&#25215;&#36733;&#25511;&#21046;&#31867;&#21629;&#20196;&#12290;</text></g><!--link *start* to Discovered--><g class="link" data-entity-1="ent0002" data-entity-2="ent0002" data-link-type="dependency" data-source-line="12" id="lnk3"><path d="M977.7833,95.3167 C977.7833,115.6312 977.7833,145.7604 977.7833,174.4896" fill="none" id="*start*-to-Discovered" style="stroke:#5E6A71;stroke-width:1.6042;"/><polygon fill="#5E6A71" points="977.7833,183.2396,983.6167,170.1146,977.7833,175.9479,971.95,170.1146,977.7833,183.2396" style="stroke:#5E6A71;stroke-width:1.6042;"/></g><!--link Discovered to Handshaking--><g class="link" data-entity-1="ent0002" data-entity-2="ent0003" data-link-type="dependency" data-source-line="13" id="lnk4"><path d="M977.7833,257.25 C977.7833,288.2687 977.7833,324.3042 977.7833,355.3229" fill="none" id="Discovered-to-Handshaking" style="stroke:#5E6A71;stroke-width:1.6042;"/><polygon fill="#5E6A71" points="977.7833,364.0729,983.6167,350.9479,977.7833,356.7812,971.95,350.9479,977.7833,364.0729" style="stroke:#5E6A71;stroke-width:1.6042;"/><text fill="#243039" font-family="'Helvetica'" font-size="17.5" lengthAdjust="spacing" textLength="102.1375" x="979.2417" y="315.3503">SessionHello</text></g><!--link Handshaking to Authenticated--><g class="link" data-entity-1="ent0003" data-entity-2="ent0004" data-link-type="dependency" data-source-line="14" id="lnk5"><path d="M916.0229,422.2021 C888.2563,434.4958 858.1854,453.4104 842.1583,481.25 C831.2354,500.2229 830.5982,516.1696 834.3753,536.105" fill="none" id="Handshaking-to-Authenticated" style="stroke:#5E6A71;stroke-width:1.6042;"/><polygon fill="#5E6A71" points="836.0042,544.7021,839.2923,530.7206,834.6468,537.5379,827.8295,532.8924,836.0042,544.7021" style="stroke:#5E6A71;stroke-width:1.6042;"/><text fill="#243039" font-family="'Helvetica'" font-size="17.5" lengthAdjust="spacing" textLength="227.6282" x="843.6167" y="496.1837">SessionAuthenticate success</text></g><!--link Handshaking to Closed--><g class="link" data-entity-1="ent0003" data-entity-2="ent0008" data-link-type="dependency" data-source-line="15" id="lnk6"><path d="M1034.8917,437.85 C1050.7875,449.9687 1066.8437,464.6979 1078.4083,481.25 C1104.95,519.225 1110.4917,534.1 1110.4917,580.4167 C1110.4917,580.4167 1110.4917,580.4167 1110.4917,1143.3333 C1110.4917,1246.2187 754.5748,1299.8827 631.3748,1315.4432" fill="none" id="Handshaking-to-Closed" style="stroke:#5E6A71;stroke-width:1.6042;"/><polygon fill="#5E6A71" points="622.6938,1316.5396,636.4463,1320.6823,629.9279,1315.6259,634.9843,1309.1076,622.6938,1316.5396" style="stroke:#5E6A71;stroke-width:1.6042;"/><text fill="#243039" font-family="'Helvetica'" font-size="17.5" lengthAdjust="spacing" textLength="190.6287" x="1111.95" y="857.8503">shared_secret mismatch</text></g><!--link Authenticated to Negotiated--><g class="link" data-entity-1="ent0004" data-entity-2="ent0005" data-link-type="dependency" data-source-line="16" id="lnk7"><path d="M843.7479,618.6688 C842.5667,637.5979 841.575,661.3104 842.1583,682.5 C842.5521,696.6021 842.8202,703.3696 843.6223,716.8592" fill="none" id="Authenticated-to-Negotiated" style="stroke:#5E6A71;stroke-width:1.6042;"/><polygon fill="#5E6A71" points="844.1417,725.5937,849.1857,712.1457,843.7089,718.3149,837.5396,712.8381,844.1417,725.5937" style="stroke:#5E6A71;stroke-width:1.6042;"/><text fill="#243039" font-family="'Helvetica'" font-size="17.5" lengthAdjust="spacing" textLength="228.6108" x="843.6167" y="677.017">SessionCapabilities accepted</text></g><!--link Negotiated to Active--><g class="link" data-entity-1="ent0005" data-entity-2="ent0006" data-link-type="dependency" data-source-line="17" id="lnk8"><path d="M792.7208,776.4167 C738.9958,789.5708 654.6896,812.7146 585.4917,842.9167 C537.7604,863.7562 493.9829,890.3204 460.5871,912.1663" fill="none" id="Negotiated-to-Active" style="stroke:#5E6A71;stroke-width:1.6042;"/><polygon fill="#5E6A71" points="453.2646,916.9563,467.4416,914.6529,459.3666,912.9646,461.055,904.8896,453.2646,916.9563" style="stroke:#5E6A71;stroke-width:1.6042;"/><text fill="#243039" font-family="'Helvetica'" font-size="17.5" lengthAdjust="spacing" textLength="296.1841" x="586.95" y="857.8503">SessionReady + protocol major match</text></g><!--link Negotiated to Closed--><g class="link" data-entity-1="ent0005" data-entity-2="ent0008" data-link-type="dependency" data-source-line="18" id="lnk9"><path d="M871.3396,799.7792 C878.9812,812.7583 886.4042,827.925 890.2833,842.9167 C893.5938,855.7063 919.3042,1106 871.325,1178.3333 C813.8229,1265.0313 696.0155,1299.4407 631.2072,1312.7262" fill="none" id="Negotiated-to-Closed" style="stroke:#5E6A71;stroke-width:1.6042;"/><polygon fill="#5E6A71" points="622.6354,1314.4833,636.6645,1317.5621,629.7785,1313.019,634.3216,1306.1331,622.6354,1314.4833" style="stroke:#5E6A71;stroke-width:1.6042;"/><text fill="#243039" font-family="'Helvetica'" font-size="17.5" lengthAdjust="spacing" textLength="152.6892" x="901.3229" y="1038.6837">capability mismatch</text><text fill="#243039" font-family="'Helvetica'" font-size="17.5" lengthAdjust="spacing" textLength="143.9136" x="905.7107" y="1056.1837">or major mismatch</text></g><!--link Active to Draining--><g class="link" data-entity-1="ent0006" data-entity-2="ent0007" data-link-type="dependency" data-source-line="19" id="lnk10"><path d="M379.2687,947.1146 C293.6937,952.875 86.4208,971.9646 44.45,1023.75 C26.2792,1046.1792 28.7101,1071.2918 36.8914,1096.6376" fill="none" id="Active-to-Draining" style="stroke:#5E6A71;stroke-width:1.6042;"/><polygon fill="#5E6A71" points="39.5792,1104.9646,41.0987,1090.6823,37.3393,1098.0255,29.9961,1094.266,39.5792,1104.9646" style="stroke:#5E6A71;stroke-width:1.6042;"/><text fill="#243039" font-family="'Helvetica'" font-size="17.5" lengthAdjust="spacing" textLength="157.5854" x="45.9083" y="1038.6837">transport disconnect</text><text fill="#243039" font-family="'Helvetica'" font-size="17.5" lengthAdjust="spacing" textLength="128.396" x="60.5031" y="1056.1837">or graceful close</text></g><!--link Active to Closed--><g class="link" data-entity-1="ent0006" data-entity-2="ent0008" data-link-type="dependency" data-source-line="20" id="lnk11"><path d="M379.6042,969.9083 C321.2562,1012.6375 218.7792,1102.6167 267.575,1178.3333 C329.2188,1273.9854 463.5522,1305.0678 533.6834,1315.422" fill="none" id="Active-to-Closed" style="stroke:#5E6A71;stroke-width:1.6042;"/><polygon fill="#5E6A71" points="542.3396,1316.7,530.2073,1309.0122,535.1261,1315.635,528.5033,1320.5538,542.3396,1316.7" style="stroke:#5E6A71;stroke-width:1.6042;"/><text fill="#243039" font-family="'Helvetica'" font-size="17.5" lengthAdjust="spacing" textLength="215.9387" x="269.0333" y="1146.6003">explicit close / fatal violation</text></g><!--link Draining to Closed--><g class="link" data-entity-1="ent0007" data-entity-2="ent0008" data-link-type="dependency" data-source-line="21" id="lnk12"><path d="M48.4313,1178.9458 C46.8854,1200.1063 49.1167,1225.9625 64.8667,1242.5 C130.2438,1311.1146 423.792,1320.1199 533.7212,1321.1262" fill="none" id="Draining-to-Closed" style="stroke:#5E6A71;stroke-width:1.6042;"/><polygon fill="#5E6A71" points="542.4708,1321.2063,529.3998,1315.253,535.1795,1321.1395,529.293,1326.9192,542.4708,1321.2063" style="stroke:#5E6A71;stroke-width:1.6042;"/><text fill="#243039" font-family="'Helvetica'" font-size="17.5" lengthAdjust="spacing" textLength="137.1716" x="66.325" y="1237.017">cleanup complete</text></g><!--link Closed to *end*--><g class="link" data-entity-1="ent0008" data-entity-2="ent0013" data-link-type="dependency" data-source-line="22" id="lnk14"><path d="M582.575,1359.8375 C582.575,1388.3917 582.575,1418.2146 582.575,1439.0833" fill="none" id="Closed-to-*end*" style="stroke:#5E6A71;stroke-width:1.6042;"/><polygon fill="#5E6A71" points="582.575,1447.8333,588.4083,1434.7083,582.575,1440.5417,576.7417,1434.7083,582.575,1447.8333" style="stroke:#5E6A71;stroke-width:1.6042;"/></g><?plantuml-src RLD1JnGn6BttLtnorA1tGaZCSk340RofsNGxtTswdNRITb1ke6naHGGJ3sI5H0rg8iaIOy1abmq_1ZexdFmBTcPsPcULMx_slU-zlg_LBIO2hB3F9MbH3sgOj1fAXiAhI2uLF6yoGz4T9WWFFGhLzL1m9bhLG4aZYUHLqwG-lSz2doF33ATmVT6DJuz6RywZZStei8-GDjXGc5baciWrggWt0rZ3f8Jv-MKQ6eNvma8ENiB2qqtip3LITAbsy4SA2ytC1FumT3Q4OSHLMVkfdTieoxGX3Ilma_BM_iImDPerJfSEb2rM4y04kAWm4xdfl4WwKkKpKRvXXKizriwM3hN2TCiXqEExJs5sTg6K4Ih5bPoKyvY3LQerasA9SYvH-IY1JYTHWClRe4D2tFP_tB6pEN2RJhggAL7KWC-qZmrfekdU2QEKOo5LmG6kCSuCengmKmhSCIeXKvjPhWLfXM9l7Uv1_j30ny_SUynq_-4MDackj5vuV29ILiejR6TQQSJvZER095CFf3BW9M4BGOb9sGs52Qs774YYKsONmlH5m1bX9eF00wXZWpciCScnSRT1XSwqNqwn20CWqWyuTHzjV9A0t2D0I4Wt7SKQJGEoNfuwiftTqR0NxNsEEZit1-THxyosVzdBLwFkLdHm-kUYY-B-oVLWQ0VzqSdErSPct3kEJpTjxssqlUzAv51s_vjj_xR7h-FBZxRzDNhttMwVtnnzSJtYiwteqyNLnaj4XGU9ZR6PcZH6-ecRB0Taztv4XvryVjdlZpgxjlyXwbp6ms7MTVHpODyFhmV7vPP_0G00?></g></svg>