<?plantuml 1.2026.2?><svg xmlns="http://www.w3.org/2000/svg" xmlns:xlink="http://www.w3.org/1999/xlink" contentStyleType="text/css" data-diagram-type="STATE" height="1040px" preserveAspectRatio="none" style="width:394px;height:1040px;background:#FFFFFF;" version="1.1" viewBox="0 0 394 1040" width="394px" zoomAndPan="magnify"><title>&#20250;&#35805;&#29366;&#24577;&#26426;</title><defs/><g><g class="title" data-source-line="1"><text fill="#000000" font-family="sans-serif" font-size="14" font-weight="bold" lengthAdjust="spacing" textLength="70" x="155.325" y="23.5352">&#20250;&#35805;&#29366;&#24577;&#26426;</text></g><g class="start_entity" data-qualified-name=".start." data-source-line="5" id="ent0002"><ellipse cx="237.65" cy="53.4883" fill="#222222" rx="10" ry="10" style="stroke:#222222;stroke-width:1;"/></g><g class="entity" data-qualified-name="Discovered" id="ent0003"><rect fill="#F1F1F1" height="50" rx="12.5" ry="12.5" style="stroke:#181818;stroke-width:0.5;" width="94.8262" x="190.24" y="124.4883"/><line style="stroke:#181818;stroke-width:0.5;" x1="190.24" x2="285.0662" y1="150.9766" y2="150.9766"/><text fill="#000000" font-family="sans-serif" font-size="14" lengthAdjust="spacing" textLength="74.8262" x="200.24" y="143.0234">Discovered</text></g><g class="entity" data-qualified-name="Handshaking" id="ent0005"><rect fill="#F1F1F1" height="50" rx="12.5" ry="12.5" style="stroke:#181818;stroke-width:0.5;" width="108.7236" x="183.29" y="251.4883"/><line style="stroke:#181818;stroke-width:0.5;" x1="183.29" x2="292.0136" y1="277.9766" y2="277.9766"/><text fill="#000000" font-family="sans-serif" font-size="14" lengthAdjust="spacing" textLength="88.7236" x="193.29" y="270.0234">Handshaking</text></g><g class="entity" data-qualified-name="Authenticated" id="ent0007"><rect fill="#F1F1F1" height="50" rx="12.5" ry="12.5" style="stroke:#181818;stroke-width:0.5;" width="114.7939" x="80.25" y="378.4883"/><line style="stroke:#181818;stroke-width:0.5;" x1="80.25" x2="195.0439" y1="404.9766" y2="404.9766"/><text fill="#000000" font-family="sans-serif" font-size="14" lengthAdjust="spacing" textLength="94.7939" x="90.25" y="397.0234">Authenticated</text></g><g class="entity" data-qualified-name="Closed" id="ent0009"><rect fill="#F1F1F1" height="50" rx="12.5" ry="12.5" style="stroke:#181818;stroke-width:0.5;" width="66.0811" x="126.61" y="901.4883"/><line style="stroke:#181818;stroke-width:0.5;" x1="126.61" x2="192.6911" y1="927.9766" y2="927.9766"/><text fill="#000000" font-family="sans-serif" font-size="14" lengthAdjust="spacing" textLength="46.0811" x="136.61" y="920.0234">Closed</text></g><g class="entity" data-qualified-name="Negotiated" id="ent0011"><rect fill="#F1F1F1" height="50" rx="12.5" ry="12.5" style="stroke:#181818;stroke-width:0.5;" width="94.334" x="68.48" y="505.4883"/><line style="stroke:#181818;stroke-width:0.5;" x1="68.48" x2="162.814" y1="531.9766" y2="531.9766"/><text fill="#000000" font-family="sans-serif" font-size="14" lengthAdjust="spacing" textLength="74.334" x="78.48" y="524.0234">Negotiated</text></g><g class="entity" data-qualified-name="Active" id="ent0013"><rect fill="#F1F1F1" height="50" rx="12.5" ry="12.5" style="stroke:#181818;stroke-width:0.5;" width="61.1592" x="85.07" y="632.4883"/><line style="stroke:#181818;stroke-width:0.5;" x1="85.07" x2="146.2292" y1="658.9766" y2="658.9766"/><text fill="#000000" font-family="sans-serif" font-size="14" lengthAdjust="spacing" textLength="41.1592" x="95.07" y="651.0234">Active</text></g><g class="entity" data-qualified-name="Draining" id="ent0016"><rect fill="#F1F1F1" height="50" rx="12.5" ry="12.5" style="stroke:#181818;stroke-width:0.5;" width="78.1465" x="202.58" y="774.4883"/><line style="stroke:#181818;stroke-width:0.5;" x1="202.58" x2="280.7265" y1="800.9766" y2="800.9766"/><text fill="#000000" font-family="sans-serif" font-size="14" lengthAdjust="spacing" textLength="58.1465" x="212.58" y="793.0234">Draining</text></g><g class="end_entity" data-qualified-name=".end." data-source-line="15" id="ent0020"><ellipse cx="159.65" cy="1023.4883" fill="none" rx="11" ry="11" style="stroke:#222222;stroke-width:1;"/><ellipse cx="159.65" cy="1023.4883" fill="#222222" rx="6" ry="6" style="stroke:#222222;stroke-width:1;"/></g><!--link *start* to Discovered--><g class="link" data-entity-1="ent0002" data-entity-2="ent0003" data-link-type="dependency" data-source-line="5" id="lnk4"><path d="M237.65,63.8483 C237.65,77.7783 237.65,98.4383 237.65,118.1383" fill="none" id="*start*-to-Discovered" style="stroke:#181818;stroke-width:1;"/><polygon fill="#181818" points="237.65,124.1383,241.65,115.1383,237.65,119.1383,233.65,115.1383,237.65,124.1383" style="stroke:#181818;stroke-width:1;"/></g><!--link Discovered to Handshaking--><g class="link" data-entity-1="ent0003" data-entity-2="ent0005" data-link-type="dependency" data-source-line="6" id="lnk6"><path d="M237.65,174.8883 C237.65,196.9083 237.65,223.1483 237.65,245.1483" fill="none" id="Discovered-to-Handshaking" style="stroke:#181818;stroke-width:1;"/><polygon fill="#181818" points="237.65,251.1483,241.65,242.1483,237.65,246.1483,233.65,242.1483,237.65,251.1483" style="stroke:#181818;stroke-width:1;"/><text fill="#000000" font-family="sans-serif" font-size="13" lengthAdjust="spacing" textLength="79.606" x="238.65" y="218.0566">SessionHello</text></g><!--link Handshaking to Authenticated--><g class="link" data-entity-1="ent0005" data-entity-2="ent0007" data-link-type="dependency" data-source-line="7" id="lnk8"><path d="M183,300.4883 C169.87,308.4783 157.19,318.7183 148.65,331.4883 C139.49,345.1783 137.0276,357.6206 136.6176,372.2906" fill="none" id="Handshaking-to-Authenticated" style="stroke:#181818;stroke-width:1;"/><polygon fill="#181818" points="136.45,378.2883,140.6999,369.4035,136.5897,373.2902,132.703,369.18,136.45,378.2883" style="stroke:#181818;stroke-width:1;"/><text fill="#000000" font-family="sans-serif" font-size="13" lengthAdjust="spacing" textLength="157.2632" x="149.65" y="345.0566">SessionAuthenticate &#25104;&#21151;</text></g><!--link Handshaking to Closed--><g class="link" data-entity-1="ent0005" data-entity-2="ent0009" data-link-type="dependency" data-source-line="8" id="lnk10"><path d="M280.53,301.7483 C291.97,309.9383 303.42,319.9683 311.65,331.4883 C330.86,358.3683 333.65,369.4483 333.65,402.4883 C333.65,402.4883 333.65,402.4883 333.65,800.4883 C333.65,869.1183 249.0521,902.1458 198.5721,916.1358" fill="none" id="Handshaking-to-Closed" style="stroke:#181818;stroke-width:1;"/><polygon fill="#181818" points="192.79,917.7383,202.5314,919.1893,197.6084,916.4029,200.3948,911.4799,192.79,917.7383" style="stroke:#181818;stroke-width:1;"/><text fill="#000000" font-family="sans-serif" font-size="13" lengthAdjust="spacing" textLength="52" x="334.65" y="599.0566">&#35748;&#35777;&#22833;&#36133;</text></g><!--link Authenticated to Negotiated--><g class="link" data-entity-1="ent0007" data-entity-2="ent0011" data-link-type="dependency" data-source-line="9" id="lnk12"><path d="M133.35,428.8883 C129.48,450.9083 124.8521,477.2395 120.9721,499.2395" fill="none" id="Authenticated-to-Negotiated" style="stroke:#181818;stroke-width:1;"/><polygon fill="#181818" points="119.93,505.1483,125.4324,496.9798,120.7984,500.2243,117.5539,495.5903,119.93,505.1483" style="stroke:#181818;stroke-width:1;"/><text fill="#000000" font-family="sans-serif" font-size="13" lengthAdjust="spacing" textLength="150.9028" x="128.97" y="472.0566">SessionCapabilities &#25509;&#21463;</text></g><!--link Negotiated to Active--><g class="link" data-entity-1="ent0011" data-entity-2="ent0013" data-link-type="dependency" data-source-line="10" id="lnk14"><path d="M115.65,555.8883 C115.65,577.9083 115.65,604.1483 115.65,626.1483" fill="none" id="Negotiated-to-Active" style="stroke:#181818;stroke-width:1;"/><polygon fill="#181818" points="115.65,632.1483,119.65,623.1483,115.65,627.1483,111.65,623.1483,115.65,632.1483" style="stroke:#181818;stroke-width:1;"/><text fill="#000000" font-family="sans-serif" font-size="13" lengthAdjust="spacing" textLength="170.1743" x="116.65" y="599.0566">SessionReady + major &#21305;&#37197;</text></g><!--link Negotiated to Closed--><g class="link" data-entity-1="ent0011" data-entity-2="ent0009" data-link-type="dependency" data-source-line="11" id="lnk15"><path d="M93.5,555.9683 C60.85,595.1183 6,674.5683 28.65,744.4883 C49.39,808.5183 97.9739,864.6193 129.8439,896.8893" fill="none" id="Negotiated-to-Closed" style="stroke:#181818;stroke-width:1;"/><polygon fill="#181818" points="134.06,901.1583,130.5819,891.944,130.5466,897.6008,124.8898,897.5655,134.06,901.1583" style="stroke:#181818;stroke-width:1;"/><text fill="#000000" font-family="sans-serif" font-size="13" lengthAdjust="spacing" textLength="79.6885" x="29.65" y="733.5566">major &#19981;&#21305;&#37197;</text></g><!--link Active to Draining--><g class="link" data-entity-1="ent0013" data-entity-2="ent0016" data-link-type="dependency" data-source-line="12" id="lnk17"><path d="M137.6,682.8783 C160.72,708.5683 192.9063,744.3284 215.9363,769.9184" fill="none" id="Active-to-Draining" style="stroke:#181818;stroke-width:1;"/><polygon fill="#181818" points="219.95,774.3783,216.9027,765.0127,216.6053,770.6617,210.9562,770.3643,219.95,774.3783" style="stroke:#181818;stroke-width:1;"/><text fill="#000000" font-family="sans-serif" font-size="13" lengthAdjust="spacing" textLength="88.5181" x="190.93" y="726.0566">transport &#26029;&#36830;</text><text fill="#000000" font-family="sans-serif" font-size="13" lengthAdjust="spacing" textLength="65" x="202.689" y="741.3672">&#25110;&#20027;&#21160;&#25910;&#23614;</text></g><!--link Draining to Closed--><g class="link" data-entity-1="ent0016" data-entity-2="ent0009" data-link-type="dependency" data-source-line="13" id="lnk18"><path d="M225.64,824.8883 C211.2,846.9083 193.3423,874.1323 178.9023,896.1323" fill="none" id="Draining-to-Closed" style="stroke:#181818;stroke-width:1;"/><polygon fill="#181818" points="175.61,901.1483,183.8925,895.8191,178.3536,896.9683,177.2045,891.4294,175.61,901.1483" style="stroke:#181818;stroke-width:1;"/><text fill="#000000" font-family="sans-serif" font-size="13" lengthAdjust="spacing" textLength="52" x="206.56" y="868.0566">&#28165;&#29702;&#23436;&#25104;</text></g><!--link Active to Closed--><g class="link" data-entity-1="ent0013" data-entity-2="ent0009" data-link-type="dependency" data-source-line="14" id="lnk19"><path d="M116.41,682.8783 C117.75,715.4183 121.34,774.7083 130.65,824.4883 C135.65,851.2083 142.7797,875.3372 149.4297,895.6072" fill="none" id="Active-to-Closed" style="stroke:#181818;stroke-width:1;"/><polygon fill="#181818" points="151.3,901.3083,152.2952,891.5098,149.7414,896.5574,144.6938,894.0036,151.3,901.3083" style="stroke:#181818;stroke-width:1;"/><text fill="#000000" font-family="sans-serif" font-size="13" lengthAdjust="spacing" textLength="52" x="131.65" y="804.5566">&#26174;&#24335;&#20851;&#38381;</text></g><!--link Closed to *end*--><g class="link" data-entity-1="ent0009" data-entity-2="ent0020" data-link-type="dependency" data-source-line="15" id="lnk21"><path d="M159.65,951.9483 C159.65,971.5283 159.65,991.9783 159.65,1006.2883" fill="none" id="Closed-to-*end*" style="stroke:#181818;stroke-width:1;"/><polygon fill="#181818" points="159.65,1012.2883,163.65,1003.2883,159.65,1007.2883,155.65,1003.2883,159.65,1012.2883" style="stroke:#181818;stroke-width:1;"/></g><?plantuml-src TP4zJm8n6CVtVehE6hw0Wud1WSb1HtKeTnNgbVRI5eYR31X2G1WC6EFB0eaBBqP3K0b-6LgER-7TWToXSMkUv_Vxvyc_qY7CHGBbABSSRCCqifoCu7bc9pdb0XQpH66WYA8OpYPttk1XNXsPovAv_m3on_t7YlOoYsnU92m3pn2L683ZhLEOIEp2VI8jNi02so1wXfiKOhQlEO6q0u-mb8Ip5AQKW_WgGFVoAekP8XPIlho6usDeAarTVVgZ9YcNeUFrEzwWf3iltbiNR0O6t07ES4KsyvF8HMb2YI9OGdFTrOqsY77XPPOY1HmfXnZP5t0Rvj2vtvAklI_AzT_E-gGbD1lNLzmgBAnD8CAMpIY1c7IvKD2qUjxNumapbTPi_Achp-Pcf8TJi8OtqisuF6zUwNxDRoOU7G6tKprfwFBhejq3gsa0-5_t3G00?></g></svg>