<?plantuml 1.2026.2?><svg xmlns="http://www.w3.org/2000/svg" xmlns:xlink="http://www.w3.org/1999/xlink" contentStyleType="text/css" data-diagram-type="DESCRIPTION" height="813.75px" preserveAspectRatio="none" style="width:959px;height:813px;background:#FFFFFF;" version="1.1" viewBox="0 0 959 813" width="959.5833px" zoomAndPan="magnify"><title>&#29366;&#24577;&#38754;&#19982;&#20107;&#20214;&#38754;&#36793;&#30028;</title><defs/><g><g class="title" data-source-line="2"><text fill="#1F2A33" font-family="'Helvetica'" font-size="26.25" font-weight="bold" lengthAdjust="spacing" textLength="236.25" x="352.0781" y="34.7963">&#29366;&#24577;&#38754;&#19982;&#20107;&#20214;&#38754;&#36793;&#30028;</text></g><!--cluster Vehicle / Onboard Side--><g class="cluster" data-qualified-name="Vehicle . Onboard Side" data-source-line="5" id="ent0002"><rect fill="#EEF2F4" height="447.7083" rx="7.2917" ry="7.2917" style="stroke:#5E6A71;stroke-width:1.4583;" width="288.6771" x="68.1187" y="357.2917"/><text fill="#243039" font-family="'Helvetica'" font-size="18.9583" font-style="italic" lengthAdjust="spacing" textLength="82.2021" x="171.3562" y="374.8066">&#171;Neutral&#187;</text><text fill="#243039" font-family="'Helvetica'" font-size="18.9583" font-weight="bold" lengthAdjust="spacing" textLength="206.4866" x="109.214" y="393.765">Vehicle / Onboard Side</text></g><!--cluster Ground Station Side--><g class="cluster" data-qualified-name="Ground Station Side" data-source-line="11" id="ent0006"><rect fill="#EEF2F4" height="409.7917" rx="7.2917" ry="7.2917" style="stroke:#5E6A71;stroke-width:1.4583;" width="282.4208" x="669.6521" y="385"/><text fill="#243039" font-family="'Helvetica'" font-size="18.9583" font-style="italic" lengthAdjust="spacing" textLength="82.2021" x="769.7614" y="402.515">&#171;Neutral&#187;</text><text fill="#243039" font-family="'Helvetica'" font-size="18.9583" font-weight="bold" lengthAdjust="spacing" textLength="183.2608" x="719.2321" y="421.4733">Ground Station Side</text></g><!--entity sampler--><g class="entity" data-qualified-name="Vehicle . Onboard Side.sampler" data-source-line="6" id="ent0003"><rect fill="#DCECDD" height="86.0417" rx="5.8333" ry="5.8333" width="209.3079" x="107.8" y="422.1875"/><text fill="#243039" font-family="'Helvetica'" font-size="18.9583" font-style="italic" lengthAdjust="spacing" textLength="113.8426" x="155.5326" y="451.3691">&#171;StatePlane&#187;</text><text fill="#243039" font-family="'Helvetica'" font-size="18.9583" lengthAdjust="spacing" textLength="164.4136" x="130.2472" y="470.3275">Snapshot Publisher</text><text fill="#243039" font-family="'Helvetica'" font-size="18.9583" lengthAdjust="spacing" textLength="180.1412" x="122.3833" y="489.2858">&#21608;&#26399;&#37319;&#26679; / latest view</text></g><!--entity detector--><g class="entity" data-qualified-name="Vehicle . Onboard Side.detector" data-source-line="7" id="ent0004"><rect fill="#F6E6BE" height="86.0417" rx="5.8333" ry="5.8333" width="232.5059" x="96.2063" y="559.2708"/><text fill="#243039" font-family="'Helvetica'" font-size="18.9583" font-style="italic" lengthAdjust="spacing" textLength="82.2021" x="171.3581" y="588.4525">&#171;Control&#187;</text><text fill="#243039" font-family="'Helvetica'" font-size="18.9583" lengthAdjust="spacing" textLength="132.7824" x="146.068" y="607.4108">Event Publisher</text><text fill="#243039" font-family="'Helvetica'" font-size="18.9583" lengthAdjust="spacing" textLength="203.3392" x="110.7896" y="626.3691">&#20851;&#38190;&#21464;&#21270; / sparse signal</text></g><!--entity producer--><g class="entity" data-qualified-name="Vehicle . Onboard Side.producer" data-source-line="8" id="ent0005"><rect fill="#DCEBFA" height="86.0417" rx="5.8333" ry="5.8333" width="242.0036" x="91.4521" y="696.3542"/><text fill="#243039" font-family="'Helvetica'" font-size="18.9583" font-style="italic" lengthAdjust="spacing" textLength="57.9673" x="183.4702" y="725.5358">&#171;Bulk&#187;</text><text fill="#243039" font-family="'Helvetica'" font-size="18.9583" lengthAdjust="spacing" textLength="212.8369" x="106.0354" y="744.4941">Bulk Descriptor Publisher</text><text fill="#243039" font-family="'Helvetica'" font-size="18.9583" lengthAdjust="spacing" textLength="199.1736" x="112.8671" y="763.4525">URI / channel metadata</text></g><!--entity sub_state--><g class="entity" data-qualified-name="Ground Station Side.sub_state" data-source-line="12" id="ent0007"><rect fill="#DCECDD" height="67.0833" rx="5.8333" ry="5.8333" width="164.0504" x="728.8313" y="450.625"/><text fill="#243039" font-family="'Helvetica'" font-size="18.9583" font-style="italic" lengthAdjust="spacing" textLength="113.8426" x="753.9352" y="479.8066">&#171;StatePlane&#187;</text><text fill="#243039" font-family="'Helvetica'" font-size="18.9583" lengthAdjust="spacing" textLength="134.8837" x="743.4146" y="498.765">StateSubscriber</text></g><!--entity sub_event--><g class="entity" data-qualified-name="Ground Station Side.sub_event" data-source-line="13" id="ent0008"><rect fill="#F6E6BE" height="67.0833" rx="5.8333" ry="5.8333" width="168.2623" x="726.7312" y="568.75"/><text fill="#243039" font-family="'Helvetica'" font-size="18.9583" font-style="italic" lengthAdjust="spacing" textLength="82.2021" x="769.7613" y="597.9316">&#171;Control&#187;</text><text fill="#243039" font-family="'Helvetica'" font-size="18.9583" lengthAdjust="spacing" textLength="139.0957" x="741.3146" y="616.89">EventSubscriber</text></g><!--entity sub_bulk--><g class="entity" data-qualified-name="Ground Station Side.sub_bulk" data-source-line="14" id="ent0009"><rect fill="#DCEBFA" height="86.0417" rx="5.8333" ry="5.8333" width="235.7551" x="692.9854" y="686.1458"/><text fill="#243039" font-family="'Helvetica'" font-size="18.9583" font-style="italic" lengthAdjust="spacing" textLength="57.9673" x="781.8793" y="715.3275">&#171;Bulk&#187;</text><text fill="#243039" font-family="'Helvetica'" font-size="18.9583" lengthAdjust="spacing" textLength="129.598" x="746.064" y="734.2858">Bulk Consumer</text><text fill="#243039" font-family="'Helvetica'" font-size="18.9583" lengthAdjust="spacing" textLength="206.5884" x="707.5687" y="753.2441">out-of-band content path</text></g><g class="entity" data-qualified-name="GMN13" data-source-line="22" id="ent0014"><path d="M48.4021,290.2083 L48.4021,328.125 A5.8333,5.8333 0 0 0 54.2354,333.9583 L206.6313,333.9583 L212.4646,421.925 L218.2979,333.9583 L370.6937,333.9583 A5.8333,5.8333 0 0 0 376.5271,328.125 L376.5271,298.9583 L361.9437,284.375 L54.2354,284.375 A5.8333,5.8333 0 0 0 48.4021,290.2083" fill="#F7F5F1" style="stroke:#B7AEA1;stroke-width:0.7292;"/><path d="M361.9437,284.375 L361.9437,296.0417 A2.9167,2.9167 0 0 0 364.8604,298.9583 L376.5271,298.9583 L361.9437,284.375" fill="#F7F5F1" style="stroke:#B7AEA1;stroke-width:0.7292;"/><text fill="#2D3135" font-family="'Helvetica'" font-size="17.5" lengthAdjust="spacing" textLength="271.3098" x="70.2472" y="305.142">Snapshot &#29992;&#20110;&#37325;&#24314;&#24403;&#21069;&#26680;&#24515;&#29366;&#24577;&#65292;</text><text fill="#2D3135" font-family="'Helvetica'" font-size="17.5" lengthAdjust="spacing" textLength="297.5" x="57.1521" y="322.642">&#19981;&#24212;&#25658;&#24102;&#19968;&#27425;&#24615;&#25925;&#38556;&#25991;&#26412;&#25110;&#21578;&#35686;&#25514;&#36766;&#12290;</text></g><g class="entity" data-qualified-name="GMN16" data-source-line="27" id="ent0017"><path d="M57.1521,189.5833 L57.1521,227.5 A5.8333,5.8333 0 0 0 62.9854,233.3333 L361.9437,233.3333 A5.8333,5.8333 0 0 0 367.7771,227.5 L367.7771,198.3333 L353.1937,183.75 L62.9854,183.75 A5.8333,5.8333 0 0 0 57.1521,189.5833" fill="#F7F5F1" style="stroke:#B7AEA1;stroke-width:0.7292;"/><path d="M353.1937,183.75 L353.1937,195.4167 A2.9167,2.9167 0 0 0 356.1104,198.3333 L367.7771,198.3333 L353.1937,183.75" fill="#F7F5F1" style="stroke:#B7AEA1;stroke-width:1.4583;"/><text fill="#2D3135" font-family="'Helvetica'" font-size="17.5" lengthAdjust="spacing" textLength="207.1118" x="102.3462" y="204.517">Event &#29992;&#20110;&#34920;&#36798;&#20851;&#38190;&#21464;&#21270;&#65292;</text><text fill="#2D3135" font-family="'Helvetica'" font-size="17.5" lengthAdjust="spacing" textLength="280" x="65.9021" y="222.017">&#19981;&#24212;&#29992;&#26469;&#25340;&#20986;&#23436;&#25972;&#23039;&#24577;&#25110;&#20840;&#37327;&#29366;&#24577;&#12290;</text></g><g class="entity" data-qualified-name="GMN19" data-source-line="32" id="ent0020"><path d="M83.4021,71.4583 L83.4021,126.875 A5.8333,5.8333 0 0 0 89.2354,132.7083 L335.6937,132.7083 A5.8333,5.8333 0 0 0 341.5271,126.875 L341.5271,80.2083 L326.9437,65.625 L89.2354,65.625 A5.8333,5.8333 0 0 0 83.4021,71.4583" fill="#F7F5F1" style="stroke:#B7AEA1;stroke-width:0.7292;"/><path d="M326.9437,65.625 L326.9437,77.2917 A2.9167,2.9167 0 0 0 329.8604,80.2083 L341.5271,80.2083 L326.9437,65.625" fill="#F7F5F1" style="stroke:#B7AEA1;stroke-width:1.4583;"/><text fill="#2D3135" font-family="'Helvetica'" font-size="17.5" lengthAdjust="spacing" textLength="196.405" x="107.6996" y="86.392">Bulk &#20869;&#23481;&#24517;&#39035;&#26049;&#36335;&#20256;&#36755;&#65307;</text><text fill="#2D3135" font-family="'Helvetica'" font-size="17.5" lengthAdjust="spacing" textLength="175" x="118.4021" y="103.892">&#20027;&#21327;&#35758;&#21482;&#21457;&#29616;&#21644;&#25480;&#26435;&#65292;</text><text fill="#2D3135" font-family="'Helvetica'" font-size="17.5" lengthAdjust="spacing" textLength="227.5" x="92.1521" y="121.392">&#19981;&#30452;&#25509;&#25215;&#36733;&#35270;&#39057;&#25110;&#28857;&#20113;&#26412;&#20307;&#12290;</text></g><!--link sampler to sub_state--><g class="link" data-entity-1="ent0003" data-entity-2="ent0007" data-link-type="dependency" data-source-line="17" id="lnk10"><path d="M317.6396,468.5042 C434.4375,472.2229 613.0294,477.9087 719.6044,481.3066" fill="none" id="sampler-to-sub_state" style="stroke:#5E6A71;stroke-width:1.6042;"/><polygon fill="#5E6A71" points="728.35,481.5854,715.4176,475.3368,721.062,481.3531,715.0458,486.9975,728.35,481.5854" style="stroke:#5E6A71;stroke-width:1.6042;"/><text fill="#243039" font-family="'Helvetica'" font-size="17.5" lengthAdjust="spacing" textLength="126.4819" x="470.3375" y="448.9045">StateSnapshot.*</text><text fill="#243039" font-family="'Helvetica'" font-size="17.5" lengthAdjust="spacing" textLength="209.1028" x="429.0271" y="466.4045">periodic / overwrite-friendly</text></g><!--link detector to sub_event--><g class="link" data-entity-1="ent0004" data-entity-2="ent0008" data-link-type="dependency" data-source-line="18" id="lnk11"><path d="M329.4375,602.2917 C445.9583,602.2917 614.2208,602.2917 717.5583,602.2917" fill="none" id="detector-to-sub_event" style="stroke:#5E6A71;stroke-width:1.6042;"/><polygon fill="#5E6A71" points="726.3083,602.2917,713.1833,596.4583,719.0167,602.2917,713.1833,608.125,726.3083,602.2917" style="stroke:#5E6A71;stroke-width:1.6042;"/><text fill="#243039" font-family="'Helvetica'" font-size="17.5" lengthAdjust="spacing" textLength="97.2839" x="484.955" y="579.3087">StateEvent.*</text><text fill="#243039" font-family="'Helvetica'" font-size="17.5" lengthAdjust="spacing" textLength="223.7231" x="421.7354" y="596.8087">discrete / sparse / high-value</text></g><!--link producer to sub_bulk--><g class="link" data-entity-1="ent0005" data-entity-2="ent0009" data-link-type="dependency" data-source-line="19" id="lnk12"><path d="M333.7104,737.3188 C438.1417,735.525 579.9659,733.0927 683.595,731.3281" fill="none" id="producer-to-sub_bulk" style="stroke:#5E6A71;stroke-width:1.6042;"/><polygon fill="#5E6A71" points="692.3438,731.1792,679.1213,725.5701,685.0531,731.3033,679.32,737.2351,692.3438,731.1792" style="stroke:#5E6A71;stroke-width:1.6042;"/><text fill="#243039" font-family="'Helvetica'" font-size="17.5" lengthAdjust="spacing" textLength="178.9734" x="443.8682" y="709.2024">BulkChannelDescriptor</text><text fill="#243039" font-family="'Helvetica'" font-size="17.5" lengthAdjust="spacing" textLength="215.9473" x="425.3812" y="726.7024">control plane discovery only</text></g><!--link detector to GMN16--><g class="link" data-entity-1="ent0004" data-entity-2="ent0017" data-link-type="association" data-source-line="27" id="lnk18"><path d="M95.5208,574.3792 C65.3333,560.3646 38.0625,539.4375 26.5271,508.2292 C9.3188,461.7229 9.3188,331.6104 26.5271,285.1042 C35.175,261.6979 53.5062,245.3937 75.425,234.0479" fill="none" id="detector-GMN16" style="stroke:#5E6A71;stroke-width:1.6042;stroke-dasharray:10.2083,10.2083;"/></g><!--link producer to GMN19--><g class="link" data-entity-1="ent0005" data-entity-2="ent0020" data-link-type="association" data-source-line="32" id="lnk21"><path d="M91.1167,709.3479 C62.6937,695.3771 37.5083,675.0042 26.5271,645.3125 C8.75,597.2896 8.75,232.5021 26.5271,184.4792 C36.2542,158.1708 57.6917,139.9708 82.6729,127.3854" fill="none" id="producer-GMN19" style="stroke:#5E6A71;stroke-width:1.6042;stroke-dasharray:10.2083,10.2083;"/></g><?plantuml-src ZPDRJnD15CVVzrECVJIfl1FI1z4ONvH8z8c4pEuExAJJcStiB8GO4oufvLAAbOj6G864ImYYYGHAeUN3k3FTFl4LdEbIg9UWJsswPt__opaDifZwaCCSOKuMkS26JdQOiv2wlOmm3aOzB91r3rE7X2u2WsCX9PXc1ttE17CO6HGUog47ECmHIs1146ZCdQZnYUR6TbGfHTNvwFn4Vu_hPusLeaNGa0220Ow7FG5Sp94ZCAEMvMjPE8n0wXNoiACfNU0vjHdaBkZ7Bag1dfvdA1GSaam6lBO0S5ZEPnHH0LBz5Fg1nmJe2ss20m_n0IhB-shzSxDGK9kdcaMWG8408nYDfW0CG01pFa5SK_k5VjH784MPpA_OnoFcevEP_zvSFfAB7sHnLJC3NLk0G827AIGjgek4piCCjfTHmHdvdVam95dm20KEnxuPxA2_VF5KGnqFKee8o241NIXWYwkxTaEdPTS0DFHDHsDFMji29eYkyZ_gCedxGzkOi15F-WZjmS3y_kz6_l8cQZLrTsZzB0Xp9YWBHPeDfMseJJlw3JFZG-7Tu6mptncrlQrqEjFXj1iaIQwt_-3-0FKHnyp5ZYwIZI0-olNjfeSuHjGbOzRDUjgSnFSrfnNEG5oiy-dHsnLt0K_VQte4aX1PDyjeKrfsku6nsvjixtR10zH9EW6-AHGOjd4s1XZLZYpAj8xDX60vm8RQPsdTN7HZUJ-gbfg51NbUbRKbERkWDYloSYhvZrrT5AseiY2ho-fjLLPseyguEjnIutjg9T_ykAvM2shzKCsiol9S_6LNbGxY-gSVuvEMhWCOvJ_qsmrPoUqdwl7MVbolTnx_hQwUK1ixQlv25ghogAXMZkNUfNPcHFFxpS9YOlHEqNQXLkjEv7HU7ft9otnpwrozduXFlqONct5zwUfYJMkUouN5-4ZRE92BvKRfctnNLAKPjJ5rRQcnTgnAEshsCgxLuhtfvdPPEsbCdaNLiguYgYrrEla9?></g></svg>