<?plantuml 1.2026.2?><svg xmlns="http://www.w3.org/2000/svg" xmlns:xlink="http://www.w3.org/1999/xlink" contentStyleType="text/css" data-diagram-type="DESCRIPTION" height="289px" preserveAspectRatio="none" style="width:927px;height:289px;background:#FFFFFF;" version="1.1" viewBox="0 0 927 289" width="927px" zoomAndPan="magnify"><title>&#29366;&#24577;&#38754;&#19982;&#20107;&#20214;&#38754;&#36793;&#30028;</title><defs/><g><g class="title" data-source-line="1"><text fill="#000000" font-family="sans-serif" font-size="14" font-weight="bold" lengthAdjust="spacing" textLength="126" x="393.75" y="23.5352">&#29366;&#24577;&#38754;&#19982;&#20107;&#20214;&#38754;&#36793;&#30028;</text></g><!--cluster Onboard / Vehicle Side--><g class="cluster" data-qualified-name="Onboard . Vehicle Side" data-source-line="6" id="ent0002"><rect fill="#F8F8F8" height="87.49" rx="2.5" ry="2.5" style="stroke:#181818;stroke-width:1;" width="396" x="250" y="44.4883"/><text fill="#000000" font-family="sans-serif" font-size="14" font-weight="bold" lengthAdjust="spacing" textLength="166.5371" x="364.7314" y="60.0234">Onboard / Vehicle Side</text></g><!--cluster Ground Station Side--><g class="cluster" data-qualified-name="Ground Station Side" data-source-line="12" id="ent0006"><rect fill="#F8F8F8" height="87.49" rx="2.5" ry="2.5" style="stroke:#181818;stroke-width:1;" width="478" x="215" y="195.9783"/><text fill="#000000" font-family="sans-serif" font-size="14" font-weight="bold" lengthAdjust="spacing" textLength="142.9326" x="382.5337" y="211.5134">Ground Station Side</text></g><!--entity sampler--><g class="entity" data-qualified-name="Onboard . Vehicle Side.sampler" data-source-line="7" id="ent0003"><rect fill="#D5E8D4" height="36.4883" rx="2.5" ry="2.5" style="stroke:#181818;stroke-width:0.5;" width="90" x="266" y="79.4883"/><text fill="#000000" font-family="sans-serif" font-size="14" lengthAdjust="spacing" textLength="70" x="276" y="103.0234">&#29366;&#24577;&#37319;&#26679;&#22120;</text></g><!--entity detector--><g class="entity" data-qualified-name="Onboard . Vehicle Side.detector" data-source-line="8" id="ent0004"><rect fill="#FCE5CD" height="36.4883" rx="2.5" ry="2.5" style="stroke:#181818;stroke-width:0.5;" width="90" x="540" y="79.4883"/><text fill="#000000" font-family="sans-serif" font-size="14" lengthAdjust="spacing" textLength="70" x="550" y="103.0234">&#20107;&#20214;&#26816;&#27979;&#22120;</text></g><!--entity producer--><g class="entity" data-qualified-name="Onboard . Vehicle Side.producer" data-source-line="9" id="ent0005"><rect fill="#E8F3FF" height="36.4883" rx="2.5" ry="2.5" style="stroke:#181818;stroke-width:0.5;" width="113.666" x="391.17" y="79.4883"/><text fill="#000000" font-family="sans-serif" font-size="14" lengthAdjust="spacing" textLength="93.666" x="401.17" y="103.0234">Bulk Producer</text></g><!--entity sub_state--><g class="entity" data-qualified-name="Ground Station Side.sub_state" data-source-line="13" id="ent0007"><rect fill="#D5E8D4" height="36.4883" rx="2.5" ry="2.5" style="stroke:#181818;stroke-width:0.5;" width="125.0068" x="231.5" y="230.9783"/><text fill="#000000" font-family="sans-serif" font-size="14" lengthAdjust="spacing" textLength="105.0068" x="241.5" y="254.5134">StateSubscriber</text></g><!--entity sub_event--><g class="entity" data-qualified-name="Ground Station Side.sub_event" data-source-line="14" id="ent0008"><rect fill="#FCE5CD" height="36.4883" rx="2.5" ry="2.5" style="stroke:#181818;stroke-width:0.5;" width="128.0215" x="548.99" y="230.9783"/><text fill="#000000" font-family="sans-serif" font-size="14" lengthAdjust="spacing" textLength="108.0215" x="558.99" y="254.5134">EventSubscriber</text></g><!--entity sub_bulk--><g class="entity" data-qualified-name="Ground Station Side.sub_bulk" data-source-line="15" id="ent0009"><rect fill="#E8F3FF" height="36.4883" rx="2.5" ry="2.5" style="stroke:#181818;stroke-width:0.5;" width="122.7988" x="391.6" y="230.9783"/><text fill="#000000" font-family="sans-serif" font-size="14" lengthAdjust="spacing" textLength="102.7988" x="401.6" y="254.5134">Bulk Consumer</text></g><g class="entity" data-qualified-name="GMN13" data-source-line="23" id="ent0014"><path d="M6,236.5683 L6,261.8788 A0,0 0 0 0 6,261.8788 L196,261.8788 A0,0 0 0 0 196,261.8788 L196,246.5683 L186,236.5683 L122.01,236.5683 L286.09,116.4683 L114.01,236.5683 L6,236.5683 A0,0 0 0 0 6,236.5683" fill="#FEFFDD" style="stroke:#181818;stroke-width:0.5;"/><path d="M186,236.5683 L186,246.5683 L196,246.5683 L186,236.5683" fill="#FEFFDD" style="stroke:#181818;stroke-width:0.5;"/><text fill="#000000" font-family="sans-serif" font-size="13" lengthAdjust="spacing" textLength="169" x="12" y="254.1366">&#24555;&#29031;&#19981;&#24212;&#25215;&#36733;&#19968;&#27425;&#24615;&#21578;&#35686;&#25991;&#26412;</text></g><g class="entity" data-qualified-name="GMN16" data-source-line="27" id="ent0017"><path d="M717.5,236.5683 L717.5,261.8788 L920.5,261.8788 L920.5,246.5683 L910.5,236.5683 L717.5,236.5683" fill="#FEFFDD" style="stroke:#181818;stroke-width:0.5;"/><path d="M910.5,236.5683 L910.5,246.5683 L920.5,246.5683 L910.5,236.5683" fill="#FEFFDD" style="stroke:#181818;stroke-width:1;"/><text fill="#000000" font-family="sans-serif" font-size="13" lengthAdjust="spacing" textLength="182" x="723.5" y="254.1366">&#20107;&#20214;&#19981;&#24212;&#29992;&#26469;&#37325;&#24314;&#23436;&#25972;&#23039;&#24577;&#29366;&#24577;</text></g><!--link sampler to sub_state--><g class="link" data-entity-1="ent0003" data-entity-2="ent0007" data-link-type="dependency" data-source-line="18" id="lnk10"><path d="M289.71,116.1083 C280.9,124.6683 271.66,135.7683 267,147.9783 C256.27,176.0983 268.062,204.9738 279.622,225.2838" fill="none" id="sampler-to-sub_state" style="stroke:#181818;stroke-width:1;"/><polygon fill="#181818" points="282.59,230.4983,281.6144,220.6979,280.1167,226.1529,274.6617,224.6552,282.59,230.4983" style="stroke:#181818;stroke-width:1;"/><text fill="#000000" font-family="sans-serif" font-size="13" lengthAdjust="spacing" textLength="168.0034" x="268" y="161.5466">StateSnapshot.VehicleCore</text><text fill="#000000" font-family="sans-serif" font-size="13" lengthAdjust="spacing" textLength="134.0879" x="284.9578" y="176.8572">&#21608;&#26399; / &#21487;&#35206;&#30422; / &#26368;&#26032;&#20540;</text></g><!--link detector to sub_event--><g class="link" data-entity-1="ent0004" data-entity-2="ent0008" data-link-type="dependency" data-source-line="19" id="lnk11"><path d="M594.77,116.4183 C599.33,125.5583 604.33,137.0683 607,147.9783 C613.92,176.2583 614.514,204.3103 613.994,224.5603" fill="none" id="detector-to-sub_event" style="stroke:#181818;stroke-width:1;"/><polygon fill="#181818" points="613.84,230.5583,618.0697,221.6639,613.9684,225.5599,610.0724,221.4586,613.84,230.5583" style="stroke:#181818;stroke-width:1;"/><text fill="#000000" font-family="sans-serif" font-size="13" lengthAdjust="spacing" textLength="148.3828" x="613" y="161.5466">StateEvent.VehicleEvent</text><text fill="#000000" font-family="sans-serif" font-size="13" lengthAdjust="spacing" textLength="134.0879" x="620.1475" y="176.8572">&#31163;&#25955; / &#31232;&#30095; / &#20851;&#38190;&#21464;&#21270;</text></g><!--link producer to sub_bulk--><g class="link" data-entity-1="ent0005" data-entity-2="ent0009" data-link-type="dependency" data-source-line="20" id="lnk12"><path d="M446.69,116.0483 C446.04,125.4783 445.32,137.3683 445,147.9783 C444.57,162.1983 444.17,165.7783 445,179.9783 C446.01,197.2483 447.6102,210.9059 449.5302,224.6559" fill="none" id="producer-to-sub_bulk" style="stroke:#181818;stroke-width:1;"/><polygon fill="#181818" points="450.36,230.5983,453.0769,221.1316,449.6685,225.6463,445.1538,222.2379,450.36,230.5983" style="stroke:#181818;stroke-width:1;"/><text fill="#000000" font-family="sans-serif" font-size="13" lengthAdjust="spacing" textLength="143.9712" x="452.0144" y="161.5466">BulkChannelDescriptor</text><text fill="#000000" font-family="sans-serif" font-size="13" lengthAdjust="spacing" textLength="156" x="446" y="176.8572">&#20027;&#21327;&#35758;&#21457;&#29616;&#65292;&#26049;&#36335;&#20256;&#36755;&#20869;&#23481;</text></g><!--link detector to GMN16--><g class="link" data-entity-1="ent0004" data-entity-2="ent0017" data-link-type="association" data-source-line="27" id="lnk18"><path d="M630.48,100.4383 C671.16,104.1783 730.34,115.3683 770,147.9783 C798.43,171.3583 811.65,215.2483 816.58,236.3283" fill="none" id="detector-GMN16" style="stroke:#181818;stroke-width:1;stroke-dasharray:7,7;"/></g><?plantuml-src VPBFRn915CVlyrTCu5mzQ1FIWmSNyAW9YISICxixXGtB3DaVDiQOR0-Ks4894L0ZZTL68B7I9cfBWPP_PcTsEValECkobCRQp6NcpVj-vdtVFBEWaH8oK56dIW6hK4PA8MTGcwWIrQa1j_AQXO6bMJg6tkuPTxPd1r_TuRuxsdF7PsBlNrruhIem8yv_2DVtPXwfT4iZERY9T7FrfYIKA8SprYlnc84L2v6SZW5On67iAP4fCbHu7px7UKqHMHbDnJ4OJoU21Ly3UAs3iKMzbGe_F6SV-p68J6YYOad71emdrrE9vCERWj0KFtBuxxr8e69B90WVyRIKMfUIDnMFRRq0dnbKjHLipFDBYmECfnBf1-aqUBDYuCcyBp1Z8KkZvExgWoISiMLJCJHv0JTj-OKPn6-lF_KI4-iM2GxYTnYGA37juef03g8h1gAkhQqzMgbX0uOr4bGoyzIwj_WKYHeuIrYZppkVnLUn-edVtV4-jSMUTnpUFcNE12pR6Y736XV8kP68DpzaYTSTyzQHW7XznslN0tBvvwmvOFKFhDe6oxv7mBc73HWObFA84AmdST2OadWrIzpXcDNg_a386zx-wPz9bR_VzizFtCcXV_MExPJPu080GeLDcLeMBKAw6GqFODFlNhdd3cjirEHlf_xbfJjq-F4NxlHOOzV_qUNj2kyS0op-Ea3y0uhSWt3YGfBNxFE3RxDAZOr7R53bhL-iDnK378xn4lON?></g></svg>