<?plantuml 1.2026.2?><svg xmlns="http://www.w3.org/2000/svg" xmlns:xlink="http://www.w3.org/1999/xlink" contentStyleType="text/css" data-diagram-type="DESCRIPTION" height="1292.0833px" preserveAspectRatio="none" style="width:777px;height:1292px;background:#FFFFFF;" version="1.1" viewBox="0 0 777 1292" width="777.2917px" zoomAndPan="magnify"><title>Yunlink Test World Map - Test Pyramid</title><defs/><g><g class="title" data-source-line="2"><text fill="#1F2A33" font-family="'Helvetica'" font-size="26.25" font-weight="bold" lengthAdjust="spacing" textLength="485.6891" x="135.7389" y="34.7963">Yunlink Test World Map - Test Pyramid</text></g><!--cluster Release confidence--><g class="cluster" data-qualified-name="Release confidence" data-source-line="4" id="ent0002"><rect fill="#EEF2F4" height="1216.25" rx="7.2917" ry="7.2917" style="stroke:#5E6A71;stroke-width:1.4583;" width="422.9167" x="10.2083" y="67.0833"/><text fill="#243039" font-family="'Helvetica'" font-size="18.9583" font-style="italic" lengthAdjust="spacing" textLength="82.2021" x="180.5656" y="84.5983">&#171;Neutral&#187;</text><text fill="#243039" font-family="'Helvetica'" font-size="18.9583" font-weight="bold" lengthAdjust="spacing" textLength="177.0216" x="133.1559" y="103.5566">Release confidence</text></g><!--entity L6--><g class="entity" data-qualified-name="Release confidence.L6" data-source-line="5" id="ent0003"><rect fill="#F6D8D5" height="86.0417" rx="7.2917" ry="7.2917" width="286.2891" x="82.8917" y="132.7083"/><text fill="#243039" font-family="'Helvetica'" font-size="18.9583" font-style="italic" lengthAdjust="spacing" textLength="57.9488" x="197.0618" y="161.89">&#171;Risk&#187;</text><text fill="#243039" font-family="'Helvetica'" font-size="18.9583" lengthAdjust="spacing" textLength="257.1224" x="97.475" y="180.8483">HIL / Real Vehicle Safety Gate</text><text fill="#243039" font-family="'Helvetica'" font-size="18.9583" lengthAdjust="spacing" textLength="64.2621" x="193.9052" y="199.8066">missing</text></g><!--entity L5--><g class="entity" data-qualified-name="Release confidence.L5" data-source-line="6" id="ent0004"><rect fill="#F6D8D5" height="86.0417" rx="7.2917" ry="7.2917" width="353.2264" x="49.4229" y="306.25"/><text fill="#243039" font-family="'Helvetica'" font-size="18.9583" font-style="italic" lengthAdjust="spacing" textLength="57.9488" x="197.0617" y="335.4316">&#171;Risk&#187;</text><text fill="#243039" font-family="'Helvetica'" font-size="18.9583" lengthAdjust="spacing" textLength="324.0598" x="64.0063" y="354.39">PX4 SITL + Sunray + Bridge + Ground</text><text fill="#243039" font-family="'Helvetica'" font-size="18.9583" lengthAdjust="spacing" textLength="64.2621" x="193.9051" y="373.3483">missing</text></g><!--entity L4--><g class="entity" data-qualified-name="Release confidence.L4" data-source-line="7" id="ent0005"><rect fill="#F6D8D5" height="86.0417" rx="7.2917" ry="7.2917" width="315.7541" x="65.2458" y="479.7917"/><text fill="#243039" font-family="'Helvetica'" font-size="18.9583" font-style="italic" lengthAdjust="spacing" textLength="57.9488" x="194.1485" y="508.9733">&#171;Risk&#187;</text><text fill="#243039" font-family="'Helvetica'" font-size="18.9583" lengthAdjust="spacing" textLength="286.5874" x="79.8292" y="527.9316">Long Soak / Weak Network Matrix</text><text fill="#243039" font-family="'Helvetica'" font-size="18.9583" lengthAdjust="spacing" textLength="186.547" x="129.8494" y="546.89">scaffolded, not proven</text></g><!--entity L3--><g class="entity" data-qualified-name="Release confidence.L3" data-source-line="8" id="ent0006"><rect fill="#DCECDD" height="86.0417" rx="7.2917" ry="7.2917" width="374.8045" x="34.2708" y="653.3333"/><text fill="#243039" font-family="'Helvetica'" font-size="18.9583" font-style="italic" lengthAdjust="spacing" textLength="113.8426" x="164.7518" y="682.515">&#171;StatePlane&#187;</text><text fill="#243039" font-family="'Helvetica'" font-size="18.9583" lengthAdjust="spacing" textLength="223.3899" x="109.9781" y="701.4733">Dual-host Semantic Suites</text><text fill="#243039" font-family="'Helvetica'" font-size="18.9583" lengthAdjust="spacing" textLength="345.6378" x="48.8542" y="720.4316">baseline / recovery / competition / routing</text></g><!--entity L2--><g class="entity" data-qualified-name="Release confidence.L2" data-source-line="9" id="ent0007"><rect fill="#DCECDD" height="86.0417" rx="7.2917" ry="7.2917" width="326.3256" x="58.5083" y="826.875"/><text fill="#243039" font-family="'Helvetica'" font-size="18.9583" font-style="italic" lengthAdjust="spacing" textLength="113.8426" x="164.7498" y="856.0566">&#171;StatePlane&#187;</text><text fill="#243039" font-family="'Helvetica'" font-size="18.9583" lengthAdjust="spacing" textLength="297.1589" x="73.0917" y="875.015">Single-host Interop and SDK Matrix</text><text fill="#243039" font-family="'Helvetica'" font-size="18.9583" lengthAdjust="spacing" textLength="165.4411" x="138.9506" y="893.9733">Rust / Python / C++</text></g><!--entity L1--><g class="entity" data-qualified-name="Release confidence.L1" data-source-line="10" id="ent0008"><rect fill="#F6E6BE" height="86.0417" rx="7.2917" ry="7.2917" width="294.6666" x="74.3313" y="1000.4167"/><text fill="#243039" font-family="'Helvetica'" font-size="18.9583" font-style="italic" lengthAdjust="spacing" textLength="82.2021" x="180.5635" y="1029.5983">&#171;Control&#187;</text><text fill="#243039" font-family="'Helvetica'" font-size="18.9583" lengthAdjust="spacing" textLength="265.5" x="88.9146" y="1048.5566">Runtime / Transport / ABI Tests</text><text fill="#243039" font-family="'Helvetica'" font-size="18.9583" lengthAdjust="spacing" textLength="109.5936" x="166.8678" y="1067.515">partial strong</text></g><!--entity L0--><g class="entity" data-qualified-name="Release confidence.L0" data-source-line="11" id="ent0009"><rect fill="#F6E6BE" height="86.0417" rx="7.2917" ry="7.2917" width="321.0213" x="61.1625" y="1173.9583"/><text fill="#243039" font-family="'Helvetica'" font-size="18.9583" font-style="italic" lengthAdjust="spacing" textLength="82.2021" x="180.5721" y="1203.14">&#171;Control&#187;</text><text fill="#243039" font-family="'Helvetica'" font-size="18.9583" lengthAdjust="spacing" textLength="291.8547" x="75.7458" y="1222.0983">Protocol Codec / Parser Unit Tests</text><text fill="#243039" font-family="'Helvetica'" font-size="18.9583" lengthAdjust="spacing" textLength="188.6299" x="127.3582" y="1241.0566">strongest current base</text></g><g class="entity" data-qualified-name="GMN16" data-source-line="22" id="ent0017"><path d="M456.3854,330.3125 L456.3854,343.4375 L403.0396,349.2708 L456.3854,355.1042 L456.3854,368.2292 A5.8333,5.8333 0 0 0 462.2187,374.0625 L748.2059,374.0625 A5.8333,5.8333 0 0 0 754.0392,368.2292 L754.0392,339.0625 L739.4559,324.4792 L462.2187,324.4792 A5.8333,5.8333 0 0 0 456.3854,330.3125" fill="#F7F5F1" style="stroke:#B7AEA1;stroke-width:0.7292;"/><path d="M739.4559,324.4792 L739.4559,336.1458 A2.9167,2.9167 0 0 0 742.3726,339.0625 L754.0392,339.0625 L739.4559,324.4792" fill="#F7F5F1" style="stroke:#B7AEA1;stroke-width:0.7292;"/><text fill="#2D3135" font-family="'Helvetica'" font-size="17.5" lengthAdjust="spacing" textLength="195.5078" x="500.8959" y="345.2462">This is the largest reason</text><text fill="#2D3135" font-family="'Helvetica'" font-size="17.5" lengthAdjust="spacing" textLength="267.0288" x="465.1354" y="362.7462">business coverage is still ~32/100.</text></g><g class="entity" data-qualified-name="GMN19" data-source-line="27" id="ent0020"><path d="M460.5271,668.6458 L460.5271,690.5208 L409.7625,696.3542 L460.5271,702.1875 L460.5271,724.0625 A5.8333,5.8333 0 0 0 466.3604,729.8958 L761.5419,729.8958 A5.8333,5.8333 0 0 0 767.3752,724.0625 L767.3752,677.3958 L752.7919,662.8125 L466.3604,662.8125 A5.8333,5.8333 0 0 0 460.5271,668.6458" fill="#F7F5F1" style="stroke:#B7AEA1;stroke-width:0.7292;"/><path d="M752.7919,662.8125 L752.7919,674.4792 A2.9167,2.9167 0 0 0 755.7086,677.3958 L767.3752,677.3958 L752.7919,662.8125" fill="#F7F5F1" style="stroke:#B7AEA1;stroke-width:0.7292;"/><text fill="#2D3135" font-family="'Helvetica'" font-size="17.5" lengthAdjust="spacing" textLength="218.8098" x="497.9837" y="683.5795">Office Wi-Fi dual-host suites</text><text fill="#2D3135" font-family="'Helvetica'" font-size="17.5" lengthAdjust="spacing" textLength="276.2231" x="469.2771" y="701.0795">prove important network semantics,</text><text fill="#2D3135" font-family="'Helvetica'" font-size="17.5" lengthAdjust="spacing" textLength="214.0247" x="500.3763" y="718.5795">but not real flight execution.</text></g><!--link L6 to L5--><g class="link" data-entity-1="ent0003" data-entity-2="ent0004" data-link-type="dependency" data-source-line="14" id="lnk10"><path d="M226.0417,219.3625 C226.0417,245.6125 226.0417,270.5063 226.0417,296.7854" fill="none" id="L6-to-L5" style="stroke:#5E6A71;stroke-width:1.6042;"/><polygon fill="#5E6A71" points="226.0417,305.5354,231.875,292.4104,226.0417,298.2438,220.2083,292.4104,226.0417,305.5354" style="stroke:#5E6A71;stroke-width:1.6042;"/></g><!--link L5 to L4--><g class="link" data-entity-1="ent0004" data-entity-2="ent0005" data-link-type="dependency" data-source-line="15" id="lnk11"><path d="M225.3271,392.9042 C224.875,419.1542 224.4373,444.0491 223.9998,470.3283" fill="none" id="L5-to-L4" style="stroke:#5E6A71;stroke-width:1.6042;"/><polygon fill="#5E6A71" points="223.8542,479.0771,229.9052,466.051,223.9755,471.7864,218.2401,465.8568,223.8542,479.0771" style="stroke:#5E6A71;stroke-width:1.6042;"/></g><!--link L4 to L3--><g class="link" data-entity-1="ent0005" data-entity-2="ent0006" data-link-type="dependency" data-source-line="16" id="lnk12"><path d="M222.7604,566.4458 C222.5417,592.6958 222.3228,617.5899 222.1041,643.8691" fill="none" id="L4-to-L3" style="stroke:#5E6A71;stroke-width:1.6042;"/><polygon fill="#5E6A71" points="222.0313,652.6188,227.9736,639.5428,222.0919,645.3273,216.3074,639.4456,222.0313,652.6188" style="stroke:#5E6A71;stroke-width:1.6042;"/></g><!--link L3 to L2--><g class="link" data-entity-1="ent0006" data-entity-2="ent0007" data-link-type="dependency" data-source-line="17" id="lnk13"><path d="M221.6667,739.9875 C221.6667,766.2375 221.6667,791.1313 221.6667,817.4104" fill="none" id="L3-to-L2" style="stroke:#5E6A71;stroke-width:1.6042;"/><polygon fill="#5E6A71" points="221.6667,826.1604,227.5,813.0354,221.6667,818.8688,215.8333,813.0354,221.6667,826.1604" style="stroke:#5E6A71;stroke-width:1.6042;"/></g><!--link L2 to L1--><g class="link" data-entity-1="ent0007" data-entity-2="ent0008" data-link-type="dependency" data-source-line="18" id="lnk14"><path d="M221.6667,913.5292 C221.6667,939.7792 221.6667,964.6729 221.6667,990.9521" fill="none" id="L2-to-L1" style="stroke:#5E6A71;stroke-width:1.6042;"/><polygon fill="#5E6A71" points="221.6667,999.7021,227.5,986.5771,221.6667,992.4104,215.8333,986.5771,221.6667,999.7021" style="stroke:#5E6A71;stroke-width:1.6042;"/></g><!--link L1 to L0--><g class="link" data-entity-1="ent0008" data-entity-2="ent0009" data-link-type="dependency" data-source-line="19" id="lnk15"><path d="M221.6667,1087.0708 C221.6667,1113.3208 221.6667,1138.2146 221.6667,1164.4937" fill="none" id="L1-to-L0" style="stroke:#5E6A71;stroke-width:1.6042;"/><polygon fill="#5E6A71" points="221.6667,1173.2437,227.5,1160.1187,221.6667,1165.9521,215.8333,1160.1187,221.6667,1173.2437" style="stroke:#5E6A71;stroke-width:1.6042;"/></g><?plantuml-src VPDlRzCm4CRV-rCSUxjrwzR1gwaIwyIeAADg2WDfKkKwb-OKvrpv3rk5uBDpIRh0XeOKARRZ_ExnFOz3HRpLNjVMcGfpM6jJRRnBd4-STHxkIugeNX4RctA4rIwn9QvMM--YCywkOear7bEghOeKBSAtRWSiCKIuTTxcy55lOT0jp7TIYtAbF9geUIC_72pGeWu8nd51ERB10xYukC4KlRRZCVnG07zjVp-TmGaiK5luWYKPMSjqWN47rphY7TSK0l7c07I0sHiXBIXKu_5JoFphEMJJvGmE8KlizKu6bvxo3ShWkct0CzBh5qWpnnl8dAv4r2tAwmRZlVELd3fwUhZZO7HHE9jZVWJi8aZhlYDtqFCNe5T9sq7ff64PrfeZ6P4fJeGxNakhfC4evUG7GVcT38shjoW6aEFcWqkn5pwI6bcKriojPdnUAQFctTMQSaJljg0vX-pgGt-2HPAF9-9TB5lyvF2mGv_z5xr88hnkX2wzvh1rlg6ylPosKP2ZIF0YYOqXUlUezbIG4yUoOl_nR9yvcBWSJID8-u0UFZF5HsI7Qf9calV84Pf-TUZX4_HFfIGTWzpTys0izYfnk9-TAx6cdusKDB6VdIavTpyxLIAvdmsL4eiHF6tA2AvekCkI0iWZDmMizgquBu5thDP9yeKXGEkZbl39lX39MlWrEZiv7GwF5OeP3NDFjbXqu97wL1Ha46vfy8uWxnCJsg2eDcP0TTDsIH3mFfPX7wXm9ELZcqZVtAN2jfhn0KrgOlIdycy0?></g></svg>