<?plantuml 1.2026.2?><svg xmlns="http://www.w3.org/2000/svg" xmlns:xlink="http://www.w3.org/1999/xlink" contentStyleType="text/css" data-diagram-type="DESCRIPTION" height="1831.6667px" preserveAspectRatio="none" style="width:1303px;height:1831px;background:#FFFFFF;" version="1.1" viewBox="0 0 1303 1831" width="1303.75px" zoomAndPan="magnify"><title>Yunlink Test World Map - System Boundary</title><defs/><g><g class="title" data-source-line="2"><text fill="#1F2A33" font-family="'Helvetica'" font-size="26.25" font-weight="bold" lengthAdjust="spacing" textLength="544.021" x="369.6562" y="34.7963">Yunlink Test World Map - System Boundary</text></g><!--cluster Ground Side--><g class="cluster" data-qualified-name="Ground Side" data-source-line="4" id="ent0002"><rect fill="#EEF2F4" height="348.5417" rx="7.2917" ry="7.2917" style="stroke:#5E6A71;stroke-width:1.4583;" width="376.25" x="10.2083" y="67.0833"/><text fill="#243039" font-family="'Helvetica'" font-size="18.9583" font-style="italic" lengthAdjust="spacing" textLength="82.2021" x="157.2323" y="84.5983">&#171;Neutral&#187;</text><text fill="#243039" font-family="'Helvetica'" font-size="18.9583" font-weight="bold" lengthAdjust="spacing" textLength="113.75" x="141.4583" y="103.5566">Ground Side</text></g><!--cluster Yunlink Core--><g class="cluster" data-qualified-name="Yunlink Core" data-source-line="10" id="ent0006"><rect fill="#F6E6BE" height="348.5417" rx="7.2917" ry="7.2917" style="stroke:#9A6B18;stroke-width:1.4583;" width="609.5833" x="380.625" y="450.625"/><text fill="#243039" font-family="'Helvetica'" font-size="18.9583" font-style="italic" lengthAdjust="spacing" textLength="82.2021" x="644.3156" y="468.14">&#171;Control&#187;</text><text fill="#243039" font-family="'Helvetica'" font-size="18.9583" font-weight="bold" lengthAdjust="spacing" textLength="116.9252" x="626.9541" y="487.0983">Yunlink Core</text></g><!--cluster Air Side--><g class="cluster" data-qualified-name="Air Side" data-source-line="17" id="ent0011"><rect fill="#EEF2F4" height="329.5833" rx="7.2917" ry="7.2917" style="stroke:#5E6A71;stroke-width:1.4583;" width="265.4167" x="832.7083" y="834.1667"/><text fill="#243039" font-family="'Helvetica'" font-size="18.9583" font-style="italic" lengthAdjust="spacing" textLength="82.2021" x="924.3156" y="851.6816">&#171;Neutral&#187;</text><text fill="#243039" font-family="'Helvetica'" font-size="18.9583" font-weight="bold" lengthAdjust="spacing" textLength="71.6399" x="929.5967" y="870.64">Air Side</text></g><!--cluster Sunray / PX4 World--><g class="cluster" data-qualified-name="Sunray . PX4 World" data-source-line="22" id="ent0014"><rect fill="#F6D8D5" height="503.125" rx="7.2917" ry="7.2917" style="stroke:#9A4D46;stroke-width:1.4583;" width="239.1667" x="845.8333" y="1198.75"/><text fill="#243039" font-family="'Helvetica'" font-size="18.9583" font-style="italic" lengthAdjust="spacing" textLength="57.9488" x="936.4423" y="1216.265">&#171;Risk&#187;</text><text fill="#243039" font-family="'Helvetica'" font-size="18.9583" font-weight="bold" lengthAdjust="spacing" textLength="174.874" x="877.9797" y="1235.2233">Sunray / PX4 World</text></g><!--cluster Test Infrastructure--><g class="cluster" data-qualified-name="Test Infrastructure" data-source-line="28" id="ent0018"><rect fill="#EEF2F4" height="156.0417" rx="7.2917" ry="7.2917" style="stroke:#5E6A71;stroke-width:1.4583;" width="873.5417" x="421.4583" y="76.5625"/><text fill="#243039" font-family="'Helvetica'" font-size="18.9583" font-style="italic" lengthAdjust="spacing" textLength="82.2021" x="817.1281" y="94.0775">&#171;Neutral&#187;</text><text fill="#243039" font-family="'Helvetica'" font-size="18.9583" font-weight="bold" lengthAdjust="spacing" textLength="167.5054" x="774.4765" y="113.0358">Test Infrastructure</text></g><!--entity RustSdk--><g class="entity" data-qualified-name="Ground Side.RustSdk" data-source-line="5" id="ent0003"><rect fill="#F6E6BE" height="86.0417" rx="5.8333" ry="5.8333" width="144.0182" x="32.9875" y="132.7083"/><text fill="#243039" font-family="'Helvetica'" font-size="18.9583" font-style="italic" lengthAdjust="spacing" textLength="82.2021" x="63.8956" y="161.89">&#171;Control&#187;</text><text fill="#243039" font-family="'Helvetica'" font-size="18.9583" lengthAdjust="spacing" textLength="83.2297" x="63.3818" y="180.8483">Rust SDK</text><text fill="#243039" font-family="'Helvetica'" font-size="18.9583" lengthAdjust="spacing" textLength="114.8516" x="47.5708" y="199.8066">Mission Logic</text></g><!--entity PySdk--><g class="entity" data-qualified-name="Ground Side.PySdk" data-source-line="6" id="ent0004"><rect fill="#F6E6BE" height="86.0417" rx="5.8333" ry="5.8333" width="134.5298" x="228.7833" y="132.7083"/><text fill="#243039" font-family="'Helvetica'" font-size="18.9583" font-style="italic" lengthAdjust="spacing" textLength="82.2021" x="254.9472" y="161.89">&#171;Control&#187;</text><text fill="#243039" font-family="'Helvetica'" font-size="18.9583" lengthAdjust="spacing" textLength="103.2711" x="244.4127" y="180.8483">Python SDK</text><text fill="#243039" font-family="'Helvetica'" font-size="18.9583" lengthAdjust="spacing" textLength="105.3632" x="243.3667" y="199.8066">Ops Helpers</text></g><!--entity Ffi--><g class="entity" data-qualified-name="Ground Side.Ffi" data-source-line="7" id="ent0005"><rect fill="#EEF2F4" height="86.0417" rx="5.8333" ry="5.8333" width="139.8156" x="223.2125" y="306.25"/><text fill="#243039" font-family="'Helvetica'" font-size="18.9583" font-style="italic" lengthAdjust="spacing" textLength="82.2021" x="252.0192" y="335.4316">&#171;Neutral&#187;</text><text fill="#243039" font-family="'Helvetica'" font-size="18.9583" lengthAdjust="spacing" textLength="93.7456" x="246.2475" y="354.39">C ABI / FFI</text><text fill="#243039" font-family="'Helvetica'" font-size="18.9583" lengthAdjust="spacing" textLength="110.6489" x="237.7958" y="373.3483">Loader Tests</text></g><!--entity Codec--><g class="entity" data-qualified-name="Yunlink Core.Codec" data-source-line="11" id="ent0007"><rect fill="#F6E6BE" height="86.0417" rx="5.8333" ry="5.8333" width="168.2901" x="624.6042" y="689.7917"/><text fill="#243039" font-family="'Helvetica'" font-size="18.9583" font-style="italic" lengthAdjust="spacing" textLength="82.2021" x="667.6481" y="718.9733">&#171;Control&#187;</text><text fill="#243039" font-family="'Helvetica'" font-size="18.9583" lengthAdjust="spacing" textLength="129.6165" x="643.941" y="737.9316">Protocol Codec</text><text fill="#243039" font-family="'Helvetica'" font-size="18.9583" lengthAdjust="spacing" textLength="139.1234" x="639.1875" y="756.89">SecureEnvelope</text></g><!--entity Runtime--><g class="entity" data-qualified-name="Yunlink Core.Runtime" data-source-line="12" id="ent0008"><rect fill="#F6E6BE" height="86.0417" rx="5.8333" ry="5.8333" width="187.2299" x="425.5563" y="516.25"/><text fill="#243039" font-family="'Helvetica'" font-size="18.9583" font-style="italic" lengthAdjust="spacing" textLength="82.2021" x="478.0701" y="545.4316">&#171;Control&#187;</text><text fill="#243039" font-family="'Helvetica'" font-size="18.9583" lengthAdjust="spacing" textLength="70.5939" x="483.8743" y="564.39">Runtime</text><text fill="#243039" font-family="'Helvetica'" font-size="18.9583" lengthAdjust="spacing" textLength="158.0633" x="440.1396" y="583.3483">Session / Authority</text></g><!--entity Transport--><g class="entity" data-qualified-name="Yunlink Core.Transport" data-source-line="13" id="ent0009"><rect fill="#F6E6BE" height="86.0417" rx="5.8333" ry="5.8333" width="122.9123" x="844.1708" y="689.7917"/><text fill="#243039" font-family="'Helvetica'" font-size="18.9583" font-style="italic" lengthAdjust="spacing" textLength="82.2021" x="864.5259" y="718.9733">&#171;Control&#187;</text><text fill="#243039" font-family="'Helvetica'" font-size="18.9583" lengthAdjust="spacing" textLength="81.1283" x="865.0628" y="737.9316">Transport</text><text fill="#243039" font-family="'Helvetica'" font-size="18.9583" lengthAdjust="spacing" textLength="93.7456" x="858.7542" y="756.89">TCP / UDP</text></g><!--entity Results--><g class="entity" data-qualified-name="Yunlink Core.Results" data-source-line="14" id="ent0010"><rect fill="#DCECDD" height="86.0417" rx="5.8333" ry="5.8333" width="170.3544" x="403.3604" y="689.7917"/><text fill="#243039" font-family="'Helvetica'" font-size="18.9583" font-style="italic" lengthAdjust="spacing" textLength="113.8426" x="431.6163" y="718.9733">&#171;StatePlane&#187;</text><text fill="#243039" font-family="'Helvetica'" font-size="18.9583" lengthAdjust="spacing" textLength="141.1877" x="417.9437" y="737.9316">CommandResult</text><text fill="#243039" font-family="'Helvetica'" font-size="18.9583" lengthAdjust="spacing" textLength="139.1234" x="418.9759" y="756.89">State Snapshots</text></g><!--entity CxxAir--><g class="entity" data-qualified-name="Air Side.CxxAir" data-source-line="18" id="ent0012"><rect fill="#F6E6BE" height="67.0833" rx="5.8333" ry="5.8333" width="169.2991" x="869.0938" y="899.7917"/><text fill="#243039" font-family="'Helvetica'" font-size="18.9583" font-style="italic" lengthAdjust="spacing" textLength="82.2021" x="912.6422" y="928.9733">&#171;Control&#187;</text><text fill="#243039" font-family="'Helvetica'" font-size="18.9583" lengthAdjust="spacing" textLength="140.1324" x="883.6771" y="947.9316">C++ Air Runtime</text></g><!--entity Bridge--><g class="entity" data-qualified-name="Air Side.Bridge" data-source-line="19" id="ent0013"><rect fill="#F6E6BE" height="86.0417" rx="5.8333" ry="5.8333" width="218.8703" x="855.9833" y="1054.375"/><text fill="#243039" font-family="'Helvetica'" font-size="18.9583" font-style="italic" lengthAdjust="spacing" textLength="82.2021" x="924.3174" y="1083.5566">&#171;Control&#187;</text><text fill="#243039" font-family="'Helvetica'" font-size="18.9583" lengthAdjust="spacing" textLength="189.7037" x="870.5667" y="1102.515">sunray_yunlink_bridge</text><text fill="#243039" font-family="'Helvetica'" font-size="18.9583" lengthAdjust="spacing" textLength="189.6759" x="870.5806" y="1121.4733">ROS1 Catkin Package</text></g><!--entity Sunray--><g class="entity" data-qualified-name="Sunray . PX4 World.Sunray" data-source-line="23" id="ent0015"><rect fill="#F6D8D5" height="86.0417" rx="5.8333" ry="5.8333" width="193.5432" x="868.6417" y="1264.375"/><text fill="#243039" font-family="'Helvetica'" font-size="18.9583" font-style="italic" lengthAdjust="spacing" textLength="57.9488" x="936.4389" y="1293.5566">&#171;Risk&#187;</text><text fill="#243039" font-family="'Helvetica'" font-size="18.9583" lengthAdjust="spacing" textLength="164.3765" x="883.225" y="1312.515">Sunray ROS Graph</text><text fill="#243039" font-family="'Helvetica'" font-size="18.9583" lengthAdjust="spacing" textLength="100.0959" x="915.3653" y="1331.4733">Real Topics</text></g><!--entity Sitl--><g class="entity" data-qualified-name="Sunray . PX4 World.Sitl" data-source-line="24" id="ent0016"><rect fill="#F6D8D5" height="67.0833" rx="5.8333" ry="5.8333" width="110.3043" x="910.2625" y="1437.9167"/><text fill="#243039" font-family="'Helvetica'" font-size="18.9583" font-style="italic" lengthAdjust="spacing" textLength="57.9488" x="936.4402" y="1467.0983">&#171;Risk&#187;</text><text fill="#243039" font-family="'Helvetica'" font-size="18.9583" lengthAdjust="spacing" textLength="81.1376" x="924.8458" y="1486.0566">PX4 SITL</text></g><!--entity Hil--><g class="entity" data-qualified-name="Sunray . PX4 World.Hil" data-source-line="25" id="ent0017"><rect fill="#F6D8D5" height="86.0417" rx="5.8333" ry="5.8333" width="180.9074" x="874.9563" y="1592.5"/><text fill="#243039" font-family="'Helvetica'" font-size="18.9583" font-style="italic" lengthAdjust="spacing" textLength="57.9488" x="936.4355" y="1621.6816">&#171;Risk&#187;</text><text fill="#243039" font-family="'Helvetica'" font-size="18.9583" lengthAdjust="spacing" textLength="151.7407" x="889.5396" y="1640.64">HIL / Real Vehicle</text><text fill="#243039" font-family="'Helvetica'" font-size="18.9583" lengthAdjust="spacing" textLength="100.1144" x="915.3527" y="1659.5983">Safety Gate</text></g><!--entity CI--><g class="entity" data-qualified-name="Test Infrastructure.CI" data-source-line="29" id="ent0019"><rect fill="#EEF2F4" height="67.0833" rx="5.8333" ry="5.8333" width="114.4884" x="444.4271" y="142.1875"/><text fill="#243039" font-family="'Helvetica'" font-size="18.9583" font-style="italic" lengthAdjust="spacing" textLength="82.2021" x="460.5702" y="171.3691">&#171;Neutral&#187;</text><text fill="#243039" font-family="'Helvetica'" font-size="18.9583" lengthAdjust="spacing" textLength="85.3218" x="459.0104" y="190.3275">CI / CTest</text></g><!--entity DualHost--><g class="entity" data-qualified-name="Test Infrastructure.DualHost" data-source-line="30" id="ent0020"><rect fill="#DCECDD" height="67.0833" rx="5.8333" ry="5.8333" width="214.5658" x="610.2104" y="142.1875"/><text fill="#243039" font-family="'Helvetica'" font-size="18.9583" font-style="italic" lengthAdjust="spacing" textLength="113.8426" x="660.572" y="171.3691">&#171;StatePlane&#187;</text><text fill="#243039" font-family="'Helvetica'" font-size="18.9583" lengthAdjust="spacing" textLength="185.3992" x="624.7937" y="190.3275">Dual-host Office Wi-Fi</text></g><!--entity Netem--><g class="entity" data-qualified-name="Test Infrastructure.Netem" data-source-line="31" id="ent0021"><rect fill="#F6D8D5" height="67.0833" rx="5.8333" ry="5.8333" width="150.3408" x="875.6563" y="142.1875"/><text fill="#243039" font-family="'Helvetica'" font-size="18.9583" font-style="italic" lengthAdjust="spacing" textLength="57.9488" x="921.8522" y="171.3691">&#171;Risk&#187;</text><text fill="#243039" font-family="'Helvetica'" font-size="18.9583" lengthAdjust="spacing" textLength="121.1741" x="890.2396" y="190.3275">netem Profiles</text></g><!--entity Soak--><g class="entity" data-qualified-name="Test Infrastructure.Soak" data-source-line="32" id="ent0022"><rect fill="#F6D8D5" height="67.0833" rx="5.8333" ry="5.8333" width="194.5985" x="1076.6583" y="142.1875"/><text fill="#243039" font-family="'Helvetica'" font-size="18.9583" font-style="italic" lengthAdjust="spacing" textLength="57.9488" x="1144.9832" y="171.3691">&#171;Risk&#187;</text><text fill="#243039" font-family="'Helvetica'" font-size="18.9583" lengthAdjust="spacing" textLength="165.4318" x="1091.2417" y="190.3275">Soak / Perf Reports</text></g><!--link RustSdk to Runtime--><g class="link" data-entity-1="ent0003" data-entity-2="ent0008" data-link-type="dependency" data-source-line="35" id="lnk23"><path d="M110.2208,219.45 C119.0875,274.1521 141.9833,369.2792 198.3333,427.2917 C259.1896,489.9417 345.7728,521.451 416.6478,538.7614" fill="none" id="RustSdk-to-Runtime" style="stroke:#5E6A71;stroke-width:1.6042;"/><polygon fill="#5E6A71" points="425.1479,540.8375,413.7817,532.0566,418.0645,539.1074,411.0137,543.3902,425.1479,540.8375" style="stroke:#5E6A71;stroke-width:1.6042;"/></g><!--link PySdk to Ffi--><g class="link" data-entity-1="ent0004" data-entity-2="ent0005" data-link-type="dependency" data-source-line="36" id="lnk24"><path d="M295.3271,219.3625 C294.875,245.6125 294.4373,270.5075 293.9998,296.7866" fill="none" id="PySdk-to-Ffi" style="stroke:#5E6A71;stroke-width:1.6042;"/><polygon fill="#5E6A71" points="293.8542,305.5354,299.9052,292.5093,293.9755,298.2448,288.2401,292.3151,293.8542,305.5354" style="stroke:#5E6A71;stroke-width:1.6042;"/></g><!--link Ffi to Runtime--><g class="link" data-entity-1="ent0005" data-entity-2="ent0008" data-link-type="dependency" data-source-line="37" id="lnk25"><path d="M338.8729,392.6417 C377.9563,428.4437 427.4756,473.8077 466.6464,509.6973" fill="none" id="Ffi-to-Runtime" style="stroke:#5E6A71;stroke-width:1.6042;"/><polygon fill="#5E6A71" points="473.0979,515.6083,467.3614,502.4407,467.7217,510.6824,459.48,511.0427,473.0979,515.6083" style="stroke:#5E6A71;stroke-width:1.6042;"/></g><!--link Runtime to Codec--><g class="link" data-entity-1="ent0008" data-entity-2="ent0007" data-link-type="dependency" data-source-line="38" id="lnk26"><path d="M566.0229,602.9042 C595.2042,629.1542 626.0792,656.9425 655.2605,683.2217" fill="none" id="Runtime-to-Codec" style="stroke:#5E6A71;stroke-width:1.6042;"/><polygon fill="#5E6A71" points="661.7625,689.0771,655.913,675.9593,656.3441,684.1976,648.1058,684.6287,661.7625,689.0771" style="stroke:#5E6A71;stroke-width:1.6042;"/></g><!--link Runtime to Transport--><g class="link" data-entity-1="ent0008" data-entity-2="ent0009" data-link-type="dependency" data-source-line="39" id="lnk27"><path d="M613.1271,600.2646 C672.2042,625.3917 749.9042,658.875 818.125,689.7917 C826.3938,693.5396 827.1497,693.8327 835.6955,697.8432" fill="none" id="Runtime-to-Transport" style="stroke:#5E6A71;stroke-width:1.6042;"/><polygon fill="#5E6A71" points="843.6167,701.5604,834.2131,690.7038,837.0157,698.4627,829.2568,701.2653,843.6167,701.5604" style="stroke:#5E6A71;stroke-width:1.6042;"/></g><!--link Runtime to Results--><g class="link" data-entity-1="ent0008" data-entity-2="ent0010" data-link-type="dependency" data-source-line="40" id="lnk28"><path d="M511.5979,602.9042 C506.8875,629.1542 502.3984,654.186 497.6734,680.4652" fill="none" id="Runtime-to-Results" style="stroke:#5E6A71;stroke-width:1.6042;"/><polygon fill="#5E6A71" points="496.125,689.0771,504.1889,677.1915,497.4154,681.9005,492.7064,675.1269,496.125,689.0771" style="stroke:#5E6A71;stroke-width:1.6042;"/></g><!--link Transport to CxxAir--><g class="link" data-entity-1="ent0009" data-entity-2="ent0012" data-link-type="dependency" data-source-line="41" id="lnk29"><path d="M917.9038,784.6848 C926.8434,821.3911 935.5052,856.9759 943.7156,890.6634" fill="none" id="Transport-CxxAir" style="stroke:#5E6A71;stroke-width:1.6042;"/><polygon fill="#5E6A71" points="915.8333,776.1833,913.2714,790.3159,917.5587,783.2679,924.6067,787.5553,915.8333,776.1833" style="stroke:#5E6A71;stroke-width:1.6042;"/><polygon fill="#5E6A71" points="945.7875,899.1646,948.347,885.0316,944.0609,892.0803,937.0122,887.7941,945.7875,899.1646" style="stroke:#5E6A71;stroke-width:1.6042;"/></g><!--link CxxAir to Bridge--><g class="link" data-entity-1="ent0012" data-entity-2="ent0013" data-link-type="dependency" data-source-line="42" id="lnk30"><path d="M956.7435,976.1272 C958.5518,1001.1376 959.7937,1018.4064 961.7625,1045.4439" fill="none" id="CxxAir-Bridge" style="stroke:#5E6A71;stroke-width:1.6042;"/><polygon fill="#5E6A71" points="956.1125,967.4,951.2409,980.9115,956.6383,974.6727,962.8772,980.0702,956.1125,967.4" style="stroke:#5E6A71;stroke-width:1.6042;"/><polygon fill="#5E6A71" points="962.3979,1054.1708,967.2627,1040.6569,961.8684,1046.8984,955.6268,1041.5041,962.3979,1054.1708" style="stroke:#5E6A71;stroke-width:1.6042;"/></g><!--link Bridge to Sunray--><g class="link" data-entity-1="ent0013" data-entity-2="ent0015" data-link-type="dependency" data-source-line="43" id="lnk31"><path d="M965.4167,1149.5167 C965.4167,1185.4354 965.4167,1219.4292 965.4167,1255.3479" fill="none" id="Bridge-Sunray" style="stroke:#5E6A71;stroke-width:1.6042;"/><polygon fill="#5E6A71" points="965.4167,1140.7667,959.5833,1153.8917,965.4167,1148.0583,971.25,1153.8917,965.4167,1140.7667" style="stroke:#5E6A71;stroke-width:1.6042;"/><polygon fill="#5E6A71" points="965.4167,1264.0979,971.25,1250.9729,965.4167,1256.8062,959.5833,1250.9729,965.4167,1264.0979" style="stroke:#5E6A71;stroke-width:1.6042;"/></g><!--link Sunray to Sitl--><g class="link" data-entity-1="ent0015" data-entity-2="ent0016" data-link-type="dependency" data-source-line="44" id="lnk32"><path d="M965.4167,1359.5167 C965.4167,1386.5688 965.4167,1403.7187 965.4167,1428.7" fill="none" id="Sunray-Sitl" style="stroke:#5E6A71;stroke-width:1.6042;"/><polygon fill="#5E6A71" points="965.4167,1350.7667,959.5833,1363.8917,965.4167,1358.0583,971.25,1363.8917,965.4167,1350.7667" style="stroke:#5E6A71;stroke-width:1.6042;"/><polygon fill="#5E6A71" points="965.4167,1437.45,971.25,1424.325,965.4167,1430.1583,959.5833,1424.325,965.4167,1437.45" style="stroke:#5E6A71;stroke-width:1.6042;"/></g><!--link Sitl to Hil--><g class="link" data-entity-1="ent0016" data-entity-2="ent0017" data-link-type="dependency" data-source-line="45" id="lnk33"><path d="M965.4167,1514.275 C965.4167,1539.2854 965.4167,1556.5083 965.4167,1583.5458" fill="none" id="Sitl-Hil" style="stroke:#5E6A71;stroke-width:1.6042;"/><polygon fill="#5E6A71" points="965.4167,1505.525,959.5833,1518.65,965.4167,1512.8167,971.25,1518.65,965.4167,1505.525" style="stroke:#5E6A71;stroke-width:1.6042;"/><polygon fill="#5E6A71" points="965.4167,1592.2958,971.25,1579.1708,965.4167,1585.0042,959.5833,1579.1708,965.4167,1592.2958" style="stroke:#5E6A71;stroke-width:1.6042;"/></g><!--link CI to Codec--><g class="link" data-entity-1="ent0019" data-entity-2="ent0007" data-link-type="dependency" data-source-line="47" id="lnk34"><path d="M522.1708,209.8396 C551.7312,258.1979 606.3313,352.4938 638.75,438.9583 C671.0958,525.2187 690.6264,622.908 700.5576,680.6143" fill="none" id="CI-to-Codec" style="stroke:#5E6A71;stroke-width:1.6042;"/><polygon fill="#5E6A71" points="702.0417,689.2375,705.5644,675.3133,700.805,682.0515,694.0668,677.292,702.0417,689.2375" style="stroke:#5E6A71;stroke-width:1.6042;"/></g><!--link CI to Runtime--><g class="link" data-entity-1="ent0019" data-entity-2="ent0008" data-link-type="dependency" data-source-line="48" id="lnk35"><path d="M503.1542,209.6354 C506.3187,278.4979 513.3114,430.4217 516.826,507.0134" fill="none" id="CI-to-Runtime" style="stroke:#5E6A71;stroke-width:1.6042;"/><polygon fill="#5E6A71" points="517.2271,515.7542,522.4526,502.3756,516.8928,508.4702,510.7982,502.9104,517.2271,515.7542" style="stroke:#5E6A71;stroke-width:1.6042;"/></g><!--link CI to Ffi--><g class="link" data-entity-1="ent0019" data-entity-2="ent0005" data-link-type="dependency" data-source-line="49" id="lnk36"><path d="M461.9562,209.6792 C428.6188,236.95 387.5721,270.5363 351.318,300.1988" fill="none" id="CI-to-Ffi" style="stroke:#5E6A71;stroke-width:1.6042;"/><polygon fill="#5E6A71" points="344.5458,305.7396,358.3979,301.9431,350.1893,301.1222,351.0101,292.9136,344.5458,305.7396" style="stroke:#5E6A71;stroke-width:1.6042;"/></g><!--link DualHost to Transport--><g class="link" data-entity-1="ent0020" data-entity-2="ent0009" data-link-type="dependency" data-source-line="50" id="lnk37"><path d="M728.5687,209.7812 C760.9,305.025 852.3829,574.5374 888.5058,680.9374" fill="none" id="DualHost-to-Transport" style="stroke:#5E6A71;stroke-width:1.6042;"/><polygon fill="#5E6A71" points="891.3188,689.2229,892.623,674.9193,888.9746,682.3183,881.5757,678.6699,891.3188,689.2229" style="stroke:#5E6A71;stroke-width:1.6042;"/></g><!--link DualHost to Runtime--><g class="link" data-entity-1="ent0020" data-entity-2="ent0008" data-link-type="dependency" data-source-line="51" id="lnk38"><path d="M700.5833,209.6354 C664.7083,278.4979 585.028,431.4024 545.128,507.994" fill="none" id="DualHost-to-Runtime" style="stroke:#5E6A71;stroke-width:1.6042;"/><polygon fill="#5E6A71" points="541.0854,515.7542,552.3228,506.809,544.4543,509.2874,541.9759,501.4189,541.0854,515.7542" style="stroke:#5E6A71;stroke-width:1.6042;"/></g><!--link Netem to Transport--><g class="link" data-entity-1="ent0021" data-entity-2="ent0009" data-link-type="dependency" data-source-line="52" id="lnk39"><path d="M948.1792,209.7812 C940.4063,305.025 918.455,574.1019 909.7779,680.5019" fill="none" id="Netem-to-Transport" style="stroke:#5E6A71;stroke-width:1.6042;"/><polygon fill="#5E6A71" points="909.0667,689.2229,915.9475,676.6155,909.6593,681.9554,904.3195,675.6672,909.0667,689.2229" style="stroke:#5E6A71;stroke-width:1.6042;"/></g><!--link Soak to Runtime--><g class="link" data-entity-1="ent0022" data-entity-2="ent0008" data-link-type="dependency" data-source-line="53" id="lnk40"><path d="M1117.5646,209.9708 C998.9146,278.95 731.1315,434.6048 599.444,511.1527" fill="none" id="Soak-to-Runtime" style="stroke:#5E6A71;stroke-width:1.6042;"/><polygon fill="#5E6A71" points="591.8792,515.55,606.1579,513.9972,598.1832,511.8856,600.2948,503.9108,591.8792,515.55" style="stroke:#5E6A71;stroke-width:1.6042;"/></g><!--link Soak to Bridge--><g class="link" data-entity-1="ent0022" data-entity-2="ent0013" data-link-type="dependency" data-source-line="54" id="lnk41"><path d="M1172.7042,209.7667 C1170.2833,275.5375 1165.2083,428.925 1165.2083,557.8125 C1165.2083,557.8125 1165.2083,557.8125 1165.2083,734.2708 C1165.2083,863.7562 1071.816,984.012 1013.2348,1047.4786" fill="none" id="Soak-to-Bridge" style="stroke:#5E6A71;stroke-width:1.6042;"/><polygon fill="#5E6A71" points="1007.3,1053.9083,1020.4886,1048.2203,1012.2456,1048.5502,1011.9157,1040.3073,1007.3,1053.9083" style="stroke:#5E6A71;stroke-width:1.6042;"/></g><g class="legend" data-source-line="56"><rect fill="#F7F5F1" height="75.8333" rx="5.8333" ry="5.8333" style="stroke:#B7AEA1;stroke-width:1.4583;" width="330.1345" x="935.6989" y="1726.6667"/><text fill="#243039" font-family="'Helvetica'" font-size="20.4167" lengthAdjust="spacing" textLength="315.5511" x="942.9905" y="1749.6796">Green: good engineering coverage</text><text fill="#243039" font-family="'Helvetica'" font-size="20.4167" lengthAdjust="spacing" textLength="310.9255" x="945.3033" y="1770.0962">Yellow: partial business semantics</text><text fill="#243039" font-family="'Helvetica'" font-size="20.4167" lengthAdjust="spacing" textLength="225.8394" x="987.8464" y="1790.5129">Red: major business gap</text></g><?plantuml-src XLNVJzim47xtNt7hA-hGf3qXX0HXfTKAL4qtXbG9cUIQU7Nio7PWqRJ_VMSxwHfOuJ5tzzsFxxvpx5QecXjUIPrjCOT7dcqBenkL9rfg0y-bSCW-29N99aTuQ1ibXTe-r4OxdMdvu4giyADeAicSS1BXFaR02gs3Esra3jUyXZ6ahNLOmOLFpatBcC7CSLKGPdGLIa8gSXp1wUaDDivmUNO6lnb0fgjQArGEHik6agQNNzVgMbWhj8AvBaGs0cx1-z9yI_14AsSqmOVWHUjAGWJuRMrXYh96OmDuqRu9JU3yOWR7C9dCrcgkUOuc31Z1autORvhz6SpM4v9e4uRRbNWvtABZb29ppDOgnQmn-4KzeTGrXah1SxZDPQESgD138pl7SDxGq4QujkCe11pEi39SsLeRjrQhP47uRvUBWDmvtY19LnLN-H9j8mcVEkuGKiLhM-gEgUYpb2Du5v8hV4NOkJ3lAo4vEW8Vs4qKsVdroviEDcWRPNYxq_2Z4Nb1P2rlqq-GS4Ud00lIFozYkelW7wGRDfg6V4JIuiVdA7NVybBOxUj-krYg1LU6roMLHIvXfMkHHMwwY3x12srGXNIsciT8EhG3STFPdFe9gRzZAJBfnS0tw5gu8i83V2hsqCE9mj7ErCPmwqoJkSQyimL_58b7nGNC1dSm2Brik1oNclBVRZOYGxWJuua8CE-QUiyBMGpm2lthGJUo4H8ZOpV1z7yYKistVZDeDaI75sx7ihVlJzy_6-FnMIyc5by3Rw7JPlwyzxtz4NbRECY1PNSe0sidVBPtHW4U5CjwuNfJL1thnUTDKHci5qWmaGHOr87_f9KoHkp_Qwdxw7lkFlquExQ7tGxCFImoF0mC3Eu7xGnTwqnYWVIQ6r6KZhPoPH3L2HHQvu2g40hH25NGjfxGqB5Ho3rAgPzFW7v5Jf1s7njBOTQ2HNfI79q81IqnFu6A_wJVqivVy9fHhLZnBm00?></g></svg>